%TF.GenerationSoftware,KiCad,Pcbnew,8.0.7*%
%TF.CreationDate,2025-03-24T14:38:58+07:00*%
%TF.ProjectId,esp32_getstok_testing,65737033-325f-4676-9574-73746f6b5f74,rev?*%
%TF.SameCoordinates,Original*%
%TF.FileFunction,Copper,L1,Top*%
%TF.FilePolarity,Positive*%
%FSLAX46Y46*%
G04 Gerber Fmt 4.6, Leading zero omitted, Abs format (unit mm)*
G04 Created by KiCad (PCBNEW 8.0.7) date 2025-03-24 14:38:58*
%MOMM*%
%LPD*%
G01*
G04 APERTURE LIST*
%TA.AperFunction,ComponentPad*%
%ADD10R,2.600000X2.600000*%
%TD*%
%TA.AperFunction,ComponentPad*%
%ADD11C,2.600000*%
%TD*%
%TA.AperFunction,ComponentPad*%
%ADD12C,10.600000*%
%TD*%
%TA.AperFunction,ComponentPad*%
%ADD13R,2.000000X2.000000*%
%TD*%
%TA.AperFunction,ComponentPad*%
%ADD14C,2.000000*%
%TD*%
%TA.AperFunction,SMDPad,CuDef*%
%ADD15C,1.500000*%
%TD*%
%TA.AperFunction,ComponentPad*%
%ADD16R,1.700000X1.700000*%
%TD*%
%TA.AperFunction,ComponentPad*%
%ADD17O,1.700000X1.700000*%
%TD*%
%TA.AperFunction,SMDPad,CuDef*%
%ADD18R,1.000000X1.500000*%
%TD*%
%TA.AperFunction,ComponentPad*%
%ADD19C,1.440000*%
%TD*%
%TA.AperFunction,SMDPad,CuDef*%
%ADD20R,1.500000X1.000000*%
%TD*%
%TA.AperFunction,ViaPad*%
%ADD21C,1.000000*%
%TD*%
%TA.AperFunction,Conductor*%
%ADD22C,0.300000*%
%TD*%
%TA.AperFunction,Conductor*%
%ADD23C,0.254000*%
%TD*%
%TA.AperFunction,Conductor*%
%ADD24C,0.500000*%
%TD*%
%TA.AperFunction,Conductor*%
%ADD25C,1.000000*%
%TD*%
G04 APERTURE END LIST*
D10*
%TO.P,J1,1,Pin_1*%
%TO.N,/Vin*%
X235500000Y-55500000D03*
D11*
%TO.P,J1,2,Pin_2*%
%TO.N,GND*%
X230500000Y-55500000D03*
%TD*%
D12*
%TO.P,H7,1,1*%
%TO.N,GND*%
X259000000Y-144000000D03*
%TD*%
%TO.P,H8,1,1*%
%TO.N,GND*%
X171000000Y-144000000D03*
%TD*%
D10*
%TO.P,J6,1,Pin_1*%
%TO.N,+4V*%
X169500000Y-133000000D03*
D11*
%TO.P,J6,2,Pin_2*%
%TO.N,GND*%
X169500000Y-128000000D03*
%TD*%
D10*
%TO.P,J9,1,Pin_1*%
%TO.N,+3.3V*%
X169500000Y-107500000D03*
D11*
%TO.P,J9,2,Pin_2*%
%TO.N,GND*%
X169500000Y-102500000D03*
%TD*%
D10*
%TO.P,J8,1,Pin_1*%
%TO.N,/Vin*%
X230000000Y-102500000D03*
D11*
%TO.P,J8,2,Pin_2*%
%TO.N,GND*%
X230000000Y-107500000D03*
%TD*%
D13*
%TO.P,U1,1,3V3*%
%TO.N,+3.3V*%
X184485000Y-88700000D03*
D14*
%TO.P,U1,2,GND*%
%TO.N,GND*%
X187025000Y-88700000D03*
%TO.P,U1,3,D15*%
%TO.N,unconnected-(U1-D15-Pad3)*%
X189565000Y-88700000D03*
%TO.P,U1,4,D2*%
%TO.N,unconnected-(U1-D2-Pad4)*%
X192105000Y-88700000D03*
%TO.P,U1,5,D4*%
%TO.N,unconnected-(U1-D4-Pad5)*%
X194645000Y-88700000D03*
%TO.P,U1,6,RX2*%
%TO.N,/RX2*%
X197185000Y-88700000D03*
%TO.P,U1,7,TX2*%
%TO.N,/TX2*%
X199725000Y-88700000D03*
%TO.P,U1,8,D5*%
%TO.N,unconnected-(U1-D5-Pad8)*%
X202265000Y-88700000D03*
%TO.P,U1,9,D18*%
%TO.N,unconnected-(U1-D18-Pad9)*%
X204805000Y-88700000D03*
%TO.P,U1,10,D19*%
%TO.N,unconnected-(U1-D19-Pad10)*%
X207345000Y-88700000D03*
%TO.P,U1,11,D21*%
%TO.N,unconnected-(U1-D21-Pad11)*%
X209885000Y-88700000D03*
%TO.P,U1,12,RX0*%
%TO.N,unconnected-(U1-RX0-Pad12)*%
X212425000Y-88700000D03*
%TO.P,U1,13,TX0*%
%TO.N,unconnected-(U1-TX0-Pad13)*%
X214965000Y-88700000D03*
%TO.P,U1,14,D22*%
%TO.N,/GPIO22*%
X217505000Y-88700000D03*
%TO.P,U1,15,D23*%
%TO.N,/GPIO23*%
X220045000Y-88700000D03*
%TO.P,U1,16,EN*%
%TO.N,unconnected-(U1-EN-Pad16)*%
X220045000Y-63300000D03*
%TO.P,U1,17,VP*%
%TO.N,unconnected-(U1-VP-Pad17)*%
X217505000Y-63300000D03*
%TO.P,U1,18,VN*%
%TO.N,unconnected-(U1-VN-Pad18)*%
X214965000Y-63300000D03*
%TO.P,U1,19,D34*%
%TO.N,/ADC_IN*%
X212425000Y-63300000D03*
%TO.P,U1,20,D35*%
%TO.N,unconnected-(U1-D35-Pad20)*%
X209885000Y-63300000D03*
%TO.P,U1,21,D32*%
%TO.N,unconnected-(U1-D32-Pad21)*%
X207345000Y-63300000D03*
%TO.P,U1,22,D33*%
%TO.N,unconnected-(U1-D33-Pad22)*%
X204805000Y-63300000D03*
%TO.P,U1,23,D25*%
%TO.N,unconnected-(U1-D25-Pad23)*%
X202265000Y-63300000D03*
%TO.P,U1,24,D26*%
%TO.N,unconnected-(U1-D26-Pad24)*%
X199725000Y-63300000D03*
%TO.P,U1,25,D27*%
%TO.N,unconnected-(U1-D27-Pad25)*%
X197185000Y-63300000D03*
%TO.P,U1,26,D14*%
%TO.N,unconnected-(U1-D14-Pad26)*%
X194645000Y-63300000D03*
%TO.P,U1,27,D12*%
%TO.N,unconnected-(U1-D12-Pad27)*%
X192105000Y-63300000D03*
%TO.P,U1,28,D13*%
%TO.N,unconnected-(U1-D13-Pad28)*%
X189565000Y-63300000D03*
%TO.P,U1,29,GND*%
%TO.N,GND*%
X187025000Y-63300000D03*
%TO.P,U1,30,VIN*%
%TO.N,unconnected-(U1-VIN-Pad30)*%
X184485000Y-63300000D03*
%TD*%
D15*
%TO.P,TP3,1,1*%
%TO.N,+4V*%
X169500000Y-123000000D03*
%TD*%
D10*
%TO.P,J4,1,Pin_1*%
%TO.N,/Vin*%
X230000000Y-128000000D03*
D11*
%TO.P,J4,2,Pin_2*%
%TO.N,GND*%
X230000000Y-133000000D03*
%TD*%
D16*
%TO.P,J7,1,Pin_1*%
%TO.N,+3.3V*%
X245880000Y-68500000D03*
D17*
%TO.P,J7,2,Pin_2*%
%TO.N,/RX_GPS*%
X248420000Y-68500000D03*
%TO.P,J7,3,Pin_3*%
%TO.N,/TX_GPS*%
X250960000Y-68500000D03*
%TO.P,J7,4,Pin_4*%
%TO.N,GND*%
X253500000Y-68500000D03*
%TD*%
D18*
%TO.P,JP4,1,A*%
%TO.N,/TX_GPS*%
X251200000Y-63000000D03*
%TO.P,JP4,2,C*%
%TO.N,/GPIO23*%
X252500000Y-63000000D03*
%TO.P,JP4,3,B*%
%TO.N,/RX_GPS*%
X253800000Y-63000000D03*
%TD*%
D19*
%TO.P,RV1,1,1*%
%TO.N,+3.3V*%
X224000000Y-55725000D03*
%TO.P,RV1,2,2*%
%TO.N,/ADC_IN*%
X221460000Y-55725000D03*
%TO.P,RV1,3,3*%
%TO.N,unconnected-(RV1-Pad3)*%
X218920000Y-55725000D03*
%TD*%
D10*
%TO.P,J2,1,Pin_1*%
%TO.N,/ADC_IN*%
X212500000Y-55500000D03*
D11*
%TO.P,J2,2,Pin_2*%
%TO.N,GND*%
X207500000Y-55500000D03*
%TD*%
D18*
%TO.P,JP3,1,A*%
%TO.N,/TX_GPS*%
X244900000Y-63000000D03*
%TO.P,JP3,2,C*%
%TO.N,/GPIO22*%
X246200000Y-63000000D03*
%TO.P,JP3,3,B*%
%TO.N,/RX_GPS*%
X247500000Y-63000000D03*
%TD*%
D15*
%TO.P,TP2,1,1*%
%TO.N,+3.3V*%
X169500000Y-113000000D03*
%TD*%
%TO.P,TP1,1,1*%
%TO.N,/ADC_IN*%
X202000000Y-55500000D03*
%TD*%
D16*
%TO.P,J10,1,Pin_1*%
%TO.N,+4V*%
X238000000Y-116000000D03*
D17*
%TO.P,J10,2,Pin_2*%
%TO.N,unconnected-(J10-Pin_2-Pad2)*%
X238000000Y-118540000D03*
%TO.P,J10,3,Pin_3*%
%TO.N,/RX_SIM*%
X238000000Y-121080000D03*
%TO.P,J10,4,Pin_4*%
%TO.N,/TX_SIM*%
X238000000Y-123620000D03*
%TO.P,J10,5,Pin_5*%
%TO.N,GND*%
X238000000Y-126160000D03*
%TD*%
D12*
%TO.P,H5,1,1*%
%TO.N,GND*%
X171000000Y-56000000D03*
%TD*%
D20*
%TO.P,JP2,1,A*%
%TO.N,/TX_SIM*%
X230500000Y-123300000D03*
%TO.P,JP2,2,C*%
%TO.N,/TX2*%
X230500000Y-122000000D03*
%TO.P,JP2,3,B*%
%TO.N,/RX_SIM*%
X230500000Y-120700000D03*
%TD*%
D12*
%TO.P,H6,1,1*%
%TO.N,GND*%
X259000000Y-56000000D03*
%TD*%
D20*
%TO.P,JP1,1,A*%
%TO.N,/TX_SIM*%
X230500000Y-118300000D03*
%TO.P,JP1,2,C*%
%TO.N,/RX2*%
X230500000Y-117000000D03*
%TO.P,JP1,3,B*%
%TO.N,/RX_SIM*%
X230500000Y-115700000D03*
%TD*%
D21*
%TO.N,/RX2*%
X232500000Y-117000000D03*
%TO.N,/TX2*%
X232500000Y-122000000D03*
%TO.N,/GPIO22*%
X235500000Y-91000000D03*
%TO.N,/GPIO23*%
X233950000Y-89050000D03*
X227500000Y-89050000D03*
%TO.N,/RX_GPS*%
X253800000Y-65100000D03*
X249826333Y-66085000D03*
%TO.N,/TX_GPS*%
X244900000Y-64950000D03*
X251200000Y-64900000D03*
%TO.N,+3.3V*%
X224000000Y-60500000D03*
%TD*%
D22*
%TO.N,/RX2*%
X230500000Y-117000000D02*
X232500000Y-117000000D01*
%TO.N,/TX2*%
X230500000Y-122000000D02*
X232500000Y-122000000D01*
%TO.N,/GPIO22*%
X235500000Y-70000000D02*
X235500000Y-91000000D01*
X246200000Y-61734000D02*
X246058000Y-61592000D01*
X246058000Y-61592000D02*
X243908000Y-61592000D01*
X246200000Y-63000000D02*
X246200000Y-61734000D01*
X243908000Y-61592000D02*
X235500000Y-70000000D01*
%TO.N,/GPIO23*%
X233950000Y-89050000D02*
X234000000Y-89000000D01*
X243000000Y-60500000D02*
X251266000Y-60500000D01*
X234000000Y-89000000D02*
X234000000Y-69500000D01*
X251266000Y-60500000D02*
X252500000Y-61734000D01*
X252500000Y-61734000D02*
X252500000Y-63000000D01*
X234000000Y-69500000D02*
X243000000Y-60500000D01*
X227500000Y-89050000D02*
X227500000Y-91000000D01*
D23*
%TO.N,/RX_GPS*%
X253800000Y-65100000D02*
X253800000Y-63000000D01*
X248420000Y-65870000D02*
X248635000Y-66085000D01*
X248635000Y-66085000D02*
X249826333Y-66085000D01*
X248420000Y-65870000D02*
X248420000Y-68500000D01*
X247500000Y-64950000D02*
X248420000Y-65870000D01*
X247500000Y-63000000D02*
X247500000Y-64950000D01*
%TO.N,/TX_GPS*%
X250960000Y-66140000D02*
X250960000Y-68500000D01*
X251200000Y-65900000D02*
X250960000Y-66140000D01*
X251200000Y-64900000D02*
X251200000Y-65900000D01*
X251200000Y-64900000D02*
X251200000Y-63000000D01*
X244900000Y-63000000D02*
X244900000Y-64950000D01*
D24*
%TO.N,+3.3V*%
X224000000Y-55725000D02*
X224000000Y-60500000D01*
D25*
%TO.N,/Vin*%
X230000000Y-66500000D02*
X230000000Y-102500000D01*
X235500000Y-61000000D02*
X230000000Y-66500000D01*
X235500000Y-55500000D02*
X235500000Y-61000000D01*
D24*
%TO.N,/ADC_IN*%
X220500000Y-60500000D02*
X221460000Y-59540000D01*
X202000000Y-55500000D02*
X202000000Y-60000000D01*
X212500000Y-60500000D02*
X220500000Y-60500000D01*
X202000000Y-60000000D02*
X202500000Y-60500000D01*
X212500000Y-60500000D02*
X212425000Y-60575000D01*
X212425000Y-60575000D02*
X212425000Y-63300000D01*
X221460000Y-59540000D02*
X221460000Y-55725000D01*
X212500000Y-60500000D02*
X212500000Y-55500000D01*
X202500000Y-60500000D02*
X212500000Y-60500000D01*
%TO.N,+3.3V*%
X184485000Y-91015000D02*
X184485000Y-88700000D01*
X174500000Y-107500000D02*
X176000000Y-106000000D01*
X178500000Y-92500000D02*
X183000000Y-92500000D01*
X183000000Y-92500000D02*
X184485000Y-91015000D01*
X169500000Y-107500000D02*
X174500000Y-107500000D01*
X169500000Y-107500000D02*
X169500000Y-113000000D01*
X176000000Y-95000000D02*
X178500000Y-92500000D01*
X176000000Y-106000000D02*
X176000000Y-95000000D01*
D22*
%TO.N,/RX_SIM*%
X231767246Y-115701246D02*
X233767617Y-115701246D01*
X235200000Y-120700000D02*
X230500000Y-120700000D01*
X238000000Y-121080000D02*
X235580000Y-121080000D01*
X231766000Y-115700000D02*
X231767246Y-115701246D01*
X230500000Y-115700000D02*
X231766000Y-115700000D01*
X235200000Y-117133629D02*
X235200000Y-120700000D01*
X235580000Y-121080000D02*
X235200000Y-120700000D01*
X233767617Y-115701246D02*
X235200000Y-117133629D01*
D25*
%TO.N,+4V*%
X234000000Y-113500000D02*
X227000000Y-113500000D01*
X176000000Y-119500000D02*
X176000000Y-123000000D01*
X222500000Y-118000000D02*
X177500000Y-118000000D01*
X169500000Y-123000000D02*
X176000000Y-123000000D01*
X227000000Y-113500000D02*
X222500000Y-118000000D01*
X177500000Y-118000000D02*
X176000000Y-119500000D01*
X176000000Y-123000000D02*
X176000000Y-130500000D01*
X238000000Y-116000000D02*
X236500000Y-116000000D01*
X176000000Y-130500000D02*
X173500000Y-133000000D01*
X236500000Y-116000000D02*
X234000000Y-113500000D01*
X173500000Y-133000000D02*
X169500000Y-133000000D01*
D22*
%TO.N,/TX_SIM*%
X227500000Y-122533730D02*
X227500000Y-119000000D01*
X238000000Y-123620000D02*
X235110539Y-123620000D01*
X228200000Y-118300000D02*
X230500000Y-118300000D01*
X230500000Y-123300000D02*
X228266270Y-123300000D01*
X227500000Y-119000000D02*
X228200000Y-118300000D01*
X235110539Y-123620000D02*
X234790539Y-123300000D01*
X228266270Y-123300000D02*
X227500000Y-122533730D01*
X234790539Y-123300000D02*
X230500000Y-123300000D01*
%TO.N,/GPIO23*%
X221000000Y-91500000D02*
X220045000Y-90545000D01*
X220045000Y-90545000D02*
X220045000Y-88700000D01*
X227500000Y-91000000D02*
X227000000Y-91500000D01*
X227000000Y-91500000D02*
X221000000Y-91500000D01*
X227500000Y-89000000D02*
X227500000Y-89050000D01*
%TD*%
M02*
