M48
; DRILL file {KiCad 8.0.7} date 2025-03-24T14:39:03+0700
; FORMAT={-:-/ absolute / inch / decimal}
; #@! TF.CreationDate,2025-03-24T14:39:03+07:00
; #@! TF.GenerationSoftware,Kicad,Pcbnew,8.0.7
; #@! TF.FileFunction,Plated,1,2,PTH
FMAT,2
INCH
; #@! TA.AperFunction,Plated,PTH,ViaDrill
T1C0.0236
; #@! TA.AperFunction,Plated,PTH,ComponentDrill
T2C0.0315
; #@! TA.AperFunction,Plated,PTH,ComponentDrill
T3C0.0394
; #@! TA.AperFunction,Plated,PTH,ComponentDrill
T4C0.0402
; #@! TA.AperFunction,Plated,PTH,ComponentDrill
T5C0.0512
; #@! TA.AperFunction,Plated,PTH,ComponentDrill
T6C0.2087
%
G90
G05
T1
X8.8189Y-2.3819
X8.9567Y-3.5059
X9.1535Y-4.6063
X9.1535Y-4.8031
X9.2106Y-3.5059
X9.2717Y-3.5827
X9.6417Y-2.5571
X9.8357Y-2.6018
X9.8898Y-2.5551
X9.9921Y-2.563
T2
X8.6189Y-2.1939
X8.7189Y-2.1939
X8.8189Y-2.1939
T3
X9.3701Y-4.5669
X9.3701Y-4.6669
X9.3701Y-4.7669
X9.3701Y-4.8669
X9.3701Y-4.9669
X9.6803Y-2.6969
X9.7803Y-2.6969
X9.8803Y-2.6969
X9.9803Y-2.6969
T4
X7.2632Y-2.4921
X7.2632Y-3.4921
X7.3632Y-2.4921
X7.3632Y-3.4921
X7.4632Y-2.4921
X7.4632Y-3.4921
X7.5632Y-2.4921
X7.5632Y-3.4921
X7.6632Y-2.4921
X7.6632Y-3.4921
X7.7632Y-2.4921
X7.7632Y-3.4921
X7.8632Y-2.4921
X7.8632Y-3.4921
X7.9632Y-2.4921
X7.9632Y-3.4921
X8.0632Y-2.4921
X8.0632Y-3.4921
X8.1632Y-2.4921
X8.1632Y-3.4921
X8.2632Y-2.4921
X8.2632Y-3.4921
X8.3632Y-2.4921
X8.3632Y-3.4921
X8.4632Y-2.4921
X8.4632Y-3.4921
X8.5632Y-2.4921
X8.5632Y-3.4921
X8.6632Y-2.4921
X8.6632Y-3.4921
T5
X6.6732Y-4.0354
X6.6732Y-4.2323
X6.6732Y-5.0394
X6.6732Y-5.2362
X8.1693Y-2.185
X8.3661Y-2.185
X9.0551Y-4.0354
X9.0551Y-4.2323
X9.0551Y-5.0394
X9.0551Y-5.2362
X9.0748Y-2.185
X9.2717Y-2.185
T6
X6.7323Y-2.2047
X6.7323Y-5.6693
X10.1969Y-2.2047
X10.1969Y-5.6693
M30
