%TF.GenerationSoftware,KiCad,Pcbnew,8.0.7*%
%TF.CreationDate,2025-03-24T14:38:58+07:00*%
%TF.ProjectId,esp32_getstok_testing,65737033-325f-4676-9574-73746f6b5f74,rev?*%
%TF.SameCoordinates,Original*%
%TF.FileFunction,Soldermask,Bot*%
%TF.FilePolarity,Negative*%
%FSLAX46Y46*%
G04 Gerber Fmt 4.6, Leading zero omitted, Abs format (unit mm)*
G04 Created by KiCad (PCBNEW 8.0.7) date 2025-03-24 14:38:58*
%MOMM*%
%LPD*%
G01*
G04 APERTURE LIST*
G04 Aperture macros list*
%AMRoundRect*
0 Rectangle with rounded corners*
0 $1 Rounding radius*
0 $2 $3 $4 $5 $6 $7 $8 $9 X,Y pos of 4 corners*
0 Add a 4 corners polygon primitive as box body*
4,1,4,$2,$3,$4,$5,$6,$7,$8,$9,$2,$3,0*
0 Add four circle primitives for the rounded corners*
1,1,$1+$1,$2,$3*
1,1,$1+$1,$4,$5*
1,1,$1+$1,$6,$7*
1,1,$1+$1,$8,$9*
0 Add four rect primitives between the rounded corners*
20,1,$1+$1,$2,$3,$4,$5,0*
20,1,$1+$1,$4,$5,$6,$7,0*
20,1,$1+$1,$6,$7,$8,$9,0*
20,1,$1+$1,$8,$9,$2,$3,0*%
G04 Aperture macros list end*
%ADD10R,2.600000X2.600000*%
%ADD11C,2.600000*%
%ADD12C,10.600000*%
%ADD13C,3.000000*%
%ADD14RoundRect,0.102000X1.000000X-1.000000X1.000000X1.000000X-1.000000X1.000000X-1.000000X-1.000000X0*%
%ADD15C,2.204000*%
%ADD16C,3.200000*%
%ADD17R,1.700000X1.700000*%
%ADD18O,1.700000X1.700000*%
%ADD19C,1.440000*%
G04 APERTURE END LIST*
D10*
%TO.C,J1*%
X235500000Y-55500000D03*
D11*
X230500000Y-55500000D03*
%TD*%
D12*
%TO.C,H7*%
X259000000Y-144000000D03*
%TD*%
%TO.C,H8*%
X171000000Y-144000000D03*
%TD*%
D10*
%TO.C,J6*%
X169500000Y-133000000D03*
D11*
X169500000Y-128000000D03*
%TD*%
D10*
%TO.C,J9*%
X169500000Y-107500000D03*
D11*
X169500000Y-102500000D03*
%TD*%
D10*
%TO.C,J8*%
X230000000Y-102500000D03*
D11*
X230000000Y-107500000D03*
%TD*%
D13*
%TO.C,U1*%
X176525000Y-88280000D03*
X223475000Y-88280000D03*
X176525000Y-63770000D03*
X223475000Y-63770000D03*
D14*
X184485000Y-88700000D03*
D15*
X187025000Y-88700000D03*
X189565000Y-88700000D03*
X192105000Y-88700000D03*
X194645000Y-88700000D03*
X197185000Y-88700000D03*
X199725000Y-88700000D03*
X202265000Y-88700000D03*
X204805000Y-88700000D03*
X207345000Y-88700000D03*
X209885000Y-88700000D03*
X212425000Y-88700000D03*
X214965000Y-88700000D03*
X217505000Y-88700000D03*
X220045000Y-88700000D03*
X220045000Y-63300000D03*
X217505000Y-63300000D03*
X214965000Y-63300000D03*
X212425000Y-63300000D03*
X209885000Y-63300000D03*
X207345000Y-63300000D03*
X204805000Y-63300000D03*
X202265000Y-63300000D03*
X199725000Y-63300000D03*
X197185000Y-63300000D03*
X194645000Y-63300000D03*
X192105000Y-63300000D03*
X189565000Y-63300000D03*
X187025000Y-63300000D03*
X184485000Y-63300000D03*
%TD*%
D10*
%TO.C,J4*%
X230000000Y-128000000D03*
D11*
X230000000Y-133000000D03*
%TD*%
D16*
%TO.C,H1*%
X185500000Y-123500000D03*
%TD*%
D17*
%TO.C,J7*%
X245880000Y-68500000D03*
D18*
X248420000Y-68500000D03*
X250960000Y-68500000D03*
X253500000Y-68500000D03*
%TD*%
D16*
%TO.C,H2*%
X214000000Y-137500000D03*
%TD*%
%TO.C,H4*%
X214000000Y-112000000D03*
%TD*%
D19*
%TO.C,RV1*%
X224000000Y-55725000D03*
X221460000Y-55725000D03*
X218920000Y-55725000D03*
%TD*%
D10*
%TO.C,J2*%
X212500000Y-55500000D03*
D11*
X207500000Y-55500000D03*
%TD*%
D17*
%TO.C,J10*%
X238000000Y-116000000D03*
D18*
X238000000Y-118540000D03*
X238000000Y-121080000D03*
X238000000Y-123620000D03*
X238000000Y-126160000D03*
%TD*%
D12*
%TO.C,H5*%
X171000000Y-56000000D03*
%TD*%
%TO.C,H6*%
X259000000Y-56000000D03*
%TD*%
D16*
%TO.C,H3*%
X185500000Y-98000000D03*
%TD*%
M02*
