%TF.GenerationSoftware,KiCad,Pcbnew,8.0.7*%
%TF.CreationDate,2025-03-24T14:38:58+07:00*%
%TF.ProjectId,esp32_getstok_testing,65737033-325f-4676-9574-73746f6b5f74,rev?*%
%TF.SameCoordinates,Original*%
%TF.FileFunction,Legend,Top*%
%TF.FilePolarity,Positive*%
%FSLAX46Y46*%
G04 Gerber Fmt 4.6, Leading zero omitted, Abs format (unit mm)*
G04 Created by KiCad (PCBNEW 8.0.7) date 2025-03-24 14:38:58*
%MOMM*%
%LPD*%
G01*
G04 APERTURE LIST*
%ADD10C,0.100000*%
%ADD11C,0.200000*%
%ADD12C,0.150000*%
%ADD13C,0.300000*%
%ADD14C,0.120000*%
%ADD15C,0.000000*%
%ADD16C,0.127000*%
G04 APERTURE END LIST*
D10*
X236500000Y-66500000D02*
X262500000Y-66500000D01*
X262500000Y-102500000D01*
X236500000Y-102500000D01*
X236500000Y-66500000D01*
X236500000Y-109500000D02*
X262500000Y-109500000D01*
X262500000Y-132500000D01*
X236500000Y-132500000D01*
X236500000Y-109500000D01*
X177750000Y-94500000D02*
X221750000Y-94500000D01*
X221750000Y-115500000D01*
X177750000Y-115500000D01*
X177750000Y-94500000D01*
D11*
X191000000Y-58000000D02*
X191000000Y-53000000D01*
D10*
X177750000Y-120000000D02*
X221750000Y-120000000D01*
X221750000Y-141000000D01*
X177750000Y-141000000D01*
X177750000Y-120000000D01*
X251301503Y-60872419D02*
X251301503Y-59872419D01*
X251301503Y-59872419D02*
X251539598Y-59872419D01*
X251539598Y-59872419D02*
X251682455Y-59920038D01*
X251682455Y-59920038D02*
X251777693Y-60015276D01*
X251777693Y-60015276D02*
X251825312Y-60110514D01*
X251825312Y-60110514D02*
X251872931Y-60300990D01*
X251872931Y-60300990D02*
X251872931Y-60443847D01*
X251872931Y-60443847D02*
X251825312Y-60634323D01*
X251825312Y-60634323D02*
X251777693Y-60729561D01*
X251777693Y-60729561D02*
X251682455Y-60824800D01*
X251682455Y-60824800D02*
X251539598Y-60872419D01*
X251539598Y-60872419D02*
X251301503Y-60872419D01*
X252253884Y-59967657D02*
X252301503Y-59920038D01*
X252301503Y-59920038D02*
X252396741Y-59872419D01*
X252396741Y-59872419D02*
X252634836Y-59872419D01*
X252634836Y-59872419D02*
X252730074Y-59920038D01*
X252730074Y-59920038D02*
X252777693Y-59967657D01*
X252777693Y-59967657D02*
X252825312Y-60062895D01*
X252825312Y-60062895D02*
X252825312Y-60158133D01*
X252825312Y-60158133D02*
X252777693Y-60300990D01*
X252777693Y-60300990D02*
X252206265Y-60872419D01*
X252206265Y-60872419D02*
X252825312Y-60872419D01*
X253158646Y-59872419D02*
X253777693Y-59872419D01*
X253777693Y-59872419D02*
X253444360Y-60253371D01*
X253444360Y-60253371D02*
X253587217Y-60253371D01*
X253587217Y-60253371D02*
X253682455Y-60300990D01*
X253682455Y-60300990D02*
X253730074Y-60348609D01*
X253730074Y-60348609D02*
X253777693Y-60443847D01*
X253777693Y-60443847D02*
X253777693Y-60681942D01*
X253777693Y-60681942D02*
X253730074Y-60777180D01*
X253730074Y-60777180D02*
X253682455Y-60824800D01*
X253682455Y-60824800D02*
X253587217Y-60872419D01*
X253587217Y-60872419D02*
X253301503Y-60872419D01*
X253301503Y-60872419D02*
X253206265Y-60824800D01*
X253206265Y-60824800D02*
X253158646Y-60777180D01*
X228872419Y-117324687D02*
X228396228Y-117658020D01*
X228872419Y-117896115D02*
X227872419Y-117896115D01*
X227872419Y-117896115D02*
X227872419Y-117515163D01*
X227872419Y-117515163D02*
X227920038Y-117419925D01*
X227920038Y-117419925D02*
X227967657Y-117372306D01*
X227967657Y-117372306D02*
X228062895Y-117324687D01*
X228062895Y-117324687D02*
X228205752Y-117324687D01*
X228205752Y-117324687D02*
X228300990Y-117372306D01*
X228300990Y-117372306D02*
X228348609Y-117419925D01*
X228348609Y-117419925D02*
X228396228Y-117515163D01*
X228396228Y-117515163D02*
X228396228Y-117896115D01*
X227872419Y-116991353D02*
X228872419Y-116324687D01*
X227872419Y-116324687D02*
X228872419Y-116991353D01*
X227967657Y-115991353D02*
X227920038Y-115943734D01*
X227920038Y-115943734D02*
X227872419Y-115848496D01*
X227872419Y-115848496D02*
X227872419Y-115610401D01*
X227872419Y-115610401D02*
X227920038Y-115515163D01*
X227920038Y-115515163D02*
X227967657Y-115467544D01*
X227967657Y-115467544D02*
X228062895Y-115419925D01*
X228062895Y-115419925D02*
X228158133Y-115419925D01*
X228158133Y-115419925D02*
X228300990Y-115467544D01*
X228300990Y-115467544D02*
X228872419Y-116038972D01*
X228872419Y-116038972D02*
X228872419Y-115419925D01*
D12*
X253002438Y-72666666D02*
X252954819Y-72761904D01*
X252954819Y-72761904D02*
X252954819Y-72904761D01*
X252954819Y-72904761D02*
X253002438Y-73047618D01*
X253002438Y-73047618D02*
X253097676Y-73142856D01*
X253097676Y-73142856D02*
X253192914Y-73190475D01*
X253192914Y-73190475D02*
X253383390Y-73238094D01*
X253383390Y-73238094D02*
X253526247Y-73238094D01*
X253526247Y-73238094D02*
X253716723Y-73190475D01*
X253716723Y-73190475D02*
X253811961Y-73142856D01*
X253811961Y-73142856D02*
X253907200Y-73047618D01*
X253907200Y-73047618D02*
X253954819Y-72904761D01*
X253954819Y-72904761D02*
X253954819Y-72809523D01*
X253954819Y-72809523D02*
X253907200Y-72666666D01*
X253907200Y-72666666D02*
X253859580Y-72619047D01*
X253859580Y-72619047D02*
X253526247Y-72619047D01*
X253526247Y-72619047D02*
X253526247Y-72809523D01*
X253954819Y-72190475D02*
X252954819Y-72190475D01*
X252954819Y-72190475D02*
X253954819Y-71619047D01*
X253954819Y-71619047D02*
X252954819Y-71619047D01*
X253954819Y-71142856D02*
X252954819Y-71142856D01*
X252954819Y-71142856D02*
X252954819Y-70904761D01*
X252954819Y-70904761D02*
X253002438Y-70761904D01*
X253002438Y-70761904D02*
X253097676Y-70666666D01*
X253097676Y-70666666D02*
X253192914Y-70619047D01*
X253192914Y-70619047D02*
X253383390Y-70571428D01*
X253383390Y-70571428D02*
X253526247Y-70571428D01*
X253526247Y-70571428D02*
X253716723Y-70619047D01*
X253716723Y-70619047D02*
X253811961Y-70666666D01*
X253811961Y-70666666D02*
X253907200Y-70761904D01*
X253907200Y-70761904D02*
X253954819Y-70904761D01*
X253954819Y-70904761D02*
X253954819Y-71142856D01*
X240738095Y-125502438D02*
X240642857Y-125454819D01*
X240642857Y-125454819D02*
X240500000Y-125454819D01*
X240500000Y-125454819D02*
X240357143Y-125502438D01*
X240357143Y-125502438D02*
X240261905Y-125597676D01*
X240261905Y-125597676D02*
X240214286Y-125692914D01*
X240214286Y-125692914D02*
X240166667Y-125883390D01*
X240166667Y-125883390D02*
X240166667Y-126026247D01*
X240166667Y-126026247D02*
X240214286Y-126216723D01*
X240214286Y-126216723D02*
X240261905Y-126311961D01*
X240261905Y-126311961D02*
X240357143Y-126407200D01*
X240357143Y-126407200D02*
X240500000Y-126454819D01*
X240500000Y-126454819D02*
X240595238Y-126454819D01*
X240595238Y-126454819D02*
X240738095Y-126407200D01*
X240738095Y-126407200D02*
X240785714Y-126359580D01*
X240785714Y-126359580D02*
X240785714Y-126026247D01*
X240785714Y-126026247D02*
X240595238Y-126026247D01*
X241214286Y-126454819D02*
X241214286Y-125454819D01*
X241214286Y-125454819D02*
X241785714Y-126454819D01*
X241785714Y-126454819D02*
X241785714Y-125454819D01*
X242261905Y-126454819D02*
X242261905Y-125454819D01*
X242261905Y-125454819D02*
X242500000Y-125454819D01*
X242500000Y-125454819D02*
X242642857Y-125502438D01*
X242642857Y-125502438D02*
X242738095Y-125597676D01*
X242738095Y-125597676D02*
X242785714Y-125692914D01*
X242785714Y-125692914D02*
X242833333Y-125883390D01*
X242833333Y-125883390D02*
X242833333Y-126026247D01*
X242833333Y-126026247D02*
X242785714Y-126216723D01*
X242785714Y-126216723D02*
X242738095Y-126311961D01*
X242738095Y-126311961D02*
X242642857Y-126407200D01*
X242642857Y-126407200D02*
X242500000Y-126454819D01*
X242500000Y-126454819D02*
X242261905Y-126454819D01*
D10*
X227872419Y-122838972D02*
X227872419Y-122267544D01*
X228872419Y-122553258D02*
X227872419Y-122553258D01*
X227872419Y-122029448D02*
X228872419Y-121362782D01*
X227872419Y-121362782D02*
X228872419Y-122029448D01*
X227967657Y-121029448D02*
X227920038Y-120981829D01*
X227920038Y-120981829D02*
X227872419Y-120886591D01*
X227872419Y-120886591D02*
X227872419Y-120648496D01*
X227872419Y-120648496D02*
X227920038Y-120553258D01*
X227920038Y-120553258D02*
X227967657Y-120505639D01*
X227967657Y-120505639D02*
X228062895Y-120458020D01*
X228062895Y-120458020D02*
X228158133Y-120458020D01*
X228158133Y-120458020D02*
X228300990Y-120505639D01*
X228300990Y-120505639D02*
X228872419Y-121077067D01*
X228872419Y-121077067D02*
X228872419Y-120458020D01*
D12*
X240761904Y-115788152D02*
X240761904Y-116454819D01*
X240523809Y-115407200D02*
X240285714Y-116121485D01*
X240285714Y-116121485D02*
X240904761Y-116121485D01*
X241142857Y-115454819D02*
X241476190Y-116454819D01*
X241476190Y-116454819D02*
X241809523Y-115454819D01*
X245454819Y-73476189D02*
X245454819Y-72857142D01*
X245454819Y-72857142D02*
X245835771Y-73190475D01*
X245835771Y-73190475D02*
X245835771Y-73047618D01*
X245835771Y-73047618D02*
X245883390Y-72952380D01*
X245883390Y-72952380D02*
X245931009Y-72904761D01*
X245931009Y-72904761D02*
X246026247Y-72857142D01*
X246026247Y-72857142D02*
X246264342Y-72857142D01*
X246264342Y-72857142D02*
X246359580Y-72904761D01*
X246359580Y-72904761D02*
X246407200Y-72952380D01*
X246407200Y-72952380D02*
X246454819Y-73047618D01*
X246454819Y-73047618D02*
X246454819Y-73333332D01*
X246454819Y-73333332D02*
X246407200Y-73428570D01*
X246407200Y-73428570D02*
X246359580Y-73476189D01*
X246359580Y-72428570D02*
X246407200Y-72380951D01*
X246407200Y-72380951D02*
X246454819Y-72428570D01*
X246454819Y-72428570D02*
X246407200Y-72476189D01*
X246407200Y-72476189D02*
X246359580Y-72428570D01*
X246359580Y-72428570D02*
X246454819Y-72428570D01*
X245454819Y-72047618D02*
X245454819Y-71428571D01*
X245454819Y-71428571D02*
X245835771Y-71761904D01*
X245835771Y-71761904D02*
X245835771Y-71619047D01*
X245835771Y-71619047D02*
X245883390Y-71523809D01*
X245883390Y-71523809D02*
X245931009Y-71476190D01*
X245931009Y-71476190D02*
X246026247Y-71428571D01*
X246026247Y-71428571D02*
X246264342Y-71428571D01*
X246264342Y-71428571D02*
X246359580Y-71476190D01*
X246359580Y-71476190D02*
X246407200Y-71523809D01*
X246407200Y-71523809D02*
X246454819Y-71619047D01*
X246454819Y-71619047D02*
X246454819Y-71904761D01*
X246454819Y-71904761D02*
X246407200Y-71999999D01*
X246407200Y-71999999D02*
X246359580Y-72047618D01*
X245454819Y-71142856D02*
X246454819Y-70809523D01*
X246454819Y-70809523D02*
X245454819Y-70476190D01*
D10*
X245001503Y-60872419D02*
X245001503Y-59872419D01*
X245001503Y-59872419D02*
X245239598Y-59872419D01*
X245239598Y-59872419D02*
X245382455Y-59920038D01*
X245382455Y-59920038D02*
X245477693Y-60015276D01*
X245477693Y-60015276D02*
X245525312Y-60110514D01*
X245525312Y-60110514D02*
X245572931Y-60300990D01*
X245572931Y-60300990D02*
X245572931Y-60443847D01*
X245572931Y-60443847D02*
X245525312Y-60634323D01*
X245525312Y-60634323D02*
X245477693Y-60729561D01*
X245477693Y-60729561D02*
X245382455Y-60824800D01*
X245382455Y-60824800D02*
X245239598Y-60872419D01*
X245239598Y-60872419D02*
X245001503Y-60872419D01*
X245953884Y-59967657D02*
X246001503Y-59920038D01*
X246001503Y-59920038D02*
X246096741Y-59872419D01*
X246096741Y-59872419D02*
X246334836Y-59872419D01*
X246334836Y-59872419D02*
X246430074Y-59920038D01*
X246430074Y-59920038D02*
X246477693Y-59967657D01*
X246477693Y-59967657D02*
X246525312Y-60062895D01*
X246525312Y-60062895D02*
X246525312Y-60158133D01*
X246525312Y-60158133D02*
X246477693Y-60300990D01*
X246477693Y-60300990D02*
X245906265Y-60872419D01*
X245906265Y-60872419D02*
X246525312Y-60872419D01*
X246906265Y-59967657D02*
X246953884Y-59920038D01*
X246953884Y-59920038D02*
X247049122Y-59872419D01*
X247049122Y-59872419D02*
X247287217Y-59872419D01*
X247287217Y-59872419D02*
X247382455Y-59920038D01*
X247382455Y-59920038D02*
X247430074Y-59967657D01*
X247430074Y-59967657D02*
X247477693Y-60062895D01*
X247477693Y-60062895D02*
X247477693Y-60158133D01*
X247477693Y-60158133D02*
X247430074Y-60300990D01*
X247430074Y-60300990D02*
X246858646Y-60872419D01*
X246858646Y-60872419D02*
X247477693Y-60872419D01*
D13*
X244159774Y-144199171D02*
X245016917Y-144199171D01*
X244588346Y-144199171D02*
X244588346Y-145699171D01*
X244588346Y-145699171D02*
X244731203Y-145484885D01*
X244731203Y-145484885D02*
X244874060Y-145342028D01*
X244874060Y-145342028D02*
X245016917Y-145270600D01*
X243659775Y-145699171D02*
X242731203Y-145699171D01*
X242731203Y-145699171D02*
X243231203Y-145127742D01*
X243231203Y-145127742D02*
X243016918Y-145127742D01*
X243016918Y-145127742D02*
X242874061Y-145056314D01*
X242874061Y-145056314D02*
X242802632Y-144984885D01*
X242802632Y-144984885D02*
X242731203Y-144842028D01*
X242731203Y-144842028D02*
X242731203Y-144484885D01*
X242731203Y-144484885D02*
X242802632Y-144342028D01*
X242802632Y-144342028D02*
X242874061Y-144270600D01*
X242874061Y-144270600D02*
X243016918Y-144199171D01*
X243016918Y-144199171D02*
X243445489Y-144199171D01*
X243445489Y-144199171D02*
X243588346Y-144270600D01*
X243588346Y-144270600D02*
X243659775Y-144342028D01*
X242159775Y-145556314D02*
X242088347Y-145627742D01*
X242088347Y-145627742D02*
X241945490Y-145699171D01*
X241945490Y-145699171D02*
X241588347Y-145699171D01*
X241588347Y-145699171D02*
X241445490Y-145627742D01*
X241445490Y-145627742D02*
X241374061Y-145556314D01*
X241374061Y-145556314D02*
X241302632Y-145413457D01*
X241302632Y-145413457D02*
X241302632Y-145270600D01*
X241302632Y-145270600D02*
X241374061Y-145056314D01*
X241374061Y-145056314D02*
X242231204Y-144199171D01*
X242231204Y-144199171D02*
X241302632Y-144199171D01*
X240731204Y-145556314D02*
X240659776Y-145627742D01*
X240659776Y-145627742D02*
X240516919Y-145699171D01*
X240516919Y-145699171D02*
X240159776Y-145699171D01*
X240159776Y-145699171D02*
X240016919Y-145627742D01*
X240016919Y-145627742D02*
X239945490Y-145556314D01*
X239945490Y-145556314D02*
X239874061Y-145413457D01*
X239874061Y-145413457D02*
X239874061Y-145270600D01*
X239874061Y-145270600D02*
X239945490Y-145056314D01*
X239945490Y-145056314D02*
X240802633Y-144199171D01*
X240802633Y-144199171D02*
X239874061Y-144199171D01*
X238445490Y-144199171D02*
X239302633Y-144199171D01*
X238874062Y-144199171D02*
X238874062Y-145699171D01*
X238874062Y-145699171D02*
X239016919Y-145484885D01*
X239016919Y-145484885D02*
X239159776Y-145342028D01*
X239159776Y-145342028D02*
X239302633Y-145270600D01*
X237516919Y-145699171D02*
X237374062Y-145699171D01*
X237374062Y-145699171D02*
X237231205Y-145627742D01*
X237231205Y-145627742D02*
X237159777Y-145556314D01*
X237159777Y-145556314D02*
X237088348Y-145413457D01*
X237088348Y-145413457D02*
X237016919Y-145127742D01*
X237016919Y-145127742D02*
X237016919Y-144770600D01*
X237016919Y-144770600D02*
X237088348Y-144484885D01*
X237088348Y-144484885D02*
X237159777Y-144342028D01*
X237159777Y-144342028D02*
X237231205Y-144270600D01*
X237231205Y-144270600D02*
X237374062Y-144199171D01*
X237374062Y-144199171D02*
X237516919Y-144199171D01*
X237516919Y-144199171D02*
X237659777Y-144270600D01*
X237659777Y-144270600D02*
X237731205Y-144342028D01*
X237731205Y-144342028D02*
X237802634Y-144484885D01*
X237802634Y-144484885D02*
X237874062Y-144770600D01*
X237874062Y-144770600D02*
X237874062Y-145127742D01*
X237874062Y-145127742D02*
X237802634Y-145413457D01*
X237802634Y-145413457D02*
X237731205Y-145556314D01*
X237731205Y-145556314D02*
X237659777Y-145627742D01*
X237659777Y-145627742D02*
X237516919Y-145699171D01*
X236088348Y-145699171D02*
X235945491Y-145699171D01*
X235945491Y-145699171D02*
X235802634Y-145627742D01*
X235802634Y-145627742D02*
X235731206Y-145556314D01*
X235731206Y-145556314D02*
X235659777Y-145413457D01*
X235659777Y-145413457D02*
X235588348Y-145127742D01*
X235588348Y-145127742D02*
X235588348Y-144770600D01*
X235588348Y-144770600D02*
X235659777Y-144484885D01*
X235659777Y-144484885D02*
X235731206Y-144342028D01*
X235731206Y-144342028D02*
X235802634Y-144270600D01*
X235802634Y-144270600D02*
X235945491Y-144199171D01*
X235945491Y-144199171D02*
X236088348Y-144199171D01*
X236088348Y-144199171D02*
X236231206Y-144270600D01*
X236231206Y-144270600D02*
X236302634Y-144342028D01*
X236302634Y-144342028D02*
X236374063Y-144484885D01*
X236374063Y-144484885D02*
X236445491Y-144770600D01*
X236445491Y-144770600D02*
X236445491Y-145127742D01*
X236445491Y-145127742D02*
X236374063Y-145413457D01*
X236374063Y-145413457D02*
X236302634Y-145556314D01*
X236302634Y-145556314D02*
X236231206Y-145627742D01*
X236231206Y-145627742D02*
X236088348Y-145699171D01*
X234302635Y-145699171D02*
X234588349Y-145699171D01*
X234588349Y-145699171D02*
X234731206Y-145627742D01*
X234731206Y-145627742D02*
X234802635Y-145556314D01*
X234802635Y-145556314D02*
X234945492Y-145342028D01*
X234945492Y-145342028D02*
X235016920Y-145056314D01*
X235016920Y-145056314D02*
X235016920Y-144484885D01*
X235016920Y-144484885D02*
X234945492Y-144342028D01*
X234945492Y-144342028D02*
X234874063Y-144270600D01*
X234874063Y-144270600D02*
X234731206Y-144199171D01*
X234731206Y-144199171D02*
X234445492Y-144199171D01*
X234445492Y-144199171D02*
X234302635Y-144270600D01*
X234302635Y-144270600D02*
X234231206Y-144342028D01*
X234231206Y-144342028D02*
X234159777Y-144484885D01*
X234159777Y-144484885D02*
X234159777Y-144842028D01*
X234159777Y-144842028D02*
X234231206Y-144984885D01*
X234231206Y-144984885D02*
X234302635Y-145056314D01*
X234302635Y-145056314D02*
X234445492Y-145127742D01*
X234445492Y-145127742D02*
X234731206Y-145127742D01*
X234731206Y-145127742D02*
X234874063Y-145056314D01*
X234874063Y-145056314D02*
X234945492Y-144984885D01*
X234945492Y-144984885D02*
X235016920Y-144842028D01*
X232016921Y-143699171D02*
X232016921Y-145842028D01*
X229016921Y-144199171D02*
X229874064Y-144199171D01*
X229445493Y-144199171D02*
X229445493Y-145699171D01*
X229445493Y-145699171D02*
X229588350Y-145484885D01*
X229588350Y-145484885D02*
X229731207Y-145342028D01*
X229731207Y-145342028D02*
X229874064Y-145270600D01*
X228516922Y-145699171D02*
X227588350Y-145699171D01*
X227588350Y-145699171D02*
X228088350Y-145127742D01*
X228088350Y-145127742D02*
X227874065Y-145127742D01*
X227874065Y-145127742D02*
X227731208Y-145056314D01*
X227731208Y-145056314D02*
X227659779Y-144984885D01*
X227659779Y-144984885D02*
X227588350Y-144842028D01*
X227588350Y-144842028D02*
X227588350Y-144484885D01*
X227588350Y-144484885D02*
X227659779Y-144342028D01*
X227659779Y-144342028D02*
X227731208Y-144270600D01*
X227731208Y-144270600D02*
X227874065Y-144199171D01*
X227874065Y-144199171D02*
X228302636Y-144199171D01*
X228302636Y-144199171D02*
X228445493Y-144270600D01*
X228445493Y-144270600D02*
X228516922Y-144342028D01*
X227016922Y-145556314D02*
X226945494Y-145627742D01*
X226945494Y-145627742D02*
X226802637Y-145699171D01*
X226802637Y-145699171D02*
X226445494Y-145699171D01*
X226445494Y-145699171D02*
X226302637Y-145627742D01*
X226302637Y-145627742D02*
X226231208Y-145556314D01*
X226231208Y-145556314D02*
X226159779Y-145413457D01*
X226159779Y-145413457D02*
X226159779Y-145270600D01*
X226159779Y-145270600D02*
X226231208Y-145056314D01*
X226231208Y-145056314D02*
X227088351Y-144199171D01*
X227088351Y-144199171D02*
X226159779Y-144199171D01*
X225588351Y-145556314D02*
X225516923Y-145627742D01*
X225516923Y-145627742D02*
X225374066Y-145699171D01*
X225374066Y-145699171D02*
X225016923Y-145699171D01*
X225016923Y-145699171D02*
X224874066Y-145627742D01*
X224874066Y-145627742D02*
X224802637Y-145556314D01*
X224802637Y-145556314D02*
X224731208Y-145413457D01*
X224731208Y-145413457D02*
X224731208Y-145270600D01*
X224731208Y-145270600D02*
X224802637Y-145056314D01*
X224802637Y-145056314D02*
X225659780Y-144199171D01*
X225659780Y-144199171D02*
X224731208Y-144199171D01*
X223302637Y-144199171D02*
X224159780Y-144199171D01*
X223731209Y-144199171D02*
X223731209Y-145699171D01*
X223731209Y-145699171D02*
X223874066Y-145484885D01*
X223874066Y-145484885D02*
X224016923Y-145342028D01*
X224016923Y-145342028D02*
X224159780Y-145270600D01*
X222374066Y-145699171D02*
X222231209Y-145699171D01*
X222231209Y-145699171D02*
X222088352Y-145627742D01*
X222088352Y-145627742D02*
X222016924Y-145556314D01*
X222016924Y-145556314D02*
X221945495Y-145413457D01*
X221945495Y-145413457D02*
X221874066Y-145127742D01*
X221874066Y-145127742D02*
X221874066Y-144770600D01*
X221874066Y-144770600D02*
X221945495Y-144484885D01*
X221945495Y-144484885D02*
X222016924Y-144342028D01*
X222016924Y-144342028D02*
X222088352Y-144270600D01*
X222088352Y-144270600D02*
X222231209Y-144199171D01*
X222231209Y-144199171D02*
X222374066Y-144199171D01*
X222374066Y-144199171D02*
X222516924Y-144270600D01*
X222516924Y-144270600D02*
X222588352Y-144342028D01*
X222588352Y-144342028D02*
X222659781Y-144484885D01*
X222659781Y-144484885D02*
X222731209Y-144770600D01*
X222731209Y-144770600D02*
X222731209Y-145127742D01*
X222731209Y-145127742D02*
X222659781Y-145413457D01*
X222659781Y-145413457D02*
X222588352Y-145556314D01*
X222588352Y-145556314D02*
X222516924Y-145627742D01*
X222516924Y-145627742D02*
X222374066Y-145699171D01*
X220445495Y-144199171D02*
X221302638Y-144199171D01*
X220874067Y-144199171D02*
X220874067Y-145699171D01*
X220874067Y-145699171D02*
X221016924Y-145484885D01*
X221016924Y-145484885D02*
X221159781Y-145342028D01*
X221159781Y-145342028D02*
X221302638Y-145270600D01*
X219159782Y-145199171D02*
X219159782Y-144199171D01*
X219516924Y-145770600D02*
X219874067Y-144699171D01*
X219874067Y-144699171D02*
X218945496Y-144699171D01*
X216874068Y-143699171D02*
X216874068Y-145842028D01*
X213874068Y-144199171D02*
X214731211Y-144199171D01*
X214302640Y-144199171D02*
X214302640Y-145699171D01*
X214302640Y-145699171D02*
X214445497Y-145484885D01*
X214445497Y-145484885D02*
X214588354Y-145342028D01*
X214588354Y-145342028D02*
X214731211Y-145270600D01*
X213016926Y-145056314D02*
X213159783Y-145127742D01*
X213159783Y-145127742D02*
X213231212Y-145199171D01*
X213231212Y-145199171D02*
X213302640Y-145342028D01*
X213302640Y-145342028D02*
X213302640Y-145413457D01*
X213302640Y-145413457D02*
X213231212Y-145556314D01*
X213231212Y-145556314D02*
X213159783Y-145627742D01*
X213159783Y-145627742D02*
X213016926Y-145699171D01*
X213016926Y-145699171D02*
X212731212Y-145699171D01*
X212731212Y-145699171D02*
X212588355Y-145627742D01*
X212588355Y-145627742D02*
X212516926Y-145556314D01*
X212516926Y-145556314D02*
X212445497Y-145413457D01*
X212445497Y-145413457D02*
X212445497Y-145342028D01*
X212445497Y-145342028D02*
X212516926Y-145199171D01*
X212516926Y-145199171D02*
X212588355Y-145127742D01*
X212588355Y-145127742D02*
X212731212Y-145056314D01*
X212731212Y-145056314D02*
X213016926Y-145056314D01*
X213016926Y-145056314D02*
X213159783Y-144984885D01*
X213159783Y-144984885D02*
X213231212Y-144913457D01*
X213231212Y-144913457D02*
X213302640Y-144770600D01*
X213302640Y-144770600D02*
X213302640Y-144484885D01*
X213302640Y-144484885D02*
X213231212Y-144342028D01*
X213231212Y-144342028D02*
X213159783Y-144270600D01*
X213159783Y-144270600D02*
X213016926Y-144199171D01*
X213016926Y-144199171D02*
X212731212Y-144199171D01*
X212731212Y-144199171D02*
X212588355Y-144270600D01*
X212588355Y-144270600D02*
X212516926Y-144342028D01*
X212516926Y-144342028D02*
X212445497Y-144484885D01*
X212445497Y-144484885D02*
X212445497Y-144770600D01*
X212445497Y-144770600D02*
X212516926Y-144913457D01*
X212516926Y-144913457D02*
X212588355Y-144984885D01*
X212588355Y-144984885D02*
X212731212Y-145056314D01*
X211874069Y-145556314D02*
X211802641Y-145627742D01*
X211802641Y-145627742D02*
X211659784Y-145699171D01*
X211659784Y-145699171D02*
X211302641Y-145699171D01*
X211302641Y-145699171D02*
X211159784Y-145627742D01*
X211159784Y-145627742D02*
X211088355Y-145556314D01*
X211088355Y-145556314D02*
X211016926Y-145413457D01*
X211016926Y-145413457D02*
X211016926Y-145270600D01*
X211016926Y-145270600D02*
X211088355Y-145056314D01*
X211088355Y-145056314D02*
X211945498Y-144199171D01*
X211945498Y-144199171D02*
X211016926Y-144199171D01*
X210445498Y-145556314D02*
X210374070Y-145627742D01*
X210374070Y-145627742D02*
X210231213Y-145699171D01*
X210231213Y-145699171D02*
X209874070Y-145699171D01*
X209874070Y-145699171D02*
X209731213Y-145627742D01*
X209731213Y-145627742D02*
X209659784Y-145556314D01*
X209659784Y-145556314D02*
X209588355Y-145413457D01*
X209588355Y-145413457D02*
X209588355Y-145270600D01*
X209588355Y-145270600D02*
X209659784Y-145056314D01*
X209659784Y-145056314D02*
X210516927Y-144199171D01*
X210516927Y-144199171D02*
X209588355Y-144199171D01*
X208159784Y-144199171D02*
X209016927Y-144199171D01*
X208588356Y-144199171D02*
X208588356Y-145699171D01*
X208588356Y-145699171D02*
X208731213Y-145484885D01*
X208731213Y-145484885D02*
X208874070Y-145342028D01*
X208874070Y-145342028D02*
X209016927Y-145270600D01*
X207231213Y-145699171D02*
X207088356Y-145699171D01*
X207088356Y-145699171D02*
X206945499Y-145627742D01*
X206945499Y-145627742D02*
X206874071Y-145556314D01*
X206874071Y-145556314D02*
X206802642Y-145413457D01*
X206802642Y-145413457D02*
X206731213Y-145127742D01*
X206731213Y-145127742D02*
X206731213Y-144770600D01*
X206731213Y-144770600D02*
X206802642Y-144484885D01*
X206802642Y-144484885D02*
X206874071Y-144342028D01*
X206874071Y-144342028D02*
X206945499Y-144270600D01*
X206945499Y-144270600D02*
X207088356Y-144199171D01*
X207088356Y-144199171D02*
X207231213Y-144199171D01*
X207231213Y-144199171D02*
X207374071Y-144270600D01*
X207374071Y-144270600D02*
X207445499Y-144342028D01*
X207445499Y-144342028D02*
X207516928Y-144484885D01*
X207516928Y-144484885D02*
X207588356Y-144770600D01*
X207588356Y-144770600D02*
X207588356Y-145127742D01*
X207588356Y-145127742D02*
X207516928Y-145413457D01*
X207516928Y-145413457D02*
X207445499Y-145556314D01*
X207445499Y-145556314D02*
X207374071Y-145627742D01*
X207374071Y-145627742D02*
X207231213Y-145699171D01*
X205374071Y-145699171D02*
X206088357Y-145699171D01*
X206088357Y-145699171D02*
X206159785Y-144984885D01*
X206159785Y-144984885D02*
X206088357Y-145056314D01*
X206088357Y-145056314D02*
X205945500Y-145127742D01*
X205945500Y-145127742D02*
X205588357Y-145127742D01*
X205588357Y-145127742D02*
X205445500Y-145056314D01*
X205445500Y-145056314D02*
X205374071Y-144984885D01*
X205374071Y-144984885D02*
X205302642Y-144842028D01*
X205302642Y-144842028D02*
X205302642Y-144484885D01*
X205302642Y-144484885D02*
X205374071Y-144342028D01*
X205374071Y-144342028D02*
X205445500Y-144270600D01*
X205445500Y-144270600D02*
X205588357Y-144199171D01*
X205588357Y-144199171D02*
X205945500Y-144199171D01*
X205945500Y-144199171D02*
X206088357Y-144270600D01*
X206088357Y-144270600D02*
X206159785Y-144342028D01*
X204016929Y-145699171D02*
X204302643Y-145699171D01*
X204302643Y-145699171D02*
X204445500Y-145627742D01*
X204445500Y-145627742D02*
X204516929Y-145556314D01*
X204516929Y-145556314D02*
X204659786Y-145342028D01*
X204659786Y-145342028D02*
X204731214Y-145056314D01*
X204731214Y-145056314D02*
X204731214Y-144484885D01*
X204731214Y-144484885D02*
X204659786Y-144342028D01*
X204659786Y-144342028D02*
X204588357Y-144270600D01*
X204588357Y-144270600D02*
X204445500Y-144199171D01*
X204445500Y-144199171D02*
X204159786Y-144199171D01*
X204159786Y-144199171D02*
X204016929Y-144270600D01*
X204016929Y-144270600D02*
X203945500Y-144342028D01*
X203945500Y-144342028D02*
X203874071Y-144484885D01*
X203874071Y-144484885D02*
X203874071Y-144842028D01*
X203874071Y-144842028D02*
X203945500Y-144984885D01*
X203945500Y-144984885D02*
X204016929Y-145056314D01*
X204016929Y-145056314D02*
X204159786Y-145127742D01*
X204159786Y-145127742D02*
X204445500Y-145127742D01*
X204445500Y-145127742D02*
X204588357Y-145056314D01*
X204588357Y-145056314D02*
X204659786Y-144984885D01*
X204659786Y-144984885D02*
X204731214Y-144842028D01*
X201731215Y-143699171D02*
X201731215Y-145842028D01*
X198731215Y-144199171D02*
X199588358Y-144199171D01*
X199159787Y-144199171D02*
X199159787Y-145699171D01*
X199159787Y-145699171D02*
X199302644Y-145484885D01*
X199302644Y-145484885D02*
X199445501Y-145342028D01*
X199445501Y-145342028D02*
X199588358Y-145270600D01*
X197874073Y-145056314D02*
X198016930Y-145127742D01*
X198016930Y-145127742D02*
X198088359Y-145199171D01*
X198088359Y-145199171D02*
X198159787Y-145342028D01*
X198159787Y-145342028D02*
X198159787Y-145413457D01*
X198159787Y-145413457D02*
X198088359Y-145556314D01*
X198088359Y-145556314D02*
X198016930Y-145627742D01*
X198016930Y-145627742D02*
X197874073Y-145699171D01*
X197874073Y-145699171D02*
X197588359Y-145699171D01*
X197588359Y-145699171D02*
X197445502Y-145627742D01*
X197445502Y-145627742D02*
X197374073Y-145556314D01*
X197374073Y-145556314D02*
X197302644Y-145413457D01*
X197302644Y-145413457D02*
X197302644Y-145342028D01*
X197302644Y-145342028D02*
X197374073Y-145199171D01*
X197374073Y-145199171D02*
X197445502Y-145127742D01*
X197445502Y-145127742D02*
X197588359Y-145056314D01*
X197588359Y-145056314D02*
X197874073Y-145056314D01*
X197874073Y-145056314D02*
X198016930Y-144984885D01*
X198016930Y-144984885D02*
X198088359Y-144913457D01*
X198088359Y-144913457D02*
X198159787Y-144770600D01*
X198159787Y-144770600D02*
X198159787Y-144484885D01*
X198159787Y-144484885D02*
X198088359Y-144342028D01*
X198088359Y-144342028D02*
X198016930Y-144270600D01*
X198016930Y-144270600D02*
X197874073Y-144199171D01*
X197874073Y-144199171D02*
X197588359Y-144199171D01*
X197588359Y-144199171D02*
X197445502Y-144270600D01*
X197445502Y-144270600D02*
X197374073Y-144342028D01*
X197374073Y-144342028D02*
X197302644Y-144484885D01*
X197302644Y-144484885D02*
X197302644Y-144770600D01*
X197302644Y-144770600D02*
X197374073Y-144913457D01*
X197374073Y-144913457D02*
X197445502Y-144984885D01*
X197445502Y-144984885D02*
X197588359Y-145056314D01*
X196731216Y-145556314D02*
X196659788Y-145627742D01*
X196659788Y-145627742D02*
X196516931Y-145699171D01*
X196516931Y-145699171D02*
X196159788Y-145699171D01*
X196159788Y-145699171D02*
X196016931Y-145627742D01*
X196016931Y-145627742D02*
X195945502Y-145556314D01*
X195945502Y-145556314D02*
X195874073Y-145413457D01*
X195874073Y-145413457D02*
X195874073Y-145270600D01*
X195874073Y-145270600D02*
X195945502Y-145056314D01*
X195945502Y-145056314D02*
X196802645Y-144199171D01*
X196802645Y-144199171D02*
X195874073Y-144199171D01*
X195302645Y-145556314D02*
X195231217Y-145627742D01*
X195231217Y-145627742D02*
X195088360Y-145699171D01*
X195088360Y-145699171D02*
X194731217Y-145699171D01*
X194731217Y-145699171D02*
X194588360Y-145627742D01*
X194588360Y-145627742D02*
X194516931Y-145556314D01*
X194516931Y-145556314D02*
X194445502Y-145413457D01*
X194445502Y-145413457D02*
X194445502Y-145270600D01*
X194445502Y-145270600D02*
X194516931Y-145056314D01*
X194516931Y-145056314D02*
X195374074Y-144199171D01*
X195374074Y-144199171D02*
X194445502Y-144199171D01*
X193016931Y-144199171D02*
X193874074Y-144199171D01*
X193445503Y-144199171D02*
X193445503Y-145699171D01*
X193445503Y-145699171D02*
X193588360Y-145484885D01*
X193588360Y-145484885D02*
X193731217Y-145342028D01*
X193731217Y-145342028D02*
X193874074Y-145270600D01*
X192088360Y-145699171D02*
X191945503Y-145699171D01*
X191945503Y-145699171D02*
X191802646Y-145627742D01*
X191802646Y-145627742D02*
X191731218Y-145556314D01*
X191731218Y-145556314D02*
X191659789Y-145413457D01*
X191659789Y-145413457D02*
X191588360Y-145127742D01*
X191588360Y-145127742D02*
X191588360Y-144770600D01*
X191588360Y-144770600D02*
X191659789Y-144484885D01*
X191659789Y-144484885D02*
X191731218Y-144342028D01*
X191731218Y-144342028D02*
X191802646Y-144270600D01*
X191802646Y-144270600D02*
X191945503Y-144199171D01*
X191945503Y-144199171D02*
X192088360Y-144199171D01*
X192088360Y-144199171D02*
X192231218Y-144270600D01*
X192231218Y-144270600D02*
X192302646Y-144342028D01*
X192302646Y-144342028D02*
X192374075Y-144484885D01*
X192374075Y-144484885D02*
X192445503Y-144770600D01*
X192445503Y-144770600D02*
X192445503Y-145127742D01*
X192445503Y-145127742D02*
X192374075Y-145413457D01*
X192374075Y-145413457D02*
X192302646Y-145556314D01*
X192302646Y-145556314D02*
X192231218Y-145627742D01*
X192231218Y-145627742D02*
X192088360Y-145699171D01*
X191088361Y-145699171D02*
X190088361Y-145699171D01*
X190088361Y-145699171D02*
X190731218Y-144199171D01*
X188874076Y-145199171D02*
X188874076Y-144199171D01*
X189231218Y-145770600D02*
X189588361Y-144699171D01*
X189588361Y-144699171D02*
X188659790Y-144699171D01*
D12*
X248954819Y-75238095D02*
X248478628Y-75571428D01*
X248954819Y-75809523D02*
X247954819Y-75809523D01*
X247954819Y-75809523D02*
X247954819Y-75428571D01*
X247954819Y-75428571D02*
X248002438Y-75333333D01*
X248002438Y-75333333D02*
X248050057Y-75285714D01*
X248050057Y-75285714D02*
X248145295Y-75238095D01*
X248145295Y-75238095D02*
X248288152Y-75238095D01*
X248288152Y-75238095D02*
X248383390Y-75285714D01*
X248383390Y-75285714D02*
X248431009Y-75333333D01*
X248431009Y-75333333D02*
X248478628Y-75428571D01*
X248478628Y-75428571D02*
X248478628Y-75809523D01*
X247954819Y-74904761D02*
X248954819Y-74238095D01*
X247954819Y-74238095D02*
X248954819Y-74904761D01*
X248002438Y-72571428D02*
X247954819Y-72666666D01*
X247954819Y-72666666D02*
X247954819Y-72809523D01*
X247954819Y-72809523D02*
X248002438Y-72952380D01*
X248002438Y-72952380D02*
X248097676Y-73047618D01*
X248097676Y-73047618D02*
X248192914Y-73095237D01*
X248192914Y-73095237D02*
X248383390Y-73142856D01*
X248383390Y-73142856D02*
X248526247Y-73142856D01*
X248526247Y-73142856D02*
X248716723Y-73095237D01*
X248716723Y-73095237D02*
X248811961Y-73047618D01*
X248811961Y-73047618D02*
X248907200Y-72952380D01*
X248907200Y-72952380D02*
X248954819Y-72809523D01*
X248954819Y-72809523D02*
X248954819Y-72714285D01*
X248954819Y-72714285D02*
X248907200Y-72571428D01*
X248907200Y-72571428D02*
X248859580Y-72523809D01*
X248859580Y-72523809D02*
X248526247Y-72523809D01*
X248526247Y-72523809D02*
X248526247Y-72714285D01*
X248954819Y-72095237D02*
X247954819Y-72095237D01*
X247954819Y-72095237D02*
X247954819Y-71714285D01*
X247954819Y-71714285D02*
X248002438Y-71619047D01*
X248002438Y-71619047D02*
X248050057Y-71571428D01*
X248050057Y-71571428D02*
X248145295Y-71523809D01*
X248145295Y-71523809D02*
X248288152Y-71523809D01*
X248288152Y-71523809D02*
X248383390Y-71571428D01*
X248383390Y-71571428D02*
X248431009Y-71619047D01*
X248431009Y-71619047D02*
X248478628Y-71714285D01*
X248478628Y-71714285D02*
X248478628Y-72095237D01*
X248907200Y-71142856D02*
X248954819Y-70999999D01*
X248954819Y-70999999D02*
X248954819Y-70761904D01*
X248954819Y-70761904D02*
X248907200Y-70666666D01*
X248907200Y-70666666D02*
X248859580Y-70619047D01*
X248859580Y-70619047D02*
X248764342Y-70571428D01*
X248764342Y-70571428D02*
X248669104Y-70571428D01*
X248669104Y-70571428D02*
X248573866Y-70619047D01*
X248573866Y-70619047D02*
X248526247Y-70666666D01*
X248526247Y-70666666D02*
X248478628Y-70761904D01*
X248478628Y-70761904D02*
X248431009Y-70952380D01*
X248431009Y-70952380D02*
X248383390Y-71047618D01*
X248383390Y-71047618D02*
X248335771Y-71095237D01*
X248335771Y-71095237D02*
X248240533Y-71142856D01*
X248240533Y-71142856D02*
X248145295Y-71142856D01*
X248145295Y-71142856D02*
X248050057Y-71095237D01*
X248050057Y-71095237D02*
X248002438Y-71047618D01*
X248002438Y-71047618D02*
X247954819Y-70952380D01*
X247954819Y-70952380D02*
X247954819Y-70714285D01*
X247954819Y-70714285D02*
X248002438Y-70571428D01*
X240666666Y-121454819D02*
X240333333Y-120978628D01*
X240095238Y-121454819D02*
X240095238Y-120454819D01*
X240095238Y-120454819D02*
X240476190Y-120454819D01*
X240476190Y-120454819D02*
X240571428Y-120502438D01*
X240571428Y-120502438D02*
X240619047Y-120550057D01*
X240619047Y-120550057D02*
X240666666Y-120645295D01*
X240666666Y-120645295D02*
X240666666Y-120788152D01*
X240666666Y-120788152D02*
X240619047Y-120883390D01*
X240619047Y-120883390D02*
X240571428Y-120931009D01*
X240571428Y-120931009D02*
X240476190Y-120978628D01*
X240476190Y-120978628D02*
X240095238Y-120978628D01*
X241000000Y-120454819D02*
X241666666Y-121454819D01*
X241666666Y-120454819D02*
X241000000Y-121454819D01*
X242761905Y-121407200D02*
X242904762Y-121454819D01*
X242904762Y-121454819D02*
X243142857Y-121454819D01*
X243142857Y-121454819D02*
X243238095Y-121407200D01*
X243238095Y-121407200D02*
X243285714Y-121359580D01*
X243285714Y-121359580D02*
X243333333Y-121264342D01*
X243333333Y-121264342D02*
X243333333Y-121169104D01*
X243333333Y-121169104D02*
X243285714Y-121073866D01*
X243285714Y-121073866D02*
X243238095Y-121026247D01*
X243238095Y-121026247D02*
X243142857Y-120978628D01*
X243142857Y-120978628D02*
X242952381Y-120931009D01*
X242952381Y-120931009D02*
X242857143Y-120883390D01*
X242857143Y-120883390D02*
X242809524Y-120835771D01*
X242809524Y-120835771D02*
X242761905Y-120740533D01*
X242761905Y-120740533D02*
X242761905Y-120645295D01*
X242761905Y-120645295D02*
X242809524Y-120550057D01*
X242809524Y-120550057D02*
X242857143Y-120502438D01*
X242857143Y-120502438D02*
X242952381Y-120454819D01*
X242952381Y-120454819D02*
X243190476Y-120454819D01*
X243190476Y-120454819D02*
X243333333Y-120502438D01*
X243761905Y-121454819D02*
X243761905Y-120454819D01*
X244238095Y-121454819D02*
X244238095Y-120454819D01*
X244238095Y-120454819D02*
X244571428Y-121169104D01*
X244571428Y-121169104D02*
X244904761Y-120454819D01*
X244904761Y-120454819D02*
X244904761Y-121454819D01*
X240071429Y-122954819D02*
X240642857Y-122954819D01*
X240357143Y-123954819D02*
X240357143Y-122954819D01*
X240880953Y-122954819D02*
X241547619Y-123954819D01*
X241547619Y-122954819D02*
X240880953Y-123954819D01*
X242642858Y-123907200D02*
X242785715Y-123954819D01*
X242785715Y-123954819D02*
X243023810Y-123954819D01*
X243023810Y-123954819D02*
X243119048Y-123907200D01*
X243119048Y-123907200D02*
X243166667Y-123859580D01*
X243166667Y-123859580D02*
X243214286Y-123764342D01*
X243214286Y-123764342D02*
X243214286Y-123669104D01*
X243214286Y-123669104D02*
X243166667Y-123573866D01*
X243166667Y-123573866D02*
X243119048Y-123526247D01*
X243119048Y-123526247D02*
X243023810Y-123478628D01*
X243023810Y-123478628D02*
X242833334Y-123431009D01*
X242833334Y-123431009D02*
X242738096Y-123383390D01*
X242738096Y-123383390D02*
X242690477Y-123335771D01*
X242690477Y-123335771D02*
X242642858Y-123240533D01*
X242642858Y-123240533D02*
X242642858Y-123145295D01*
X242642858Y-123145295D02*
X242690477Y-123050057D01*
X242690477Y-123050057D02*
X242738096Y-123002438D01*
X242738096Y-123002438D02*
X242833334Y-122954819D01*
X242833334Y-122954819D02*
X243071429Y-122954819D01*
X243071429Y-122954819D02*
X243214286Y-123002438D01*
X243642858Y-123954819D02*
X243642858Y-122954819D01*
X244119048Y-123954819D02*
X244119048Y-122954819D01*
X244119048Y-122954819D02*
X244452381Y-123669104D01*
X244452381Y-123669104D02*
X244785714Y-122954819D01*
X244785714Y-122954819D02*
X244785714Y-123954819D01*
X250454819Y-75714285D02*
X250454819Y-75142857D01*
X251454819Y-75428571D02*
X250454819Y-75428571D01*
X250454819Y-74904761D02*
X251454819Y-74238095D01*
X250454819Y-74238095D02*
X251454819Y-74904761D01*
X250502438Y-72571428D02*
X250454819Y-72666666D01*
X250454819Y-72666666D02*
X250454819Y-72809523D01*
X250454819Y-72809523D02*
X250502438Y-72952380D01*
X250502438Y-72952380D02*
X250597676Y-73047618D01*
X250597676Y-73047618D02*
X250692914Y-73095237D01*
X250692914Y-73095237D02*
X250883390Y-73142856D01*
X250883390Y-73142856D02*
X251026247Y-73142856D01*
X251026247Y-73142856D02*
X251216723Y-73095237D01*
X251216723Y-73095237D02*
X251311961Y-73047618D01*
X251311961Y-73047618D02*
X251407200Y-72952380D01*
X251407200Y-72952380D02*
X251454819Y-72809523D01*
X251454819Y-72809523D02*
X251454819Y-72714285D01*
X251454819Y-72714285D02*
X251407200Y-72571428D01*
X251407200Y-72571428D02*
X251359580Y-72523809D01*
X251359580Y-72523809D02*
X251026247Y-72523809D01*
X251026247Y-72523809D02*
X251026247Y-72714285D01*
X251454819Y-72095237D02*
X250454819Y-72095237D01*
X250454819Y-72095237D02*
X250454819Y-71714285D01*
X250454819Y-71714285D02*
X250502438Y-71619047D01*
X250502438Y-71619047D02*
X250550057Y-71571428D01*
X250550057Y-71571428D02*
X250645295Y-71523809D01*
X250645295Y-71523809D02*
X250788152Y-71523809D01*
X250788152Y-71523809D02*
X250883390Y-71571428D01*
X250883390Y-71571428D02*
X250931009Y-71619047D01*
X250931009Y-71619047D02*
X250978628Y-71714285D01*
X250978628Y-71714285D02*
X250978628Y-72095237D01*
X251407200Y-71142856D02*
X251454819Y-70999999D01*
X251454819Y-70999999D02*
X251454819Y-70761904D01*
X251454819Y-70761904D02*
X251407200Y-70666666D01*
X251407200Y-70666666D02*
X251359580Y-70619047D01*
X251359580Y-70619047D02*
X251264342Y-70571428D01*
X251264342Y-70571428D02*
X251169104Y-70571428D01*
X251169104Y-70571428D02*
X251073866Y-70619047D01*
X251073866Y-70619047D02*
X251026247Y-70666666D01*
X251026247Y-70666666D02*
X250978628Y-70761904D01*
X250978628Y-70761904D02*
X250931009Y-70952380D01*
X250931009Y-70952380D02*
X250883390Y-71047618D01*
X250883390Y-71047618D02*
X250835771Y-71095237D01*
X250835771Y-71095237D02*
X250740533Y-71142856D01*
X250740533Y-71142856D02*
X250645295Y-71142856D01*
X250645295Y-71142856D02*
X250550057Y-71095237D01*
X250550057Y-71095237D02*
X250502438Y-71047618D01*
X250502438Y-71047618D02*
X250454819Y-70952380D01*
X250454819Y-70952380D02*
X250454819Y-70714285D01*
X250454819Y-70714285D02*
X250502438Y-70571428D01*
X167306819Y-124261904D02*
X167306819Y-123690476D01*
X168306819Y-123976190D02*
X167306819Y-123976190D01*
X168306819Y-123357142D02*
X167306819Y-123357142D01*
X167306819Y-123357142D02*
X167306819Y-122976190D01*
X167306819Y-122976190D02*
X167354438Y-122880952D01*
X167354438Y-122880952D02*
X167402057Y-122833333D01*
X167402057Y-122833333D02*
X167497295Y-122785714D01*
X167497295Y-122785714D02*
X167640152Y-122785714D01*
X167640152Y-122785714D02*
X167735390Y-122833333D01*
X167735390Y-122833333D02*
X167783009Y-122880952D01*
X167783009Y-122880952D02*
X167830628Y-122976190D01*
X167830628Y-122976190D02*
X167830628Y-123357142D01*
X167306819Y-122452380D02*
X167306819Y-121833333D01*
X167306819Y-121833333D02*
X167687771Y-122166666D01*
X167687771Y-122166666D02*
X167687771Y-122023809D01*
X167687771Y-122023809D02*
X167735390Y-121928571D01*
X167735390Y-121928571D02*
X167783009Y-121880952D01*
X167783009Y-121880952D02*
X167878247Y-121833333D01*
X167878247Y-121833333D02*
X168116342Y-121833333D01*
X168116342Y-121833333D02*
X168211580Y-121880952D01*
X168211580Y-121880952D02*
X168259200Y-121928571D01*
X168259200Y-121928571D02*
X168306819Y-122023809D01*
X168306819Y-122023809D02*
X168306819Y-122309523D01*
X168306819Y-122309523D02*
X168259200Y-122404761D01*
X168259200Y-122404761D02*
X168211580Y-122452380D01*
X220864761Y-52519819D02*
X220531428Y-52043628D01*
X220293333Y-52519819D02*
X220293333Y-51519819D01*
X220293333Y-51519819D02*
X220674285Y-51519819D01*
X220674285Y-51519819D02*
X220769523Y-51567438D01*
X220769523Y-51567438D02*
X220817142Y-51615057D01*
X220817142Y-51615057D02*
X220864761Y-51710295D01*
X220864761Y-51710295D02*
X220864761Y-51853152D01*
X220864761Y-51853152D02*
X220817142Y-51948390D01*
X220817142Y-51948390D02*
X220769523Y-51996009D01*
X220769523Y-51996009D02*
X220674285Y-52043628D01*
X220674285Y-52043628D02*
X220293333Y-52043628D01*
X221150476Y-51519819D02*
X221483809Y-52519819D01*
X221483809Y-52519819D02*
X221817142Y-51519819D01*
X222674285Y-52519819D02*
X222102857Y-52519819D01*
X222388571Y-52519819D02*
X222388571Y-51519819D01*
X222388571Y-51519819D02*
X222293333Y-51662676D01*
X222293333Y-51662676D02*
X222198095Y-51757914D01*
X222198095Y-51757914D02*
X222102857Y-51805533D01*
X167306819Y-114261904D02*
X167306819Y-113690476D01*
X168306819Y-113976190D02*
X167306819Y-113976190D01*
X168306819Y-113357142D02*
X167306819Y-113357142D01*
X167306819Y-113357142D02*
X167306819Y-112976190D01*
X167306819Y-112976190D02*
X167354438Y-112880952D01*
X167354438Y-112880952D02*
X167402057Y-112833333D01*
X167402057Y-112833333D02*
X167497295Y-112785714D01*
X167497295Y-112785714D02*
X167640152Y-112785714D01*
X167640152Y-112785714D02*
X167735390Y-112833333D01*
X167735390Y-112833333D02*
X167783009Y-112880952D01*
X167783009Y-112880952D02*
X167830628Y-112976190D01*
X167830628Y-112976190D02*
X167830628Y-113357142D01*
X167402057Y-112404761D02*
X167354438Y-112357142D01*
X167354438Y-112357142D02*
X167306819Y-112261904D01*
X167306819Y-112261904D02*
X167306819Y-112023809D01*
X167306819Y-112023809D02*
X167354438Y-111928571D01*
X167354438Y-111928571D02*
X167402057Y-111880952D01*
X167402057Y-111880952D02*
X167497295Y-111833333D01*
X167497295Y-111833333D02*
X167592533Y-111833333D01*
X167592533Y-111833333D02*
X167735390Y-111880952D01*
X167735390Y-111880952D02*
X168306819Y-112452380D01*
X168306819Y-112452380D02*
X168306819Y-111833333D01*
X200738095Y-52954819D02*
X201309523Y-52954819D01*
X201023809Y-53954819D02*
X201023809Y-52954819D01*
X201642857Y-53954819D02*
X201642857Y-52954819D01*
X201642857Y-52954819D02*
X202023809Y-52954819D01*
X202023809Y-52954819D02*
X202119047Y-53002438D01*
X202119047Y-53002438D02*
X202166666Y-53050057D01*
X202166666Y-53050057D02*
X202214285Y-53145295D01*
X202214285Y-53145295D02*
X202214285Y-53288152D01*
X202214285Y-53288152D02*
X202166666Y-53383390D01*
X202166666Y-53383390D02*
X202119047Y-53431009D01*
X202119047Y-53431009D02*
X202023809Y-53478628D01*
X202023809Y-53478628D02*
X201642857Y-53478628D01*
X203166666Y-53954819D02*
X202595238Y-53954819D01*
X202880952Y-53954819D02*
X202880952Y-52954819D01*
X202880952Y-52954819D02*
X202785714Y-53097676D01*
X202785714Y-53097676D02*
X202690476Y-53192914D01*
X202690476Y-53192914D02*
X202595238Y-53240533D01*
D14*
%TO.C,J1*%
X227940000Y-59560000D02*
X227940000Y-50440000D01*
X228846000Y-56888000D02*
X229241000Y-56492000D01*
X229112000Y-57154000D02*
X229492000Y-56774000D01*
X231507000Y-54226000D02*
X231887000Y-53846000D01*
X231758000Y-54508000D02*
X232153000Y-54112000D01*
X233846000Y-56888000D02*
X233953000Y-56781000D01*
X234112000Y-57154000D02*
X234219000Y-57047000D01*
X236782000Y-53953000D02*
X236888000Y-53846000D01*
X237048000Y-54219000D02*
X237154000Y-54112000D01*
X238060000Y-50440000D02*
X227940000Y-50440000D01*
X238060000Y-50900000D02*
X227940000Y-50900000D01*
X238060000Y-52000000D02*
X227940000Y-52000000D01*
X238060000Y-59560000D02*
X227940000Y-59560000D01*
X238060000Y-59560000D02*
X238060000Y-50440000D01*
X238300000Y-50200000D02*
X237900000Y-50200000D01*
X238300000Y-50840000D02*
X238300000Y-50200000D01*
X232680000Y-55500000D02*
G75*
G02*
X228320000Y-55500000I-2180000J0D01*
G01*
X228320000Y-55500000D02*
G75*
G02*
X232680000Y-55500000I2180000J0D01*
G01*
X237680000Y-55500000D02*
G75*
G02*
X233320000Y-55500000I-2180000J0D01*
G01*
X233320000Y-55500000D02*
G75*
G02*
X237680000Y-55500000I2180000J0D01*
G01*
%TO.C,J6*%
X165440000Y-125440000D02*
X174560000Y-125440000D01*
X165440000Y-135560000D02*
X165440000Y-125440000D01*
X165440000Y-135560000D02*
X174560000Y-135560000D01*
X167846000Y-126612000D02*
X168226000Y-126992000D01*
X167846000Y-131612000D02*
X167953000Y-131719000D01*
X168112000Y-126346000D02*
X168508000Y-126741000D01*
X168112000Y-131346000D02*
X168219000Y-131453000D01*
X170492000Y-129258000D02*
X170888000Y-129653000D01*
X170774000Y-129007000D02*
X171154000Y-129387000D01*
X170781000Y-134548000D02*
X170888000Y-134654000D01*
X171047000Y-134282000D02*
X171154000Y-134388000D01*
X173000000Y-135560000D02*
X173000000Y-125440000D01*
X174100000Y-135560000D02*
X174100000Y-125440000D01*
X174160000Y-135800000D02*
X174800000Y-135800000D01*
X174560000Y-135560000D02*
X174560000Y-125440000D01*
X174800000Y-135800000D02*
X174800000Y-135400000D01*
X171680000Y-128000000D02*
G75*
G02*
X167320000Y-128000000I-2180000J0D01*
G01*
X167320000Y-128000000D02*
G75*
G02*
X171680000Y-128000000I2180000J0D01*
G01*
X171680000Y-133000000D02*
G75*
G02*
X167320000Y-133000000I-2180000J0D01*
G01*
X167320000Y-133000000D02*
G75*
G02*
X171680000Y-133000000I2180000J0D01*
G01*
D15*
%TO.C,G\u002A\u002A\u002A*%
G36*
X187516667Y-55022223D02*
G01*
X188015290Y-55022223D01*
X188513913Y-55022223D01*
X189006957Y-55515290D01*
X189500000Y-56008357D01*
X189500000Y-56512038D01*
X189500000Y-57004179D01*
X189500000Y-58000000D01*
X187514853Y-58000000D01*
X185529705Y-58000000D01*
X185485717Y-57954167D01*
X185475342Y-57943465D01*
X185457796Y-57925500D01*
X185433714Y-57900917D01*
X185403730Y-57870361D01*
X185368480Y-57834477D01*
X185328596Y-57793910D01*
X185284714Y-57749306D01*
X185237467Y-57701310D01*
X185187490Y-57650566D01*
X185135418Y-57597721D01*
X185081885Y-57543420D01*
X185080157Y-57541667D01*
X185005254Y-57465698D01*
X184937779Y-57397236D01*
X184877350Y-57335886D01*
X184823582Y-57281253D01*
X184776094Y-57232941D01*
X184734502Y-57190556D01*
X184698422Y-57153703D01*
X184667472Y-57121986D01*
X184641269Y-57095011D01*
X184619429Y-57072383D01*
X184601570Y-57053706D01*
X184587308Y-57038585D01*
X184576260Y-57026627D01*
X184568044Y-57017434D01*
X184562275Y-57010613D01*
X184558572Y-57005769D01*
X184558440Y-57005556D01*
X187516667Y-57005556D01*
X188013889Y-57005556D01*
X188511112Y-57005556D01*
X188511112Y-56512038D01*
X188511071Y-56438944D01*
X188510952Y-56369038D01*
X188510762Y-56303116D01*
X188510507Y-56241974D01*
X188510191Y-56186410D01*
X188509822Y-56137222D01*
X188509405Y-56095205D01*
X188508945Y-56061158D01*
X188508450Y-56035877D01*
X188507925Y-56020159D01*
X188507408Y-56014815D01*
X188501427Y-56014267D01*
X188485131Y-56013743D01*
X188459319Y-56013250D01*
X188424787Y-56012793D01*
X188382332Y-56012378D01*
X188332751Y-56012012D01*
X188276842Y-56011700D01*
X188215401Y-56011448D01*
X188149225Y-56011262D01*
X188079112Y-56011148D01*
X188010186Y-56011112D01*
X187516667Y-56011112D01*
X187516667Y-56508334D01*
X187516667Y-56998850D01*
X187516667Y-57005556D01*
X184558440Y-57005556D01*
X184556719Y-57002778D01*
X185544158Y-57002778D01*
X186039451Y-57004197D01*
X186126270Y-57004425D01*
X186202602Y-57004576D01*
X186269071Y-57004641D01*
X186326302Y-57004613D01*
X186374918Y-57004483D01*
X186415544Y-57004244D01*
X186448804Y-57003888D01*
X186475322Y-57003407D01*
X186495722Y-57002793D01*
X186510629Y-57002039D01*
X186520665Y-57001135D01*
X186526457Y-57000075D01*
X186528627Y-56998850D01*
X186528424Y-56998001D01*
X186527232Y-56993222D01*
X186526181Y-56981646D01*
X186525268Y-56962838D01*
X186524485Y-56936366D01*
X186523829Y-56901795D01*
X186523292Y-56858693D01*
X186522871Y-56806627D01*
X186522559Y-56745161D01*
X186522350Y-56673864D01*
X186522241Y-56592301D01*
X186522223Y-56504916D01*
X186522240Y-56432418D01*
X186522255Y-56363102D01*
X186522268Y-56297774D01*
X186522278Y-56237238D01*
X186522287Y-56182299D01*
X186522292Y-56133762D01*
X186522295Y-56092432D01*
X186522296Y-56059114D01*
X186522294Y-56034612D01*
X186522289Y-56019731D01*
X186522282Y-56015248D01*
X186516850Y-56014640D01*
X186501099Y-56014090D01*
X186475824Y-56013603D01*
X186441816Y-56013183D01*
X186399869Y-56012833D01*
X186350776Y-56012560D01*
X186295330Y-56012368D01*
X186234323Y-56012260D01*
X186168548Y-56012242D01*
X186098799Y-56012318D01*
X186033266Y-56012470D01*
X185544310Y-56013889D01*
X185544234Y-56508334D01*
X185544158Y-57002778D01*
X184556719Y-57002778D01*
X184556551Y-57002506D01*
X184555991Y-57001162D01*
X184555769Y-56994957D01*
X184555542Y-56978039D01*
X184555312Y-56950802D01*
X184555079Y-56913644D01*
X184554845Y-56866961D01*
X184554611Y-56811150D01*
X184554377Y-56746608D01*
X184554144Y-56673731D01*
X184553913Y-56592915D01*
X184553685Y-56504557D01*
X184553461Y-56409054D01*
X184553241Y-56306803D01*
X184553028Y-56198199D01*
X184552821Y-56083641D01*
X184552621Y-55963523D01*
X184552430Y-55838243D01*
X184552248Y-55708197D01*
X184552076Y-55573782D01*
X184551915Y-55435395D01*
X184551766Y-55293432D01*
X184551630Y-55148289D01*
X184551523Y-55019445D01*
X185543835Y-55019445D01*
X186033029Y-55020864D01*
X186522223Y-55022283D01*
X186522223Y-54522223D01*
X186522223Y-54022162D01*
X186033341Y-54023581D01*
X185544460Y-54025000D01*
X185544147Y-54522223D01*
X185543835Y-55019445D01*
X184551523Y-55019445D01*
X184551517Y-55012500D01*
X184549970Y-53033334D01*
X186531941Y-53033334D01*
X188513913Y-53033334D01*
X189008334Y-53527778D01*
X189502754Y-54022223D01*
X188509711Y-54022223D01*
X187516667Y-54022223D01*
X187516667Y-54522223D01*
X187516667Y-55022223D01*
G37*
D14*
%TO.C,J9*%
X165440000Y-99940000D02*
X174560000Y-99940000D01*
X165440000Y-110060000D02*
X165440000Y-99940000D01*
X165440000Y-110060000D02*
X174560000Y-110060000D01*
X167846000Y-101112000D02*
X168226000Y-101492000D01*
X167846000Y-106112000D02*
X167953000Y-106219000D01*
X168112000Y-100846000D02*
X168508000Y-101241000D01*
X168112000Y-105846000D02*
X168219000Y-105953000D01*
X170492000Y-103758000D02*
X170888000Y-104153000D01*
X170774000Y-103507000D02*
X171154000Y-103887000D01*
X170781000Y-109048000D02*
X170888000Y-109154000D01*
X171047000Y-108782000D02*
X171154000Y-108888000D01*
X173000000Y-110060000D02*
X173000000Y-99940000D01*
X174100000Y-110060000D02*
X174100000Y-99940000D01*
X174160000Y-110300000D02*
X174800000Y-110300000D01*
X174560000Y-110060000D02*
X174560000Y-99940000D01*
X174800000Y-110300000D02*
X174800000Y-109900000D01*
X171680000Y-102500000D02*
G75*
G02*
X167320000Y-102500000I-2180000J0D01*
G01*
X167320000Y-102500000D02*
G75*
G02*
X171680000Y-102500000I2180000J0D01*
G01*
X171680000Y-107500000D02*
G75*
G02*
X167320000Y-107500000I-2180000J0D01*
G01*
X167320000Y-107500000D02*
G75*
G02*
X171680000Y-107500000I2180000J0D01*
G01*
%TO.C,J8*%
X224700000Y-99700000D02*
X224700000Y-100100000D01*
X224940000Y-99940000D02*
X224940000Y-110060000D01*
X225340000Y-99700000D02*
X224700000Y-99700000D01*
X225400000Y-99940000D02*
X225400000Y-110060000D01*
X226500000Y-99940000D02*
X226500000Y-110060000D01*
X228453000Y-101218000D02*
X228346000Y-101112000D01*
X228719000Y-100952000D02*
X228612000Y-100846000D01*
X228726000Y-106493000D02*
X228346000Y-106113000D01*
X229008000Y-106242000D02*
X228612000Y-105847000D01*
X231388000Y-104154000D02*
X231281000Y-104047000D01*
X231388000Y-109154000D02*
X230992000Y-108759000D01*
X231654000Y-103888000D02*
X231547000Y-103781000D01*
X231654000Y-108888000D02*
X231274000Y-108508000D01*
X234060000Y-99940000D02*
X224940000Y-99940000D01*
X234060000Y-99940000D02*
X234060000Y-110060000D01*
X234060000Y-110060000D02*
X224940000Y-110060000D01*
X232180000Y-102500000D02*
G75*
G02*
X227820000Y-102500000I-2180000J0D01*
G01*
X227820000Y-102500000D02*
G75*
G02*
X232180000Y-102500000I2180000J0D01*
G01*
X232180000Y-107500000D02*
G75*
G02*
X227820000Y-107500000I-2180000J0D01*
G01*
X227820000Y-107500000D02*
G75*
G02*
X232180000Y-107500000I2180000J0D01*
G01*
D16*
%TO.C,U1*%
X174525000Y-61770000D02*
X225475000Y-61770000D01*
X174525000Y-61770000D02*
X225475000Y-61770000D01*
X174525000Y-72500000D02*
X174525000Y-61770000D01*
X174525000Y-79211000D02*
X174525000Y-72500000D01*
X174525000Y-90280000D02*
X174525000Y-61770000D01*
X174525000Y-90280000D02*
X174525000Y-79211000D01*
X225475000Y-61770000D02*
X225475000Y-90280000D01*
X225475000Y-67220000D02*
X225475000Y-61770000D01*
X225475000Y-84910000D02*
X225475000Y-67220000D01*
X225475000Y-90280000D02*
X174525000Y-90280000D01*
X225475000Y-90280000D02*
X174525000Y-90280000D01*
X225475000Y-90280000D02*
X225475000Y-84910000D01*
D11*
X184585000Y-90850000D02*
G75*
G02*
X184385000Y-90850000I-100000J0D01*
G01*
X184385000Y-90850000D02*
G75*
G02*
X184585000Y-90850000I100000J0D01*
G01*
D14*
%TO.C,TP3*%
X170450000Y-123000000D02*
G75*
G02*
X168550000Y-123000000I-950000J0D01*
G01*
X168550000Y-123000000D02*
G75*
G02*
X170450000Y-123000000I950000J0D01*
G01*
%TO.C,J4*%
X224700000Y-125200000D02*
X224700000Y-125600000D01*
X224940000Y-125440000D02*
X224940000Y-135560000D01*
X225340000Y-125200000D02*
X224700000Y-125200000D01*
X225400000Y-125440000D02*
X225400000Y-135560000D01*
X226500000Y-125440000D02*
X226500000Y-135560000D01*
X228453000Y-126718000D02*
X228346000Y-126612000D01*
X228719000Y-126452000D02*
X228612000Y-126346000D01*
X228726000Y-131993000D02*
X228346000Y-131613000D01*
X229008000Y-131742000D02*
X228612000Y-131347000D01*
X231388000Y-129654000D02*
X231281000Y-129547000D01*
X231388000Y-134654000D02*
X230992000Y-134259000D01*
X231654000Y-129388000D02*
X231547000Y-129281000D01*
X231654000Y-134388000D02*
X231274000Y-134008000D01*
X234060000Y-125440000D02*
X224940000Y-125440000D01*
X234060000Y-125440000D02*
X234060000Y-135560000D01*
X234060000Y-135560000D02*
X224940000Y-135560000D01*
X232180000Y-128000000D02*
G75*
G02*
X227820000Y-128000000I-2180000J0D01*
G01*
X227820000Y-128000000D02*
G75*
G02*
X232180000Y-128000000I2180000J0D01*
G01*
X232180000Y-133000000D02*
G75*
G02*
X227820000Y-133000000I-2180000J0D01*
G01*
X227820000Y-133000000D02*
G75*
G02*
X232180000Y-133000000I2180000J0D01*
G01*
%TO.C,J7*%
X244550000Y-67170000D02*
X245880000Y-67170000D01*
X244550000Y-68500000D02*
X244550000Y-67170000D01*
X247150000Y-67170000D02*
X254830000Y-67170000D01*
X247150000Y-69830000D02*
X247150000Y-67170000D01*
X247150000Y-69830000D02*
X254830000Y-69830000D01*
X254830000Y-69830000D02*
X254830000Y-67170000D01*
%TO.C,JP4*%
X250450000Y-62000000D02*
X254550000Y-62000000D01*
X250450000Y-64000000D02*
X250450000Y-62000000D01*
X250900000Y-64500000D02*
X251500000Y-64500000D01*
X251200000Y-64200000D02*
X250900000Y-64500000D01*
X251200000Y-64200000D02*
X251500000Y-64500000D01*
X254550000Y-62000000D02*
X254550000Y-64000000D01*
X254550000Y-64000000D02*
X250450000Y-64000000D01*
%TO.C,RV1*%
X216575000Y-53195000D02*
X216575000Y-58265000D01*
X216575000Y-53195000D02*
X226345000Y-53195000D01*
X216575000Y-58265000D02*
X226345000Y-58265000D01*
X226345000Y-53195000D02*
X226345000Y-58265000D01*
%TO.C,J2*%
X204940000Y-59560000D02*
X204940000Y-50440000D01*
X205846000Y-56888000D02*
X206241000Y-56492000D01*
X206112000Y-57154000D02*
X206492000Y-56774000D01*
X208507000Y-54226000D02*
X208887000Y-53846000D01*
X208758000Y-54508000D02*
X209153000Y-54112000D01*
X210846000Y-56888000D02*
X210953000Y-56781000D01*
X211112000Y-57154000D02*
X211219000Y-57047000D01*
X213782000Y-53953000D02*
X213888000Y-53846000D01*
X214048000Y-54219000D02*
X214154000Y-54112000D01*
X215060000Y-50440000D02*
X204940000Y-50440000D01*
X215060000Y-50900000D02*
X204940000Y-50900000D01*
X215060000Y-52000000D02*
X204940000Y-52000000D01*
X215060000Y-59560000D02*
X204940000Y-59560000D01*
X215060000Y-59560000D02*
X215060000Y-50440000D01*
X215300000Y-50200000D02*
X214900000Y-50200000D01*
X215300000Y-50840000D02*
X215300000Y-50200000D01*
X209680000Y-55500000D02*
G75*
G02*
X205320000Y-55500000I-2180000J0D01*
G01*
X205320000Y-55500000D02*
G75*
G02*
X209680000Y-55500000I2180000J0D01*
G01*
X214680000Y-55500000D02*
G75*
G02*
X210320000Y-55500000I-2180000J0D01*
G01*
X210320000Y-55500000D02*
G75*
G02*
X214680000Y-55500000I2180000J0D01*
G01*
%TO.C,JP3*%
X244150000Y-62000000D02*
X248250000Y-62000000D01*
X244150000Y-64000000D02*
X244150000Y-62000000D01*
X244600000Y-64500000D02*
X245200000Y-64500000D01*
X244900000Y-64200000D02*
X244600000Y-64500000D01*
X244900000Y-64200000D02*
X245200000Y-64500000D01*
X248250000Y-62000000D02*
X248250000Y-64000000D01*
X248250000Y-64000000D02*
X244150000Y-64000000D01*
%TO.C,TP2*%
X170450000Y-113000000D02*
G75*
G02*
X168550000Y-113000000I-950000J0D01*
G01*
X168550000Y-113000000D02*
G75*
G02*
X170450000Y-113000000I950000J0D01*
G01*
%TO.C,TP1*%
X202950000Y-55500000D02*
G75*
G02*
X201050000Y-55500000I-950000J0D01*
G01*
X201050000Y-55500000D02*
G75*
G02*
X202950000Y-55500000I950000J0D01*
G01*
%TO.C,J10*%
X236670000Y-117270000D02*
X236670000Y-127490000D01*
X236670000Y-117270000D02*
X239330000Y-117270000D01*
X236670000Y-127490000D02*
X239330000Y-127490000D01*
X238000000Y-114670000D02*
X239330000Y-114670000D01*
X239330000Y-114670000D02*
X239330000Y-116000000D01*
X239330000Y-117270000D02*
X239330000Y-127490000D01*
%TO.C,JP2*%
X229500000Y-119950000D02*
X231500000Y-119950000D01*
X229500000Y-124050000D02*
X229500000Y-119950000D01*
X231500000Y-119950000D02*
X231500000Y-124050000D01*
X231500000Y-124050000D02*
X229500000Y-124050000D01*
X231700000Y-123300000D02*
X232000000Y-123000000D01*
X231700000Y-123300000D02*
X232000000Y-123600000D01*
X232000000Y-123600000D02*
X232000000Y-123000000D01*
%TO.C,JP1*%
X229500000Y-114950000D02*
X231500000Y-114950000D01*
X229500000Y-119050000D02*
X229500000Y-114950000D01*
X231500000Y-114950000D02*
X231500000Y-119050000D01*
X231500000Y-119050000D02*
X229500000Y-119050000D01*
X231700000Y-118300000D02*
X232000000Y-118000000D01*
X231700000Y-118300000D02*
X232000000Y-118600000D01*
X232000000Y-118600000D02*
X232000000Y-118000000D01*
D15*
%TO.C,G\u002A\u002A\u002A*%
G36*
X194628770Y-54063923D02*
G01*
X194628770Y-55128770D01*
X193563923Y-55128770D01*
X192499077Y-55128770D01*
X192499077Y-54063923D01*
X192499077Y-52999077D01*
X193563923Y-52999077D01*
X194628770Y-52999077D01*
X194628770Y-54063923D01*
G37*
G36*
X197500923Y-55861462D02*
G01*
X197500923Y-58000923D01*
X195371231Y-58000923D01*
X193241539Y-58000923D01*
X193241539Y-56936077D01*
X193241539Y-55871231D01*
X194306385Y-55871231D01*
X195371231Y-55871231D01*
X195371231Y-54796616D01*
X195371231Y-53722000D01*
X196436077Y-53722000D01*
X197500923Y-53722000D01*
X197500923Y-55861462D01*
G37*
%TD*%
M02*
