%TF.GenerationSoftware,KiCad,Pcbnew,8.0.7*%
%TF.CreationDate,2025-03-24T14:38:58+07:00*%
%TF.ProjectId,esp32_getstok_testing,65737033-325f-4676-9574-73746f6b5f74,rev?*%
%TF.SameCoordinates,Original*%
%TF.FileFunction,Copper,L2,Bot*%
%TF.FilePolarity,Positive*%
%FSLAX46Y46*%
G04 Gerber Fmt 4.6, Leading zero omitted, Abs format (unit mm)*
G04 Created by KiCad (PCBNEW 8.0.7) date 2025-03-24 14:38:58*
%MOMM*%
%LPD*%
G01*
G04 APERTURE LIST*
%TA.AperFunction,ComponentPad*%
%ADD10R,2.600000X2.600000*%
%TD*%
%TA.AperFunction,ComponentPad*%
%ADD11C,2.600000*%
%TD*%
%TA.AperFunction,ComponentPad*%
%ADD12C,10.600000*%
%TD*%
%TA.AperFunction,ComponentPad*%
%ADD13R,2.000000X2.000000*%
%TD*%
%TA.AperFunction,ComponentPad*%
%ADD14C,2.000000*%
%TD*%
%TA.AperFunction,ComponentPad*%
%ADD15R,1.700000X1.700000*%
%TD*%
%TA.AperFunction,ComponentPad*%
%ADD16O,1.700000X1.700000*%
%TD*%
%TA.AperFunction,ComponentPad*%
%ADD17C,1.440000*%
%TD*%
%TA.AperFunction,ViaPad*%
%ADD18C,1.000000*%
%TD*%
%TA.AperFunction,Conductor*%
%ADD19C,0.300000*%
%TD*%
%TA.AperFunction,Conductor*%
%ADD20C,0.254000*%
%TD*%
%TA.AperFunction,Conductor*%
%ADD21C,0.500000*%
%TD*%
%TA.AperFunction,Conductor*%
%ADD22C,1.000000*%
%TD*%
G04 APERTURE END LIST*
D10*
%TO.P,J1,1,Pin_1*%
%TO.N,/Vin*%
X235500000Y-55500000D03*
D11*
%TO.P,J1,2,Pin_2*%
%TO.N,GND*%
X230500000Y-55500000D03*
%TD*%
D12*
%TO.P,H7,1,1*%
%TO.N,GND*%
X259000000Y-144000000D03*
%TD*%
%TO.P,H8,1,1*%
%TO.N,GND*%
X171000000Y-144000000D03*
%TD*%
D10*
%TO.P,J6,1,Pin_1*%
%TO.N,+4V*%
X169500000Y-133000000D03*
D11*
%TO.P,J6,2,Pin_2*%
%TO.N,GND*%
X169500000Y-128000000D03*
%TD*%
D10*
%TO.P,J9,1,Pin_1*%
%TO.N,+3.3V*%
X169500000Y-107500000D03*
D11*
%TO.P,J9,2,Pin_2*%
%TO.N,GND*%
X169500000Y-102500000D03*
%TD*%
D10*
%TO.P,J8,1,Pin_1*%
%TO.N,/Vin*%
X230000000Y-102500000D03*
D11*
%TO.P,J8,2,Pin_2*%
%TO.N,GND*%
X230000000Y-107500000D03*
%TD*%
D13*
%TO.P,U1,1,3V3*%
%TO.N,+3.3V*%
X184485000Y-88700000D03*
D14*
%TO.P,U1,2,GND*%
%TO.N,GND*%
X187025000Y-88700000D03*
%TO.P,U1,3,D15*%
%TO.N,unconnected-(U1-D15-Pad3)*%
X189565000Y-88700000D03*
%TO.P,U1,4,D2*%
%TO.N,unconnected-(U1-D2-Pad4)*%
X192105000Y-88700000D03*
%TO.P,U1,5,D4*%
%TO.N,unconnected-(U1-D4-Pad5)*%
X194645000Y-88700000D03*
%TO.P,U1,6,RX2*%
%TO.N,/RX2*%
X197185000Y-88700000D03*
%TO.P,U1,7,TX2*%
%TO.N,/TX2*%
X199725000Y-88700000D03*
%TO.P,U1,8,D5*%
%TO.N,unconnected-(U1-D5-Pad8)*%
X202265000Y-88700000D03*
%TO.P,U1,9,D18*%
%TO.N,unconnected-(U1-D18-Pad9)*%
X204805000Y-88700000D03*
%TO.P,U1,10,D19*%
%TO.N,unconnected-(U1-D19-Pad10)*%
X207345000Y-88700000D03*
%TO.P,U1,11,D21*%
%TO.N,unconnected-(U1-D21-Pad11)*%
X209885000Y-88700000D03*
%TO.P,U1,12,RX0*%
%TO.N,unconnected-(U1-RX0-Pad12)*%
X212425000Y-88700000D03*
%TO.P,U1,13,TX0*%
%TO.N,unconnected-(U1-TX0-Pad13)*%
X214965000Y-88700000D03*
%TO.P,U1,14,D22*%
%TO.N,/GPIO22*%
X217505000Y-88700000D03*
%TO.P,U1,15,D23*%
%TO.N,/GPIO23*%
X220045000Y-88700000D03*
%TO.P,U1,16,EN*%
%TO.N,unconnected-(U1-EN-Pad16)*%
X220045000Y-63300000D03*
%TO.P,U1,17,VP*%
%TO.N,unconnected-(U1-VP-Pad17)*%
X217505000Y-63300000D03*
%TO.P,U1,18,VN*%
%TO.N,unconnected-(U1-VN-Pad18)*%
X214965000Y-63300000D03*
%TO.P,U1,19,D34*%
%TO.N,/ADC_IN*%
X212425000Y-63300000D03*
%TO.P,U1,20,D35*%
%TO.N,unconnected-(U1-D35-Pad20)*%
X209885000Y-63300000D03*
%TO.P,U1,21,D32*%
%TO.N,unconnected-(U1-D32-Pad21)*%
X207345000Y-63300000D03*
%TO.P,U1,22,D33*%
%TO.N,unconnected-(U1-D33-Pad22)*%
X204805000Y-63300000D03*
%TO.P,U1,23,D25*%
%TO.N,unconnected-(U1-D25-Pad23)*%
X202265000Y-63300000D03*
%TO.P,U1,24,D26*%
%TO.N,unconnected-(U1-D26-Pad24)*%
X199725000Y-63300000D03*
%TO.P,U1,25,D27*%
%TO.N,unconnected-(U1-D27-Pad25)*%
X197185000Y-63300000D03*
%TO.P,U1,26,D14*%
%TO.N,unconnected-(U1-D14-Pad26)*%
X194645000Y-63300000D03*
%TO.P,U1,27,D12*%
%TO.N,unconnected-(U1-D12-Pad27)*%
X192105000Y-63300000D03*
%TO.P,U1,28,D13*%
%TO.N,unconnected-(U1-D13-Pad28)*%
X189565000Y-63300000D03*
%TO.P,U1,29,GND*%
%TO.N,GND*%
X187025000Y-63300000D03*
%TO.P,U1,30,VIN*%
%TO.N,unconnected-(U1-VIN-Pad30)*%
X184485000Y-63300000D03*
%TD*%
D10*
%TO.P,J4,1,Pin_1*%
%TO.N,/Vin*%
X230000000Y-128000000D03*
D11*
%TO.P,J4,2,Pin_2*%
%TO.N,GND*%
X230000000Y-133000000D03*
%TD*%
D15*
%TO.P,J7,1,Pin_1*%
%TO.N,+3.3V*%
X245880000Y-68500000D03*
D16*
%TO.P,J7,2,Pin_2*%
%TO.N,/RX_GPS*%
X248420000Y-68500000D03*
%TO.P,J7,3,Pin_3*%
%TO.N,/TX_GPS*%
X250960000Y-68500000D03*
%TO.P,J7,4,Pin_4*%
%TO.N,GND*%
X253500000Y-68500000D03*
%TD*%
D17*
%TO.P,RV1,1,1*%
%TO.N,+3.3V*%
X224000000Y-55725000D03*
%TO.P,RV1,2,2*%
%TO.N,/ADC_IN*%
X221460000Y-55725000D03*
%TO.P,RV1,3,3*%
%TO.N,unconnected-(RV1-Pad3)*%
X218920000Y-55725000D03*
%TD*%
D10*
%TO.P,J2,1,Pin_1*%
%TO.N,/ADC_IN*%
X212500000Y-55500000D03*
D11*
%TO.P,J2,2,Pin_2*%
%TO.N,GND*%
X207500000Y-55500000D03*
%TD*%
D15*
%TO.P,J10,1,Pin_1*%
%TO.N,+4V*%
X238000000Y-116000000D03*
D16*
%TO.P,J10,2,Pin_2*%
%TO.N,unconnected-(J10-Pin_2-Pad2)*%
X238000000Y-118540000D03*
%TO.P,J10,3,Pin_3*%
%TO.N,/RX_SIM*%
X238000000Y-121080000D03*
%TO.P,J10,4,Pin_4*%
%TO.N,/TX_SIM*%
X238000000Y-123620000D03*
%TO.P,J10,5,Pin_5*%
%TO.N,GND*%
X238000000Y-126160000D03*
%TD*%
D12*
%TO.P,H5,1,1*%
%TO.N,GND*%
X171000000Y-56000000D03*
%TD*%
%TO.P,H6,1,1*%
%TO.N,GND*%
X259000000Y-56000000D03*
%TD*%
D18*
%TO.N,/RX2*%
X232500000Y-117000000D03*
%TO.N,/TX2*%
X232500000Y-122000000D03*
%TO.N,/GPIO22*%
X235500000Y-91000000D03*
%TO.N,/GPIO23*%
X233950000Y-89050000D03*
X227500000Y-89050000D03*
%TO.N,/RX_GPS*%
X253800000Y-65100000D03*
X249826333Y-66085000D03*
%TO.N,/TX_GPS*%
X244900000Y-64950000D03*
X251200000Y-64900000D03*
%TO.N,+3.3V*%
X224000000Y-60500000D03*
%TD*%
D19*
%TO.N,/RX2*%
X235000000Y-96000000D02*
X232500000Y-93500000D01*
X197185000Y-91685000D02*
X197185000Y-88700000D01*
X235000000Y-114500000D02*
X235000000Y-96000000D01*
X232500000Y-93500000D02*
X199000000Y-93500000D01*
X199000000Y-93500000D02*
X197185000Y-91685000D01*
X232500000Y-117000000D02*
X235000000Y-114500000D01*
%TO.N,/TX2*%
X201500000Y-92500000D02*
X199725000Y-90725000D01*
X232642685Y-92500000D02*
X201500000Y-92500000D01*
X199725000Y-90725000D02*
X199725000Y-88700000D01*
X235808000Y-95665315D02*
X232642685Y-92500000D01*
X235808000Y-118692000D02*
X235808000Y-95665315D01*
X232500000Y-122000000D02*
X235808000Y-118692000D01*
%TO.N,/GPIO22*%
X217505000Y-90505000D02*
X217505000Y-88700000D01*
X218000000Y-91000000D02*
X217505000Y-90505000D01*
X235500000Y-91000000D02*
X218000000Y-91000000D01*
%TO.N,/GPIO23*%
X233950000Y-89050000D02*
X227500000Y-89050000D01*
D20*
%TO.N,/RX_GPS*%
X252815000Y-66085000D02*
X253800000Y-65100000D01*
X249826333Y-66085000D02*
X252815000Y-66085000D01*
%TO.N,/TX_GPS*%
X251150000Y-64950000D02*
X251200000Y-64900000D01*
X244900000Y-64950000D02*
X251150000Y-64950000D01*
D21*
%TO.N,+3.3V*%
X182200000Y-88700000D02*
X184485000Y-88700000D01*
X181000000Y-87500000D02*
X182200000Y-88700000D01*
X183000000Y-60500000D02*
X181000000Y-62500000D01*
X224000000Y-60500000D02*
X183000000Y-60500000D01*
X181000000Y-62500000D02*
X181000000Y-87500000D01*
X238500000Y-68500000D02*
X245880000Y-68500000D01*
X237000000Y-60500000D02*
X238000000Y-61500000D01*
X238000000Y-68000000D02*
X238500000Y-68500000D01*
X224000000Y-60500000D02*
X237000000Y-60500000D01*
X238000000Y-61500000D02*
X238000000Y-68000000D01*
D22*
%TO.N,/Vin*%
X225500000Y-102500000D02*
X223500000Y-104500000D01*
X223500000Y-104500000D02*
X223500000Y-126000000D01*
X225500000Y-128000000D02*
X230000000Y-128000000D01*
X230000000Y-102500000D02*
X225500000Y-102500000D01*
X223500000Y-126000000D02*
X225500000Y-128000000D01*
%TD*%
%TA.AperFunction,Conductor*%
%TO.N,GND*%
G36*
X254586186Y-52020185D02*
G01*
X254631941Y-52072989D01*
X254641885Y-52142147D01*
X254613769Y-52204641D01*
X254419074Y-52434516D01*
X254419060Y-52434535D01*
X254140292Y-52824974D01*
X254140279Y-52824993D01*
X253894686Y-53237153D01*
X253894685Y-53237154D01*
X253683978Y-53668161D01*
X253683965Y-53668192D01*
X253509572Y-54115127D01*
X253509568Y-54115138D01*
X253372670Y-54574970D01*
X253274212Y-55044535D01*
X253214868Y-55520630D01*
X253195041Y-55999998D01*
X253195041Y-56000001D01*
X253214868Y-56479369D01*
X253274212Y-56955464D01*
X253372670Y-57425029D01*
X253509568Y-57884861D01*
X253509572Y-57884872D01*
X253683965Y-58331807D01*
X253683978Y-58331838D01*
X253894685Y-58762845D01*
X253894686Y-58762846D01*
X254140279Y-59175006D01*
X254140292Y-59175025D01*
X254419060Y-59565464D01*
X254419074Y-59565483D01*
X254722595Y-59923849D01*
X254722596Y-59923849D01*
X256957450Y-57688994D01*
X257020934Y-57768601D01*
X257231399Y-57979066D01*
X257311003Y-58042548D01*
X255076149Y-60277402D01*
X255076149Y-60277403D01*
X255434516Y-60580925D01*
X255434535Y-60580939D01*
X255824974Y-60859707D01*
X255824993Y-60859720D01*
X256237153Y-61105313D01*
X256237154Y-61105314D01*
X256668161Y-61316021D01*
X256668192Y-61316034D01*
X257115127Y-61490427D01*
X257115138Y-61490431D01*
X257574970Y-61627329D01*
X258044535Y-61725787D01*
X258520630Y-61785131D01*
X258999998Y-61804959D01*
X259000002Y-61804959D01*
X259479369Y-61785131D01*
X259955464Y-61725787D01*
X260425029Y-61627329D01*
X260884861Y-61490431D01*
X260884872Y-61490427D01*
X261331807Y-61316034D01*
X261331838Y-61316021D01*
X261762845Y-61105314D01*
X261762846Y-61105313D01*
X262175006Y-60859720D01*
X262175025Y-60859707D01*
X262565464Y-60580939D01*
X262565483Y-60580925D01*
X262795359Y-60386230D01*
X262859238Y-60357923D01*
X262928280Y-60368645D01*
X262980564Y-60414993D01*
X262999500Y-60480852D01*
X262999500Y-139519147D01*
X262979815Y-139586186D01*
X262927011Y-139631941D01*
X262857853Y-139641885D01*
X262795359Y-139613769D01*
X262565483Y-139419074D01*
X262565464Y-139419060D01*
X262175025Y-139140292D01*
X262175006Y-139140279D01*
X261762846Y-138894686D01*
X261762845Y-138894685D01*
X261331838Y-138683978D01*
X261331807Y-138683965D01*
X260884872Y-138509572D01*
X260884861Y-138509568D01*
X260425029Y-138372670D01*
X259955464Y-138274212D01*
X259479369Y-138214868D01*
X259000002Y-138195041D01*
X258999998Y-138195041D01*
X258520630Y-138214868D01*
X258044535Y-138274212D01*
X257574970Y-138372670D01*
X257115138Y-138509568D01*
X257115127Y-138509572D01*
X256668192Y-138683965D01*
X256668161Y-138683978D01*
X256237154Y-138894685D01*
X256237153Y-138894686D01*
X255824993Y-139140279D01*
X255824974Y-139140292D01*
X255434535Y-139419060D01*
X255434516Y-139419074D01*
X255076149Y-139722596D01*
X257311004Y-141957451D01*
X257231399Y-142020934D01*
X257020934Y-142231399D01*
X256957451Y-142311004D01*
X254722596Y-140076149D01*
X254419074Y-140434516D01*
X254419060Y-140434535D01*
X254140292Y-140824974D01*
X254140279Y-140824993D01*
X253894686Y-141237153D01*
X253894685Y-141237154D01*
X253683978Y-141668161D01*
X253683965Y-141668192D01*
X253509572Y-142115127D01*
X253509568Y-142115138D01*
X253372670Y-142574970D01*
X253274212Y-143044535D01*
X253214868Y-143520630D01*
X253195041Y-143999998D01*
X253195041Y-144000001D01*
X253214868Y-144479369D01*
X253274212Y-144955464D01*
X253372670Y-145425029D01*
X253509568Y-145884861D01*
X253509572Y-145884872D01*
X253683965Y-146331807D01*
X253683978Y-146331838D01*
X253894685Y-146762845D01*
X253894686Y-146762846D01*
X254140279Y-147175006D01*
X254140292Y-147175025D01*
X254419060Y-147565464D01*
X254419074Y-147565483D01*
X254613769Y-147795359D01*
X254642076Y-147859238D01*
X254631353Y-147928280D01*
X254585006Y-147980565D01*
X254519147Y-147999500D01*
X175480853Y-147999500D01*
X175413814Y-147979815D01*
X175368059Y-147927011D01*
X175358115Y-147857853D01*
X175386231Y-147795359D01*
X175580925Y-147565483D01*
X175580939Y-147565464D01*
X175859707Y-147175025D01*
X175859720Y-147175006D01*
X176105313Y-146762846D01*
X176105314Y-146762845D01*
X176316021Y-146331838D01*
X176316034Y-146331807D01*
X176490427Y-145884872D01*
X176490431Y-145884861D01*
X176627329Y-145425029D01*
X176725787Y-144955464D01*
X176785131Y-144479369D01*
X176804959Y-144000001D01*
X176804959Y-143999998D01*
X176785131Y-143520630D01*
X176725787Y-143044535D01*
X176627329Y-142574970D01*
X176490431Y-142115138D01*
X176490427Y-142115127D01*
X176316034Y-141668192D01*
X176316021Y-141668161D01*
X176105314Y-141237154D01*
X176105313Y-141237153D01*
X175859720Y-140824993D01*
X175859707Y-140824974D01*
X175580939Y-140434535D01*
X175580925Y-140434516D01*
X175277403Y-140076149D01*
X175277402Y-140076149D01*
X173042548Y-142311003D01*
X172979066Y-142231399D01*
X172768601Y-142020934D01*
X172688994Y-141957450D01*
X174923849Y-139722596D01*
X174923849Y-139722595D01*
X174565483Y-139419074D01*
X174565464Y-139419060D01*
X174175025Y-139140292D01*
X174175006Y-139140279D01*
X173762846Y-138894686D01*
X173762845Y-138894685D01*
X173331838Y-138683978D01*
X173331807Y-138683965D01*
X172884872Y-138509572D01*
X172884861Y-138509568D01*
X172425029Y-138372670D01*
X171955464Y-138274212D01*
X171479369Y-138214868D01*
X171000002Y-138195041D01*
X170999998Y-138195041D01*
X170520630Y-138214868D01*
X170044535Y-138274212D01*
X169574970Y-138372670D01*
X169115138Y-138509568D01*
X169115127Y-138509572D01*
X168668192Y-138683965D01*
X168668161Y-138683978D01*
X168237154Y-138894685D01*
X168237153Y-138894686D01*
X167824993Y-139140279D01*
X167824974Y-139140292D01*
X167434535Y-139419060D01*
X167434516Y-139419074D01*
X167204641Y-139613769D01*
X167140762Y-139642076D01*
X167071720Y-139631353D01*
X167019435Y-139585006D01*
X167000500Y-139519147D01*
X167000500Y-137361808D01*
X211891500Y-137361808D01*
X211891500Y-137638191D01*
X211891501Y-137638208D01*
X211927576Y-137912227D01*
X211999116Y-138179216D01*
X212104881Y-138434557D01*
X212104886Y-138434567D01*
X212243085Y-138673933D01*
X212243087Y-138673936D01*
X212243091Y-138673942D01*
X212411342Y-138893212D01*
X212411348Y-138893219D01*
X212606780Y-139088651D01*
X212606787Y-139088657D01*
X212826057Y-139256908D01*
X212826061Y-139256910D01*
X212826067Y-139256915D01*
X213065433Y-139395114D01*
X213065438Y-139395116D01*
X213065442Y-139395118D01*
X213320783Y-139500883D01*
X213320785Y-139500883D01*
X213320791Y-139500886D01*
X213587769Y-139572423D01*
X213861802Y-139608500D01*
X213861809Y-139608500D01*
X214138191Y-139608500D01*
X214138198Y-139608500D01*
X214412231Y-139572423D01*
X214679209Y-139500886D01*
X214934567Y-139395114D01*
X215173933Y-139256915D01*
X215393214Y-139088656D01*
X215588656Y-138893214D01*
X215756915Y-138673933D01*
X215895114Y-138434567D01*
X216000886Y-138179209D01*
X216072423Y-137912231D01*
X216108500Y-137638198D01*
X216108500Y-137361802D01*
X216072423Y-137087769D01*
X216000886Y-136820791D01*
X215895114Y-136565433D01*
X215756915Y-136326067D01*
X215756910Y-136326061D01*
X215756908Y-136326057D01*
X215588657Y-136106787D01*
X215588651Y-136106780D01*
X215393219Y-135911348D01*
X215393212Y-135911342D01*
X215173942Y-135743091D01*
X215173936Y-135743087D01*
X215173933Y-135743085D01*
X214934567Y-135604886D01*
X214934557Y-135604881D01*
X214679216Y-135499116D01*
X214412227Y-135427576D01*
X214138208Y-135391501D01*
X214138203Y-135391500D01*
X214138198Y-135391500D01*
X213861802Y-135391500D01*
X213861796Y-135391500D01*
X213861791Y-135391501D01*
X213587772Y-135427576D01*
X213320783Y-135499116D01*
X213065442Y-135604881D01*
X213065432Y-135604886D01*
X212826067Y-135743085D01*
X212826057Y-135743091D01*
X212606787Y-135911342D01*
X212606780Y-135911348D01*
X212411348Y-136106780D01*
X212411342Y-136106787D01*
X212243091Y-136326057D01*
X212243085Y-136326067D01*
X212104886Y-136565432D01*
X212104881Y-136565442D01*
X211999116Y-136820783D01*
X211927576Y-137087772D01*
X211891501Y-137361791D01*
X211891500Y-137361808D01*
X167000500Y-137361808D01*
X167000500Y-131651345D01*
X167691500Y-131651345D01*
X167691500Y-134348654D01*
X167698011Y-134409202D01*
X167698011Y-134409204D01*
X167749111Y-134546204D01*
X167836739Y-134663261D01*
X167953796Y-134750889D01*
X168068949Y-134793839D01*
X168085463Y-134799999D01*
X168090799Y-134801989D01*
X168118050Y-134804918D01*
X168151345Y-134808499D01*
X168151362Y-134808500D01*
X170848638Y-134808500D01*
X170848654Y-134808499D01*
X170875692Y-134805591D01*
X170909201Y-134801989D01*
X170914537Y-134799999D01*
X170923768Y-134796555D01*
X171046204Y-134750889D01*
X171163261Y-134663261D01*
X171250889Y-134546204D01*
X171301989Y-134409201D01*
X171305591Y-134375692D01*
X171308499Y-134348654D01*
X171308500Y-134348637D01*
X171308500Y-132999995D01*
X228194953Y-132999995D01*
X228194953Y-133000004D01*
X228215113Y-133269026D01*
X228215113Y-133269028D01*
X228275142Y-133532033D01*
X228275148Y-133532052D01*
X228373709Y-133783181D01*
X228373708Y-133783181D01*
X228508600Y-134016818D01*
X228562294Y-134084150D01*
X228562295Y-134084150D01*
X229398958Y-133247487D01*
X229423978Y-133307890D01*
X229495112Y-133414351D01*
X229585649Y-133504888D01*
X229692110Y-133576022D01*
X229752511Y-133601041D01*
X228914848Y-134438703D01*
X229097476Y-134563216D01*
X229097485Y-134563221D01*
X229340539Y-134680269D01*
X229340537Y-134680269D01*
X229598337Y-134759790D01*
X229598343Y-134759792D01*
X229865101Y-134799999D01*
X229865110Y-134800000D01*
X230134890Y-134800000D01*
X230134898Y-134799999D01*
X230401656Y-134759792D01*
X230401662Y-134759790D01*
X230659461Y-134680269D01*
X230902516Y-134563221D01*
X230902517Y-134563220D01*
X231085150Y-134438703D01*
X230247487Y-133601041D01*
X230307890Y-133576022D01*
X230414351Y-133504888D01*
X230504888Y-133414351D01*
X230576022Y-133307890D01*
X230601041Y-133247487D01*
X231437703Y-134084150D01*
X231437704Y-134084149D01*
X231491400Y-134016818D01*
X231626290Y-133783181D01*
X231724851Y-133532052D01*
X231724857Y-133532033D01*
X231784886Y-133269028D01*
X231784886Y-133269026D01*
X231805047Y-133000004D01*
X231805047Y-132999995D01*
X231784886Y-132730973D01*
X231784886Y-132730971D01*
X231724857Y-132467966D01*
X231724851Y-132467947D01*
X231626290Y-132216818D01*
X231626291Y-132216818D01*
X231491400Y-131983182D01*
X231491393Y-131983171D01*
X231437704Y-131915849D01*
X231437703Y-131915848D01*
X230601041Y-132752511D01*
X230576022Y-132692110D01*
X230504888Y-132585649D01*
X230414351Y-132495112D01*
X230307890Y-132423978D01*
X230247488Y-132398958D01*
X231085150Y-131561295D01*
X230902524Y-131436783D01*
X230902516Y-131436778D01*
X230659460Y-131319730D01*
X230659462Y-131319730D01*
X230401662Y-131240209D01*
X230401656Y-131240207D01*
X230134898Y-131200000D01*
X229865101Y-131200000D01*
X229598343Y-131240207D01*
X229598337Y-131240209D01*
X229340538Y-131319730D01*
X229097482Y-131436780D01*
X229097469Y-131436787D01*
X228914848Y-131561294D01*
X229752512Y-132398958D01*
X229692110Y-132423978D01*
X229585649Y-132495112D01*
X229495112Y-132585649D01*
X229423978Y-132692110D01*
X229398958Y-132752512D01*
X228562294Y-131915848D01*
X228508602Y-131983177D01*
X228373709Y-132216818D01*
X228275148Y-132467947D01*
X228275142Y-132467966D01*
X228215113Y-132730971D01*
X228215113Y-132730973D01*
X228194953Y-132999995D01*
X171308500Y-132999995D01*
X171308500Y-131651362D01*
X171308499Y-131651345D01*
X171305157Y-131620270D01*
X171301989Y-131590799D01*
X171290984Y-131561295D01*
X171279522Y-131530564D01*
X171250889Y-131453796D01*
X171163261Y-131336739D01*
X171046204Y-131249111D01*
X171022332Y-131240207D01*
X170909203Y-131198011D01*
X170848654Y-131191500D01*
X170848638Y-131191500D01*
X168151362Y-131191500D01*
X168151345Y-131191500D01*
X168090797Y-131198011D01*
X168090795Y-131198011D01*
X167953795Y-131249111D01*
X167836739Y-131336739D01*
X167749111Y-131453795D01*
X167698011Y-131590795D01*
X167698011Y-131590797D01*
X167691500Y-131651345D01*
X167000500Y-131651345D01*
X167000500Y-127999995D01*
X167694953Y-127999995D01*
X167694953Y-128000004D01*
X167715113Y-128269026D01*
X167715113Y-128269028D01*
X167775142Y-128532033D01*
X167775148Y-128532052D01*
X167873709Y-128783181D01*
X167873708Y-128783181D01*
X168008600Y-129016818D01*
X168062294Y-129084150D01*
X168062295Y-129084150D01*
X168898958Y-128247487D01*
X168923978Y-128307890D01*
X168995112Y-128414351D01*
X169085649Y-128504888D01*
X169192110Y-128576022D01*
X169252511Y-128601041D01*
X168414848Y-129438703D01*
X168597476Y-129563216D01*
X168597485Y-129563221D01*
X168840539Y-129680269D01*
X168840537Y-129680269D01*
X169098337Y-129759790D01*
X169098343Y-129759792D01*
X169365101Y-129799999D01*
X169365110Y-129800000D01*
X169634890Y-129800000D01*
X169634898Y-129799999D01*
X169901656Y-129759792D01*
X169901662Y-129759790D01*
X170159461Y-129680269D01*
X170402516Y-129563221D01*
X170402517Y-129563220D01*
X170585150Y-129438703D01*
X169747487Y-128601041D01*
X169807890Y-128576022D01*
X169914351Y-128504888D01*
X170004888Y-128414351D01*
X170076022Y-128307890D01*
X170101041Y-128247487D01*
X170937703Y-129084150D01*
X170937704Y-129084149D01*
X170991400Y-129016818D01*
X171126290Y-128783181D01*
X171224851Y-128532052D01*
X171224857Y-128532033D01*
X171284886Y-128269028D01*
X171284886Y-128269026D01*
X171305047Y-128000004D01*
X171305047Y-127999995D01*
X171284886Y-127730973D01*
X171284886Y-127730971D01*
X171224857Y-127467966D01*
X171224851Y-127467947D01*
X171126290Y-127216818D01*
X171126291Y-127216818D01*
X170991400Y-126983182D01*
X170991393Y-126983171D01*
X170937704Y-126915849D01*
X170937703Y-126915848D01*
X170101041Y-127752511D01*
X170076022Y-127692110D01*
X170004888Y-127585649D01*
X169914351Y-127495112D01*
X169807890Y-127423978D01*
X169747488Y-127398958D01*
X170585150Y-126561295D01*
X170402524Y-126436783D01*
X170402516Y-126436778D01*
X170159460Y-126319730D01*
X170159462Y-126319730D01*
X169901662Y-126240209D01*
X169901656Y-126240207D01*
X169634898Y-126200000D01*
X169365101Y-126200000D01*
X169098343Y-126240207D01*
X169098337Y-126240209D01*
X168840538Y-126319730D01*
X168597482Y-126436780D01*
X168597469Y-126436787D01*
X168414848Y-126561294D01*
X169252512Y-127398958D01*
X169192110Y-127423978D01*
X169085649Y-127495112D01*
X168995112Y-127585649D01*
X168923978Y-127692110D01*
X168898958Y-127752512D01*
X168062294Y-126915848D01*
X168008602Y-126983177D01*
X167873709Y-127216818D01*
X167775148Y-127467947D01*
X167775142Y-127467966D01*
X167715113Y-127730971D01*
X167715113Y-127730973D01*
X167694953Y-127999995D01*
X167000500Y-127999995D01*
X167000500Y-123361808D01*
X183391500Y-123361808D01*
X183391500Y-123638191D01*
X183391501Y-123638208D01*
X183427576Y-123912227D01*
X183499116Y-124179216D01*
X183604881Y-124434557D01*
X183604886Y-124434567D01*
X183743085Y-124673933D01*
X183743087Y-124673936D01*
X183743091Y-124673942D01*
X183911342Y-124893212D01*
X183911348Y-124893219D01*
X184106780Y-125088651D01*
X184106787Y-125088657D01*
X184326057Y-125256908D01*
X184326061Y-125256910D01*
X184326067Y-125256915D01*
X184565433Y-125395114D01*
X184565438Y-125395116D01*
X184565442Y-125395118D01*
X184820783Y-125500883D01*
X184820785Y-125500883D01*
X184820791Y-125500886D01*
X185087769Y-125572423D01*
X185361802Y-125608500D01*
X185361809Y-125608500D01*
X185638191Y-125608500D01*
X185638198Y-125608500D01*
X185912231Y-125572423D01*
X186179209Y-125500886D01*
X186434567Y-125395114D01*
X186673933Y-125256915D01*
X186893214Y-125088656D01*
X187088656Y-124893214D01*
X187256915Y-124673933D01*
X187395114Y-124434567D01*
X187500886Y-124179209D01*
X187572423Y-123912231D01*
X187608500Y-123638198D01*
X187608500Y-123361802D01*
X187572423Y-123087769D01*
X187500886Y-122820791D01*
X187485122Y-122782734D01*
X187395118Y-122565442D01*
X187395113Y-122565432D01*
X187393712Y-122563005D01*
X187256915Y-122326067D01*
X187256910Y-122326061D01*
X187256908Y-122326057D01*
X187088657Y-122106787D01*
X187088651Y-122106780D01*
X186893219Y-121911348D01*
X186893212Y-121911342D01*
X186673942Y-121743091D01*
X186673936Y-121743087D01*
X186673933Y-121743085D01*
X186434567Y-121604886D01*
X186434557Y-121604881D01*
X186179216Y-121499116D01*
X185947401Y-121437001D01*
X185912231Y-121427577D01*
X185912230Y-121427576D01*
X185912227Y-121427576D01*
X185638208Y-121391501D01*
X185638203Y-121391500D01*
X185638198Y-121391500D01*
X185361802Y-121391500D01*
X185361796Y-121391500D01*
X185361791Y-121391501D01*
X185087772Y-121427576D01*
X184820783Y-121499116D01*
X184565442Y-121604881D01*
X184565432Y-121604886D01*
X184326067Y-121743085D01*
X184326057Y-121743091D01*
X184106787Y-121911342D01*
X184106780Y-121911348D01*
X183911348Y-122106780D01*
X183911342Y-122106787D01*
X183743091Y-122326057D01*
X183743085Y-122326067D01*
X183604886Y-122565432D01*
X183604881Y-122565442D01*
X183499116Y-122820783D01*
X183427576Y-123087772D01*
X183391501Y-123361791D01*
X183391500Y-123361808D01*
X167000500Y-123361808D01*
X167000500Y-111861808D01*
X211891500Y-111861808D01*
X211891500Y-112138191D01*
X211891501Y-112138208D01*
X211927576Y-112412227D01*
X211999116Y-112679216D01*
X212104881Y-112934557D01*
X212104886Y-112934567D01*
X212243085Y-113173933D01*
X212243087Y-113173936D01*
X212243091Y-113173942D01*
X212411342Y-113393212D01*
X212411348Y-113393219D01*
X212606780Y-113588651D01*
X212606787Y-113588657D01*
X212826057Y-113756908D01*
X212826061Y-113756910D01*
X212826067Y-113756915D01*
X213065433Y-113895114D01*
X213065438Y-113895116D01*
X213065442Y-113895118D01*
X213320783Y-114000883D01*
X213320785Y-114000883D01*
X213320791Y-114000886D01*
X213587769Y-114072423D01*
X213861802Y-114108500D01*
X213861809Y-114108500D01*
X214138191Y-114108500D01*
X214138198Y-114108500D01*
X214412231Y-114072423D01*
X214679209Y-114000886D01*
X214934567Y-113895114D01*
X215173933Y-113756915D01*
X215393214Y-113588656D01*
X215588656Y-113393214D01*
X215756915Y-113173933D01*
X215895114Y-112934567D01*
X216000886Y-112679209D01*
X216072423Y-112412231D01*
X216108500Y-112138198D01*
X216108500Y-111861802D01*
X216072423Y-111587769D01*
X216000886Y-111320791D01*
X215895114Y-111065433D01*
X215756915Y-110826067D01*
X215756910Y-110826061D01*
X215756908Y-110826057D01*
X215588657Y-110606787D01*
X215588651Y-110606780D01*
X215393219Y-110411348D01*
X215393212Y-110411342D01*
X215173942Y-110243091D01*
X215173936Y-110243087D01*
X215173933Y-110243085D01*
X214934567Y-110104886D01*
X214934557Y-110104881D01*
X214679216Y-109999116D01*
X214412227Y-109927576D01*
X214138208Y-109891501D01*
X214138203Y-109891500D01*
X214138198Y-109891500D01*
X213861802Y-109891500D01*
X213861796Y-109891500D01*
X213861791Y-109891501D01*
X213587772Y-109927576D01*
X213320783Y-109999116D01*
X213065442Y-110104881D01*
X213065432Y-110104886D01*
X212826067Y-110243085D01*
X212826057Y-110243091D01*
X212606787Y-110411342D01*
X212606780Y-110411348D01*
X212411348Y-110606780D01*
X212411342Y-110606787D01*
X212243091Y-110826057D01*
X212243085Y-110826067D01*
X212104886Y-111065432D01*
X212104881Y-111065442D01*
X211999116Y-111320783D01*
X211927576Y-111587772D01*
X211891501Y-111861791D01*
X211891500Y-111861808D01*
X167000500Y-111861808D01*
X167000500Y-106151345D01*
X167691500Y-106151345D01*
X167691500Y-108848654D01*
X167698011Y-108909202D01*
X167698011Y-108909204D01*
X167749111Y-109046204D01*
X167836739Y-109163261D01*
X167953796Y-109250889D01*
X168068949Y-109293839D01*
X168085463Y-109299999D01*
X168090799Y-109301989D01*
X168118050Y-109304918D01*
X168151345Y-109308499D01*
X168151362Y-109308500D01*
X170848638Y-109308500D01*
X170848654Y-109308499D01*
X170875692Y-109305591D01*
X170909201Y-109301989D01*
X170914537Y-109299999D01*
X170923768Y-109296555D01*
X171046204Y-109250889D01*
X171163261Y-109163261D01*
X171250889Y-109046204D01*
X171301989Y-108909201D01*
X171305591Y-108875692D01*
X171308499Y-108848654D01*
X171308500Y-108848637D01*
X171308500Y-106151362D01*
X171308499Y-106151345D01*
X171305157Y-106120270D01*
X171301989Y-106090799D01*
X171290984Y-106061295D01*
X171279522Y-106030564D01*
X171250889Y-105953796D01*
X171163261Y-105836739D01*
X171046204Y-105749111D01*
X171022332Y-105740207D01*
X170909203Y-105698011D01*
X170848654Y-105691500D01*
X170848638Y-105691500D01*
X168151362Y-105691500D01*
X168151345Y-105691500D01*
X168090797Y-105698011D01*
X168090795Y-105698011D01*
X167953795Y-105749111D01*
X167836739Y-105836739D01*
X167749111Y-105953795D01*
X167698011Y-106090795D01*
X167698011Y-106090797D01*
X167691500Y-106151345D01*
X167000500Y-106151345D01*
X167000500Y-104400666D01*
X222491500Y-104400666D01*
X222491500Y-126099333D01*
X222521293Y-126249112D01*
X222530253Y-126294161D01*
X222530255Y-126294166D01*
X222606277Y-126477701D01*
X222606282Y-126477710D01*
X222716646Y-126642880D01*
X222716649Y-126642884D01*
X224857115Y-128783350D01*
X224857119Y-128783353D01*
X225022289Y-128893717D01*
X225022295Y-128893720D01*
X225022296Y-128893721D01*
X225205831Y-128969744D01*
X225400666Y-129008499D01*
X225400670Y-129008500D01*
X225400671Y-129008500D01*
X225599329Y-129008500D01*
X228067500Y-129008500D01*
X228134539Y-129028185D01*
X228180294Y-129080989D01*
X228191500Y-129132500D01*
X228191500Y-129348654D01*
X228198011Y-129409202D01*
X228198011Y-129409204D01*
X228249111Y-129546204D01*
X228336739Y-129663261D01*
X228453796Y-129750889D01*
X228568949Y-129793839D01*
X228585463Y-129799999D01*
X228590799Y-129801989D01*
X228618050Y-129804918D01*
X228651345Y-129808499D01*
X228651362Y-129808500D01*
X231348638Y-129808500D01*
X231348654Y-129808499D01*
X231375692Y-129805591D01*
X231409201Y-129801989D01*
X231414537Y-129799999D01*
X231423768Y-129796555D01*
X231546204Y-129750889D01*
X231663261Y-129663261D01*
X231750889Y-129546204D01*
X231801989Y-129409201D01*
X231805591Y-129375692D01*
X231808499Y-129348654D01*
X231808500Y-129348637D01*
X231808500Y-126651362D01*
X231808499Y-126651345D01*
X231805157Y-126620270D01*
X231801989Y-126590799D01*
X231790984Y-126561295D01*
X231779522Y-126530564D01*
X231750889Y-126453796D01*
X231663261Y-126336739D01*
X231546204Y-126249111D01*
X231522332Y-126240207D01*
X231409203Y-126198011D01*
X231348654Y-126191500D01*
X231348638Y-126191500D01*
X228651362Y-126191500D01*
X228651345Y-126191500D01*
X228590797Y-126198011D01*
X228590795Y-126198011D01*
X228453795Y-126249111D01*
X228336739Y-126336739D01*
X228249111Y-126453795D01*
X228198011Y-126590795D01*
X228198011Y-126590797D01*
X228191500Y-126651345D01*
X228191500Y-126867500D01*
X228171815Y-126934539D01*
X228119011Y-126980294D01*
X228067500Y-126991500D01*
X225969096Y-126991500D01*
X225902057Y-126971815D01*
X225881415Y-126955181D01*
X224544819Y-125618585D01*
X224511334Y-125557262D01*
X224508500Y-125530904D01*
X224508500Y-107499995D01*
X228194953Y-107499995D01*
X228194953Y-107500004D01*
X228215113Y-107769026D01*
X228215113Y-107769028D01*
X228275142Y-108032033D01*
X228275148Y-108032052D01*
X228373709Y-108283181D01*
X228373708Y-108283181D01*
X228508600Y-108516818D01*
X228562294Y-108584150D01*
X228562295Y-108584150D01*
X229398958Y-107747487D01*
X229423978Y-107807890D01*
X229495112Y-107914351D01*
X229585649Y-108004888D01*
X229692110Y-108076022D01*
X229752511Y-108101041D01*
X228914848Y-108938703D01*
X229097476Y-109063216D01*
X229097485Y-109063221D01*
X229340539Y-109180269D01*
X229340537Y-109180269D01*
X229598337Y-109259790D01*
X229598343Y-109259792D01*
X229865101Y-109299999D01*
X229865110Y-109300000D01*
X230134890Y-109300000D01*
X230134898Y-109299999D01*
X230401656Y-109259792D01*
X230401662Y-109259790D01*
X230659461Y-109180269D01*
X230902516Y-109063221D01*
X230902517Y-109063220D01*
X231085150Y-108938703D01*
X230247487Y-108101041D01*
X230307890Y-108076022D01*
X230414351Y-108004888D01*
X230504888Y-107914351D01*
X230576022Y-107807890D01*
X230601041Y-107747487D01*
X231437703Y-108584150D01*
X231437704Y-108584149D01*
X231491400Y-108516818D01*
X231626290Y-108283181D01*
X231724851Y-108032052D01*
X231724857Y-108032033D01*
X231784886Y-107769028D01*
X231784886Y-107769026D01*
X231805047Y-107500004D01*
X231805047Y-107499995D01*
X231784886Y-107230973D01*
X231784886Y-107230971D01*
X231724857Y-106967966D01*
X231724851Y-106967947D01*
X231626290Y-106716818D01*
X231626291Y-106716818D01*
X231491400Y-106483182D01*
X231491393Y-106483171D01*
X231437704Y-106415849D01*
X231437703Y-106415848D01*
X230601041Y-107252511D01*
X230576022Y-107192110D01*
X230504888Y-107085649D01*
X230414351Y-106995112D01*
X230307890Y-106923978D01*
X230247488Y-106898958D01*
X231085150Y-106061295D01*
X230902524Y-105936783D01*
X230902516Y-105936778D01*
X230659460Y-105819730D01*
X230659462Y-105819730D01*
X230401662Y-105740209D01*
X230401656Y-105740207D01*
X230134898Y-105700000D01*
X229865101Y-105700000D01*
X229598343Y-105740207D01*
X229598337Y-105740209D01*
X229340538Y-105819730D01*
X229097482Y-105936780D01*
X229097469Y-105936787D01*
X228914848Y-106061294D01*
X229752512Y-106898958D01*
X229692110Y-106923978D01*
X229585649Y-106995112D01*
X229495112Y-107085649D01*
X229423978Y-107192110D01*
X229398958Y-107252512D01*
X228562294Y-106415848D01*
X228508602Y-106483177D01*
X228373709Y-106716818D01*
X228275148Y-106967947D01*
X228275142Y-106967966D01*
X228215113Y-107230971D01*
X228215113Y-107230973D01*
X228194953Y-107499995D01*
X224508500Y-107499995D01*
X224508500Y-104969096D01*
X224528185Y-104902057D01*
X224544819Y-104881415D01*
X225881415Y-103544819D01*
X225942738Y-103511334D01*
X225969096Y-103508500D01*
X228067500Y-103508500D01*
X228134539Y-103528185D01*
X228180294Y-103580989D01*
X228191500Y-103632500D01*
X228191500Y-103848654D01*
X228198011Y-103909202D01*
X228198011Y-103909204D01*
X228240194Y-104022298D01*
X228249111Y-104046204D01*
X228336739Y-104163261D01*
X228453796Y-104250889D01*
X228568949Y-104293839D01*
X228585463Y-104299999D01*
X228590799Y-104301989D01*
X228618050Y-104304918D01*
X228651345Y-104308499D01*
X228651362Y-104308500D01*
X231348638Y-104308500D01*
X231348654Y-104308499D01*
X231375692Y-104305591D01*
X231409201Y-104301989D01*
X231414537Y-104299999D01*
X231423768Y-104296555D01*
X231546204Y-104250889D01*
X231663261Y-104163261D01*
X231750889Y-104046204D01*
X231801989Y-103909201D01*
X231805591Y-103875692D01*
X231808499Y-103848654D01*
X231808500Y-103848637D01*
X231808500Y-101151362D01*
X231808499Y-101151345D01*
X231805157Y-101120270D01*
X231801989Y-101090799D01*
X231790984Y-101061295D01*
X231779522Y-101030564D01*
X231750889Y-100953796D01*
X231663261Y-100836739D01*
X231546204Y-100749111D01*
X231522332Y-100740207D01*
X231409203Y-100698011D01*
X231348654Y-100691500D01*
X231348638Y-100691500D01*
X228651362Y-100691500D01*
X228651345Y-100691500D01*
X228590797Y-100698011D01*
X228590795Y-100698011D01*
X228453795Y-100749111D01*
X228336739Y-100836739D01*
X228249111Y-100953795D01*
X228198011Y-101090795D01*
X228198011Y-101090797D01*
X228191500Y-101151345D01*
X228191500Y-101367500D01*
X228171815Y-101434539D01*
X228119011Y-101480294D01*
X228067500Y-101491500D01*
X225400666Y-101491500D01*
X225205838Y-101530254D01*
X225205830Y-101530256D01*
X225022298Y-101606277D01*
X225022289Y-101606282D01*
X224857119Y-101716646D01*
X224857115Y-101716649D01*
X223290585Y-103283181D01*
X222857119Y-103716647D01*
X222786882Y-103786884D01*
X222716645Y-103857120D01*
X222606282Y-104022289D01*
X222606277Y-104022298D01*
X222530256Y-104205830D01*
X222530254Y-104205838D01*
X222491500Y-104400666D01*
X167000500Y-104400666D01*
X167000500Y-102499995D01*
X167694953Y-102499995D01*
X167694953Y-102500004D01*
X167715113Y-102769026D01*
X167715113Y-102769028D01*
X167775142Y-103032033D01*
X167775148Y-103032052D01*
X167873709Y-103283181D01*
X167873708Y-103283181D01*
X168008600Y-103516818D01*
X168062294Y-103584150D01*
X168062295Y-103584150D01*
X168898958Y-102747487D01*
X168923978Y-102807890D01*
X168995112Y-102914351D01*
X169085649Y-103004888D01*
X169192110Y-103076022D01*
X169252511Y-103101041D01*
X168414848Y-103938703D01*
X168597476Y-104063216D01*
X168597485Y-104063221D01*
X168840539Y-104180269D01*
X168840537Y-104180269D01*
X169098337Y-104259790D01*
X169098343Y-104259792D01*
X169365101Y-104299999D01*
X169365110Y-104300000D01*
X169634890Y-104300000D01*
X169634898Y-104299999D01*
X169901656Y-104259792D01*
X169901662Y-104259790D01*
X170159461Y-104180269D01*
X170402516Y-104063221D01*
X170402517Y-104063220D01*
X170585150Y-103938703D01*
X169747487Y-103101041D01*
X169807890Y-103076022D01*
X169914351Y-103004888D01*
X170004888Y-102914351D01*
X170076022Y-102807890D01*
X170101041Y-102747487D01*
X170937703Y-103584150D01*
X170937704Y-103584149D01*
X170991400Y-103516818D01*
X171126290Y-103283181D01*
X171224851Y-103032052D01*
X171224857Y-103032033D01*
X171284886Y-102769028D01*
X171284886Y-102769026D01*
X171305047Y-102500004D01*
X171305047Y-102499995D01*
X171284886Y-102230973D01*
X171284886Y-102230971D01*
X171224857Y-101967966D01*
X171224851Y-101967947D01*
X171126290Y-101716818D01*
X171126291Y-101716818D01*
X170991400Y-101483182D01*
X170991393Y-101483171D01*
X170937704Y-101415849D01*
X170937703Y-101415848D01*
X170101041Y-102252511D01*
X170076022Y-102192110D01*
X170004888Y-102085649D01*
X169914351Y-101995112D01*
X169807890Y-101923978D01*
X169747488Y-101898958D01*
X170585150Y-101061295D01*
X170402524Y-100936783D01*
X170402516Y-100936778D01*
X170159460Y-100819730D01*
X170159462Y-100819730D01*
X169901662Y-100740209D01*
X169901656Y-100740207D01*
X169634898Y-100700000D01*
X169365101Y-100700000D01*
X169098343Y-100740207D01*
X169098337Y-100740209D01*
X168840538Y-100819730D01*
X168597482Y-100936780D01*
X168597469Y-100936787D01*
X168414848Y-101061294D01*
X169252512Y-101898958D01*
X169192110Y-101923978D01*
X169085649Y-101995112D01*
X168995112Y-102085649D01*
X168923978Y-102192110D01*
X168898958Y-102252512D01*
X168062294Y-101415848D01*
X168008602Y-101483177D01*
X167873709Y-101716818D01*
X167775148Y-101967947D01*
X167775142Y-101967966D01*
X167715113Y-102230971D01*
X167715113Y-102230973D01*
X167694953Y-102499995D01*
X167000500Y-102499995D01*
X167000500Y-97861808D01*
X183391500Y-97861808D01*
X183391500Y-98138191D01*
X183391501Y-98138208D01*
X183427576Y-98412227D01*
X183499116Y-98679216D01*
X183604881Y-98934557D01*
X183604886Y-98934567D01*
X183743085Y-99173933D01*
X183743087Y-99173936D01*
X183743091Y-99173942D01*
X183911342Y-99393212D01*
X183911348Y-99393219D01*
X184106780Y-99588651D01*
X184106787Y-99588657D01*
X184326057Y-99756908D01*
X184326061Y-99756910D01*
X184326067Y-99756915D01*
X184565433Y-99895114D01*
X184565438Y-99895116D01*
X184565442Y-99895118D01*
X184820783Y-100000883D01*
X184820785Y-100000883D01*
X184820791Y-100000886D01*
X185087769Y-100072423D01*
X185361802Y-100108500D01*
X185361809Y-100108500D01*
X185638191Y-100108500D01*
X185638198Y-100108500D01*
X185912231Y-100072423D01*
X186179209Y-100000886D01*
X186434567Y-99895114D01*
X186673933Y-99756915D01*
X186893214Y-99588656D01*
X187088656Y-99393214D01*
X187256915Y-99173933D01*
X187395114Y-98934567D01*
X187500886Y-98679209D01*
X187572423Y-98412231D01*
X187608500Y-98138198D01*
X187608500Y-97861802D01*
X187572423Y-97587769D01*
X187500886Y-97320791D01*
X187395114Y-97065433D01*
X187256915Y-96826067D01*
X187256910Y-96826061D01*
X187256908Y-96826057D01*
X187088657Y-96606787D01*
X187088651Y-96606780D01*
X186893219Y-96411348D01*
X186893212Y-96411342D01*
X186673942Y-96243091D01*
X186673936Y-96243087D01*
X186673933Y-96243085D01*
X186434567Y-96104886D01*
X186434557Y-96104881D01*
X186179216Y-95999116D01*
X185912227Y-95927576D01*
X185638208Y-95891501D01*
X185638203Y-95891500D01*
X185638198Y-95891500D01*
X185361802Y-95891500D01*
X185361796Y-95891500D01*
X185361791Y-95891501D01*
X185087772Y-95927576D01*
X184820783Y-95999116D01*
X184565442Y-96104881D01*
X184565432Y-96104886D01*
X184326067Y-96243085D01*
X184326057Y-96243091D01*
X184106787Y-96411342D01*
X184106780Y-96411348D01*
X183911348Y-96606780D01*
X183911342Y-96606787D01*
X183743091Y-96826057D01*
X183743085Y-96826067D01*
X183604886Y-97065432D01*
X183604881Y-97065442D01*
X183499116Y-97320783D01*
X183427576Y-97587772D01*
X183391501Y-97861791D01*
X183391500Y-97861808D01*
X167000500Y-97861808D01*
X167000500Y-88148362D01*
X174516500Y-88148362D01*
X174516500Y-88411637D01*
X174516501Y-88411653D01*
X174550865Y-88672678D01*
X174619009Y-88926995D01*
X174719761Y-89170234D01*
X174719769Y-89170250D01*
X174851409Y-89398256D01*
X175011687Y-89607136D01*
X175011693Y-89607143D01*
X175197856Y-89793306D01*
X175197863Y-89793312D01*
X175406743Y-89953590D01*
X175634749Y-90085230D01*
X175634765Y-90085238D01*
X175764810Y-90139104D01*
X175878003Y-90185990D01*
X176132320Y-90254134D01*
X176393356Y-90288500D01*
X176393363Y-90288500D01*
X176656637Y-90288500D01*
X176656644Y-90288500D01*
X176917680Y-90254134D01*
X177171997Y-90185990D01*
X177355099Y-90110146D01*
X177415234Y-90085238D01*
X177415237Y-90085236D01*
X177415243Y-90085234D01*
X177643257Y-89953590D01*
X177852138Y-89793311D01*
X178038311Y-89607138D01*
X178198590Y-89398257D01*
X178330234Y-89170243D01*
X178331332Y-89167594D01*
X178395305Y-89013147D01*
X178430990Y-88926997D01*
X178499134Y-88672680D01*
X178533500Y-88411644D01*
X178533500Y-88148356D01*
X178499134Y-87887320D01*
X178430990Y-87633003D01*
X178375781Y-87499716D01*
X178330238Y-87389765D01*
X178330230Y-87389749D01*
X178198590Y-87161743D01*
X178038312Y-86952863D01*
X178038306Y-86952856D01*
X177852143Y-86766693D01*
X177852136Y-86766687D01*
X177643256Y-86606409D01*
X177415250Y-86474769D01*
X177415234Y-86474761D01*
X177171995Y-86374009D01*
X176917678Y-86305865D01*
X176656653Y-86271501D01*
X176656650Y-86271500D01*
X176656644Y-86271500D01*
X176393356Y-86271500D01*
X176393350Y-86271500D01*
X176393346Y-86271501D01*
X176132321Y-86305865D01*
X175878004Y-86374009D01*
X175634765Y-86474761D01*
X175634749Y-86474769D01*
X175406743Y-86606409D01*
X175197863Y-86766687D01*
X175197856Y-86766693D01*
X175011693Y-86952856D01*
X175011687Y-86952863D01*
X174851409Y-87161743D01*
X174719769Y-87389749D01*
X174719761Y-87389765D01*
X174619009Y-87633004D01*
X174550865Y-87887321D01*
X174516501Y-88148346D01*
X174516500Y-88148362D01*
X167000500Y-88148362D01*
X167000500Y-63638362D01*
X174516500Y-63638362D01*
X174516500Y-63901637D01*
X174516501Y-63901653D01*
X174550865Y-64162678D01*
X174619009Y-64416995D01*
X174719761Y-64660234D01*
X174719769Y-64660250D01*
X174851409Y-64888256D01*
X175011687Y-65097136D01*
X175011693Y-65097143D01*
X175197856Y-65283306D01*
X175197863Y-65283312D01*
X175406743Y-65443590D01*
X175634749Y-65575230D01*
X175634765Y-65575238D01*
X175768989Y-65630835D01*
X175878003Y-65675990D01*
X176132320Y-65744134D01*
X176393356Y-65778500D01*
X176393363Y-65778500D01*
X176656637Y-65778500D01*
X176656644Y-65778500D01*
X176917680Y-65744134D01*
X177171997Y-65675990D01*
X177390459Y-65585500D01*
X177415234Y-65575238D01*
X177415237Y-65575236D01*
X177415243Y-65575234D01*
X177643257Y-65443590D01*
X177852138Y-65283311D01*
X178038311Y-65097138D01*
X178198590Y-64888257D01*
X178330234Y-64660243D01*
X178430990Y-64416997D01*
X178499134Y-64162680D01*
X178533500Y-63901644D01*
X178533500Y-63638356D01*
X178499134Y-63377320D01*
X178430990Y-63123003D01*
X178357858Y-62946446D01*
X178330238Y-62879765D01*
X178330230Y-62879749D01*
X178198590Y-62651743D01*
X178038312Y-62442863D01*
X178038306Y-62442856D01*
X178020739Y-62425289D01*
X180241500Y-62425289D01*
X180241500Y-87574709D01*
X180270647Y-87721239D01*
X180270649Y-87721247D01*
X180327825Y-87859282D01*
X180410835Y-87983517D01*
X180410836Y-87983518D01*
X181038222Y-88610903D01*
X181610834Y-89183515D01*
X181610835Y-89183516D01*
X181675018Y-89247699D01*
X181716485Y-89289166D01*
X181840709Y-89372170D01*
X181840722Y-89372177D01*
X181903685Y-89398257D01*
X181903686Y-89398257D01*
X181978753Y-89429351D01*
X182004106Y-89434393D01*
X182051970Y-89443915D01*
X182051997Y-89443919D01*
X182052024Y-89443925D01*
X182125294Y-89458500D01*
X182125295Y-89458500D01*
X182274705Y-89458500D01*
X182852500Y-89458500D01*
X182919539Y-89478185D01*
X182965294Y-89530989D01*
X182976500Y-89582500D01*
X182976500Y-89748654D01*
X182983011Y-89809202D01*
X182983011Y-89809204D01*
X183025896Y-89924179D01*
X183034111Y-89946204D01*
X183121739Y-90063261D01*
X183238796Y-90150889D01*
X183375799Y-90201989D01*
X183403050Y-90204918D01*
X183436345Y-90208499D01*
X183436362Y-90208500D01*
X185533638Y-90208500D01*
X185533654Y-90208499D01*
X185560692Y-90205591D01*
X185594201Y-90201989D01*
X185731204Y-90150889D01*
X185848261Y-90063261D01*
X185935889Y-89946204D01*
X185935890Y-89946200D01*
X185939976Y-89938718D01*
X185989377Y-89889309D01*
X186057649Y-89874452D01*
X186123115Y-89898865D01*
X186124975Y-89900284D01*
X186201768Y-89960055D01*
X186201771Y-89960057D01*
X186420385Y-90078364D01*
X186420396Y-90078369D01*
X186655506Y-90159083D01*
X186900707Y-90200000D01*
X187149293Y-90200000D01*
X187394493Y-90159083D01*
X187629603Y-90078369D01*
X187629614Y-90078364D01*
X187848230Y-89960056D01*
X187848236Y-89960051D01*
X187895055Y-89923610D01*
X187895056Y-89923609D01*
X187162575Y-89191128D01*
X187221853Y-89175245D01*
X187338147Y-89108102D01*
X187433102Y-89013147D01*
X187500245Y-88896853D01*
X187516128Y-88837575D01*
X188248434Y-89569881D01*
X188253196Y-89569388D01*
X188321909Y-89582051D01*
X188360276Y-89612192D01*
X188495031Y-89769969D01*
X188617365Y-89874452D01*
X188675586Y-89924178D01*
X188675589Y-89924179D01*
X188878037Y-90048240D01*
X188878040Y-90048242D01*
X189097403Y-90139104D01*
X189097404Y-90139104D01*
X189097406Y-90139105D01*
X189328289Y-90194535D01*
X189565000Y-90213165D01*
X189801711Y-90194535D01*
X190032594Y-90139105D01*
X190032596Y-90139104D01*
X190032597Y-90139104D01*
X190251959Y-90048242D01*
X190251960Y-90048241D01*
X190251963Y-90048240D01*
X190454416Y-89924176D01*
X190634969Y-89769969D01*
X190740711Y-89646160D01*
X190799216Y-89607968D01*
X190869084Y-89607469D01*
X190928131Y-89644823D01*
X190929200Y-89646057D01*
X190987657Y-89714501D01*
X191035031Y-89769969D01*
X191215586Y-89924178D01*
X191215589Y-89924179D01*
X191418037Y-90048240D01*
X191418040Y-90048242D01*
X191637403Y-90139104D01*
X191637404Y-90139104D01*
X191637406Y-90139105D01*
X191868289Y-90194535D01*
X192105000Y-90213165D01*
X192341711Y-90194535D01*
X192572594Y-90139105D01*
X192572596Y-90139104D01*
X192572597Y-90139104D01*
X192791959Y-90048242D01*
X192791960Y-90048241D01*
X192791963Y-90048240D01*
X192994416Y-89924176D01*
X193174969Y-89769969D01*
X193280711Y-89646160D01*
X193339216Y-89607968D01*
X193409084Y-89607469D01*
X193468131Y-89644823D01*
X193469200Y-89646057D01*
X193527657Y-89714501D01*
X193575031Y-89769969D01*
X193755586Y-89924178D01*
X193755589Y-89924179D01*
X193958037Y-90048240D01*
X193958040Y-90048242D01*
X194177403Y-90139104D01*
X194177404Y-90139104D01*
X194177406Y-90139105D01*
X194408289Y-90194535D01*
X194645000Y-90213165D01*
X194881711Y-90194535D01*
X195112594Y-90139105D01*
X195112596Y-90139104D01*
X195112597Y-90139104D01*
X195331959Y-90048242D01*
X195331960Y-90048241D01*
X195331963Y-90048240D01*
X195534416Y-89924176D01*
X195714969Y-89769969D01*
X195820711Y-89646160D01*
X195879216Y-89607968D01*
X195949084Y-89607469D01*
X196008131Y-89644823D01*
X196009200Y-89646057D01*
X196067657Y-89714501D01*
X196115031Y-89769969D01*
X196295586Y-89924178D01*
X196295588Y-89924179D01*
X196467290Y-90029398D01*
X196514165Y-90081209D01*
X196526500Y-90135125D01*
X196526500Y-91620143D01*
X196526500Y-91749857D01*
X196526500Y-91749859D01*
X196526499Y-91749859D01*
X196551804Y-91877071D01*
X196551806Y-91877077D01*
X196601443Y-91996913D01*
X196601447Y-91996920D01*
X196673510Y-92104771D01*
X198580227Y-94011488D01*
X198580231Y-94011491D01*
X198688076Y-94083551D01*
X198688080Y-94083553D01*
X198688083Y-94083555D01*
X198807923Y-94133195D01*
X198914036Y-94154301D01*
X198935143Y-94158500D01*
X198935144Y-94158500D01*
X199064857Y-94158500D01*
X232175878Y-94158500D01*
X232242917Y-94178185D01*
X232263559Y-94194819D01*
X234305181Y-96236441D01*
X234338666Y-96297764D01*
X234341500Y-96324122D01*
X234341500Y-114175877D01*
X234321815Y-114242916D01*
X234305181Y-114263558D01*
X232616226Y-115952512D01*
X232554903Y-115985997D01*
X232516394Y-115988234D01*
X232500003Y-115986620D01*
X232500001Y-115986620D01*
X232500000Y-115986620D01*
X232483613Y-115988234D01*
X232302300Y-116006091D01*
X232112191Y-116063760D01*
X231937001Y-116157401D01*
X231936994Y-116157405D01*
X231783431Y-116283431D01*
X231657405Y-116436994D01*
X231657401Y-116437001D01*
X231563760Y-116612191D01*
X231506091Y-116802300D01*
X231486620Y-117000000D01*
X231506091Y-117197699D01*
X231563760Y-117387808D01*
X231657401Y-117562998D01*
X231657405Y-117563005D01*
X231783431Y-117716568D01*
X231936994Y-117842594D01*
X231937001Y-117842598D01*
X232112191Y-117936239D01*
X232112193Y-117936239D01*
X232112196Y-117936241D01*
X232302299Y-117993908D01*
X232302298Y-117993908D01*
X232320024Y-117995653D01*
X232500000Y-118013380D01*
X232697701Y-117993908D01*
X232887804Y-117936241D01*
X233063004Y-117842595D01*
X233216568Y-117716568D01*
X233342595Y-117563004D01*
X233436241Y-117387804D01*
X233493908Y-117197701D01*
X233513380Y-117000000D01*
X233511765Y-116983606D01*
X233524783Y-116914961D01*
X233547484Y-116883774D01*
X234937820Y-115493438D01*
X234999142Y-115459955D01*
X235068834Y-115464939D01*
X235124767Y-115506811D01*
X235149184Y-115572275D01*
X235149500Y-115581121D01*
X235149500Y-118367877D01*
X235129815Y-118434916D01*
X235113181Y-118455558D01*
X232616226Y-120952512D01*
X232554903Y-120985997D01*
X232516394Y-120988234D01*
X232500003Y-120986620D01*
X232500001Y-120986620D01*
X232500000Y-120986620D01*
X232483613Y-120988234D01*
X232302300Y-121006091D01*
X232112191Y-121063760D01*
X231937001Y-121157401D01*
X231936994Y-121157405D01*
X231783431Y-121283431D01*
X231657405Y-121436994D01*
X231657401Y-121437001D01*
X231563760Y-121612191D01*
X231506091Y-121802300D01*
X231486620Y-122000000D01*
X231506091Y-122197699D01*
X231563760Y-122387808D01*
X231657401Y-122562998D01*
X231657405Y-122563005D01*
X231783431Y-122716568D01*
X231936994Y-122842594D01*
X231937001Y-122842598D01*
X232112191Y-122936239D01*
X232112193Y-122936239D01*
X232112196Y-122936241D01*
X232302299Y-122993908D01*
X232302298Y-122993908D01*
X232320024Y-122995653D01*
X232500000Y-123013380D01*
X232697701Y-122993908D01*
X232887804Y-122936241D01*
X233063004Y-122842595D01*
X233216568Y-122716568D01*
X233342595Y-122563004D01*
X233436241Y-122387804D01*
X233493908Y-122197701D01*
X233513380Y-122000000D01*
X233511765Y-121983606D01*
X233524783Y-121914961D01*
X233547484Y-121883774D01*
X236319490Y-119111769D01*
X236391555Y-119003917D01*
X236441194Y-118884077D01*
X236441698Y-118881541D01*
X236442328Y-118880336D01*
X236442963Y-118878245D01*
X236443359Y-118878365D01*
X236474078Y-118819628D01*
X236534790Y-118785049D01*
X236604560Y-118788783D01*
X236661236Y-118829644D01*
X236683523Y-118875282D01*
X236710703Y-118982615D01*
X236801140Y-119188792D01*
X236924276Y-119377265D01*
X236924284Y-119377276D01*
X237076756Y-119542902D01*
X237076760Y-119542906D01*
X237254424Y-119681189D01*
X237254429Y-119681191D01*
X237254431Y-119681193D01*
X237290930Y-119700946D01*
X237340520Y-119750165D01*
X237355628Y-119818382D01*
X237331457Y-119883937D01*
X237290930Y-119919054D01*
X237254431Y-119938806D01*
X237254422Y-119938812D01*
X237076761Y-120077092D01*
X237076756Y-120077097D01*
X236924284Y-120242723D01*
X236924276Y-120242734D01*
X236801140Y-120431207D01*
X236710703Y-120637385D01*
X236655436Y-120855628D01*
X236655434Y-120855640D01*
X236636844Y-121079994D01*
X236636844Y-121080005D01*
X236655434Y-121304359D01*
X236655436Y-121304371D01*
X236710703Y-121522614D01*
X236801140Y-121728792D01*
X236924276Y-121917265D01*
X236924284Y-121917276D01*
X237076756Y-122082902D01*
X237076760Y-122082906D01*
X237254424Y-122221189D01*
X237254429Y-122221191D01*
X237254431Y-122221193D01*
X237290930Y-122240946D01*
X237340520Y-122290165D01*
X237355628Y-122358382D01*
X237331457Y-122423937D01*
X237290930Y-122459054D01*
X237254431Y-122478806D01*
X237254422Y-122478812D01*
X237076761Y-122617092D01*
X237076756Y-122617097D01*
X236924284Y-122782723D01*
X236924276Y-122782734D01*
X236801140Y-122971207D01*
X236710703Y-123177385D01*
X236655436Y-123395628D01*
X236655434Y-123395640D01*
X236636844Y-123619994D01*
X236636844Y-123620005D01*
X236655434Y-123844359D01*
X236655436Y-123844371D01*
X236710703Y-124062614D01*
X236801140Y-124268792D01*
X236924276Y-124457265D01*
X236924284Y-124457276D01*
X237076756Y-124622902D01*
X237076760Y-124622906D01*
X237254424Y-124761189D01*
X237297693Y-124784605D01*
X237297695Y-124784606D01*
X237347286Y-124833825D01*
X237362394Y-124902042D01*
X237338224Y-124967597D01*
X237309802Y-124995236D01*
X237128922Y-125121890D01*
X237128920Y-125121891D01*
X236961891Y-125288920D01*
X236961886Y-125288926D01*
X236826400Y-125482420D01*
X236826399Y-125482422D01*
X236726570Y-125696507D01*
X236726567Y-125696513D01*
X236669364Y-125909999D01*
X236669364Y-125910000D01*
X237566988Y-125910000D01*
X237534075Y-125967007D01*
X237500000Y-126094174D01*
X237500000Y-126225826D01*
X237534075Y-126352993D01*
X237566988Y-126410000D01*
X236669364Y-126410000D01*
X236726567Y-126623486D01*
X236726570Y-126623492D01*
X236826399Y-126837578D01*
X236961894Y-127031082D01*
X237128917Y-127198105D01*
X237322421Y-127333600D01*
X237536507Y-127433429D01*
X237536516Y-127433433D01*
X237750000Y-127490634D01*
X237750000Y-126593012D01*
X237807007Y-126625925D01*
X237934174Y-126660000D01*
X238065826Y-126660000D01*
X238192993Y-126625925D01*
X238250000Y-126593012D01*
X238250000Y-127490633D01*
X238463483Y-127433433D01*
X238463492Y-127433429D01*
X238677578Y-127333600D01*
X238871082Y-127198105D01*
X239038105Y-127031082D01*
X239173600Y-126837578D01*
X239273429Y-126623492D01*
X239273432Y-126623486D01*
X239330636Y-126410000D01*
X238433012Y-126410000D01*
X238465925Y-126352993D01*
X238500000Y-126225826D01*
X238500000Y-126094174D01*
X238465925Y-125967007D01*
X238433012Y-125910000D01*
X239330636Y-125910000D01*
X239330635Y-125909999D01*
X239273432Y-125696513D01*
X239273429Y-125696507D01*
X239173600Y-125482422D01*
X239173599Y-125482420D01*
X239038113Y-125288926D01*
X239038108Y-125288920D01*
X238871082Y-125121894D01*
X238690197Y-124995236D01*
X238646572Y-124940659D01*
X238639380Y-124871160D01*
X238670902Y-124808806D01*
X238702300Y-124784608D01*
X238745576Y-124761189D01*
X238923240Y-124622906D01*
X239075722Y-124457268D01*
X239198860Y-124268791D01*
X239289296Y-124062616D01*
X239344564Y-123844368D01*
X239344565Y-123844359D01*
X239363156Y-123620005D01*
X239363156Y-123619994D01*
X239344565Y-123395640D01*
X239344563Y-123395628D01*
X239289296Y-123177385D01*
X239249987Y-123087769D01*
X239198860Y-122971209D01*
X239075722Y-122782732D01*
X239075719Y-122782729D01*
X239075715Y-122782723D01*
X238923243Y-122617097D01*
X238923238Y-122617092D01*
X238745577Y-122478812D01*
X238745578Y-122478812D01*
X238745576Y-122478811D01*
X238709070Y-122459055D01*
X238659479Y-122409836D01*
X238644371Y-122341619D01*
X238668541Y-122276064D01*
X238709070Y-122240945D01*
X238709084Y-122240936D01*
X238745576Y-122221189D01*
X238923240Y-122082906D01*
X239022614Y-121974957D01*
X239075715Y-121917276D01*
X239075716Y-121917274D01*
X239075722Y-121917268D01*
X239198860Y-121728791D01*
X239289296Y-121522616D01*
X239344564Y-121304368D01*
X239356742Y-121157405D01*
X239363156Y-121080005D01*
X239363156Y-121079994D01*
X239344565Y-120855640D01*
X239344563Y-120855628D01*
X239289296Y-120637385D01*
X239198859Y-120431207D01*
X239075723Y-120242734D01*
X239075715Y-120242723D01*
X238923243Y-120077097D01*
X238923238Y-120077092D01*
X238745577Y-119938812D01*
X238745578Y-119938812D01*
X238745576Y-119938811D01*
X238709070Y-119919055D01*
X238659479Y-119869836D01*
X238644371Y-119801619D01*
X238668541Y-119736064D01*
X238709070Y-119700945D01*
X238709084Y-119700936D01*
X238745576Y-119681189D01*
X238923240Y-119542906D01*
X239075722Y-119377268D01*
X239198860Y-119188791D01*
X239289296Y-118982616D01*
X239344564Y-118764368D01*
X239344565Y-118764359D01*
X239363156Y-118540005D01*
X239363156Y-118539994D01*
X239344565Y-118315640D01*
X239344563Y-118315628D01*
X239290439Y-118101898D01*
X239289296Y-118097384D01*
X239198860Y-117891209D01*
X239075722Y-117702732D01*
X239075719Y-117702729D01*
X239075715Y-117702723D01*
X238930510Y-117544991D01*
X238899587Y-117482337D01*
X238907447Y-117412911D01*
X238951594Y-117358755D01*
X238978405Y-117344827D01*
X239058584Y-117314920D01*
X239096204Y-117300889D01*
X239213261Y-117213261D01*
X239300889Y-117096204D01*
X239351989Y-116959201D01*
X239356745Y-116914961D01*
X239358499Y-116898654D01*
X239358500Y-116898637D01*
X239358500Y-115101362D01*
X239358499Y-115101345D01*
X239355157Y-115070270D01*
X239351989Y-115040799D01*
X239300889Y-114903796D01*
X239213261Y-114786739D01*
X239096204Y-114699111D01*
X238959203Y-114648011D01*
X238898654Y-114641500D01*
X238898638Y-114641500D01*
X237101362Y-114641500D01*
X237101345Y-114641500D01*
X237040797Y-114648011D01*
X237040795Y-114648011D01*
X236903795Y-114699111D01*
X236786739Y-114786739D01*
X236693796Y-114910896D01*
X236692669Y-114910052D01*
X236649930Y-114952795D01*
X236581657Y-114967648D01*
X236516192Y-114943233D01*
X236474319Y-114887300D01*
X236466500Y-114843964D01*
X236466500Y-95600455D01*
X236441195Y-95473243D01*
X236441194Y-95473242D01*
X236441194Y-95473238D01*
X236391555Y-95353398D01*
X236319490Y-95245546D01*
X236227769Y-95153825D01*
X233062457Y-91988511D01*
X233062456Y-91988510D01*
X232954605Y-91916447D01*
X232954604Y-91916446D01*
X232954602Y-91916445D01*
X232954599Y-91916443D01*
X232954594Y-91916441D01*
X232907805Y-91897061D01*
X232853401Y-91853220D01*
X232831336Y-91786926D01*
X232848615Y-91719227D01*
X232899752Y-91671616D01*
X232955257Y-91658500D01*
X234677129Y-91658500D01*
X234744168Y-91678185D01*
X234772983Y-91703836D01*
X234783432Y-91716568D01*
X234936994Y-91842594D01*
X234937001Y-91842598D01*
X235112191Y-91936239D01*
X235112193Y-91936239D01*
X235112196Y-91936241D01*
X235302299Y-91993908D01*
X235302298Y-91993908D01*
X235320024Y-91995653D01*
X235500000Y-92013380D01*
X235697701Y-91993908D01*
X235887804Y-91936241D01*
X236063004Y-91842595D01*
X236216568Y-91716568D01*
X236342595Y-91563004D01*
X236436241Y-91387804D01*
X236493908Y-91197701D01*
X236513380Y-91000000D01*
X236493908Y-90802299D01*
X236436241Y-90612196D01*
X236436239Y-90612193D01*
X236436239Y-90612191D01*
X236342598Y-90437001D01*
X236342594Y-90436994D01*
X236216568Y-90283431D01*
X236063005Y-90157405D01*
X236062998Y-90157401D01*
X235887808Y-90063760D01*
X235774531Y-90029398D01*
X235697701Y-90006092D01*
X235697699Y-90006091D01*
X235697701Y-90006091D01*
X235500000Y-89986620D01*
X235302300Y-90006091D01*
X235112191Y-90063760D01*
X234937001Y-90157401D01*
X234936994Y-90157405D01*
X234783432Y-90283431D01*
X234772983Y-90296164D01*
X234715238Y-90335499D01*
X234677129Y-90341500D01*
X224369953Y-90341500D01*
X224302914Y-90321815D01*
X224257159Y-90269011D01*
X224247215Y-90199853D01*
X224276240Y-90136297D01*
X224322500Y-90102939D01*
X224333697Y-90098300D01*
X224365243Y-90085234D01*
X224593257Y-89953590D01*
X224802138Y-89793311D01*
X224988311Y-89607138D01*
X225148590Y-89398257D01*
X225280234Y-89170243D01*
X225281332Y-89167594D01*
X225330040Y-89050000D01*
X226486620Y-89050000D01*
X226506091Y-89247699D01*
X226563760Y-89437808D01*
X226657401Y-89612998D01*
X226657405Y-89613005D01*
X226783431Y-89766568D01*
X226936994Y-89892594D01*
X226937001Y-89892598D01*
X227112191Y-89986239D01*
X227112193Y-89986239D01*
X227112196Y-89986241D01*
X227302299Y-90043908D01*
X227302298Y-90043908D01*
X227320024Y-90045653D01*
X227500000Y-90063380D01*
X227697701Y-90043908D01*
X227887804Y-89986241D01*
X228063004Y-89892595D01*
X228216568Y-89766568D01*
X228227017Y-89753836D01*
X228284762Y-89714501D01*
X228322871Y-89708500D01*
X233127129Y-89708500D01*
X233194168Y-89728185D01*
X233222983Y-89753836D01*
X233233432Y-89766568D01*
X233386994Y-89892594D01*
X233387001Y-89892598D01*
X233562191Y-89986239D01*
X233562193Y-89986239D01*
X233562196Y-89986241D01*
X233752299Y-90043908D01*
X233752298Y-90043908D01*
X233770024Y-90045653D01*
X233950000Y-90063380D01*
X234147701Y-90043908D01*
X234337804Y-89986241D01*
X234513004Y-89892595D01*
X234666568Y-89766568D01*
X234792595Y-89613004D01*
X234886241Y-89437804D01*
X234943908Y-89247701D01*
X234963380Y-89050000D01*
X234943908Y-88852299D01*
X234886241Y-88662196D01*
X234886239Y-88662193D01*
X234886239Y-88662191D01*
X234792598Y-88487001D01*
X234792594Y-88486994D01*
X234666568Y-88333431D01*
X234513005Y-88207405D01*
X234512998Y-88207401D01*
X234337808Y-88113760D01*
X234242752Y-88084925D01*
X234147701Y-88056092D01*
X234147699Y-88056091D01*
X234147701Y-88056091D01*
X233950000Y-88036620D01*
X233752300Y-88056091D01*
X233562191Y-88113760D01*
X233387001Y-88207401D01*
X233386994Y-88207405D01*
X233233432Y-88333431D01*
X233222983Y-88346164D01*
X233165238Y-88385499D01*
X233127129Y-88391500D01*
X228322871Y-88391500D01*
X228255832Y-88371815D01*
X228227017Y-88346164D01*
X228216567Y-88333431D01*
X228063005Y-88207405D01*
X228062998Y-88207401D01*
X227887808Y-88113760D01*
X227792752Y-88084925D01*
X227697701Y-88056092D01*
X227697699Y-88056091D01*
X227697701Y-88056091D01*
X227500000Y-88036620D01*
X227302300Y-88056091D01*
X227112191Y-88113760D01*
X226937001Y-88207401D01*
X226936994Y-88207405D01*
X226783431Y-88333431D01*
X226657405Y-88486994D01*
X226657401Y-88487001D01*
X226563760Y-88662191D01*
X226506091Y-88852300D01*
X226486620Y-89050000D01*
X225330040Y-89050000D01*
X225345305Y-89013147D01*
X225380990Y-88926997D01*
X225449134Y-88672680D01*
X225483500Y-88411644D01*
X225483500Y-88148356D01*
X225449134Y-87887320D01*
X225380990Y-87633003D01*
X225325781Y-87499716D01*
X225280238Y-87389765D01*
X225280230Y-87389749D01*
X225148590Y-87161743D01*
X224988312Y-86952863D01*
X224988306Y-86952856D01*
X224802143Y-86766693D01*
X224802136Y-86766687D01*
X224593256Y-86606409D01*
X224365250Y-86474769D01*
X224365234Y-86474761D01*
X224121995Y-86374009D01*
X223867678Y-86305865D01*
X223606653Y-86271501D01*
X223606650Y-86271500D01*
X223606644Y-86271500D01*
X223343356Y-86271500D01*
X223343350Y-86271500D01*
X223343346Y-86271501D01*
X223082321Y-86305865D01*
X222828004Y-86374009D01*
X222584765Y-86474761D01*
X222584749Y-86474769D01*
X222356743Y-86606409D01*
X222147863Y-86766687D01*
X222147856Y-86766693D01*
X221961693Y-86952856D01*
X221961687Y-86952863D01*
X221801409Y-87161743D01*
X221669769Y-87389749D01*
X221669761Y-87389765D01*
X221569010Y-87633002D01*
X221519385Y-87818206D01*
X221483020Y-87877866D01*
X221420173Y-87908395D01*
X221350797Y-87900100D01*
X221296919Y-87855615D01*
X221293882Y-87850901D01*
X221281448Y-87830611D01*
X221269176Y-87810584D01*
X221114969Y-87630031D01*
X220935078Y-87476389D01*
X220934413Y-87475821D01*
X220934410Y-87475820D01*
X220731962Y-87351759D01*
X220731959Y-87351757D01*
X220512596Y-87260895D01*
X220281714Y-87205465D01*
X220045000Y-87186835D01*
X219808285Y-87205465D01*
X219577404Y-87260895D01*
X219577402Y-87260895D01*
X219358040Y-87351757D01*
X219358037Y-87351759D01*
X219155589Y-87475820D01*
X219155586Y-87475821D01*
X218975031Y-87630031D01*
X218869290Y-87753838D01*
X218810783Y-87792031D01*
X218740915Y-87792529D01*
X218681869Y-87755176D01*
X218680710Y-87753838D01*
X218574969Y-87630031D01*
X218395078Y-87476389D01*
X218394413Y-87475821D01*
X218394410Y-87475820D01*
X218191962Y-87351759D01*
X218191959Y-87351757D01*
X217972596Y-87260895D01*
X217741714Y-87205465D01*
X217505000Y-87186835D01*
X217268285Y-87205465D01*
X217037404Y-87260895D01*
X217037402Y-87260895D01*
X216818040Y-87351757D01*
X216818037Y-87351759D01*
X216615589Y-87475820D01*
X216615586Y-87475821D01*
X216435031Y-87630031D01*
X216329290Y-87753838D01*
X216270783Y-87792031D01*
X216200915Y-87792529D01*
X216141869Y-87755176D01*
X216140710Y-87753838D01*
X216034969Y-87630031D01*
X215855078Y-87476389D01*
X215854413Y-87475821D01*
X215854410Y-87475820D01*
X215651962Y-87351759D01*
X215651959Y-87351757D01*
X215432596Y-87260895D01*
X215201714Y-87205465D01*
X214965000Y-87186835D01*
X214728285Y-87205465D01*
X214497404Y-87260895D01*
X214497402Y-87260895D01*
X214278040Y-87351757D01*
X214278037Y-87351759D01*
X214075589Y-87475820D01*
X214075586Y-87475821D01*
X213895031Y-87630031D01*
X213789290Y-87753838D01*
X213730783Y-87792031D01*
X213660915Y-87792529D01*
X213601869Y-87755176D01*
X213600710Y-87753838D01*
X213494969Y-87630031D01*
X213315078Y-87476389D01*
X213314413Y-87475821D01*
X213314410Y-87475820D01*
X213111962Y-87351759D01*
X213111959Y-87351757D01*
X212892596Y-87260895D01*
X212661714Y-87205465D01*
X212425000Y-87186835D01*
X212188285Y-87205465D01*
X211957404Y-87260895D01*
X211957402Y-87260895D01*
X211738040Y-87351757D01*
X211738037Y-87351759D01*
X211535589Y-87475820D01*
X211535586Y-87475821D01*
X211355031Y-87630031D01*
X211249290Y-87753838D01*
X211190783Y-87792031D01*
X211120915Y-87792529D01*
X211061869Y-87755176D01*
X211060710Y-87753838D01*
X210954969Y-87630031D01*
X210775078Y-87476389D01*
X210774413Y-87475821D01*
X210774410Y-87475820D01*
X210571962Y-87351759D01*
X210571959Y-87351757D01*
X210352596Y-87260895D01*
X210121714Y-87205465D01*
X209885000Y-87186835D01*
X209648285Y-87205465D01*
X209417404Y-87260895D01*
X209417402Y-87260895D01*
X209198040Y-87351757D01*
X209198037Y-87351759D01*
X208995589Y-87475820D01*
X208995586Y-87475821D01*
X208815031Y-87630031D01*
X208709290Y-87753838D01*
X208650783Y-87792031D01*
X208580915Y-87792529D01*
X208521869Y-87755176D01*
X208520710Y-87753838D01*
X208414969Y-87630031D01*
X208235078Y-87476389D01*
X208234413Y-87475821D01*
X208234410Y-87475820D01*
X208031962Y-87351759D01*
X208031959Y-87351757D01*
X207812596Y-87260895D01*
X207581714Y-87205465D01*
X207345000Y-87186835D01*
X207108285Y-87205465D01*
X206877404Y-87260895D01*
X206877402Y-87260895D01*
X206658040Y-87351757D01*
X206658037Y-87351759D01*
X206455589Y-87475820D01*
X206455586Y-87475821D01*
X206275031Y-87630031D01*
X206169290Y-87753838D01*
X206110783Y-87792031D01*
X206040915Y-87792529D01*
X205981869Y-87755176D01*
X205980710Y-87753838D01*
X205874969Y-87630031D01*
X205695078Y-87476389D01*
X205694413Y-87475821D01*
X205694410Y-87475820D01*
X205491962Y-87351759D01*
X205491959Y-87351757D01*
X205272596Y-87260895D01*
X205041714Y-87205465D01*
X204805000Y-87186835D01*
X204568285Y-87205465D01*
X204337404Y-87260895D01*
X204337402Y-87260895D01*
X204118040Y-87351757D01*
X204118037Y-87351759D01*
X203915589Y-87475820D01*
X203915586Y-87475821D01*
X203735031Y-87630031D01*
X203629290Y-87753838D01*
X203570783Y-87792031D01*
X203500915Y-87792529D01*
X203441869Y-87755176D01*
X203440710Y-87753838D01*
X203334969Y-87630031D01*
X203155078Y-87476389D01*
X203154413Y-87475821D01*
X203154410Y-87475820D01*
X202951962Y-87351759D01*
X202951959Y-87351757D01*
X202732596Y-87260895D01*
X202501714Y-87205465D01*
X202265000Y-87186835D01*
X202028285Y-87205465D01*
X201797404Y-87260895D01*
X201797402Y-87260895D01*
X201578040Y-87351757D01*
X201578037Y-87351759D01*
X201375589Y-87475820D01*
X201375586Y-87475821D01*
X201195031Y-87630031D01*
X201089290Y-87753838D01*
X201030783Y-87792031D01*
X200960915Y-87792529D01*
X200901869Y-87755176D01*
X200900710Y-87753838D01*
X200794969Y-87630031D01*
X200615078Y-87476389D01*
X200614413Y-87475821D01*
X200614410Y-87475820D01*
X200411962Y-87351759D01*
X200411959Y-87351757D01*
X200192596Y-87260895D01*
X199961714Y-87205465D01*
X199725000Y-87186835D01*
X199488285Y-87205465D01*
X199257404Y-87260895D01*
X199257402Y-87260895D01*
X199038040Y-87351757D01*
X199038037Y-87351759D01*
X198835589Y-87475820D01*
X198835586Y-87475821D01*
X198655031Y-87630031D01*
X198549290Y-87753838D01*
X198490783Y-87792031D01*
X198420915Y-87792529D01*
X198361869Y-87755176D01*
X198360710Y-87753838D01*
X198254969Y-87630031D01*
X198075078Y-87476389D01*
X198074413Y-87475821D01*
X198074410Y-87475820D01*
X197871962Y-87351759D01*
X197871959Y-87351757D01*
X197652596Y-87260895D01*
X197421714Y-87205465D01*
X197185000Y-87186835D01*
X196948285Y-87205465D01*
X196717404Y-87260895D01*
X196717402Y-87260895D01*
X196498040Y-87351757D01*
X196498037Y-87351759D01*
X196295589Y-87475820D01*
X196295586Y-87475821D01*
X196115031Y-87630031D01*
X196009290Y-87753838D01*
X195950783Y-87792031D01*
X195880915Y-87792529D01*
X195821869Y-87755176D01*
X195820710Y-87753838D01*
X195714969Y-87630031D01*
X195535078Y-87476389D01*
X195534413Y-87475821D01*
X195534410Y-87475820D01*
X195331962Y-87351759D01*
X195331959Y-87351757D01*
X195112596Y-87260895D01*
X194881714Y-87205465D01*
X194645000Y-87186835D01*
X194408285Y-87205465D01*
X194177404Y-87260895D01*
X194177402Y-87260895D01*
X193958040Y-87351757D01*
X193958037Y-87351759D01*
X193755589Y-87475820D01*
X193755586Y-87475821D01*
X193575031Y-87630031D01*
X193469290Y-87753838D01*
X193410783Y-87792031D01*
X193340915Y-87792529D01*
X193281869Y-87755176D01*
X193280710Y-87753838D01*
X193174969Y-87630031D01*
X192995078Y-87476389D01*
X192994413Y-87475821D01*
X192994410Y-87475820D01*
X192791962Y-87351759D01*
X192791959Y-87351757D01*
X192572596Y-87260895D01*
X192341714Y-87205465D01*
X192105000Y-87186835D01*
X191868285Y-87205465D01*
X191637404Y-87260895D01*
X191637402Y-87260895D01*
X191418040Y-87351757D01*
X191418037Y-87351759D01*
X191215589Y-87475820D01*
X191215586Y-87475821D01*
X191035031Y-87630031D01*
X190929290Y-87753838D01*
X190870783Y-87792031D01*
X190800915Y-87792529D01*
X190741869Y-87755176D01*
X190740710Y-87753838D01*
X190634969Y-87630031D01*
X190455078Y-87476389D01*
X190454413Y-87475821D01*
X190454410Y-87475820D01*
X190251962Y-87351759D01*
X190251959Y-87351757D01*
X190032596Y-87260895D01*
X189801714Y-87205465D01*
X189565000Y-87186835D01*
X189328285Y-87205465D01*
X189097404Y-87260895D01*
X189097402Y-87260895D01*
X188878040Y-87351757D01*
X188878037Y-87351759D01*
X188675589Y-87475820D01*
X188675586Y-87475821D01*
X188495031Y-87630031D01*
X188360279Y-87787804D01*
X188301772Y-87825997D01*
X188253198Y-87830611D01*
X188248435Y-87830117D01*
X187516128Y-88562424D01*
X187500245Y-88503147D01*
X187433102Y-88386853D01*
X187338147Y-88291898D01*
X187221853Y-88224755D01*
X187162572Y-88208871D01*
X187895055Y-87476389D01*
X187895055Y-87476388D01*
X187848236Y-87439947D01*
X187848231Y-87439944D01*
X187629614Y-87321635D01*
X187629603Y-87321630D01*
X187394493Y-87240916D01*
X187149293Y-87200000D01*
X186900707Y-87200000D01*
X186655506Y-87240916D01*
X186420396Y-87321630D01*
X186420385Y-87321635D01*
X186201771Y-87439942D01*
X186201769Y-87439943D01*
X186124974Y-87499716D01*
X186059980Y-87525358D01*
X185991440Y-87511791D01*
X185941115Y-87463323D01*
X185939977Y-87461284D01*
X185935890Y-87453801D01*
X185935889Y-87453796D01*
X185848261Y-87336739D01*
X185731204Y-87249111D01*
X185709233Y-87240916D01*
X185594203Y-87198011D01*
X185533654Y-87191500D01*
X185533638Y-87191500D01*
X183436362Y-87191500D01*
X183436345Y-87191500D01*
X183375797Y-87198011D01*
X183375795Y-87198011D01*
X183238795Y-87249111D01*
X183121739Y-87336739D01*
X183034111Y-87453795D01*
X182983011Y-87590795D01*
X182983011Y-87590797D01*
X182976500Y-87651345D01*
X182976500Y-87817500D01*
X182956815Y-87884539D01*
X182904011Y-87930294D01*
X182852500Y-87941500D01*
X182565543Y-87941500D01*
X182498504Y-87921815D01*
X182477862Y-87905181D01*
X181794819Y-87222138D01*
X181761334Y-87160815D01*
X181758500Y-87134457D01*
X181758500Y-84910000D01*
X218985000Y-84910000D01*
X225475000Y-84910000D01*
X225475000Y-67220000D01*
X218985000Y-67220000D01*
X218985000Y-84910000D01*
X181758500Y-84910000D01*
X181758500Y-63300000D01*
X182971835Y-63300000D01*
X182990465Y-63536714D01*
X183045895Y-63767595D01*
X183045895Y-63767597D01*
X183136757Y-63986959D01*
X183136759Y-63986962D01*
X183260820Y-64189410D01*
X183260821Y-64189413D01*
X183276669Y-64207968D01*
X183415031Y-64369969D01*
X183470094Y-64416997D01*
X183595586Y-64524178D01*
X183595589Y-64524179D01*
X183798037Y-64648240D01*
X183798040Y-64648242D01*
X184017403Y-64739104D01*
X184017404Y-64739104D01*
X184017406Y-64739105D01*
X184248289Y-64794535D01*
X184485000Y-64813165D01*
X184721711Y-64794535D01*
X184952594Y-64739105D01*
X184952596Y-64739104D01*
X184952597Y-64739104D01*
X185171959Y-64648242D01*
X185171960Y-64648241D01*
X185171963Y-64648240D01*
X185374416Y-64524176D01*
X185554969Y-64369969D01*
X185689722Y-64212192D01*
X185748228Y-64174001D01*
X185796804Y-64169388D01*
X185801564Y-64169881D01*
X186533871Y-63437574D01*
X186549755Y-63496853D01*
X186616898Y-63613147D01*
X186711853Y-63708102D01*
X186828147Y-63775245D01*
X186887425Y-63791128D01*
X186154943Y-64523609D01*
X186201768Y-64560055D01*
X186201771Y-64560057D01*
X186420385Y-64678364D01*
X186420396Y-64678369D01*
X186655506Y-64759083D01*
X186900707Y-64800000D01*
X187149293Y-64800000D01*
X187394493Y-64759083D01*
X187629603Y-64678369D01*
X187629614Y-64678364D01*
X187848230Y-64560056D01*
X187848236Y-64560051D01*
X187895055Y-64523610D01*
X187895056Y-64523609D01*
X187162574Y-63791128D01*
X187221853Y-63775245D01*
X187338147Y-63708102D01*
X187433102Y-63613147D01*
X187500245Y-63496853D01*
X187516128Y-63437574D01*
X188248434Y-64169881D01*
X188253196Y-64169388D01*
X188321909Y-64182051D01*
X188360276Y-64212192D01*
X188495031Y-64369969D01*
X188550094Y-64416997D01*
X188675586Y-64524178D01*
X188675589Y-64524179D01*
X188878037Y-64648240D01*
X188878040Y-64648242D01*
X189097403Y-64739104D01*
X189097404Y-64739104D01*
X189097406Y-64739105D01*
X189328289Y-64794535D01*
X189565000Y-64813165D01*
X189801711Y-64794535D01*
X190032594Y-64739105D01*
X190032596Y-64739104D01*
X190032597Y-64739104D01*
X190251959Y-64648242D01*
X190251960Y-64648241D01*
X190251963Y-64648240D01*
X190454416Y-64524176D01*
X190634969Y-64369969D01*
X190740711Y-64246160D01*
X190799216Y-64207968D01*
X190869084Y-64207469D01*
X190928131Y-64244823D01*
X190929200Y-64246057D01*
X191006874Y-64337001D01*
X191035031Y-64369969D01*
X191215586Y-64524178D01*
X191215589Y-64524179D01*
X191418037Y-64648240D01*
X191418040Y-64648242D01*
X191637403Y-64739104D01*
X191637404Y-64739104D01*
X191637406Y-64739105D01*
X191868289Y-64794535D01*
X192105000Y-64813165D01*
X192341711Y-64794535D01*
X192572594Y-64739105D01*
X192572596Y-64739104D01*
X192572597Y-64739104D01*
X192791959Y-64648242D01*
X192791960Y-64648241D01*
X192791963Y-64648240D01*
X192994416Y-64524176D01*
X193174969Y-64369969D01*
X193280711Y-64246160D01*
X193339216Y-64207968D01*
X193409084Y-64207469D01*
X193468131Y-64244823D01*
X193469200Y-64246057D01*
X193546874Y-64337001D01*
X193575031Y-64369969D01*
X193755586Y-64524178D01*
X193755589Y-64524179D01*
X193958037Y-64648240D01*
X193958040Y-64648242D01*
X194177403Y-64739104D01*
X194177404Y-64739104D01*
X194177406Y-64739105D01*
X194408289Y-64794535D01*
X194645000Y-64813165D01*
X194881711Y-64794535D01*
X195112594Y-64739105D01*
X195112596Y-64739104D01*
X195112597Y-64739104D01*
X195331959Y-64648242D01*
X195331960Y-64648241D01*
X195331963Y-64648240D01*
X195534416Y-64524176D01*
X195714969Y-64369969D01*
X195820711Y-64246160D01*
X195879216Y-64207968D01*
X195949084Y-64207469D01*
X196008131Y-64244823D01*
X196009200Y-64246057D01*
X196086874Y-64337001D01*
X196115031Y-64369969D01*
X196295586Y-64524178D01*
X196295589Y-64524179D01*
X196498037Y-64648240D01*
X196498040Y-64648242D01*
X196717403Y-64739104D01*
X196717404Y-64739104D01*
X196717406Y-64739105D01*
X196948289Y-64794535D01*
X197185000Y-64813165D01*
X197421711Y-64794535D01*
X197652594Y-64739105D01*
X197652596Y-64739104D01*
X197652597Y-64739104D01*
X197871959Y-64648242D01*
X197871960Y-64648241D01*
X197871963Y-64648240D01*
X198074416Y-64524176D01*
X198254969Y-64369969D01*
X198360711Y-64246160D01*
X198419216Y-64207968D01*
X198489084Y-64207469D01*
X198548131Y-64244823D01*
X198549200Y-64246057D01*
X198626874Y-64337001D01*
X198655031Y-64369969D01*
X198835586Y-64524178D01*
X198835589Y-64524179D01*
X199038037Y-64648240D01*
X199038040Y-64648242D01*
X199257403Y-64739104D01*
X199257404Y-64739104D01*
X199257406Y-64739105D01*
X199488289Y-64794535D01*
X199725000Y-64813165D01*
X199961711Y-64794535D01*
X200192594Y-64739105D01*
X200192596Y-64739104D01*
X200192597Y-64739104D01*
X200411959Y-64648242D01*
X200411960Y-64648241D01*
X200411963Y-64648240D01*
X200614416Y-64524176D01*
X200794969Y-64369969D01*
X200900711Y-64246160D01*
X200959216Y-64207968D01*
X201029084Y-64207469D01*
X201088131Y-64244823D01*
X201089200Y-64246057D01*
X201166874Y-64337001D01*
X201195031Y-64369969D01*
X201375586Y-64524178D01*
X201375589Y-64524179D01*
X201578037Y-64648240D01*
X201578040Y-64648242D01*
X201797403Y-64739104D01*
X201797404Y-64739104D01*
X201797406Y-64739105D01*
X202028289Y-64794535D01*
X202265000Y-64813165D01*
X202501711Y-64794535D01*
X202732594Y-64739105D01*
X202732596Y-64739104D01*
X202732597Y-64739104D01*
X202951959Y-64648242D01*
X202951960Y-64648241D01*
X202951963Y-64648240D01*
X203154416Y-64524176D01*
X203334969Y-64369969D01*
X203440711Y-64246160D01*
X203499216Y-64207968D01*
X203569084Y-64207469D01*
X203628131Y-64244823D01*
X203629200Y-64246057D01*
X203706874Y-64337001D01*
X203735031Y-64369969D01*
X203915586Y-64524178D01*
X203915589Y-64524179D01*
X204118037Y-64648240D01*
X204118040Y-64648242D01*
X204337403Y-64739104D01*
X204337404Y-64739104D01*
X204337406Y-64739105D01*
X204568289Y-64794535D01*
X204805000Y-64813165D01*
X205041711Y-64794535D01*
X205272594Y-64739105D01*
X205272596Y-64739104D01*
X205272597Y-64739104D01*
X205491959Y-64648242D01*
X205491960Y-64648241D01*
X205491963Y-64648240D01*
X205694416Y-64524176D01*
X205874969Y-64369969D01*
X205980711Y-64246160D01*
X206039216Y-64207968D01*
X206109084Y-64207469D01*
X206168131Y-64244823D01*
X206169200Y-64246057D01*
X206246874Y-64337001D01*
X206275031Y-64369969D01*
X206455586Y-64524178D01*
X206455589Y-64524179D01*
X206658037Y-64648240D01*
X206658040Y-64648242D01*
X206877403Y-64739104D01*
X206877404Y-64739104D01*
X206877406Y-64739105D01*
X207108289Y-64794535D01*
X207345000Y-64813165D01*
X207581711Y-64794535D01*
X207812594Y-64739105D01*
X207812596Y-64739104D01*
X207812597Y-64739104D01*
X208031959Y-64648242D01*
X208031960Y-64648241D01*
X208031963Y-64648240D01*
X208234416Y-64524176D01*
X208414969Y-64369969D01*
X208520711Y-64246160D01*
X208579216Y-64207968D01*
X208649084Y-64207469D01*
X208708131Y-64244823D01*
X208709200Y-64246057D01*
X208786874Y-64337001D01*
X208815031Y-64369969D01*
X208995586Y-64524178D01*
X208995589Y-64524179D01*
X209198037Y-64648240D01*
X209198040Y-64648242D01*
X209417403Y-64739104D01*
X209417404Y-64739104D01*
X209417406Y-64739105D01*
X209648289Y-64794535D01*
X209885000Y-64813165D01*
X210121711Y-64794535D01*
X210352594Y-64739105D01*
X210352596Y-64739104D01*
X210352597Y-64739104D01*
X210571959Y-64648242D01*
X210571960Y-64648241D01*
X210571963Y-64648240D01*
X210774416Y-64524176D01*
X210954969Y-64369969D01*
X211060711Y-64246160D01*
X211119216Y-64207968D01*
X211189084Y-64207469D01*
X211248131Y-64244823D01*
X211249200Y-64246057D01*
X211326874Y-64337001D01*
X211355031Y-64369969D01*
X211535586Y-64524178D01*
X211535589Y-64524179D01*
X211738037Y-64648240D01*
X211738040Y-64648242D01*
X211957403Y-64739104D01*
X211957404Y-64739104D01*
X211957406Y-64739105D01*
X212188289Y-64794535D01*
X212425000Y-64813165D01*
X212661711Y-64794535D01*
X212892594Y-64739105D01*
X212892596Y-64739104D01*
X212892597Y-64739104D01*
X213111959Y-64648242D01*
X213111960Y-64648241D01*
X213111963Y-64648240D01*
X213314416Y-64524176D01*
X213494969Y-64369969D01*
X213600711Y-64246160D01*
X213659216Y-64207968D01*
X213729084Y-64207469D01*
X213788131Y-64244823D01*
X213789200Y-64246057D01*
X213866874Y-64337001D01*
X213895031Y-64369969D01*
X214075586Y-64524178D01*
X214075589Y-64524179D01*
X214278037Y-64648240D01*
X214278040Y-64648242D01*
X214497403Y-64739104D01*
X214497404Y-64739104D01*
X214497406Y-64739105D01*
X214728289Y-64794535D01*
X214965000Y-64813165D01*
X215201711Y-64794535D01*
X215432594Y-64739105D01*
X215432596Y-64739104D01*
X215432597Y-64739104D01*
X215651959Y-64648242D01*
X215651960Y-64648241D01*
X215651963Y-64648240D01*
X215854416Y-64524176D01*
X216034969Y-64369969D01*
X216140711Y-64246160D01*
X216199216Y-64207968D01*
X216269084Y-64207469D01*
X216328131Y-64244823D01*
X216329200Y-64246057D01*
X216406874Y-64337001D01*
X216435031Y-64369969D01*
X216615586Y-64524178D01*
X216615589Y-64524179D01*
X216818037Y-64648240D01*
X216818040Y-64648242D01*
X217037403Y-64739104D01*
X217037404Y-64739104D01*
X217037406Y-64739105D01*
X217268289Y-64794535D01*
X217505000Y-64813165D01*
X217741711Y-64794535D01*
X217972594Y-64739105D01*
X217972596Y-64739104D01*
X217972597Y-64739104D01*
X218191959Y-64648242D01*
X218191960Y-64648241D01*
X218191963Y-64648240D01*
X218394416Y-64524176D01*
X218574969Y-64369969D01*
X218680711Y-64246160D01*
X218739216Y-64207968D01*
X218809084Y-64207469D01*
X218868131Y-64244823D01*
X218869200Y-64246057D01*
X218946874Y-64337001D01*
X218975031Y-64369969D01*
X219155586Y-64524178D01*
X219155589Y-64524179D01*
X219358037Y-64648240D01*
X219358040Y-64648242D01*
X219577403Y-64739104D01*
X219577404Y-64739104D01*
X219577406Y-64739105D01*
X219808289Y-64794535D01*
X220045000Y-64813165D01*
X220281711Y-64794535D01*
X220512594Y-64739105D01*
X220512596Y-64739104D01*
X220512597Y-64739104D01*
X220731959Y-64648242D01*
X220731960Y-64648241D01*
X220731963Y-64648240D01*
X220934416Y-64524176D01*
X221114969Y-64369969D01*
X221269176Y-64189416D01*
X221284561Y-64164309D01*
X221336373Y-64117434D01*
X221405303Y-64106011D01*
X221469466Y-64133668D01*
X221508490Y-64191623D01*
X221510059Y-64196990D01*
X221529399Y-64269165D01*
X221569009Y-64416995D01*
X221669761Y-64660234D01*
X221669769Y-64660250D01*
X221801409Y-64888256D01*
X221961687Y-65097136D01*
X221961693Y-65097143D01*
X222147856Y-65283306D01*
X222147863Y-65283312D01*
X222356743Y-65443590D01*
X222584749Y-65575230D01*
X222584765Y-65575238D01*
X222718989Y-65630835D01*
X222828003Y-65675990D01*
X223082320Y-65744134D01*
X223343356Y-65778500D01*
X223343363Y-65778500D01*
X223606637Y-65778500D01*
X223606644Y-65778500D01*
X223867680Y-65744134D01*
X224121997Y-65675990D01*
X224340459Y-65585500D01*
X224365234Y-65575238D01*
X224365237Y-65575236D01*
X224365243Y-65575234D01*
X224593257Y-65443590D01*
X224802138Y-65283311D01*
X224988311Y-65097138D01*
X225148590Y-64888257D01*
X225280234Y-64660243D01*
X225380990Y-64416997D01*
X225449134Y-64162680D01*
X225483500Y-63901644D01*
X225483500Y-63638356D01*
X225449134Y-63377320D01*
X225380990Y-63123003D01*
X225307858Y-62946446D01*
X225280238Y-62879765D01*
X225280230Y-62879749D01*
X225148590Y-62651743D01*
X224988312Y-62442863D01*
X224988306Y-62442856D01*
X224802142Y-62256692D01*
X224802136Y-62256687D01*
X224593256Y-62096409D01*
X224365250Y-61964769D01*
X224365234Y-61964761D01*
X224121995Y-61864009D01*
X223867678Y-61795865D01*
X223606653Y-61761501D01*
X223606650Y-61761500D01*
X223606644Y-61761500D01*
X223343356Y-61761500D01*
X223343350Y-61761500D01*
X223343346Y-61761501D01*
X223082321Y-61795865D01*
X222828004Y-61864009D01*
X222584765Y-61964761D01*
X222584749Y-61964769D01*
X222356743Y-62096409D01*
X222147863Y-62256687D01*
X222147858Y-62256692D01*
X221961693Y-62442856D01*
X221961687Y-62442863D01*
X221801409Y-62651743D01*
X221698806Y-62829456D01*
X221648239Y-62877672D01*
X221579632Y-62890894D01*
X221514767Y-62864926D01*
X221476858Y-62814909D01*
X221393240Y-62613036D01*
X221269179Y-62410589D01*
X221269178Y-62410586D01*
X221220710Y-62353838D01*
X221114969Y-62230031D01*
X220935078Y-62076389D01*
X220934413Y-62075821D01*
X220934410Y-62075820D01*
X220731962Y-61951759D01*
X220731959Y-61951757D01*
X220512596Y-61860895D01*
X220281714Y-61805465D01*
X220045000Y-61786835D01*
X219808285Y-61805465D01*
X219577404Y-61860895D01*
X219577402Y-61860895D01*
X219358040Y-61951757D01*
X219358037Y-61951759D01*
X219155589Y-62075820D01*
X219155586Y-62075821D01*
X218975031Y-62230031D01*
X218933413Y-62278760D01*
X218869290Y-62353838D01*
X218810783Y-62392031D01*
X218740915Y-62392529D01*
X218681869Y-62355176D01*
X218680710Y-62353838D01*
X218574969Y-62230031D01*
X218395078Y-62076389D01*
X218394413Y-62075821D01*
X218394410Y-62075820D01*
X218191962Y-61951759D01*
X218191959Y-61951757D01*
X217972596Y-61860895D01*
X217741714Y-61805465D01*
X217505000Y-61786835D01*
X217268285Y-61805465D01*
X217037404Y-61860895D01*
X217037402Y-61860895D01*
X216818040Y-61951757D01*
X216818037Y-61951759D01*
X216615589Y-62075820D01*
X216615586Y-62075821D01*
X216435031Y-62230031D01*
X216393413Y-62278760D01*
X216329290Y-62353838D01*
X216270783Y-62392031D01*
X216200915Y-62392529D01*
X216141869Y-62355176D01*
X216140710Y-62353838D01*
X216034969Y-62230031D01*
X215855078Y-62076389D01*
X215854413Y-62075821D01*
X215854410Y-62075820D01*
X215651962Y-61951759D01*
X215651959Y-61951757D01*
X215432596Y-61860895D01*
X215201714Y-61805465D01*
X214965000Y-61786835D01*
X214728285Y-61805465D01*
X214497404Y-61860895D01*
X214497402Y-61860895D01*
X214278040Y-61951757D01*
X214278037Y-61951759D01*
X214075589Y-62075820D01*
X214075586Y-62075821D01*
X213895031Y-62230031D01*
X213853413Y-62278760D01*
X213789290Y-62353838D01*
X213730783Y-62392031D01*
X213660915Y-62392529D01*
X213601869Y-62355176D01*
X213600710Y-62353838D01*
X213494969Y-62230031D01*
X213315078Y-62076389D01*
X213314413Y-62075821D01*
X213314410Y-62075820D01*
X213111962Y-61951759D01*
X213111959Y-61951757D01*
X212892596Y-61860895D01*
X212661714Y-61805465D01*
X212425000Y-61786835D01*
X212188285Y-61805465D01*
X211957404Y-61860895D01*
X211957402Y-61860895D01*
X211738040Y-61951757D01*
X211738037Y-61951759D01*
X211535589Y-62075820D01*
X211535586Y-62075821D01*
X211355031Y-62230031D01*
X211313413Y-62278760D01*
X211249290Y-62353838D01*
X211190783Y-62392031D01*
X211120915Y-62392529D01*
X211061869Y-62355176D01*
X211060710Y-62353838D01*
X210954969Y-62230031D01*
X210775078Y-62076389D01*
X210774413Y-62075821D01*
X210774410Y-62075820D01*
X210571962Y-61951759D01*
X210571959Y-61951757D01*
X210352596Y-61860895D01*
X210121714Y-61805465D01*
X209885000Y-61786835D01*
X209648285Y-61805465D01*
X209417404Y-61860895D01*
X209417402Y-61860895D01*
X209198040Y-61951757D01*
X209198037Y-61951759D01*
X208995589Y-62075820D01*
X208995586Y-62075821D01*
X208815031Y-62230031D01*
X208773413Y-62278760D01*
X208709290Y-62353838D01*
X208650783Y-62392031D01*
X208580915Y-62392529D01*
X208521869Y-62355176D01*
X208520710Y-62353838D01*
X208414969Y-62230031D01*
X208235078Y-62076389D01*
X208234413Y-62075821D01*
X208234410Y-62075820D01*
X208031962Y-61951759D01*
X208031959Y-61951757D01*
X207812596Y-61860895D01*
X207581714Y-61805465D01*
X207345000Y-61786835D01*
X207108285Y-61805465D01*
X206877404Y-61860895D01*
X206877402Y-61860895D01*
X206658040Y-61951757D01*
X206658037Y-61951759D01*
X206455589Y-62075820D01*
X206455586Y-62075821D01*
X206275031Y-62230031D01*
X206233413Y-62278760D01*
X206169290Y-62353838D01*
X206110783Y-62392031D01*
X206040915Y-62392529D01*
X205981869Y-62355176D01*
X205980710Y-62353838D01*
X205874969Y-62230031D01*
X205695078Y-62076389D01*
X205694413Y-62075821D01*
X205694410Y-62075820D01*
X205491962Y-61951759D01*
X205491959Y-61951757D01*
X205272596Y-61860895D01*
X205041714Y-61805465D01*
X204805000Y-61786835D01*
X204568285Y-61805465D01*
X204337404Y-61860895D01*
X204337402Y-61860895D01*
X204118040Y-61951757D01*
X204118037Y-61951759D01*
X203915589Y-62075820D01*
X203915586Y-62075821D01*
X203735031Y-62230031D01*
X203693413Y-62278760D01*
X203629290Y-62353838D01*
X203570783Y-62392031D01*
X203500915Y-62392529D01*
X203441869Y-62355176D01*
X203440710Y-62353838D01*
X203334969Y-62230031D01*
X203155078Y-62076389D01*
X203154413Y-62075821D01*
X203154410Y-62075820D01*
X202951962Y-61951759D01*
X202951959Y-61951757D01*
X202732596Y-61860895D01*
X202501714Y-61805465D01*
X202265000Y-61786835D01*
X202028285Y-61805465D01*
X201797404Y-61860895D01*
X201797402Y-61860895D01*
X201578040Y-61951757D01*
X201578037Y-61951759D01*
X201375589Y-62075820D01*
X201375586Y-62075821D01*
X201195031Y-62230031D01*
X201153413Y-62278760D01*
X201089290Y-62353838D01*
X201030783Y-62392031D01*
X200960915Y-62392529D01*
X200901869Y-62355176D01*
X200900710Y-62353838D01*
X200794969Y-62230031D01*
X200615078Y-62076389D01*
X200614413Y-62075821D01*
X200614410Y-62075820D01*
X200411962Y-61951759D01*
X200411959Y-61951757D01*
X200192596Y-61860895D01*
X199961714Y-61805465D01*
X199725000Y-61786835D01*
X199488285Y-61805465D01*
X199257404Y-61860895D01*
X199257402Y-61860895D01*
X199038040Y-61951757D01*
X199038037Y-61951759D01*
X198835589Y-62075820D01*
X198835586Y-62075821D01*
X198655031Y-62230031D01*
X198613413Y-62278760D01*
X198549290Y-62353838D01*
X198490783Y-62392031D01*
X198420915Y-62392529D01*
X198361869Y-62355176D01*
X198360710Y-62353838D01*
X198254969Y-62230031D01*
X198075078Y-62076389D01*
X198074413Y-62075821D01*
X198074410Y-62075820D01*
X197871962Y-61951759D01*
X197871959Y-61951757D01*
X197652596Y-61860895D01*
X197421714Y-61805465D01*
X197185000Y-61786835D01*
X196948285Y-61805465D01*
X196717404Y-61860895D01*
X196717402Y-61860895D01*
X196498040Y-61951757D01*
X196498037Y-61951759D01*
X196295589Y-62075820D01*
X196295586Y-62075821D01*
X196115031Y-62230031D01*
X196073413Y-62278760D01*
X196009290Y-62353838D01*
X195950783Y-62392031D01*
X195880915Y-62392529D01*
X195821869Y-62355176D01*
X195820710Y-62353838D01*
X195714969Y-62230031D01*
X195535078Y-62076389D01*
X195534413Y-62075821D01*
X195534410Y-62075820D01*
X195331962Y-61951759D01*
X195331959Y-61951757D01*
X195112596Y-61860895D01*
X194881714Y-61805465D01*
X194645000Y-61786835D01*
X194408285Y-61805465D01*
X194177404Y-61860895D01*
X194177402Y-61860895D01*
X193958040Y-61951757D01*
X193958037Y-61951759D01*
X193755589Y-62075820D01*
X193755586Y-62075821D01*
X193575031Y-62230031D01*
X193533413Y-62278760D01*
X193469290Y-62353838D01*
X193410783Y-62392031D01*
X193340915Y-62392529D01*
X193281869Y-62355176D01*
X193280710Y-62353838D01*
X193174969Y-62230031D01*
X192995078Y-62076389D01*
X192994413Y-62075821D01*
X192994410Y-62075820D01*
X192791962Y-61951759D01*
X192791959Y-61951757D01*
X192572596Y-61860895D01*
X192341714Y-61805465D01*
X192105000Y-61786835D01*
X191868285Y-61805465D01*
X191637404Y-61860895D01*
X191637402Y-61860895D01*
X191418040Y-61951757D01*
X191418037Y-61951759D01*
X191215589Y-62075820D01*
X191215586Y-62075821D01*
X191035031Y-62230031D01*
X190993413Y-62278760D01*
X190929290Y-62353838D01*
X190870783Y-62392031D01*
X190800915Y-62392529D01*
X190741869Y-62355176D01*
X190740710Y-62353838D01*
X190634969Y-62230031D01*
X190455078Y-62076389D01*
X190454413Y-62075821D01*
X190454410Y-62075820D01*
X190251962Y-61951759D01*
X190251959Y-61951757D01*
X190032596Y-61860895D01*
X189801714Y-61805465D01*
X189565000Y-61786835D01*
X189328285Y-61805465D01*
X189097404Y-61860895D01*
X189097402Y-61860895D01*
X188878040Y-61951757D01*
X188878037Y-61951759D01*
X188675589Y-62075820D01*
X188675586Y-62075821D01*
X188495031Y-62230031D01*
X188360279Y-62387804D01*
X188301772Y-62425997D01*
X188253198Y-62430611D01*
X188248435Y-62430117D01*
X187516128Y-63162424D01*
X187500245Y-63103147D01*
X187433102Y-62986853D01*
X187338147Y-62891898D01*
X187221853Y-62824755D01*
X187162574Y-62808871D01*
X187895055Y-62076389D01*
X187895055Y-62076388D01*
X187848236Y-62039947D01*
X187848231Y-62039944D01*
X187629614Y-61921635D01*
X187629603Y-61921630D01*
X187394493Y-61840916D01*
X187149293Y-61800000D01*
X186900707Y-61800000D01*
X186655506Y-61840916D01*
X186420396Y-61921630D01*
X186420385Y-61921635D01*
X186201770Y-62039943D01*
X186154943Y-62076389D01*
X186887425Y-62808871D01*
X186828147Y-62824755D01*
X186711853Y-62891898D01*
X186616898Y-62986853D01*
X186549755Y-63103147D01*
X186533871Y-63162424D01*
X185801563Y-62430116D01*
X185796800Y-62430611D01*
X185728087Y-62417946D01*
X185689719Y-62387803D01*
X185554971Y-62230033D01*
X185374413Y-62075821D01*
X185374410Y-62075820D01*
X185171962Y-61951759D01*
X185171959Y-61951757D01*
X184952596Y-61860895D01*
X184721714Y-61805465D01*
X184485000Y-61786835D01*
X184248285Y-61805465D01*
X184017404Y-61860895D01*
X184017402Y-61860895D01*
X183798040Y-61951757D01*
X183798037Y-61951759D01*
X183595589Y-62075820D01*
X183595586Y-62075821D01*
X183415031Y-62230031D01*
X183260821Y-62410586D01*
X183260820Y-62410589D01*
X183136759Y-62613037D01*
X183136757Y-62613040D01*
X183045895Y-62832402D01*
X183045895Y-62832404D01*
X182990465Y-63063285D01*
X182971835Y-63300000D01*
X181758500Y-63300000D01*
X181758500Y-62865543D01*
X181778185Y-62798504D01*
X181794819Y-62777862D01*
X183277862Y-61294819D01*
X183339185Y-61261334D01*
X183365543Y-61258500D01*
X223290158Y-61258500D01*
X223357197Y-61278185D01*
X223368823Y-61286647D01*
X223436994Y-61342594D01*
X223437001Y-61342598D01*
X223612191Y-61436239D01*
X223612193Y-61436239D01*
X223612196Y-61436241D01*
X223802299Y-61493908D01*
X223802298Y-61493908D01*
X223820024Y-61495653D01*
X224000000Y-61513380D01*
X224197701Y-61493908D01*
X224387804Y-61436241D01*
X224408285Y-61425294D01*
X224562998Y-61342598D01*
X224563004Y-61342595D01*
X224631177Y-61286647D01*
X224695487Y-61259334D01*
X224709842Y-61258500D01*
X236634457Y-61258500D01*
X236701496Y-61278185D01*
X236722138Y-61294819D01*
X237205181Y-61777862D01*
X237238666Y-61839185D01*
X237241500Y-61865543D01*
X237241500Y-68074709D01*
X237270647Y-68221239D01*
X237270649Y-68221247D01*
X237327825Y-68359282D01*
X237410835Y-68483517D01*
X237410836Y-68483518D01*
X237910835Y-68983516D01*
X238016484Y-69089165D01*
X238016485Y-69089166D01*
X238140709Y-69172170D01*
X238140722Y-69172177D01*
X238278749Y-69229349D01*
X238278754Y-69229351D01*
X238278758Y-69229351D01*
X238278759Y-69229352D01*
X238425291Y-69258500D01*
X238425294Y-69258500D01*
X238425295Y-69258500D01*
X238574705Y-69258500D01*
X244397500Y-69258500D01*
X244464539Y-69278185D01*
X244510294Y-69330989D01*
X244521500Y-69382500D01*
X244521500Y-69398654D01*
X244528011Y-69459202D01*
X244528011Y-69459204D01*
X244579111Y-69596204D01*
X244666739Y-69713261D01*
X244783796Y-69800889D01*
X244920799Y-69851989D01*
X244948050Y-69854918D01*
X244981345Y-69858499D01*
X244981362Y-69858500D01*
X246778638Y-69858500D01*
X246778654Y-69858499D01*
X246805692Y-69855591D01*
X246839201Y-69851989D01*
X246976204Y-69800889D01*
X247093261Y-69713261D01*
X247180889Y-69596204D01*
X247226138Y-69474887D01*
X247268009Y-69418956D01*
X247333474Y-69394539D01*
X247401746Y-69409391D01*
X247433545Y-69434236D01*
X247496760Y-69502906D01*
X247674424Y-69641189D01*
X247674425Y-69641189D01*
X247674427Y-69641191D01*
X247734314Y-69673600D01*
X247872426Y-69748342D01*
X248085365Y-69821444D01*
X248307431Y-69858500D01*
X248532569Y-69858500D01*
X248754635Y-69821444D01*
X248967574Y-69748342D01*
X249165576Y-69641189D01*
X249343240Y-69502906D01*
X249464594Y-69371082D01*
X249495715Y-69337276D01*
X249495715Y-69337275D01*
X249495722Y-69337268D01*
X249586193Y-69198790D01*
X249639338Y-69153437D01*
X249708569Y-69144013D01*
X249771905Y-69173515D01*
X249793804Y-69198787D01*
X249884278Y-69337268D01*
X249884283Y-69337273D01*
X249884284Y-69337276D01*
X250010968Y-69474889D01*
X250036760Y-69502906D01*
X250214424Y-69641189D01*
X250214425Y-69641189D01*
X250214427Y-69641191D01*
X250274314Y-69673600D01*
X250412426Y-69748342D01*
X250625365Y-69821444D01*
X250847431Y-69858500D01*
X251072569Y-69858500D01*
X251294635Y-69821444D01*
X251507574Y-69748342D01*
X251705576Y-69641189D01*
X251883240Y-69502906D01*
X252004594Y-69371082D01*
X252035715Y-69337276D01*
X252035715Y-69337275D01*
X252035722Y-69337268D01*
X252129749Y-69193347D01*
X252182894Y-69147994D01*
X252252125Y-69138570D01*
X252315461Y-69168072D01*
X252335130Y-69190048D01*
X252461890Y-69371078D01*
X252628917Y-69538105D01*
X252822421Y-69673600D01*
X253036507Y-69773429D01*
X253036516Y-69773433D01*
X253250000Y-69830634D01*
X253250000Y-68933012D01*
X253307007Y-68965925D01*
X253434174Y-69000000D01*
X253565826Y-69000000D01*
X253692993Y-68965925D01*
X253750000Y-68933012D01*
X253750000Y-69830633D01*
X253963483Y-69773433D01*
X253963492Y-69773429D01*
X254177578Y-69673600D01*
X254371082Y-69538105D01*
X254538105Y-69371082D01*
X254673600Y-69177578D01*
X254773429Y-68963492D01*
X254773432Y-68963486D01*
X254830636Y-68750000D01*
X253933012Y-68750000D01*
X253965925Y-68692993D01*
X254000000Y-68565826D01*
X254000000Y-68434174D01*
X253965925Y-68307007D01*
X253933012Y-68250000D01*
X254830636Y-68250000D01*
X254830635Y-68249999D01*
X254773432Y-68036513D01*
X254773429Y-68036507D01*
X254673600Y-67822422D01*
X254673599Y-67822420D01*
X254538113Y-67628926D01*
X254538108Y-67628920D01*
X254371082Y-67461894D01*
X254177578Y-67326399D01*
X253963492Y-67226570D01*
X253963486Y-67226567D01*
X253750000Y-67169364D01*
X253750000Y-68066988D01*
X253692993Y-68034075D01*
X253565826Y-68000000D01*
X253434174Y-68000000D01*
X253307007Y-68034075D01*
X253250000Y-68066988D01*
X253250000Y-67169364D01*
X253249999Y-67169364D01*
X253036513Y-67226567D01*
X253036507Y-67226570D01*
X252822422Y-67326399D01*
X252822420Y-67326400D01*
X252628926Y-67461886D01*
X252628920Y-67461891D01*
X252461891Y-67628920D01*
X252461890Y-67628922D01*
X252335131Y-67809952D01*
X252280554Y-67853577D01*
X252211055Y-67860769D01*
X252148701Y-67829247D01*
X252129752Y-67806656D01*
X252035722Y-67662732D01*
X252035715Y-67662725D01*
X252035715Y-67662723D01*
X251883243Y-67497097D01*
X251883238Y-67497092D01*
X251705577Y-67358812D01*
X251705572Y-67358808D01*
X251507580Y-67251661D01*
X251507577Y-67251659D01*
X251507574Y-67251658D01*
X251507571Y-67251657D01*
X251507569Y-67251656D01*
X251294637Y-67178556D01*
X251072569Y-67141500D01*
X250847431Y-67141500D01*
X250625362Y-67178556D01*
X250412430Y-67251656D01*
X250412419Y-67251661D01*
X250214427Y-67358808D01*
X250214422Y-67358812D01*
X250036761Y-67497092D01*
X250036756Y-67497097D01*
X249884284Y-67662723D01*
X249884276Y-67662734D01*
X249793808Y-67801206D01*
X249740662Y-67846562D01*
X249671431Y-67855986D01*
X249608095Y-67826484D01*
X249586192Y-67801206D01*
X249495723Y-67662734D01*
X249495715Y-67662723D01*
X249343243Y-67497097D01*
X249343238Y-67497092D01*
X249165577Y-67358812D01*
X249165572Y-67358808D01*
X248967580Y-67251661D01*
X248967577Y-67251659D01*
X248967574Y-67251658D01*
X248967571Y-67251657D01*
X248967569Y-67251656D01*
X248754637Y-67178556D01*
X248532569Y-67141500D01*
X248307431Y-67141500D01*
X248085362Y-67178556D01*
X247872430Y-67251656D01*
X247872419Y-67251661D01*
X247674427Y-67358808D01*
X247674422Y-67358812D01*
X247496761Y-67497092D01*
X247433548Y-67565760D01*
X247373661Y-67601750D01*
X247303823Y-67599649D01*
X247246207Y-67560124D01*
X247226138Y-67525110D01*
X247180889Y-67403796D01*
X247147214Y-67358812D01*
X247093261Y-67286739D01*
X246976204Y-67199111D01*
X246839203Y-67148011D01*
X246778654Y-67141500D01*
X246778638Y-67141500D01*
X244981362Y-67141500D01*
X244981345Y-67141500D01*
X244920797Y-67148011D01*
X244920795Y-67148011D01*
X244783795Y-67199111D01*
X244666739Y-67286739D01*
X244579111Y-67403795D01*
X244528011Y-67540795D01*
X244528011Y-67540797D01*
X244521500Y-67601345D01*
X244521500Y-67617500D01*
X244501815Y-67684539D01*
X244449011Y-67730294D01*
X244397500Y-67741500D01*
X238882500Y-67741500D01*
X238815461Y-67721815D01*
X238769706Y-67669011D01*
X238758500Y-67617500D01*
X238758500Y-64950000D01*
X243886620Y-64950000D01*
X243906091Y-65147699D01*
X243963760Y-65337808D01*
X244057401Y-65512998D01*
X244057405Y-65513005D01*
X244183431Y-65666568D01*
X244336994Y-65792594D01*
X244337001Y-65792598D01*
X244512191Y-65886239D01*
X244512193Y-65886239D01*
X244512196Y-65886241D01*
X244702299Y-65943908D01*
X244702298Y-65943908D01*
X244720024Y-65945653D01*
X244900000Y-65963380D01*
X245097701Y-65943908D01*
X245287804Y-65886241D01*
X245463004Y-65792595D01*
X245616568Y-65666568D01*
X245623609Y-65657989D01*
X245645894Y-65630835D01*
X245703640Y-65591501D01*
X245741747Y-65585500D01*
X248756780Y-65585500D01*
X248823819Y-65605185D01*
X248869574Y-65657989D01*
X248879518Y-65727147D01*
X248875441Y-65745495D01*
X248832424Y-65887300D01*
X248812953Y-66085000D01*
X248832424Y-66282699D01*
X248890093Y-66472808D01*
X248983734Y-66647998D01*
X248983738Y-66648005D01*
X249109764Y-66801568D01*
X249263327Y-66927594D01*
X249263334Y-66927598D01*
X249438524Y-67021239D01*
X249438526Y-67021239D01*
X249438529Y-67021241D01*
X249628632Y-67078908D01*
X249628631Y-67078908D01*
X249646357Y-67080653D01*
X249826333Y-67098380D01*
X250024034Y-67078908D01*
X250214137Y-67021241D01*
X250389337Y-66927595D01*
X250542901Y-66801568D01*
X250572227Y-66765835D01*
X250629973Y-66726501D01*
X250668080Y-66720500D01*
X252877592Y-66720500D01*
X252877593Y-66720499D01*
X253000369Y-66696078D01*
X253116022Y-66648173D01*
X253220108Y-66578625D01*
X253654164Y-66144567D01*
X253715483Y-66111085D01*
X253753992Y-66108848D01*
X253800000Y-66113380D01*
X253997701Y-66093908D01*
X254187804Y-66036241D01*
X254363004Y-65942595D01*
X254516568Y-65816568D01*
X254642595Y-65663004D01*
X254736241Y-65487804D01*
X254793908Y-65297701D01*
X254813380Y-65100000D01*
X254793908Y-64902299D01*
X254736241Y-64712196D01*
X254736239Y-64712193D01*
X254736239Y-64712191D01*
X254642598Y-64537001D01*
X254642594Y-64536994D01*
X254516568Y-64383431D01*
X254363005Y-64257405D01*
X254362998Y-64257401D01*
X254187808Y-64163760D01*
X254088607Y-64133668D01*
X253997701Y-64106092D01*
X253997699Y-64106091D01*
X253997701Y-64106091D01*
X253800000Y-64086620D01*
X253602300Y-64106091D01*
X253412191Y-64163760D01*
X253237001Y-64257401D01*
X253236994Y-64257405D01*
X253083431Y-64383431D01*
X252957405Y-64536994D01*
X252957401Y-64537001D01*
X252863760Y-64712191D01*
X252806091Y-64902300D01*
X252786620Y-65100000D01*
X252786620Y-65100001D01*
X252791150Y-65146004D01*
X252778130Y-65214650D01*
X252755428Y-65245837D01*
X252588084Y-65413182D01*
X252526764Y-65446666D01*
X252500405Y-65449500D01*
X252254386Y-65449500D01*
X252187347Y-65429815D01*
X252141592Y-65377011D01*
X252131648Y-65307853D01*
X252135725Y-65289505D01*
X252137605Y-65283306D01*
X252193908Y-65097701D01*
X252213380Y-64900000D01*
X252193908Y-64702299D01*
X252136241Y-64512196D01*
X252136239Y-64512193D01*
X252136239Y-64512191D01*
X252042598Y-64337001D01*
X252042594Y-64336994D01*
X251916568Y-64183431D01*
X251763005Y-64057405D01*
X251762998Y-64057401D01*
X251587808Y-63963760D01*
X251492752Y-63934925D01*
X251397701Y-63906092D01*
X251397699Y-63906091D01*
X251397701Y-63906091D01*
X251200000Y-63886620D01*
X251002300Y-63906091D01*
X250812191Y-63963760D01*
X250637001Y-64057401D01*
X250636994Y-64057405D01*
X250483431Y-64183431D01*
X250413072Y-64269165D01*
X250355326Y-64308499D01*
X250317219Y-64314500D01*
X245741747Y-64314500D01*
X245674708Y-64294815D01*
X245645894Y-64269165D01*
X245616568Y-64233431D01*
X245463005Y-64107405D01*
X245462998Y-64107401D01*
X245287808Y-64013760D01*
X245122979Y-63963760D01*
X245097701Y-63956092D01*
X245097699Y-63956091D01*
X245097701Y-63956091D01*
X244900000Y-63936620D01*
X244702300Y-63956091D01*
X244512191Y-64013760D01*
X244337001Y-64107401D01*
X244336994Y-64107405D01*
X244183431Y-64233431D01*
X244057405Y-64386994D01*
X244057401Y-64387001D01*
X243963760Y-64562191D01*
X243906091Y-64752300D01*
X243886620Y-64950000D01*
X238758500Y-64950000D01*
X238758500Y-61425291D01*
X238729352Y-61278759D01*
X238729351Y-61278758D01*
X238729351Y-61278754D01*
X238729115Y-61278185D01*
X238672177Y-61140722D01*
X238672170Y-61140709D01*
X238589166Y-61016485D01*
X238589165Y-61016484D01*
X238483516Y-60910835D01*
X237986494Y-60413813D01*
X237483518Y-59910836D01*
X237483517Y-59910835D01*
X237359285Y-59827827D01*
X237359284Y-59827826D01*
X237221247Y-59770649D01*
X237221239Y-59770647D01*
X237147976Y-59756074D01*
X237074709Y-59741500D01*
X237074706Y-59741500D01*
X224709842Y-59741500D01*
X224642803Y-59721815D01*
X224631177Y-59713353D01*
X224563005Y-59657405D01*
X224562998Y-59657401D01*
X224387808Y-59563760D01*
X224292752Y-59534925D01*
X224197701Y-59506092D01*
X224197699Y-59506091D01*
X224197701Y-59506091D01*
X224000000Y-59486620D01*
X223802300Y-59506091D01*
X223612191Y-59563760D01*
X223437001Y-59657401D01*
X223436994Y-59657405D01*
X223368823Y-59713353D01*
X223304513Y-59740666D01*
X223290158Y-59741500D01*
X182925290Y-59741500D01*
X182852024Y-59756074D01*
X182778759Y-59770647D01*
X182778751Y-59770649D01*
X182747892Y-59783432D01*
X182640714Y-59827826D01*
X182516482Y-59910835D01*
X180410835Y-62016482D01*
X180327828Y-62140712D01*
X180327822Y-62140723D01*
X180279790Y-62256687D01*
X180279788Y-62256692D01*
X180270649Y-62278751D01*
X180270647Y-62278760D01*
X180241500Y-62425289D01*
X178020739Y-62425289D01*
X177852142Y-62256692D01*
X177852136Y-62256687D01*
X177643256Y-62096409D01*
X177415250Y-61964769D01*
X177415234Y-61964761D01*
X177171995Y-61864009D01*
X176917678Y-61795865D01*
X176656653Y-61761501D01*
X176656650Y-61761500D01*
X176656644Y-61761500D01*
X176393356Y-61761500D01*
X176393350Y-61761500D01*
X176393346Y-61761501D01*
X176132321Y-61795865D01*
X175878004Y-61864009D01*
X175634765Y-61964761D01*
X175634749Y-61964769D01*
X175406743Y-62096409D01*
X175197863Y-62256687D01*
X175197858Y-62256692D01*
X175011693Y-62442856D01*
X175011687Y-62442863D01*
X174851409Y-62651743D01*
X174719769Y-62879749D01*
X174719761Y-62879765D01*
X174619009Y-63123004D01*
X174550865Y-63377321D01*
X174516501Y-63638346D01*
X174516500Y-63638362D01*
X167000500Y-63638362D01*
X167000500Y-60480852D01*
X167020185Y-60413813D01*
X167072989Y-60368058D01*
X167142147Y-60358114D01*
X167204641Y-60386230D01*
X167434516Y-60580925D01*
X167434535Y-60580939D01*
X167824974Y-60859707D01*
X167824993Y-60859720D01*
X168237153Y-61105313D01*
X168237154Y-61105314D01*
X168668161Y-61316021D01*
X168668192Y-61316034D01*
X169115127Y-61490427D01*
X169115138Y-61490431D01*
X169574970Y-61627329D01*
X170044535Y-61725787D01*
X170520630Y-61785131D01*
X170999998Y-61804959D01*
X171000002Y-61804959D01*
X171479369Y-61785131D01*
X171955464Y-61725787D01*
X172425029Y-61627329D01*
X172884861Y-61490431D01*
X172884872Y-61490427D01*
X173331807Y-61316034D01*
X173331838Y-61316021D01*
X173762845Y-61105314D01*
X173762846Y-61105313D01*
X174175006Y-60859720D01*
X174175025Y-60859707D01*
X174565464Y-60580939D01*
X174565483Y-60580925D01*
X174923849Y-60277403D01*
X174923849Y-60277402D01*
X172688995Y-58042548D01*
X172768601Y-57979066D01*
X172979066Y-57768601D01*
X173042548Y-57688995D01*
X175277402Y-59923849D01*
X175277403Y-59923849D01*
X175580925Y-59565483D01*
X175580939Y-59565464D01*
X175859707Y-59175025D01*
X175859720Y-59175006D01*
X176105313Y-58762846D01*
X176105314Y-58762845D01*
X176316021Y-58331838D01*
X176316034Y-58331807D01*
X176490427Y-57884872D01*
X176490431Y-57884861D01*
X176627329Y-57425029D01*
X176725787Y-56955464D01*
X176785131Y-56479369D01*
X176804959Y-56000001D01*
X176804959Y-55999998D01*
X176785131Y-55520630D01*
X176782559Y-55499995D01*
X205694953Y-55499995D01*
X205694953Y-55500004D01*
X205715113Y-55769026D01*
X205715113Y-55769028D01*
X205775142Y-56032033D01*
X205775148Y-56032052D01*
X205873709Y-56283181D01*
X205873708Y-56283181D01*
X206008600Y-56516818D01*
X206062294Y-56584150D01*
X206898957Y-55747486D01*
X206923978Y-55807890D01*
X206995112Y-55914351D01*
X207085649Y-56004888D01*
X207192110Y-56076022D01*
X207252511Y-56101041D01*
X206414848Y-56938703D01*
X206597476Y-57063216D01*
X206597485Y-57063221D01*
X206840539Y-57180269D01*
X206840537Y-57180269D01*
X207098337Y-57259790D01*
X207098343Y-57259792D01*
X207365101Y-57299999D01*
X207365110Y-57300000D01*
X207634890Y-57300000D01*
X207634898Y-57299999D01*
X207901656Y-57259792D01*
X207901662Y-57259790D01*
X208159461Y-57180269D01*
X208402516Y-57063221D01*
X208402517Y-57063220D01*
X208585150Y-56938703D01*
X207747487Y-56101041D01*
X207807890Y-56076022D01*
X207914351Y-56004888D01*
X208004888Y-55914351D01*
X208076022Y-55807890D01*
X208101041Y-55747487D01*
X208937703Y-56584150D01*
X208937704Y-56584149D01*
X208991400Y-56516818D01*
X209126290Y-56283181D01*
X209224851Y-56032052D01*
X209224857Y-56032033D01*
X209284886Y-55769028D01*
X209284886Y-55769026D01*
X209305047Y-55500004D01*
X209305047Y-55499995D01*
X209284886Y-55230973D01*
X209284886Y-55230971D01*
X209224857Y-54967966D01*
X209224851Y-54967947D01*
X209126290Y-54716818D01*
X209126291Y-54716818D01*
X208991400Y-54483182D01*
X208991393Y-54483171D01*
X208937704Y-54415849D01*
X208937703Y-54415848D01*
X208101041Y-55252511D01*
X208076022Y-55192110D01*
X208004888Y-55085649D01*
X207914351Y-54995112D01*
X207807890Y-54923978D01*
X207747488Y-54898958D01*
X208495100Y-54151345D01*
X210691500Y-54151345D01*
X210691500Y-56848654D01*
X210698011Y-56909202D01*
X210698011Y-56909204D01*
X210709296Y-56939458D01*
X210749111Y-57046204D01*
X210836739Y-57163261D01*
X210953796Y-57250889D01*
X211042234Y-57283875D01*
X211085463Y-57299999D01*
X211090799Y-57301989D01*
X211118050Y-57304918D01*
X211151345Y-57308499D01*
X211151362Y-57308500D01*
X213848638Y-57308500D01*
X213848654Y-57308499D01*
X213875692Y-57305591D01*
X213909201Y-57301989D01*
X213914537Y-57299999D01*
X213923768Y-57296555D01*
X214046204Y-57250889D01*
X214163261Y-57163261D01*
X214250889Y-57046204D01*
X214301989Y-56909201D01*
X214305591Y-56875692D01*
X214308499Y-56848654D01*
X214308500Y-56848637D01*
X214308500Y-55724998D01*
X217686807Y-55724998D01*
X217686807Y-55725001D01*
X217705541Y-55939136D01*
X217705542Y-55939144D01*
X217761176Y-56146772D01*
X217761177Y-56146774D01*
X217761178Y-56146777D01*
X217762382Y-56149358D01*
X217852024Y-56341597D01*
X217852026Y-56341601D01*
X217975319Y-56517682D01*
X218127317Y-56669680D01*
X218303398Y-56792973D01*
X218303400Y-56792974D01*
X218303403Y-56792976D01*
X218498223Y-56883822D01*
X218705858Y-56939458D01*
X218858816Y-56952840D01*
X218919998Y-56958193D01*
X218920000Y-56958193D01*
X218920002Y-56958193D01*
X218973535Y-56953509D01*
X219134142Y-56939458D01*
X219341777Y-56883822D01*
X219536597Y-56792976D01*
X219712681Y-56669681D01*
X219864681Y-56517681D01*
X219987976Y-56341597D01*
X220077618Y-56149356D01*
X220123790Y-56096919D01*
X220190984Y-56077767D01*
X220257865Y-56097983D01*
X220302382Y-56149358D01*
X220392024Y-56341597D01*
X220392026Y-56341601D01*
X220515319Y-56517682D01*
X220667317Y-56669680D01*
X220843398Y-56792973D01*
X220843400Y-56792974D01*
X220843403Y-56792976D01*
X221038223Y-56883822D01*
X221245858Y-56939458D01*
X221398816Y-56952840D01*
X221459998Y-56958193D01*
X221460000Y-56958193D01*
X221460002Y-56958193D01*
X221513535Y-56953509D01*
X221674142Y-56939458D01*
X221881777Y-56883822D01*
X222076597Y-56792976D01*
X222252681Y-56669681D01*
X222404681Y-56517681D01*
X222527976Y-56341597D01*
X222617618Y-56149356D01*
X222663790Y-56096919D01*
X222730984Y-56077767D01*
X222797865Y-56097983D01*
X222842382Y-56149358D01*
X222932024Y-56341597D01*
X222932026Y-56341601D01*
X223055319Y-56517682D01*
X223207317Y-56669680D01*
X223383398Y-56792973D01*
X223383400Y-56792974D01*
X223383403Y-56792976D01*
X223578223Y-56883822D01*
X223785858Y-56939458D01*
X223938816Y-56952840D01*
X223999998Y-56958193D01*
X224000000Y-56958193D01*
X224000002Y-56958193D01*
X224053535Y-56953509D01*
X224214142Y-56939458D01*
X224421777Y-56883822D01*
X224616597Y-56792976D01*
X224792681Y-56669681D01*
X224944681Y-56517681D01*
X225067976Y-56341597D01*
X225158822Y-56146777D01*
X225214458Y-55939142D01*
X225233193Y-55725000D01*
X225214458Y-55510858D01*
X225211547Y-55499995D01*
X228694953Y-55499995D01*
X228694953Y-55500004D01*
X228715113Y-55769026D01*
X228715113Y-55769028D01*
X228775142Y-56032033D01*
X228775148Y-56032052D01*
X228873709Y-56283181D01*
X228873708Y-56283181D01*
X229008600Y-56516818D01*
X229062294Y-56584150D01*
X229062295Y-56584150D01*
X229898958Y-55747487D01*
X229923978Y-55807890D01*
X229995112Y-55914351D01*
X230085649Y-56004888D01*
X230192110Y-56076022D01*
X230252511Y-56101041D01*
X229414848Y-56938703D01*
X229597476Y-57063216D01*
X229597485Y-57063221D01*
X229840539Y-57180269D01*
X229840537Y-57180269D01*
X230098337Y-57259790D01*
X230098343Y-57259792D01*
X230365101Y-57299999D01*
X230365110Y-57300000D01*
X230634890Y-57300000D01*
X230634898Y-57299999D01*
X230901656Y-57259792D01*
X230901662Y-57259790D01*
X231159461Y-57180269D01*
X231402516Y-57063221D01*
X231402517Y-57063220D01*
X231585150Y-56938703D01*
X230747487Y-56101041D01*
X230807890Y-56076022D01*
X230914351Y-56004888D01*
X231004888Y-55914351D01*
X231076022Y-55807890D01*
X231101041Y-55747487D01*
X231937703Y-56584150D01*
X231937704Y-56584149D01*
X231991400Y-56516818D01*
X232126290Y-56283181D01*
X232224851Y-56032052D01*
X232224857Y-56032033D01*
X232284886Y-55769028D01*
X232284886Y-55769026D01*
X232305047Y-55500004D01*
X232305047Y-55499995D01*
X232284886Y-55230973D01*
X232284886Y-55230971D01*
X232224857Y-54967966D01*
X232224851Y-54967947D01*
X232126290Y-54716818D01*
X232126291Y-54716818D01*
X231991400Y-54483182D01*
X231991393Y-54483171D01*
X231937704Y-54415849D01*
X231937703Y-54415848D01*
X231101041Y-55252511D01*
X231076022Y-55192110D01*
X231004888Y-55085649D01*
X230914351Y-54995112D01*
X230807890Y-54923978D01*
X230747488Y-54898958D01*
X231495100Y-54151345D01*
X233691500Y-54151345D01*
X233691500Y-56848654D01*
X233698011Y-56909202D01*
X233698011Y-56909204D01*
X233709296Y-56939458D01*
X233749111Y-57046204D01*
X233836739Y-57163261D01*
X233953796Y-57250889D01*
X234042234Y-57283875D01*
X234085463Y-57299999D01*
X234090799Y-57301989D01*
X234118050Y-57304918D01*
X234151345Y-57308499D01*
X234151362Y-57308500D01*
X236848638Y-57308500D01*
X236848654Y-57308499D01*
X236875692Y-57305591D01*
X236909201Y-57301989D01*
X236914537Y-57299999D01*
X236923768Y-57296555D01*
X237046204Y-57250889D01*
X237163261Y-57163261D01*
X237250889Y-57046204D01*
X237301989Y-56909201D01*
X237305591Y-56875692D01*
X237308499Y-56848654D01*
X237308500Y-56848637D01*
X237308500Y-54151362D01*
X237308499Y-54151345D01*
X237305157Y-54120270D01*
X237301989Y-54090799D01*
X237290984Y-54061295D01*
X237275930Y-54020934D01*
X237250889Y-53953796D01*
X237163261Y-53836739D01*
X237046204Y-53749111D01*
X237022332Y-53740207D01*
X236909203Y-53698011D01*
X236848654Y-53691500D01*
X236848638Y-53691500D01*
X234151362Y-53691500D01*
X234151345Y-53691500D01*
X234090797Y-53698011D01*
X234090795Y-53698011D01*
X233953795Y-53749111D01*
X233836739Y-53836739D01*
X233749111Y-53953795D01*
X233698011Y-54090795D01*
X233698011Y-54090797D01*
X233691500Y-54151345D01*
X231495100Y-54151345D01*
X231585150Y-54061295D01*
X231402524Y-53936783D01*
X231402516Y-53936778D01*
X231159460Y-53819730D01*
X231159462Y-53819730D01*
X230901662Y-53740209D01*
X230901656Y-53740207D01*
X230634898Y-53700000D01*
X230365101Y-53700000D01*
X230098343Y-53740207D01*
X230098337Y-53740209D01*
X229840538Y-53819730D01*
X229597482Y-53936780D01*
X229597469Y-53936787D01*
X229414848Y-54061294D01*
X230252512Y-54898958D01*
X230192110Y-54923978D01*
X230085649Y-54995112D01*
X229995112Y-55085649D01*
X229923978Y-55192110D01*
X229898958Y-55252512D01*
X229062294Y-54415848D01*
X229008602Y-54483177D01*
X228873709Y-54716818D01*
X228775148Y-54967947D01*
X228775142Y-54967966D01*
X228715113Y-55230971D01*
X228715113Y-55230973D01*
X228694953Y-55499995D01*
X225211547Y-55499995D01*
X225158822Y-55303223D01*
X225067976Y-55108404D01*
X224944681Y-54932319D01*
X224944679Y-54932316D01*
X224792682Y-54780319D01*
X224616601Y-54657026D01*
X224616597Y-54657024D01*
X224616595Y-54657023D01*
X224421777Y-54566178D01*
X224421774Y-54566177D01*
X224421772Y-54566176D01*
X224214144Y-54510542D01*
X224214136Y-54510541D01*
X224000002Y-54491807D01*
X223999998Y-54491807D01*
X223785863Y-54510541D01*
X223785855Y-54510542D01*
X223578227Y-54566176D01*
X223578221Y-54566179D01*
X223383405Y-54657023D01*
X223383403Y-54657024D01*
X223207316Y-54780320D01*
X223055320Y-54932316D01*
X222932024Y-55108403D01*
X222932023Y-55108405D01*
X222842382Y-55300641D01*
X222796209Y-55353080D01*
X222729016Y-55372232D01*
X222662135Y-55352016D01*
X222617618Y-55300641D01*
X222527976Y-55108405D01*
X222527975Y-55108403D01*
X222404679Y-54932316D01*
X222252682Y-54780319D01*
X222076601Y-54657026D01*
X222076597Y-54657024D01*
X222076595Y-54657023D01*
X221881777Y-54566178D01*
X221881774Y-54566177D01*
X221881772Y-54566176D01*
X221674144Y-54510542D01*
X221674136Y-54510541D01*
X221460002Y-54491807D01*
X221459998Y-54491807D01*
X221245863Y-54510541D01*
X221245855Y-54510542D01*
X221038227Y-54566176D01*
X221038221Y-54566179D01*
X220843405Y-54657023D01*
X220843403Y-54657024D01*
X220667316Y-54780320D01*
X220515320Y-54932316D01*
X220392024Y-55108403D01*
X220392023Y-55108405D01*
X220302382Y-55300641D01*
X220256209Y-55353080D01*
X220189016Y-55372232D01*
X220122135Y-55352016D01*
X220077618Y-55300641D01*
X219987976Y-55108405D01*
X219987975Y-55108403D01*
X219864679Y-54932316D01*
X219712682Y-54780319D01*
X219536601Y-54657026D01*
X219536597Y-54657024D01*
X219536595Y-54657023D01*
X219341777Y-54566178D01*
X219341774Y-54566177D01*
X219341772Y-54566176D01*
X219134144Y-54510542D01*
X219134136Y-54510541D01*
X218920002Y-54491807D01*
X218919998Y-54491807D01*
X218705863Y-54510541D01*
X218705855Y-54510542D01*
X218498227Y-54566176D01*
X218498221Y-54566179D01*
X218303405Y-54657023D01*
X218303403Y-54657024D01*
X218127316Y-54780320D01*
X217975320Y-54932316D01*
X217852024Y-55108403D01*
X217852023Y-55108405D01*
X217761179Y-55303221D01*
X217761176Y-55303227D01*
X217705542Y-55510855D01*
X217705541Y-55510863D01*
X217686807Y-55724998D01*
X214308500Y-55724998D01*
X214308500Y-54151362D01*
X214308499Y-54151345D01*
X214305157Y-54120270D01*
X214301989Y-54090799D01*
X214290984Y-54061295D01*
X214275930Y-54020934D01*
X214250889Y-53953796D01*
X214163261Y-53836739D01*
X214046204Y-53749111D01*
X214022332Y-53740207D01*
X213909203Y-53698011D01*
X213848654Y-53691500D01*
X213848638Y-53691500D01*
X211151362Y-53691500D01*
X211151345Y-53691500D01*
X211090797Y-53698011D01*
X211090795Y-53698011D01*
X210953795Y-53749111D01*
X210836739Y-53836739D01*
X210749111Y-53953795D01*
X210698011Y-54090795D01*
X210698011Y-54090797D01*
X210691500Y-54151345D01*
X208495100Y-54151345D01*
X208585150Y-54061295D01*
X208402524Y-53936783D01*
X208402516Y-53936778D01*
X208159460Y-53819730D01*
X208159462Y-53819730D01*
X207901662Y-53740209D01*
X207901656Y-53740207D01*
X207634898Y-53700000D01*
X207365101Y-53700000D01*
X207098343Y-53740207D01*
X207098337Y-53740209D01*
X206840538Y-53819730D01*
X206597482Y-53936780D01*
X206597469Y-53936787D01*
X206414848Y-54061294D01*
X207252512Y-54898958D01*
X207192110Y-54923978D01*
X207085649Y-54995112D01*
X206995112Y-55085649D01*
X206923978Y-55192110D01*
X206898958Y-55252512D01*
X206062294Y-54415848D01*
X206008602Y-54483177D01*
X205873709Y-54716818D01*
X205775148Y-54967947D01*
X205775142Y-54967966D01*
X205715113Y-55230971D01*
X205715113Y-55230973D01*
X205694953Y-55499995D01*
X176782559Y-55499995D01*
X176725787Y-55044535D01*
X176627329Y-54574970D01*
X176490431Y-54115138D01*
X176490427Y-54115127D01*
X176316034Y-53668192D01*
X176316021Y-53668161D01*
X176105314Y-53237154D01*
X176105313Y-53237153D01*
X175859720Y-52824993D01*
X175859707Y-52824974D01*
X175580939Y-52434535D01*
X175580925Y-52434516D01*
X175386231Y-52204641D01*
X175357924Y-52140762D01*
X175368647Y-52071720D01*
X175414994Y-52019435D01*
X175480853Y-52000500D01*
X254519147Y-52000500D01*
X254586186Y-52020185D01*
G37*
%TD.AperFunction*%
%TD*%
M02*
