<svg width="26" height="26" viewBox="0 0 26 26" fill="none" xmlns="http://www.w3.org/2000/svg">
<path fill-rule="evenodd" clip-rule="evenodd" d="M14.65 1.46274L24.5364 11.3491C25.4477 12.2604 25.4477 13.7378 24.5364 14.649L14.65 24.5355C13.7388 25.4467 12.2614 25.4467 11.3502 24.5355L1.46372 14.649C0.552459 13.7378 0.552459 12.2604 1.46372 11.3492L11.3501 1.46274C12.2614 0.551482 13.7388 0.551482 14.65 1.46274ZM13.0001 16.2074C12.1667 16.2074 11.5417 16.8234 11.5417 17.6448C11.5417 18.5034 12.1478 19.1194 13.0001 19.1194C13.8334 19.1194 14.4584 18.5034 14.4584 17.6634C14.4584 16.8234 13.8334 16.2074 13.0001 16.2074ZM14.1667 7.16577H11.8334V14.1658H14.1667V7.16577Z" fill="#BC8644"/>
</svg>
