<svg width="15" height="16" viewBox="0 0 15 16" fill="none" xmlns="http://www.w3.org/2000/svg">
<path d="M1.0956 10.9374C0.864463 10.4387 0.691236 9.92775 0.575913 9.40466C0.460591 8.88157 0.402686 8.34632 0.4022 7.7989C0.4022 6.78922 0.593918 5.84036 0.977353 4.95233C1.36079 4.0643 1.88071 3.29183 2.53713 2.63493C3.19354 1.97803 3.96601 1.4581 4.85453 1.07515C5.74305 0.692205 6.6919 0.500488 7.7011 0.500001C8.71029 0.499514 9.65915 0.691232 10.5477 1.07515C11.4362 1.45908 12.2087 1.979 12.8651 2.63493C13.5215 3.29086 14.0417 4.06332 14.4256 4.95233C14.8095 5.84134 15.001 6.79019 15 7.7989C14.999 8.80761 14.8073 9.75646 14.4248 10.6455C14.0424 11.5345 13.5225 12.3069 12.8651 12.9629C12.2077 13.6188 11.4352 14.139 10.5477 14.5234C9.66012 14.9078 8.71127 15.0993 7.7011 15.0978C7.15368 15.0978 6.61843 15.0399 6.09534 14.9241C5.57225 14.8083 5.06133 14.6351 4.56257 14.4044L0.949617 15.4627C0.669826 15.5479 0.426529 15.4871 0.219727 15.2803C0.0129251 15.0735 -0.047899 14.8302 0.0372548 14.5504L1.0956 10.9374ZM6.97121 8.52879V9.98857C6.97121 10.1954 7.04128 10.3688 7.18142 10.509C7.32156 10.6491 7.49478 10.7189 7.7011 10.7185C7.90741 10.718 8.08088 10.6479 8.22151 10.5083C8.36214 10.3686 8.43196 10.1954 8.43099 9.98857V8.52879H9.89077C10.0976 8.52879 10.271 8.45872 10.4112 8.31858C10.5513 8.17844 10.6211 8.00522 10.6207 7.7989C10.6202 7.59259 10.5501 7.41936 10.4104 7.27922C10.2708 7.13908 10.0976 7.06901 9.89077 7.06901H8.43099V5.60923C8.43099 5.40243 8.36092 5.2292 8.22078 5.08955C8.08064 4.9499 7.90741 4.87983 7.7011 4.87934C7.49478 4.87885 7.32156 4.94892 7.18142 5.08955C7.04128 5.23018 6.97121 5.4034 6.97121 5.60923V7.06901H5.51143C5.30463 7.06901 5.1314 7.13908 4.99175 7.27922C4.8521 7.41936 4.78203 7.59259 4.78154 7.7989C4.78105 8.00522 4.85112 8.17869 4.99175 8.31931C5.13237 8.45994 5.3056 8.52976 5.51143 8.52879H6.97121Z" fill="white"/>
</svg>
