<svg width="13" height="15" viewBox="0 0 13 15" fill="none" xmlns="http://www.w3.org/2000/svg">
<path fill-rule="evenodd" clip-rule="evenodd" d="M8.62492 0.75C8.87359 0.750006 9.11788 0.807766 9.33323 0.917476C9.54858 1.02719 9.72742 1.18498 9.85175 1.375H10.7499C11.1256 1.375 11.486 1.5067 11.7517 1.74112C12.0173 1.97554 12.1666 2.29348 12.1666 2.625V10.125C12.1666 10.9538 11.7934 11.7487 11.1293 12.3347C10.4651 12.9208 9.56423 13.25 8.62492 13.25H2.24992C1.8742 13.25 1.51386 13.1183 1.24818 12.8839C0.982507 12.6495 0.833252 12.3315 0.833252 12V2.625C0.833252 2.29348 0.982507 1.97554 1.24818 1.74112C1.51386 1.5067 1.8742 1.375 2.24992 1.375H3.14809C3.27242 1.18498 3.45125 1.02719 3.66661 0.917476C3.88196 0.807766 4.12625 0.750006 4.37492 0.75H8.62492ZM8.50025 5.36187L5.4955 8.01375L4.49321 7.12937C4.35962 7.01553 4.18069 6.95253 3.99497 6.95395C3.80925 6.95538 3.63159 7.02111 3.50026 7.13699C3.36892 7.25287 3.29443 7.40963 3.29282 7.5735C3.2912 7.73737 3.3626 7.89525 3.49163 8.01313L4.94371 9.295C5.01607 9.35887 5.10198 9.40954 5.19654 9.44411C5.29109 9.47869 5.39244 9.49648 5.49479 9.49648C5.59715 9.49648 5.6985 9.47869 5.79305 9.44411C5.88761 9.40954 5.97352 9.35887 6.04588 9.295L9.50254 6.24563C9.56831 6.18756 9.62047 6.11863 9.65604 6.04277C9.69161 5.96692 9.70991 5.88562 9.70987 5.80353C9.70984 5.72144 9.69148 5.64015 9.65585 5.56432C9.62021 5.48849 9.568 5.41959 9.50219 5.36156C9.43638 5.30353 9.35826 5.25751 9.27229 5.22612C9.18632 5.19474 9.09418 5.17859 9.00115 5.17862C8.90811 5.17865 8.81599 5.19485 8.73004 5.22629C8.6441 5.25774 8.56602 5.30381 8.50025 5.36187ZM8.27075 2H4.72909C4.64619 1.99998 4.56592 2.02561 4.50223 2.07243C4.43855 2.11925 4.39551 2.1843 4.38059 2.25625L4.37492 2.3125V2.9375C4.37489 3.01064 4.40394 3.08147 4.45701 3.13766C4.51007 3.19385 4.5838 3.23183 4.66534 3.245L4.72909 3.25H8.27075C8.35364 3.25002 8.43392 3.22439 8.4976 3.17757C8.56128 3.13075 8.60433 3.0657 8.61925 2.99375L8.62492 2.9375V2.3125C8.62495 2.23936 8.5959 2.16853 8.54283 2.11234C8.48976 2.05615 8.41604 2.01817 8.3345 2.005L8.27075 2Z" fill="white"/>
</svg>
