M48
; DRILL file {KiCad 8.0.7} date 2025-03-03T08:31:04+0700
; FORMAT={-:-/ absolute / inch / decimal}
; #@! TF.CreationDate,2025-03-03T08:31:04+07:00
; #@! TF.GenerationSoftware,Kicad,Pcbnew,8.0.7
; #@! TF.FileFunction,Plated,1,2,PTH
FMAT,2
INCH
; #@! TA.AperFunction,Plated,PTH,ViaDrill
T1C0.0276
; #@! TA.AperFunction,Plated,PTH,ComponentDrill
T2C0.0315
; #@! TA.AperFunction,Plated,PTH,ComponentDrill
T3C0.0394
; #@! TA.AperFunction,Plated,PTH,ComponentDrill
T4C0.0402
; #@! TA.AperFunction,Plated,PTH,ComponentDrill
T5C0.0433
%
G90
G05
T1
X5.2756Y-2.126
X6.2402Y-3.8386
X7.815Y-1.9882
X7.815Y-2.8937
T2
X6.237Y-1.6929
X6.337Y-1.6929
X6.437Y-1.6929
T3
X4.6016Y-2.126
X4.6622Y-3.5236
X4.7016Y-2.126
X4.7622Y-3.5236
X4.8016Y-2.126
X4.8622Y-3.5236
X4.9016Y-2.126
X4.9622Y-3.5236
X5.0016Y-2.126
T4
X6.339Y-3.9579
X6.339Y-4.9579
X6.439Y-3.9579
X6.439Y-4.9579
X6.539Y-3.9579
X6.539Y-4.9579
X6.639Y-3.9579
X6.639Y-4.9579
X6.739Y-3.9579
X6.739Y-4.9579
X6.839Y-3.9579
X6.839Y-4.9579
X6.939Y-3.9579
X6.939Y-4.9579
X7.039Y-3.9579
X7.039Y-4.9579
X7.139Y-3.9579
X7.139Y-4.9579
X7.239Y-3.9579
X7.239Y-4.9579
X7.339Y-3.9579
X7.339Y-4.9579
X7.439Y-3.9579
X7.439Y-4.9579
X7.539Y-3.9579
X7.539Y-4.9579
X7.639Y-3.9579
X7.639Y-4.9579
X7.739Y-3.9579
X7.739Y-4.9579
T5
X4.7031Y-1.7126
X4.8031Y-1.7126
X5.648Y-1.7142
X5.648Y-2.3606
X5.648Y-2.4606
X5.648Y-3.3055
X5.648Y-3.4055
X5.748Y-1.7142
X5.848Y-1.7142
X7.815Y-2.3606
X7.815Y-2.4606
X7.815Y-3.3055
X7.815Y-3.4055
M30
