%TF.GenerationSoftware,KiCad,Pcbnew,8.0.7*%
%TF.CreationDate,2025-03-03T08:30:58+07:00*%
%TF.ProjectId,esp32_getstok_testing,65737033-325f-4676-9574-73746f6b5f74,rev?*%
%TF.SameCoordinates,Original*%
%TF.FileFunction,Copper,L2,Bot*%
%TF.FilePolarity,Positive*%
%FSLAX46Y46*%
G04 Gerber Fmt 4.6, Leading zero omitted, Abs format (unit mm)*
G04 Created by KiCad (PCBNEW 8.0.7) date 2025-03-03 08:30:58*
%MOMM*%
%LPD*%
G01*
G04 APERTURE LIST*
%TA.AperFunction,ComponentPad*%
%ADD10C,1.440000*%
%TD*%
%TA.AperFunction,ComponentPad*%
%ADD11R,2.000000X2.000000*%
%TD*%
%TA.AperFunction,ComponentPad*%
%ADD12C,2.000000*%
%TD*%
%TA.AperFunction,ComponentPad*%
%ADD13R,2.200000X2.200000*%
%TD*%
%TA.AperFunction,ComponentPad*%
%ADD14C,2.200000*%
%TD*%
%TA.AperFunction,ComponentPad*%
%ADD15R,1.700000X1.700000*%
%TD*%
%TA.AperFunction,ComponentPad*%
%ADD16O,1.700000X1.700000*%
%TD*%
%TA.AperFunction,ViaPad*%
%ADD17C,1.300000*%
%TD*%
%TA.AperFunction,Conductor*%
%ADD18C,1.000000*%
%TD*%
G04 APERTURE END LIST*
D10*
%TO.P,RV1,1,1*%
%TO.N,+3.3V*%
X163500000Y-43000000D03*
%TO.P,RV1,2,2*%
%TO.N,/ADC_IN*%
X160960000Y-43000000D03*
%TO.P,RV1,3,3*%
%TO.N,unconnected-(RV1-Pad3)*%
X158420000Y-43000000D03*
%TD*%
D11*
%TO.P,U1,1,3V3*%
%TO.N,+3.3V*%
X161010000Y-125930000D03*
D12*
%TO.P,U1,2,GND*%
%TO.N,GND*%
X163550000Y-125930000D03*
%TO.P,U1,3,D15*%
%TO.N,unconnected-(U1-D15-Pad3)*%
X166090000Y-125930000D03*
%TO.P,U1,4,D2*%
%TO.N,unconnected-(U1-D2-Pad4)*%
X168630000Y-125930000D03*
%TO.P,U1,5,D4*%
%TO.N,unconnected-(U1-D4-Pad5)*%
X171170000Y-125930000D03*
%TO.P,U1,6,RX2*%
%TO.N,/RX_SIM*%
X173710000Y-125930000D03*
%TO.P,U1,7,TX2*%
%TO.N,/TX_SIM*%
X176250000Y-125930000D03*
%TO.P,U1,8,D5*%
%TO.N,unconnected-(U1-D5-Pad8)*%
X178790000Y-125930000D03*
%TO.P,U1,9,D18*%
%TO.N,unconnected-(U1-D18-Pad9)*%
X181330000Y-125930000D03*
%TO.P,U1,10,D19*%
%TO.N,unconnected-(U1-D19-Pad10)*%
X183870000Y-125930000D03*
%TO.P,U1,11,D21*%
%TO.N,unconnected-(U1-D21-Pad11)*%
X186410000Y-125930000D03*
%TO.P,U1,12,RX0*%
%TO.N,/RX_GPS*%
X188950000Y-125930000D03*
%TO.P,U1,13,TX0*%
%TO.N,/TX_GPS*%
X191490000Y-125930000D03*
%TO.P,U1,14,D22*%
%TO.N,unconnected-(U1-D22-Pad14)*%
X194030000Y-125930000D03*
%TO.P,U1,15,D23*%
%TO.N,unconnected-(U1-D23-Pad15)*%
X196570000Y-125930000D03*
%TO.P,U1,16,EN*%
%TO.N,unconnected-(U1-EN-Pad16)*%
X196570000Y-100530000D03*
%TO.P,U1,17,VP*%
%TO.N,unconnected-(U1-VP-Pad17)*%
X194030000Y-100530000D03*
%TO.P,U1,18,VN*%
%TO.N,unconnected-(U1-VN-Pad18)*%
X191490000Y-100530000D03*
%TO.P,U1,19,D34*%
%TO.N,/ADC_IN*%
X188950000Y-100530000D03*
%TO.P,U1,20,D35*%
%TO.N,unconnected-(U1-D35-Pad20)*%
X186410000Y-100530000D03*
%TO.P,U1,21,D32*%
%TO.N,unconnected-(U1-D32-Pad21)*%
X183870000Y-100530000D03*
%TO.P,U1,22,D33*%
%TO.N,unconnected-(U1-D33-Pad22)*%
X181330000Y-100530000D03*
%TO.P,U1,23,D25*%
%TO.N,unconnected-(U1-D25-Pad23)*%
X178790000Y-100530000D03*
%TO.P,U1,24,D26*%
%TO.N,unconnected-(U1-D26-Pad24)*%
X176250000Y-100530000D03*
%TO.P,U1,25,D27*%
%TO.N,unconnected-(U1-D27-Pad25)*%
X173710000Y-100530000D03*
%TO.P,U1,26,D14*%
%TO.N,unconnected-(U1-D14-Pad26)*%
X171170000Y-100530000D03*
%TO.P,U1,27,D12*%
%TO.N,unconnected-(U1-D12-Pad27)*%
X168630000Y-100530000D03*
%TO.P,U1,28,D13*%
%TO.N,unconnected-(U1-D13-Pad28)*%
X166090000Y-100530000D03*
%TO.P,U1,29,GND*%
%TO.N,GND*%
X163550000Y-100530000D03*
%TO.P,U1,30,VIN*%
%TO.N,unconnected-(U1-VIN-Pad30)*%
X161010000Y-100530000D03*
%TD*%
D13*
%TO.P,J6,1,Pin_1*%
%TO.N,+4V*%
X198500000Y-59960000D03*
D14*
%TO.P,J6,2,Pin_2*%
%TO.N,GND*%
X198500000Y-62500000D03*
%TD*%
D13*
%TO.P,J1,1,Pin_1*%
%TO.N,Net-(J1-Pin_1)*%
X122000000Y-43500000D03*
D14*
%TO.P,J1,2,Pin_2*%
%TO.N,GND*%
X119460000Y-43500000D03*
%TD*%
D13*
%TO.P,J7,1,Pin_1*%
%TO.N,/Vin*%
X143460000Y-86500000D03*
D14*
%TO.P,J7,2,Pin_2*%
%TO.N,GND*%
X143460000Y-83960000D03*
%TD*%
D15*
%TO.P,J5,1,Pin_1*%
%TO.N,+4V*%
X127040000Y-54000000D03*
D16*
%TO.P,J5,2,Pin_2*%
%TO.N,unconnected-(J5-Pin_2-Pad2)*%
X124500000Y-54000000D03*
%TO.P,J5,3,Pin_3*%
%TO.N,/RX_SIM*%
X121960000Y-54000000D03*
%TO.P,J5,4,Pin_4*%
%TO.N,/TX_SIM*%
X119420000Y-54000000D03*
%TO.P,J5,5,Pin_5*%
%TO.N,GND*%
X116880000Y-54000000D03*
%TD*%
D15*
%TO.P,J3,1,Pin_1*%
%TO.N,+3.3V*%
X118420000Y-89500000D03*
D16*
%TO.P,J3,2,Pin_2*%
%TO.N,/RX_GPS*%
X120960000Y-89500000D03*
%TO.P,J3,3,Pin_3*%
%TO.N,/TX_GPS*%
X123500000Y-89500000D03*
%TO.P,J3,4,Pin_4*%
%TO.N,GND*%
X126040000Y-89500000D03*
%TD*%
D13*
%TO.P,J4,1,Pin_1*%
%TO.N,/Vin*%
X143460000Y-62500000D03*
D14*
%TO.P,J4,2,Pin_2*%
%TO.N,GND*%
X143460000Y-59960000D03*
%TD*%
D13*
%TO.P,J8,1,Pin_1*%
%TO.N,+3.3V*%
X198500000Y-83960000D03*
D14*
%TO.P,J8,2,Pin_2*%
%TO.N,GND*%
X198500000Y-86500000D03*
%TD*%
D13*
%TO.P,J2,1,Pin_1*%
%TO.N,/ADC_IN*%
X148540000Y-43540000D03*
D14*
%TO.P,J2,2,Pin_2*%
X146000000Y-43540000D03*
%TO.P,J2,3,Pin_3*%
%TO.N,GND*%
X143460000Y-43540000D03*
%TD*%
D17*
%TO.N,+3.3V*%
X198500000Y-73500000D03*
X158500000Y-97500000D03*
%TO.N,+4V*%
X134000000Y-54000000D03*
X198500000Y-50500000D03*
%TD*%
D18*
%TO.N,+3.3V*%
X174500000Y-97500000D02*
X158500000Y-97500000D01*
X200608000Y-71392000D02*
X200608000Y-50108000D01*
X158500000Y-97500000D02*
X156000000Y-100000000D01*
X198500000Y-73500000D02*
X200608000Y-71392000D01*
X200608000Y-50108000D02*
X193500000Y-43000000D01*
X158930000Y-125930000D02*
X161010000Y-125930000D01*
X156000000Y-100000000D02*
X156000000Y-123000000D01*
X193500000Y-43000000D02*
X163500000Y-43000000D01*
X156000000Y-123000000D02*
X158930000Y-125930000D01*
X198500000Y-73500000D02*
X174500000Y-97500000D01*
%TO.N,+4V*%
X137500000Y-50500000D02*
X134000000Y-54000000D01*
X198500000Y-50500000D02*
X137500000Y-50500000D01*
%TD*%
%TA.AperFunction,Conductor*%
%TO.N,GND*%
G36*
X204943039Y-37519685D02*
G01*
X204988794Y-37572489D01*
X205000000Y-37624000D01*
X205000000Y-137376000D01*
X204980315Y-137443039D01*
X204927511Y-137488794D01*
X204876000Y-137500000D01*
X105124000Y-137500000D01*
X105056961Y-137480315D01*
X105011206Y-137427511D01*
X105000000Y-137376000D01*
X105000000Y-132373402D01*
X108391500Y-132373402D01*
X108391500Y-132626597D01*
X108431106Y-132876658D01*
X108509344Y-133117450D01*
X108624287Y-133343038D01*
X108773105Y-133547868D01*
X108952132Y-133726895D01*
X109156962Y-133875713D01*
X109382550Y-133990656D01*
X109623342Y-134068894D01*
X109752176Y-134089299D01*
X109873403Y-134108500D01*
X109873408Y-134108500D01*
X110126597Y-134108500D01*
X110237108Y-134090996D01*
X110376658Y-134068894D01*
X110617450Y-133990656D01*
X110843038Y-133875713D01*
X111047868Y-133726895D01*
X111226895Y-133547868D01*
X111375713Y-133343038D01*
X111490656Y-133117450D01*
X111568894Y-132876658D01*
X111590996Y-132737108D01*
X111608500Y-132626597D01*
X111608500Y-132373402D01*
X198391500Y-132373402D01*
X198391500Y-132626597D01*
X198431106Y-132876658D01*
X198509344Y-133117450D01*
X198624287Y-133343038D01*
X198773105Y-133547868D01*
X198952132Y-133726895D01*
X199156962Y-133875713D01*
X199382550Y-133990656D01*
X199623342Y-134068894D01*
X199752176Y-134089299D01*
X199873403Y-134108500D01*
X199873408Y-134108500D01*
X200126597Y-134108500D01*
X200237108Y-134090996D01*
X200376658Y-134068894D01*
X200617450Y-133990656D01*
X200843038Y-133875713D01*
X201047868Y-133726895D01*
X201226895Y-133547868D01*
X201375713Y-133343038D01*
X201490656Y-133117450D01*
X201568894Y-132876658D01*
X201590996Y-132737108D01*
X201608500Y-132626597D01*
X201608500Y-132373402D01*
X201587495Y-132240788D01*
X201568894Y-132123342D01*
X201490656Y-131882550D01*
X201375713Y-131656962D01*
X201226895Y-131452132D01*
X201047868Y-131273105D01*
X200843038Y-131124287D01*
X200617450Y-131009344D01*
X200376658Y-130931106D01*
X200126597Y-130891500D01*
X200126592Y-130891500D01*
X199873408Y-130891500D01*
X199873403Y-130891500D01*
X199623341Y-130931106D01*
X199382547Y-131009345D01*
X199156961Y-131124287D01*
X199040098Y-131209193D01*
X198952132Y-131273105D01*
X198952130Y-131273107D01*
X198952129Y-131273107D01*
X198773107Y-131452129D01*
X198773107Y-131452130D01*
X198773105Y-131452132D01*
X198709193Y-131540098D01*
X198624287Y-131656961D01*
X198509345Y-131882547D01*
X198431106Y-132123341D01*
X198391500Y-132373402D01*
X111608500Y-132373402D01*
X111587495Y-132240788D01*
X111568894Y-132123342D01*
X111490656Y-131882550D01*
X111375713Y-131656962D01*
X111226895Y-131452132D01*
X111047868Y-131273105D01*
X110843038Y-131124287D01*
X110617450Y-131009344D01*
X110376658Y-130931106D01*
X110126597Y-130891500D01*
X110126592Y-130891500D01*
X109873408Y-130891500D01*
X109873403Y-130891500D01*
X109623341Y-130931106D01*
X109382547Y-131009345D01*
X109156961Y-131124287D01*
X109040098Y-131209193D01*
X108952132Y-131273105D01*
X108952130Y-131273107D01*
X108952129Y-131273107D01*
X108773107Y-131452129D01*
X108773107Y-131452130D01*
X108773105Y-131452132D01*
X108709193Y-131540098D01*
X108624287Y-131656961D01*
X108509345Y-131882547D01*
X108431106Y-132123341D01*
X108391500Y-132373402D01*
X105000000Y-132373402D01*
X105000000Y-125378362D01*
X151041500Y-125378362D01*
X151041500Y-125641637D01*
X151041501Y-125641653D01*
X151075865Y-125902678D01*
X151144009Y-126156995D01*
X151244761Y-126400234D01*
X151244769Y-126400250D01*
X151376409Y-126628256D01*
X151536687Y-126837136D01*
X151536693Y-126837143D01*
X151722856Y-127023306D01*
X151722863Y-127023312D01*
X151931743Y-127183590D01*
X152159749Y-127315230D01*
X152159765Y-127315238D01*
X152289810Y-127369104D01*
X152403003Y-127415990D01*
X152657320Y-127484134D01*
X152918356Y-127518500D01*
X152918363Y-127518500D01*
X153181637Y-127518500D01*
X153181644Y-127518500D01*
X153442680Y-127484134D01*
X153696997Y-127415990D01*
X153880099Y-127340146D01*
X153940234Y-127315238D01*
X153940237Y-127315236D01*
X153940243Y-127315234D01*
X154168257Y-127183590D01*
X154377138Y-127023311D01*
X154563311Y-126837138D01*
X154723590Y-126628257D01*
X154855234Y-126400243D01*
X154856332Y-126397594D01*
X154920305Y-126243147D01*
X154955990Y-126156997D01*
X155024134Y-125902680D01*
X155058500Y-125641644D01*
X155058500Y-125378356D01*
X155024134Y-125117320D01*
X154955990Y-124863003D01*
X154900781Y-124729716D01*
X154855238Y-124619765D01*
X154855230Y-124619749D01*
X154723590Y-124391743D01*
X154563312Y-124182863D01*
X154563306Y-124182856D01*
X154377143Y-123996693D01*
X154377136Y-123996687D01*
X154168256Y-123836409D01*
X153940250Y-123704769D01*
X153940234Y-123704761D01*
X153696995Y-123604009D01*
X153442678Y-123535865D01*
X153181653Y-123501501D01*
X153181650Y-123501500D01*
X153181644Y-123501500D01*
X152918356Y-123501500D01*
X152918350Y-123501500D01*
X152918346Y-123501501D01*
X152657321Y-123535865D01*
X152403004Y-123604009D01*
X152159765Y-123704761D01*
X152159749Y-123704769D01*
X151931743Y-123836409D01*
X151722863Y-123996687D01*
X151722856Y-123996693D01*
X151536693Y-124182856D01*
X151536687Y-124182863D01*
X151376409Y-124391743D01*
X151244769Y-124619749D01*
X151244761Y-124619765D01*
X151144009Y-124863004D01*
X151075865Y-125117321D01*
X151041501Y-125378346D01*
X151041500Y-125378362D01*
X105000000Y-125378362D01*
X105000000Y-92873402D01*
X156391500Y-92873402D01*
X156391500Y-93126597D01*
X156431106Y-93376658D01*
X156509344Y-93617450D01*
X156624287Y-93843038D01*
X156773105Y-94047868D01*
X156952132Y-94226895D01*
X157156962Y-94375713D01*
X157382550Y-94490656D01*
X157623342Y-94568894D01*
X157752176Y-94589299D01*
X157873403Y-94608500D01*
X157873408Y-94608500D01*
X158126597Y-94608500D01*
X158237108Y-94590996D01*
X158376658Y-94568894D01*
X158617450Y-94490656D01*
X158843038Y-94375713D01*
X159047868Y-94226895D01*
X159226895Y-94047868D01*
X159375713Y-93843038D01*
X159490656Y-93617450D01*
X159568894Y-93376658D01*
X159590996Y-93237108D01*
X159608500Y-93126597D01*
X159608500Y-92873402D01*
X159587495Y-92740788D01*
X159568894Y-92623342D01*
X159490656Y-92382550D01*
X159375713Y-92156962D01*
X159226895Y-91952132D01*
X159047868Y-91773105D01*
X158843038Y-91624287D01*
X158617450Y-91509344D01*
X158376658Y-91431106D01*
X158126597Y-91391500D01*
X158126592Y-91391500D01*
X157873408Y-91391500D01*
X157873403Y-91391500D01*
X157623341Y-91431106D01*
X157382547Y-91509345D01*
X157156961Y-91624287D01*
X157040098Y-91709193D01*
X156952132Y-91773105D01*
X156952130Y-91773107D01*
X156952129Y-91773107D01*
X156773107Y-91952129D01*
X156773107Y-91952130D01*
X156773105Y-91952132D01*
X156709193Y-92040098D01*
X156624287Y-92156961D01*
X156509345Y-92382547D01*
X156431106Y-92623341D01*
X156391500Y-92873402D01*
X105000000Y-92873402D01*
X105000000Y-88601345D01*
X117061500Y-88601345D01*
X117061500Y-90398654D01*
X117068011Y-90459202D01*
X117068011Y-90459204D01*
X117119111Y-90596204D01*
X117206739Y-90713261D01*
X117323796Y-90800889D01*
X117460799Y-90851989D01*
X117488050Y-90854918D01*
X117521345Y-90858499D01*
X117521362Y-90858500D01*
X119318638Y-90858500D01*
X119318654Y-90858499D01*
X119345692Y-90855591D01*
X119379201Y-90851989D01*
X119516204Y-90800889D01*
X119633261Y-90713261D01*
X119720889Y-90596204D01*
X119766138Y-90474887D01*
X119808009Y-90418956D01*
X119873474Y-90394539D01*
X119941746Y-90409391D01*
X119973545Y-90434236D01*
X120036760Y-90502906D01*
X120214424Y-90641189D01*
X120214425Y-90641189D01*
X120214427Y-90641191D01*
X120274314Y-90673600D01*
X120412426Y-90748342D01*
X120625365Y-90821444D01*
X120847431Y-90858500D01*
X121072569Y-90858500D01*
X121294635Y-90821444D01*
X121507574Y-90748342D01*
X121705576Y-90641189D01*
X121883240Y-90502906D01*
X122004594Y-90371082D01*
X122035715Y-90337276D01*
X122035715Y-90337275D01*
X122035722Y-90337268D01*
X122126193Y-90198790D01*
X122179338Y-90153437D01*
X122248569Y-90144013D01*
X122311905Y-90173515D01*
X122333804Y-90198787D01*
X122424278Y-90337268D01*
X122424283Y-90337273D01*
X122424284Y-90337276D01*
X122550968Y-90474889D01*
X122576760Y-90502906D01*
X122754424Y-90641189D01*
X122754425Y-90641189D01*
X122754427Y-90641191D01*
X122814314Y-90673600D01*
X122952426Y-90748342D01*
X123165365Y-90821444D01*
X123387431Y-90858500D01*
X123612569Y-90858500D01*
X123834635Y-90821444D01*
X124047574Y-90748342D01*
X124245576Y-90641189D01*
X124423240Y-90502906D01*
X124544594Y-90371082D01*
X124575715Y-90337276D01*
X124575715Y-90337275D01*
X124575722Y-90337268D01*
X124669749Y-90193347D01*
X124722894Y-90147994D01*
X124792125Y-90138570D01*
X124855461Y-90168072D01*
X124875130Y-90190048D01*
X125001890Y-90371078D01*
X125168917Y-90538105D01*
X125362421Y-90673600D01*
X125576507Y-90773429D01*
X125576516Y-90773433D01*
X125790000Y-90830634D01*
X125790000Y-89933012D01*
X125847007Y-89965925D01*
X125974174Y-90000000D01*
X126105826Y-90000000D01*
X126232993Y-89965925D01*
X126290000Y-89933012D01*
X126290000Y-90830633D01*
X126503483Y-90773433D01*
X126503492Y-90773429D01*
X126717578Y-90673600D01*
X126911082Y-90538105D01*
X127078105Y-90371082D01*
X127213600Y-90177578D01*
X127313429Y-89963492D01*
X127313432Y-89963486D01*
X127370636Y-89750000D01*
X126473012Y-89750000D01*
X126505925Y-89692993D01*
X126540000Y-89565826D01*
X126540000Y-89434174D01*
X126505925Y-89307007D01*
X126473012Y-89250000D01*
X127370636Y-89250000D01*
X127370635Y-89249999D01*
X127313432Y-89036513D01*
X127313429Y-89036507D01*
X127213600Y-88822422D01*
X127213599Y-88822420D01*
X127078113Y-88628926D01*
X127078108Y-88628920D01*
X126911082Y-88461894D01*
X126717578Y-88326399D01*
X126503492Y-88226570D01*
X126503486Y-88226567D01*
X126290000Y-88169364D01*
X126290000Y-89066988D01*
X126232993Y-89034075D01*
X126105826Y-89000000D01*
X125974174Y-89000000D01*
X125847007Y-89034075D01*
X125790000Y-89066988D01*
X125790000Y-88169364D01*
X125789999Y-88169364D01*
X125576513Y-88226567D01*
X125576507Y-88226570D01*
X125362422Y-88326399D01*
X125362420Y-88326400D01*
X125168926Y-88461886D01*
X125168920Y-88461891D01*
X125001891Y-88628920D01*
X125001890Y-88628922D01*
X124875131Y-88809952D01*
X124820554Y-88853577D01*
X124751055Y-88860769D01*
X124688701Y-88829247D01*
X124669752Y-88806656D01*
X124575722Y-88662732D01*
X124575715Y-88662725D01*
X124575715Y-88662723D01*
X124423243Y-88497097D01*
X124423238Y-88497092D01*
X124245577Y-88358812D01*
X124245572Y-88358808D01*
X124047580Y-88251661D01*
X124047577Y-88251659D01*
X124047574Y-88251658D01*
X124047571Y-88251657D01*
X124047569Y-88251656D01*
X123834637Y-88178556D01*
X123612569Y-88141500D01*
X123387431Y-88141500D01*
X123165362Y-88178556D01*
X122952430Y-88251656D01*
X122952419Y-88251661D01*
X122754427Y-88358808D01*
X122754422Y-88358812D01*
X122576761Y-88497092D01*
X122576756Y-88497097D01*
X122424284Y-88662723D01*
X122424276Y-88662734D01*
X122333808Y-88801206D01*
X122280662Y-88846562D01*
X122211431Y-88855986D01*
X122148095Y-88826484D01*
X122126192Y-88801206D01*
X122035723Y-88662734D01*
X122035715Y-88662723D01*
X121883243Y-88497097D01*
X121883238Y-88497092D01*
X121705577Y-88358812D01*
X121705572Y-88358808D01*
X121507580Y-88251661D01*
X121507577Y-88251659D01*
X121507574Y-88251658D01*
X121507571Y-88251657D01*
X121507569Y-88251656D01*
X121294637Y-88178556D01*
X121072569Y-88141500D01*
X120847431Y-88141500D01*
X120625362Y-88178556D01*
X120412430Y-88251656D01*
X120412419Y-88251661D01*
X120214427Y-88358808D01*
X120214422Y-88358812D01*
X120036761Y-88497092D01*
X119973548Y-88565760D01*
X119913661Y-88601750D01*
X119843823Y-88599649D01*
X119786207Y-88560124D01*
X119766138Y-88525110D01*
X119720889Y-88403796D01*
X119687214Y-88358812D01*
X119633261Y-88286739D01*
X119516204Y-88199111D01*
X119379203Y-88148011D01*
X119318654Y-88141500D01*
X119318638Y-88141500D01*
X117521362Y-88141500D01*
X117521345Y-88141500D01*
X117460797Y-88148011D01*
X117460795Y-88148011D01*
X117323795Y-88199111D01*
X117206739Y-88286739D01*
X117119111Y-88403795D01*
X117068011Y-88540795D01*
X117068011Y-88540797D01*
X117061500Y-88601345D01*
X105000000Y-88601345D01*
X105000000Y-85351345D01*
X141851500Y-85351345D01*
X141851500Y-87648654D01*
X141858011Y-87709202D01*
X141858011Y-87709204D01*
X141909111Y-87846204D01*
X141996739Y-87963261D01*
X142113796Y-88050889D01*
X142250799Y-88101989D01*
X142278050Y-88104918D01*
X142311345Y-88108499D01*
X142311362Y-88108500D01*
X144608638Y-88108500D01*
X144608654Y-88108499D01*
X144635692Y-88105591D01*
X144669201Y-88101989D01*
X144806204Y-88050889D01*
X144923261Y-87963261D01*
X145010889Y-87846204D01*
X145061989Y-87709201D01*
X145065591Y-87675692D01*
X145068499Y-87648654D01*
X145068500Y-87648637D01*
X145068500Y-87364809D01*
X145088185Y-87297770D01*
X145140989Y-87252015D01*
X145210147Y-87242071D01*
X145273703Y-87271096D01*
X145280181Y-87277128D01*
X145325241Y-87322188D01*
X145325245Y-87322191D01*
X145498605Y-87438027D01*
X145498614Y-87438032D01*
X145513457Y-87444180D01*
X145691247Y-87517823D01*
X145895742Y-87558499D01*
X145895746Y-87558500D01*
X145895747Y-87558500D01*
X146104254Y-87558500D01*
X146104255Y-87558499D01*
X146308753Y-87517823D01*
X146501388Y-87438031D01*
X146674755Y-87322191D01*
X146822191Y-87174755D01*
X146938031Y-87001388D01*
X147017823Y-86808753D01*
X147058500Y-86604253D01*
X147058500Y-86395747D01*
X147017823Y-86191247D01*
X146938031Y-85998612D01*
X146938030Y-85998611D01*
X146938027Y-85998605D01*
X146822191Y-85825245D01*
X146822188Y-85825241D01*
X146674758Y-85677811D01*
X146674754Y-85677808D01*
X146501394Y-85561972D01*
X146501385Y-85561967D01*
X146308753Y-85482177D01*
X146308745Y-85482175D01*
X146104257Y-85441500D01*
X146104253Y-85441500D01*
X145895747Y-85441500D01*
X145895742Y-85441500D01*
X145691254Y-85482175D01*
X145691246Y-85482177D01*
X145498614Y-85561967D01*
X145498605Y-85561972D01*
X145325245Y-85677808D01*
X145325241Y-85677811D01*
X145280181Y-85722872D01*
X145218858Y-85756357D01*
X145149166Y-85751373D01*
X145093233Y-85709501D01*
X145068816Y-85644037D01*
X145068500Y-85635191D01*
X145068500Y-85351362D01*
X145068499Y-85351345D01*
X145063645Y-85306204D01*
X145061989Y-85290799D01*
X145010889Y-85153796D01*
X144923261Y-85036739D01*
X144844691Y-84977922D01*
X144802820Y-84921988D01*
X144797836Y-84852296D01*
X144813275Y-84813865D01*
X144890017Y-84688634D01*
X144925148Y-84603819D01*
X144968989Y-84549416D01*
X145035283Y-84527350D01*
X145102982Y-84544629D01*
X145142812Y-84582379D01*
X145177811Y-84634758D01*
X145325241Y-84782188D01*
X145325245Y-84782191D01*
X145498605Y-84898027D01*
X145498611Y-84898030D01*
X145498612Y-84898031D01*
X145691247Y-84977823D01*
X145895742Y-85018499D01*
X145895746Y-85018500D01*
X145895747Y-85018500D01*
X146104254Y-85018500D01*
X146104255Y-85018499D01*
X146308753Y-84977823D01*
X146501388Y-84898031D01*
X146674755Y-84782191D01*
X146822191Y-84634755D01*
X146938031Y-84461388D01*
X147017823Y-84268753D01*
X147058500Y-84064253D01*
X147058500Y-83855747D01*
X147017823Y-83651247D01*
X146938031Y-83458612D01*
X146938030Y-83458611D01*
X146938027Y-83458605D01*
X146822191Y-83285245D01*
X146822188Y-83285241D01*
X146674758Y-83137811D01*
X146674754Y-83137808D01*
X146501394Y-83021972D01*
X146501385Y-83021967D01*
X146308753Y-82942177D01*
X146308745Y-82942175D01*
X146104257Y-82901500D01*
X146104253Y-82901500D01*
X145895747Y-82901500D01*
X145895742Y-82901500D01*
X145691254Y-82942175D01*
X145691246Y-82942177D01*
X145498614Y-83021967D01*
X145498605Y-83021972D01*
X145325245Y-83137808D01*
X145325241Y-83137811D01*
X145177809Y-83285243D01*
X145142811Y-83337621D01*
X145089198Y-83382425D01*
X145019873Y-83391131D01*
X144956846Y-83360975D01*
X144925149Y-83316180D01*
X144890020Y-83231371D01*
X144890019Y-83231369D01*
X144758429Y-83016634D01*
X144757733Y-83015819D01*
X144757732Y-83015819D01*
X143983787Y-83789764D01*
X143972518Y-83747708D01*
X143900110Y-83622292D01*
X143797708Y-83519890D01*
X143672292Y-83447482D01*
X143630232Y-83436212D01*
X144404179Y-82662266D01*
X144403362Y-82661568D01*
X144188631Y-82529980D01*
X143955956Y-82433603D01*
X143711072Y-82374812D01*
X143460000Y-82355052D01*
X143208927Y-82374812D01*
X142964043Y-82433603D01*
X142731368Y-82529980D01*
X142516637Y-82661567D01*
X142515818Y-82662266D01*
X143289765Y-83436212D01*
X143247708Y-83447482D01*
X143122292Y-83519890D01*
X143019890Y-83622292D01*
X142947482Y-83747708D01*
X142936212Y-83789765D01*
X142162266Y-83015818D01*
X142161567Y-83016637D01*
X142029980Y-83231368D01*
X141933603Y-83464043D01*
X141874812Y-83708927D01*
X141855052Y-83960000D01*
X141874812Y-84211072D01*
X141933603Y-84455956D01*
X142029979Y-84688629D01*
X142106725Y-84813867D01*
X142124969Y-84881312D01*
X142103852Y-84947915D01*
X142075308Y-84977923D01*
X141996739Y-85036739D01*
X141909111Y-85153795D01*
X141858011Y-85290795D01*
X141858011Y-85290797D01*
X141851500Y-85351345D01*
X105000000Y-85351345D01*
X105000000Y-78873402D01*
X182891500Y-78873402D01*
X182891500Y-79126597D01*
X182931106Y-79376658D01*
X183009344Y-79617450D01*
X183124287Y-79843038D01*
X183273105Y-80047868D01*
X183452132Y-80226895D01*
X183656962Y-80375713D01*
X183882550Y-80490656D01*
X184123342Y-80568894D01*
X184252176Y-80589299D01*
X184373403Y-80608500D01*
X184373408Y-80608500D01*
X184626597Y-80608500D01*
X184737108Y-80590996D01*
X184876658Y-80568894D01*
X185117450Y-80490656D01*
X185343038Y-80375713D01*
X185547868Y-80226895D01*
X185726895Y-80047868D01*
X185875713Y-79843038D01*
X185990656Y-79617450D01*
X186068894Y-79376658D01*
X186090996Y-79237108D01*
X186108500Y-79126597D01*
X186108500Y-78873402D01*
X186087495Y-78740788D01*
X186068894Y-78623342D01*
X185990656Y-78382550D01*
X185875713Y-78156962D01*
X185726895Y-77952132D01*
X185547868Y-77773105D01*
X185343038Y-77624287D01*
X185117450Y-77509344D01*
X184876658Y-77431106D01*
X184626597Y-77391500D01*
X184626592Y-77391500D01*
X184373408Y-77391500D01*
X184373403Y-77391500D01*
X184123341Y-77431106D01*
X183882547Y-77509345D01*
X183656961Y-77624287D01*
X183540098Y-77709193D01*
X183452132Y-77773105D01*
X183452130Y-77773107D01*
X183452129Y-77773107D01*
X183273107Y-77952129D01*
X183273107Y-77952130D01*
X183273105Y-77952132D01*
X183209193Y-78040098D01*
X183124287Y-78156961D01*
X183009345Y-78382547D01*
X182931106Y-78623341D01*
X182891500Y-78873402D01*
X105000000Y-78873402D01*
X105000000Y-67873402D01*
X156391500Y-67873402D01*
X156391500Y-68126597D01*
X156431106Y-68376658D01*
X156509344Y-68617450D01*
X156624287Y-68843038D01*
X156773105Y-69047868D01*
X156952132Y-69226895D01*
X157156962Y-69375713D01*
X157382550Y-69490656D01*
X157623342Y-69568894D01*
X157752176Y-69589299D01*
X157873403Y-69608500D01*
X157873408Y-69608500D01*
X158126597Y-69608500D01*
X158237108Y-69590996D01*
X158376658Y-69568894D01*
X158617450Y-69490656D01*
X158843038Y-69375713D01*
X159047868Y-69226895D01*
X159226895Y-69047868D01*
X159375713Y-68843038D01*
X159490656Y-68617450D01*
X159568894Y-68376658D01*
X159590996Y-68237108D01*
X159608500Y-68126597D01*
X159608500Y-67873402D01*
X159587495Y-67740788D01*
X159568894Y-67623342D01*
X159490656Y-67382550D01*
X159375713Y-67156962D01*
X159226895Y-66952132D01*
X159047868Y-66773105D01*
X158843038Y-66624287D01*
X158617450Y-66509344D01*
X158376658Y-66431106D01*
X158126597Y-66391500D01*
X158126592Y-66391500D01*
X157873408Y-66391500D01*
X157873403Y-66391500D01*
X157623341Y-66431106D01*
X157382547Y-66509345D01*
X157156961Y-66624287D01*
X157040098Y-66709193D01*
X156952132Y-66773105D01*
X156952130Y-66773107D01*
X156952129Y-66773107D01*
X156773107Y-66952129D01*
X156773107Y-66952130D01*
X156773105Y-66952132D01*
X156709193Y-67040098D01*
X156624287Y-67156961D01*
X156509345Y-67382547D01*
X156431106Y-67623341D01*
X156391500Y-67873402D01*
X105000000Y-67873402D01*
X105000000Y-61351345D01*
X141851500Y-61351345D01*
X141851500Y-63648654D01*
X141858011Y-63709202D01*
X141858011Y-63709204D01*
X141909111Y-63846204D01*
X141996739Y-63963261D01*
X142113796Y-64050889D01*
X142250799Y-64101989D01*
X142278050Y-64104918D01*
X142311345Y-64108499D01*
X142311362Y-64108500D01*
X144608638Y-64108500D01*
X144608654Y-64108499D01*
X144635692Y-64105591D01*
X144669201Y-64101989D01*
X144806204Y-64050889D01*
X144923261Y-63963261D01*
X145010889Y-63846204D01*
X145061989Y-63709201D01*
X145065591Y-63675692D01*
X145068499Y-63648654D01*
X145068500Y-63648637D01*
X145068500Y-63364809D01*
X145088185Y-63297770D01*
X145140989Y-63252015D01*
X145210147Y-63242071D01*
X145273703Y-63271096D01*
X145280181Y-63277128D01*
X145325241Y-63322188D01*
X145325245Y-63322191D01*
X145498605Y-63438027D01*
X145498614Y-63438032D01*
X145542253Y-63456107D01*
X145691247Y-63517823D01*
X145895742Y-63558499D01*
X145895746Y-63558500D01*
X145895747Y-63558500D01*
X146104254Y-63558500D01*
X146104255Y-63558499D01*
X146308753Y-63517823D01*
X146501388Y-63438031D01*
X146674755Y-63322191D01*
X146822191Y-63174755D01*
X146938031Y-63001388D01*
X147017823Y-62808753D01*
X147058500Y-62604253D01*
X147058500Y-62395747D01*
X147017823Y-62191247D01*
X146938031Y-61998612D01*
X146938030Y-61998611D01*
X146938027Y-61998605D01*
X146822191Y-61825245D01*
X146822188Y-61825241D01*
X146674758Y-61677811D01*
X146674754Y-61677808D01*
X146501394Y-61561972D01*
X146501385Y-61561967D01*
X146308753Y-61482177D01*
X146308745Y-61482175D01*
X146104257Y-61441500D01*
X146104253Y-61441500D01*
X145895747Y-61441500D01*
X145895742Y-61441500D01*
X145691254Y-61482175D01*
X145691246Y-61482177D01*
X145498614Y-61561967D01*
X145498605Y-61561972D01*
X145325245Y-61677808D01*
X145325241Y-61677811D01*
X145280181Y-61722872D01*
X145218858Y-61756357D01*
X145149166Y-61751373D01*
X145093233Y-61709501D01*
X145068816Y-61644037D01*
X145068500Y-61635191D01*
X145068500Y-61351362D01*
X145068499Y-61351345D01*
X145063645Y-61306204D01*
X145061989Y-61290799D01*
X145010889Y-61153796D01*
X144923261Y-61036739D01*
X144844691Y-60977922D01*
X144802820Y-60921988D01*
X144797836Y-60852296D01*
X144813275Y-60813865D01*
X144890017Y-60688634D01*
X144925148Y-60603819D01*
X144968989Y-60549416D01*
X145035283Y-60527350D01*
X145102982Y-60544629D01*
X145142812Y-60582379D01*
X145177811Y-60634758D01*
X145325241Y-60782188D01*
X145325245Y-60782191D01*
X145498605Y-60898027D01*
X145498611Y-60898030D01*
X145498612Y-60898031D01*
X145691247Y-60977823D01*
X145895742Y-61018499D01*
X145895746Y-61018500D01*
X145895747Y-61018500D01*
X146104254Y-61018500D01*
X146104255Y-61018499D01*
X146308753Y-60977823D01*
X146501388Y-60898031D01*
X146674755Y-60782191D01*
X146822191Y-60634755D01*
X146938031Y-60461388D01*
X147017823Y-60268753D01*
X147058500Y-60064253D01*
X147058500Y-59855747D01*
X147017823Y-59651247D01*
X146938031Y-59458612D01*
X146938030Y-59458611D01*
X146938027Y-59458605D01*
X146822191Y-59285245D01*
X146822188Y-59285241D01*
X146674758Y-59137811D01*
X146674754Y-59137808D01*
X146501394Y-59021972D01*
X146501385Y-59021967D01*
X146308753Y-58942177D01*
X146308745Y-58942175D01*
X146104257Y-58901500D01*
X146104253Y-58901500D01*
X145895747Y-58901500D01*
X145895742Y-58901500D01*
X145691254Y-58942175D01*
X145691246Y-58942177D01*
X145498614Y-59021967D01*
X145498605Y-59021972D01*
X145325245Y-59137808D01*
X145325241Y-59137811D01*
X145177809Y-59285243D01*
X145142811Y-59337621D01*
X145089198Y-59382425D01*
X145019873Y-59391131D01*
X144956846Y-59360975D01*
X144925149Y-59316180D01*
X144890020Y-59231371D01*
X144890019Y-59231369D01*
X144758429Y-59016634D01*
X144757733Y-59015819D01*
X144757732Y-59015819D01*
X143983787Y-59789764D01*
X143972518Y-59747708D01*
X143900110Y-59622292D01*
X143797708Y-59519890D01*
X143672292Y-59447482D01*
X143630232Y-59436212D01*
X144404179Y-58662266D01*
X144403362Y-58661568D01*
X144188631Y-58529980D01*
X143955956Y-58433603D01*
X143711072Y-58374812D01*
X143460000Y-58355052D01*
X143208927Y-58374812D01*
X142964043Y-58433603D01*
X142731368Y-58529980D01*
X142516637Y-58661567D01*
X142515818Y-58662266D01*
X143289765Y-59436212D01*
X143247708Y-59447482D01*
X143122292Y-59519890D01*
X143019890Y-59622292D01*
X142947482Y-59747708D01*
X142936212Y-59789765D01*
X142162266Y-59015818D01*
X142161567Y-59016637D01*
X142029980Y-59231368D01*
X141933603Y-59464043D01*
X141874812Y-59708927D01*
X141855052Y-59960000D01*
X141874812Y-60211072D01*
X141933603Y-60455956D01*
X142029979Y-60688629D01*
X142106725Y-60813867D01*
X142124969Y-60881312D01*
X142103852Y-60947915D01*
X142075308Y-60977923D01*
X141996739Y-61036739D01*
X141909111Y-61153795D01*
X141858011Y-61290795D01*
X141858011Y-61290797D01*
X141851500Y-61351345D01*
X105000000Y-61351345D01*
X105000000Y-53749999D01*
X115549364Y-53749999D01*
X115549364Y-53750000D01*
X116446988Y-53750000D01*
X116414075Y-53807007D01*
X116380000Y-53934174D01*
X116380000Y-54065826D01*
X116414075Y-54192993D01*
X116446988Y-54250000D01*
X115549364Y-54250000D01*
X115606567Y-54463486D01*
X115606570Y-54463492D01*
X115706399Y-54677578D01*
X115841894Y-54871082D01*
X116008917Y-55038105D01*
X116202421Y-55173600D01*
X116416507Y-55273429D01*
X116416516Y-55273433D01*
X116630000Y-55330634D01*
X116630000Y-54433012D01*
X116687007Y-54465925D01*
X116814174Y-54500000D01*
X116945826Y-54500000D01*
X117072993Y-54465925D01*
X117130000Y-54433012D01*
X117130000Y-55330633D01*
X117343483Y-55273433D01*
X117343492Y-55273429D01*
X117557578Y-55173600D01*
X117751082Y-55038105D01*
X117918105Y-54871082D01*
X118044868Y-54690048D01*
X118099445Y-54646423D01*
X118168944Y-54639231D01*
X118231298Y-54670753D01*
X118250251Y-54693350D01*
X118344276Y-54837265D01*
X118344284Y-54837276D01*
X118470967Y-54974888D01*
X118496760Y-55002906D01*
X118674424Y-55141189D01*
X118674425Y-55141189D01*
X118674427Y-55141191D01*
X118706412Y-55158500D01*
X118872426Y-55248342D01*
X119085365Y-55321444D01*
X119307431Y-55358500D01*
X119532569Y-55358500D01*
X119754635Y-55321444D01*
X119967574Y-55248342D01*
X120165576Y-55141189D01*
X120343240Y-55002906D01*
X120442614Y-54894957D01*
X120495715Y-54837276D01*
X120495715Y-54837275D01*
X120495722Y-54837268D01*
X120586193Y-54698790D01*
X120639338Y-54653437D01*
X120708569Y-54644013D01*
X120771905Y-54673515D01*
X120793804Y-54698787D01*
X120884278Y-54837268D01*
X120884283Y-54837273D01*
X120884284Y-54837276D01*
X121010967Y-54974888D01*
X121036760Y-55002906D01*
X121214424Y-55141189D01*
X121214425Y-55141189D01*
X121214427Y-55141191D01*
X121246412Y-55158500D01*
X121412426Y-55248342D01*
X121625365Y-55321444D01*
X121847431Y-55358500D01*
X122072569Y-55358500D01*
X122294635Y-55321444D01*
X122507574Y-55248342D01*
X122705576Y-55141189D01*
X122883240Y-55002906D01*
X122982614Y-54894957D01*
X123035715Y-54837276D01*
X123035715Y-54837275D01*
X123035722Y-54837268D01*
X123126193Y-54698790D01*
X123179338Y-54653437D01*
X123248569Y-54644013D01*
X123311905Y-54673515D01*
X123333804Y-54698787D01*
X123424278Y-54837268D01*
X123424283Y-54837273D01*
X123424284Y-54837276D01*
X123550967Y-54974888D01*
X123576760Y-55002906D01*
X123754424Y-55141189D01*
X123754425Y-55141189D01*
X123754427Y-55141191D01*
X123786412Y-55158500D01*
X123952426Y-55248342D01*
X124165365Y-55321444D01*
X124387431Y-55358500D01*
X124612569Y-55358500D01*
X124834635Y-55321444D01*
X125047574Y-55248342D01*
X125245576Y-55141189D01*
X125423240Y-55002906D01*
X125486452Y-54934239D01*
X125546337Y-54898250D01*
X125616175Y-54900349D01*
X125673791Y-54939873D01*
X125693861Y-54974888D01*
X125718703Y-55041489D01*
X125739111Y-55096204D01*
X125826739Y-55213261D01*
X125943796Y-55300889D01*
X126080799Y-55351989D01*
X126108050Y-55354918D01*
X126141345Y-55358499D01*
X126141362Y-55358500D01*
X127938638Y-55358500D01*
X127938654Y-55358499D01*
X127965692Y-55355591D01*
X127999201Y-55351989D01*
X128136204Y-55300889D01*
X128253261Y-55213261D01*
X128340889Y-55096204D01*
X128391989Y-54959201D01*
X128395591Y-54925692D01*
X128398499Y-54898654D01*
X128398500Y-54898637D01*
X128398500Y-53999999D01*
X132836537Y-53999999D01*
X132836537Y-54000000D01*
X132856346Y-54213785D01*
X132856347Y-54213787D01*
X132915101Y-54420286D01*
X132915107Y-54420301D01*
X133010805Y-54612487D01*
X133140187Y-54783817D01*
X133140189Y-54783820D01*
X133298856Y-54928463D01*
X133298858Y-54928465D01*
X133308187Y-54934241D01*
X133481400Y-55041489D01*
X133681603Y-55119049D01*
X133892649Y-55158500D01*
X133892651Y-55158500D01*
X134107349Y-55158500D01*
X134107351Y-55158500D01*
X134318397Y-55119049D01*
X134518600Y-55041489D01*
X134701143Y-54928464D01*
X134761543Y-54873402D01*
X182391500Y-54873402D01*
X182391500Y-55126597D01*
X182427199Y-55351988D01*
X182431106Y-55376658D01*
X182509344Y-55617450D01*
X182624287Y-55843038D01*
X182773105Y-56047868D01*
X182952132Y-56226895D01*
X183156962Y-56375713D01*
X183382550Y-56490656D01*
X183623342Y-56568894D01*
X183752176Y-56589299D01*
X183873403Y-56608500D01*
X183873408Y-56608500D01*
X184126597Y-56608500D01*
X184237108Y-56590996D01*
X184376658Y-56568894D01*
X184617450Y-56490656D01*
X184843038Y-56375713D01*
X185047868Y-56226895D01*
X185226895Y-56047868D01*
X185375713Y-55843038D01*
X185490656Y-55617450D01*
X185568894Y-55376658D01*
X185594773Y-55213261D01*
X185608500Y-55126597D01*
X185608500Y-54873402D01*
X185577133Y-54675362D01*
X185568894Y-54623342D01*
X185490656Y-54382550D01*
X185375713Y-54156962D01*
X185226895Y-53952132D01*
X185047868Y-53773105D01*
X184843038Y-53624287D01*
X184617450Y-53509344D01*
X184376658Y-53431106D01*
X184126597Y-53391500D01*
X184126592Y-53391500D01*
X183873408Y-53391500D01*
X183873403Y-53391500D01*
X183623341Y-53431106D01*
X183382547Y-53509345D01*
X183156961Y-53624287D01*
X183062396Y-53692993D01*
X182952132Y-53773105D01*
X182952130Y-53773107D01*
X182952129Y-53773107D01*
X182773107Y-53952129D01*
X182773107Y-53952130D01*
X182773105Y-53952132D01*
X182738328Y-53999999D01*
X182624287Y-54156961D01*
X182509345Y-54382547D01*
X182431106Y-54623341D01*
X182391500Y-54873402D01*
X134761543Y-54873402D01*
X134859810Y-54783820D01*
X134958270Y-54653437D01*
X134989194Y-54612487D01*
X134989194Y-54612485D01*
X134989196Y-54612484D01*
X135084897Y-54420291D01*
X135107481Y-54340911D01*
X135139065Y-54287167D01*
X137881415Y-51544819D01*
X137942738Y-51511334D01*
X137969096Y-51508500D01*
X197892839Y-51508500D01*
X197958116Y-51527073D01*
X197981393Y-51541485D01*
X197981395Y-51541486D01*
X197981400Y-51541489D01*
X198181603Y-51619049D01*
X198392649Y-51658500D01*
X198392651Y-51658500D01*
X198607349Y-51658500D01*
X198607351Y-51658500D01*
X198818397Y-51619049D01*
X199018600Y-51541489D01*
X199201143Y-51428464D01*
X199359810Y-51283820D01*
X199376546Y-51261657D01*
X199432652Y-51220022D01*
X199502364Y-51215329D01*
X199563547Y-51249070D01*
X199596775Y-51310533D01*
X199599500Y-51336384D01*
X199599500Y-58227500D01*
X199579815Y-58294539D01*
X199527011Y-58340294D01*
X199475500Y-58351500D01*
X197351345Y-58351500D01*
X197290797Y-58358011D01*
X197290795Y-58358011D01*
X197153795Y-58409111D01*
X197036739Y-58496739D01*
X196949111Y-58613795D01*
X196898011Y-58750795D01*
X196898011Y-58750797D01*
X196891500Y-58811345D01*
X196891500Y-59095191D01*
X196871815Y-59162230D01*
X196819011Y-59207985D01*
X196749853Y-59217929D01*
X196686297Y-59188904D01*
X196679819Y-59182872D01*
X196634758Y-59137811D01*
X196634754Y-59137808D01*
X196461394Y-59021972D01*
X196461385Y-59021967D01*
X196268753Y-58942177D01*
X196268745Y-58942175D01*
X196064257Y-58901500D01*
X196064253Y-58901500D01*
X195855747Y-58901500D01*
X195855742Y-58901500D01*
X195651254Y-58942175D01*
X195651246Y-58942177D01*
X195458614Y-59021967D01*
X195458605Y-59021972D01*
X195285245Y-59137808D01*
X195285241Y-59137811D01*
X195137811Y-59285241D01*
X195137808Y-59285245D01*
X195021972Y-59458605D01*
X195021967Y-59458614D01*
X194942177Y-59651246D01*
X194942175Y-59651254D01*
X194901500Y-59855742D01*
X194901500Y-60064257D01*
X194942175Y-60268745D01*
X194942177Y-60268753D01*
X195021967Y-60461385D01*
X195021972Y-60461394D01*
X195137808Y-60634754D01*
X195137811Y-60634758D01*
X195285241Y-60782188D01*
X195285245Y-60782191D01*
X195458605Y-60898027D01*
X195458611Y-60898030D01*
X195458612Y-60898031D01*
X195651247Y-60977823D01*
X195855742Y-61018499D01*
X195855746Y-61018500D01*
X195855747Y-61018500D01*
X196064254Y-61018500D01*
X196064255Y-61018499D01*
X196268753Y-60977823D01*
X196461388Y-60898031D01*
X196634755Y-60782191D01*
X196634758Y-60782188D01*
X196679819Y-60737128D01*
X196741142Y-60703643D01*
X196810834Y-60708627D01*
X196866767Y-60750499D01*
X196891184Y-60815963D01*
X196891500Y-60824809D01*
X196891500Y-61108654D01*
X196898011Y-61169202D01*
X196898011Y-61169204D01*
X196943364Y-61290795D01*
X196949111Y-61306204D01*
X197036739Y-61423261D01*
X197115308Y-61482077D01*
X197157179Y-61538011D01*
X197162163Y-61607703D01*
X197146725Y-61646133D01*
X197069979Y-61771370D01*
X197034850Y-61856182D01*
X196991009Y-61910585D01*
X196924715Y-61932650D01*
X196857016Y-61915371D01*
X196817187Y-61877619D01*
X196782194Y-61825249D01*
X196782188Y-61825241D01*
X196634758Y-61677811D01*
X196634754Y-61677808D01*
X196461394Y-61561972D01*
X196461385Y-61561967D01*
X196268753Y-61482177D01*
X196268745Y-61482175D01*
X196064257Y-61441500D01*
X196064253Y-61441500D01*
X195855747Y-61441500D01*
X195855742Y-61441500D01*
X195651254Y-61482175D01*
X195651246Y-61482177D01*
X195458614Y-61561967D01*
X195458605Y-61561972D01*
X195285245Y-61677808D01*
X195285241Y-61677811D01*
X195137811Y-61825241D01*
X195137808Y-61825245D01*
X195021972Y-61998605D01*
X195021967Y-61998614D01*
X194942177Y-62191246D01*
X194942175Y-62191254D01*
X194901500Y-62395742D01*
X194901500Y-62604257D01*
X194942175Y-62808745D01*
X194942177Y-62808753D01*
X195021967Y-63001385D01*
X195021972Y-63001394D01*
X195137808Y-63174754D01*
X195137811Y-63174758D01*
X195285241Y-63322188D01*
X195285245Y-63322191D01*
X195458605Y-63438027D01*
X195458614Y-63438032D01*
X195502253Y-63456107D01*
X195651247Y-63517823D01*
X195855742Y-63558499D01*
X195855746Y-63558500D01*
X195855747Y-63558500D01*
X196064254Y-63558500D01*
X196064255Y-63558499D01*
X196268753Y-63517823D01*
X196461388Y-63438031D01*
X196634755Y-63322191D01*
X196782191Y-63174755D01*
X196817187Y-63122378D01*
X196870798Y-63077575D01*
X196940123Y-63068866D01*
X197003151Y-63099021D01*
X197034850Y-63143818D01*
X197069978Y-63228627D01*
X197069980Y-63228630D01*
X197201568Y-63443362D01*
X197202266Y-63444179D01*
X197976212Y-62670233D01*
X197987482Y-62712292D01*
X198059890Y-62837708D01*
X198162292Y-62940110D01*
X198287708Y-63012518D01*
X198329764Y-63023787D01*
X197555819Y-63797732D01*
X197555819Y-63797733D01*
X197556634Y-63798429D01*
X197771368Y-63930019D01*
X198004043Y-64026396D01*
X198248927Y-64085187D01*
X198500000Y-64104947D01*
X198751072Y-64085187D01*
X198995956Y-64026396D01*
X199228631Y-63930019D01*
X199410710Y-63818441D01*
X199478156Y-63800196D01*
X199544758Y-63821312D01*
X199589372Y-63875084D01*
X199599500Y-63924168D01*
X199599500Y-70922903D01*
X199579815Y-70989942D01*
X199563181Y-71010584D01*
X198218400Y-72355365D01*
X198175514Y-72383310D01*
X197981399Y-72458511D01*
X197981396Y-72458513D01*
X197798858Y-72571534D01*
X197798856Y-72571536D01*
X197640189Y-72716179D01*
X197640187Y-72716182D01*
X197510805Y-72887512D01*
X197415103Y-73079706D01*
X197392518Y-73159085D01*
X197360933Y-73212831D01*
X174118585Y-96455181D01*
X174057262Y-96488666D01*
X174030904Y-96491500D01*
X159107161Y-96491500D01*
X159041884Y-96472927D01*
X159018606Y-96458514D01*
X159018602Y-96458512D01*
X159018600Y-96458511D01*
X158818397Y-96380951D01*
X158607351Y-96341500D01*
X158392649Y-96341500D01*
X158181603Y-96380951D01*
X158181600Y-96380951D01*
X158181600Y-96380952D01*
X157981399Y-96458511D01*
X157981396Y-96458513D01*
X157798858Y-96571534D01*
X157798856Y-96571536D01*
X157640189Y-96716179D01*
X157640187Y-96716182D01*
X157510805Y-96887512D01*
X157415103Y-97079706D01*
X157392518Y-97159085D01*
X157360933Y-97212831D01*
X155582266Y-98991500D01*
X155357119Y-99216647D01*
X155303823Y-99269943D01*
X155216645Y-99357120D01*
X155106282Y-99522289D01*
X155106277Y-99522298D01*
X155030256Y-99705830D01*
X155030254Y-99705838D01*
X154990311Y-99906646D01*
X154988097Y-99906205D01*
X154965714Y-99961632D01*
X154908678Y-100001989D01*
X154838878Y-100005104D01*
X154778474Y-99969988D01*
X154761087Y-99946689D01*
X154723588Y-99881740D01*
X154563312Y-99672863D01*
X154563306Y-99672856D01*
X154377143Y-99486693D01*
X154377136Y-99486687D01*
X154168256Y-99326409D01*
X153940250Y-99194769D01*
X153940234Y-99194761D01*
X153696995Y-99094009D01*
X153442678Y-99025865D01*
X153181653Y-98991501D01*
X153181650Y-98991500D01*
X153181644Y-98991500D01*
X152918356Y-98991500D01*
X152918350Y-98991500D01*
X152918346Y-98991501D01*
X152657321Y-99025865D01*
X152403004Y-99094009D01*
X152159765Y-99194761D01*
X152159749Y-99194769D01*
X151931743Y-99326409D01*
X151722863Y-99486687D01*
X151722856Y-99486693D01*
X151536693Y-99672856D01*
X151536687Y-99672863D01*
X151376409Y-99881743D01*
X151244769Y-100109749D01*
X151244761Y-100109765D01*
X151144009Y-100353004D01*
X151075865Y-100607321D01*
X151041501Y-100868346D01*
X151041500Y-100868362D01*
X151041500Y-101131637D01*
X151041501Y-101131653D01*
X151075865Y-101392678D01*
X151144009Y-101646995D01*
X151244761Y-101890234D01*
X151244769Y-101890250D01*
X151376409Y-102118256D01*
X151536687Y-102327136D01*
X151536693Y-102327143D01*
X151722856Y-102513306D01*
X151722863Y-102513312D01*
X151931743Y-102673590D01*
X152159749Y-102805230D01*
X152159765Y-102805238D01*
X152311451Y-102868068D01*
X152403003Y-102905990D01*
X152657320Y-102974134D01*
X152918356Y-103008500D01*
X152918363Y-103008500D01*
X153181637Y-103008500D01*
X153181644Y-103008500D01*
X153442680Y-102974134D01*
X153696997Y-102905990D01*
X153880099Y-102830146D01*
X153940234Y-102805238D01*
X153940237Y-102805236D01*
X153940243Y-102805234D01*
X154168257Y-102673590D01*
X154377138Y-102513311D01*
X154563311Y-102327138D01*
X154723590Y-102118257D01*
X154760113Y-102054998D01*
X154810680Y-102006782D01*
X154879287Y-101993559D01*
X154944152Y-102019527D01*
X154984680Y-102076442D01*
X154991500Y-102116998D01*
X154991500Y-123099333D01*
X155030254Y-123294160D01*
X155030256Y-123294168D01*
X155106277Y-123477701D01*
X155106282Y-123477710D01*
X155216646Y-123642880D01*
X155216649Y-123642884D01*
X158287115Y-126713351D01*
X158287123Y-126713357D01*
X158452286Y-126823715D01*
X158452289Y-126823716D01*
X158452297Y-126823722D01*
X158559809Y-126868254D01*
X158635831Y-126899744D01*
X158830666Y-126938499D01*
X158830670Y-126938500D01*
X158830671Y-126938500D01*
X159029329Y-126938500D01*
X159386102Y-126938500D01*
X159453141Y-126958185D01*
X159498896Y-127010989D01*
X159506780Y-127033992D01*
X159508011Y-127039202D01*
X159550683Y-127153609D01*
X159559111Y-127176204D01*
X159646739Y-127293261D01*
X159763796Y-127380889D01*
X159900799Y-127431989D01*
X159928050Y-127434918D01*
X159961345Y-127438499D01*
X159961362Y-127438500D01*
X162058638Y-127438500D01*
X162058654Y-127438499D01*
X162085692Y-127435591D01*
X162119201Y-127431989D01*
X162256204Y-127380889D01*
X162373261Y-127293261D01*
X162460889Y-127176204D01*
X162460890Y-127176200D01*
X162464976Y-127168718D01*
X162514377Y-127119309D01*
X162582649Y-127104452D01*
X162648115Y-127128865D01*
X162649975Y-127130284D01*
X162726768Y-127190055D01*
X162726771Y-127190057D01*
X162945385Y-127308364D01*
X162945396Y-127308369D01*
X163180506Y-127389083D01*
X163425707Y-127430000D01*
X163674293Y-127430000D01*
X163919493Y-127389083D01*
X164154603Y-127308369D01*
X164154614Y-127308364D01*
X164373230Y-127190056D01*
X164373236Y-127190051D01*
X164420055Y-127153610D01*
X164420056Y-127153609D01*
X163687575Y-126421128D01*
X163746853Y-126405245D01*
X163863147Y-126338102D01*
X163958102Y-126243147D01*
X164025245Y-126126853D01*
X164041128Y-126067574D01*
X164773434Y-126799881D01*
X164778196Y-126799388D01*
X164846909Y-126812051D01*
X164885276Y-126842192D01*
X165020031Y-126999969D01*
X165142365Y-127104452D01*
X165200586Y-127154178D01*
X165200589Y-127154179D01*
X165403037Y-127278240D01*
X165403040Y-127278242D01*
X165622403Y-127369104D01*
X165622404Y-127369104D01*
X165622406Y-127369105D01*
X165853289Y-127424535D01*
X166090000Y-127443165D01*
X166326711Y-127424535D01*
X166557594Y-127369105D01*
X166557596Y-127369104D01*
X166557597Y-127369104D01*
X166776959Y-127278242D01*
X166776960Y-127278241D01*
X166776963Y-127278240D01*
X166979416Y-127154176D01*
X167159969Y-126999969D01*
X167265711Y-126876160D01*
X167324216Y-126837968D01*
X167394084Y-126837469D01*
X167453131Y-126874823D01*
X167454200Y-126876057D01*
X167524344Y-126958185D01*
X167560031Y-126999969D01*
X167740586Y-127154178D01*
X167740589Y-127154179D01*
X167943037Y-127278240D01*
X167943040Y-127278242D01*
X168162403Y-127369104D01*
X168162404Y-127369104D01*
X168162406Y-127369105D01*
X168393289Y-127424535D01*
X168630000Y-127443165D01*
X168866711Y-127424535D01*
X169097594Y-127369105D01*
X169097596Y-127369104D01*
X169097597Y-127369104D01*
X169316959Y-127278242D01*
X169316960Y-127278241D01*
X169316963Y-127278240D01*
X169519416Y-127154176D01*
X169699969Y-126999969D01*
X169805711Y-126876160D01*
X169864216Y-126837968D01*
X169934084Y-126837469D01*
X169993131Y-126874823D01*
X169994200Y-126876057D01*
X170064344Y-126958185D01*
X170100031Y-126999969D01*
X170280586Y-127154178D01*
X170280589Y-127154179D01*
X170483037Y-127278240D01*
X170483040Y-127278242D01*
X170702403Y-127369104D01*
X170702404Y-127369104D01*
X170702406Y-127369105D01*
X170933289Y-127424535D01*
X171170000Y-127443165D01*
X171406711Y-127424535D01*
X171637594Y-127369105D01*
X171637596Y-127369104D01*
X171637597Y-127369104D01*
X171856959Y-127278242D01*
X171856960Y-127278241D01*
X171856963Y-127278240D01*
X172059416Y-127154176D01*
X172239969Y-126999969D01*
X172345711Y-126876160D01*
X172404216Y-126837968D01*
X172474084Y-126837469D01*
X172533131Y-126874823D01*
X172534200Y-126876057D01*
X172604344Y-126958185D01*
X172640031Y-126999969D01*
X172820586Y-127154178D01*
X172820589Y-127154179D01*
X173023037Y-127278240D01*
X173023040Y-127278242D01*
X173242403Y-127369104D01*
X173242404Y-127369104D01*
X173242406Y-127369105D01*
X173473289Y-127424535D01*
X173710000Y-127443165D01*
X173946711Y-127424535D01*
X174177594Y-127369105D01*
X174177596Y-127369104D01*
X174177597Y-127369104D01*
X174396959Y-127278242D01*
X174396960Y-127278241D01*
X174396963Y-127278240D01*
X174599416Y-127154176D01*
X174779969Y-126999969D01*
X174885711Y-126876160D01*
X174944216Y-126837968D01*
X175014084Y-126837469D01*
X175073131Y-126874823D01*
X175074200Y-126876057D01*
X175144344Y-126958185D01*
X175180031Y-126999969D01*
X175360586Y-127154178D01*
X175360589Y-127154179D01*
X175563037Y-127278240D01*
X175563040Y-127278242D01*
X175782403Y-127369104D01*
X175782404Y-127369104D01*
X175782406Y-127369105D01*
X176013289Y-127424535D01*
X176250000Y-127443165D01*
X176486711Y-127424535D01*
X176717594Y-127369105D01*
X176717596Y-127369104D01*
X176717597Y-127369104D01*
X176936959Y-127278242D01*
X176936960Y-127278241D01*
X176936963Y-127278240D01*
X177139416Y-127154176D01*
X177319969Y-126999969D01*
X177425711Y-126876160D01*
X177484216Y-126837968D01*
X177554084Y-126837469D01*
X177613131Y-126874823D01*
X177614200Y-126876057D01*
X177684344Y-126958185D01*
X177720031Y-126999969D01*
X177900586Y-127154178D01*
X177900589Y-127154179D01*
X178103037Y-127278240D01*
X178103040Y-127278242D01*
X178322403Y-127369104D01*
X178322404Y-127369104D01*
X178322406Y-127369105D01*
X178553289Y-127424535D01*
X178790000Y-127443165D01*
X179026711Y-127424535D01*
X179257594Y-127369105D01*
X179257596Y-127369104D01*
X179257597Y-127369104D01*
X179476959Y-127278242D01*
X179476960Y-127278241D01*
X179476963Y-127278240D01*
X179679416Y-127154176D01*
X179859969Y-126999969D01*
X179965711Y-126876160D01*
X180024216Y-126837968D01*
X180094084Y-126837469D01*
X180153131Y-126874823D01*
X180154200Y-126876057D01*
X180224344Y-126958185D01*
X180260031Y-126999969D01*
X180440586Y-127154178D01*
X180440589Y-127154179D01*
X180643037Y-127278240D01*
X180643040Y-127278242D01*
X180862403Y-127369104D01*
X180862404Y-127369104D01*
X180862406Y-127369105D01*
X181093289Y-127424535D01*
X181330000Y-127443165D01*
X181566711Y-127424535D01*
X181797594Y-127369105D01*
X181797596Y-127369104D01*
X181797597Y-127369104D01*
X182016959Y-127278242D01*
X182016960Y-127278241D01*
X182016963Y-127278240D01*
X182219416Y-127154176D01*
X182399969Y-126999969D01*
X182505711Y-126876160D01*
X182564216Y-126837968D01*
X182634084Y-126837469D01*
X182693131Y-126874823D01*
X182694200Y-126876057D01*
X182764344Y-126958185D01*
X182800031Y-126999969D01*
X182980586Y-127154178D01*
X182980589Y-127154179D01*
X183183037Y-127278240D01*
X183183040Y-127278242D01*
X183402403Y-127369104D01*
X183402404Y-127369104D01*
X183402406Y-127369105D01*
X183633289Y-127424535D01*
X183870000Y-127443165D01*
X184106711Y-127424535D01*
X184337594Y-127369105D01*
X184337596Y-127369104D01*
X184337597Y-127369104D01*
X184556959Y-127278242D01*
X184556960Y-127278241D01*
X184556963Y-127278240D01*
X184759416Y-127154176D01*
X184939969Y-126999969D01*
X185045711Y-126876160D01*
X185104216Y-126837968D01*
X185174084Y-126837469D01*
X185233131Y-126874823D01*
X185234200Y-126876057D01*
X185304344Y-126958185D01*
X185340031Y-126999969D01*
X185520586Y-127154178D01*
X185520589Y-127154179D01*
X185723037Y-127278240D01*
X185723040Y-127278242D01*
X185942403Y-127369104D01*
X185942404Y-127369104D01*
X185942406Y-127369105D01*
X186173289Y-127424535D01*
X186410000Y-127443165D01*
X186646711Y-127424535D01*
X186877594Y-127369105D01*
X186877596Y-127369104D01*
X186877597Y-127369104D01*
X187096959Y-127278242D01*
X187096960Y-127278241D01*
X187096963Y-127278240D01*
X187299416Y-127154176D01*
X187479969Y-126999969D01*
X187585711Y-126876160D01*
X187644216Y-126837968D01*
X187714084Y-126837469D01*
X187773131Y-126874823D01*
X187774200Y-126876057D01*
X187844344Y-126958185D01*
X187880031Y-126999969D01*
X188060586Y-127154178D01*
X188060589Y-127154179D01*
X188263037Y-127278240D01*
X188263040Y-127278242D01*
X188482403Y-127369104D01*
X188482404Y-127369104D01*
X188482406Y-127369105D01*
X188713289Y-127424535D01*
X188950000Y-127443165D01*
X189186711Y-127424535D01*
X189417594Y-127369105D01*
X189417596Y-127369104D01*
X189417597Y-127369104D01*
X189636959Y-127278242D01*
X189636960Y-127278241D01*
X189636963Y-127278240D01*
X189839416Y-127154176D01*
X190019969Y-126999969D01*
X190125711Y-126876160D01*
X190184216Y-126837968D01*
X190254084Y-126837469D01*
X190313131Y-126874823D01*
X190314200Y-126876057D01*
X190384344Y-126958185D01*
X190420031Y-126999969D01*
X190600586Y-127154178D01*
X190600589Y-127154179D01*
X190803037Y-127278240D01*
X190803040Y-127278242D01*
X191022403Y-127369104D01*
X191022404Y-127369104D01*
X191022406Y-127369105D01*
X191253289Y-127424535D01*
X191490000Y-127443165D01*
X191726711Y-127424535D01*
X191957594Y-127369105D01*
X191957596Y-127369104D01*
X191957597Y-127369104D01*
X192176959Y-127278242D01*
X192176960Y-127278241D01*
X192176963Y-127278240D01*
X192379416Y-127154176D01*
X192559969Y-126999969D01*
X192665711Y-126876160D01*
X192724216Y-126837968D01*
X192794084Y-126837469D01*
X192853131Y-126874823D01*
X192854200Y-126876057D01*
X192924344Y-126958185D01*
X192960031Y-126999969D01*
X193140586Y-127154178D01*
X193140589Y-127154179D01*
X193343037Y-127278240D01*
X193343040Y-127278242D01*
X193562403Y-127369104D01*
X193562404Y-127369104D01*
X193562406Y-127369105D01*
X193793289Y-127424535D01*
X194030000Y-127443165D01*
X194266711Y-127424535D01*
X194497594Y-127369105D01*
X194497596Y-127369104D01*
X194497597Y-127369104D01*
X194716959Y-127278242D01*
X194716960Y-127278241D01*
X194716963Y-127278240D01*
X194919416Y-127154176D01*
X195099969Y-126999969D01*
X195205711Y-126876160D01*
X195264216Y-126837968D01*
X195334084Y-126837469D01*
X195393131Y-126874823D01*
X195394200Y-126876057D01*
X195464344Y-126958185D01*
X195500031Y-126999969D01*
X195680586Y-127154178D01*
X195680589Y-127154179D01*
X195883037Y-127278240D01*
X195883040Y-127278242D01*
X196102403Y-127369104D01*
X196102404Y-127369104D01*
X196102406Y-127369105D01*
X196333289Y-127424535D01*
X196570000Y-127443165D01*
X196806711Y-127424535D01*
X197037594Y-127369105D01*
X197037596Y-127369104D01*
X197037597Y-127369104D01*
X197256959Y-127278242D01*
X197256960Y-127278241D01*
X197256963Y-127278240D01*
X197459416Y-127154176D01*
X197639969Y-126999969D01*
X197794176Y-126819416D01*
X197918240Y-126616963D01*
X197989799Y-126444204D01*
X198033640Y-126389800D01*
X198099934Y-126367735D01*
X198167633Y-126385014D01*
X198211747Y-126429656D01*
X198326409Y-126628256D01*
X198486687Y-126837136D01*
X198486693Y-126837143D01*
X198672856Y-127023306D01*
X198672863Y-127023312D01*
X198881743Y-127183590D01*
X199109749Y-127315230D01*
X199109765Y-127315238D01*
X199239810Y-127369104D01*
X199353003Y-127415990D01*
X199607320Y-127484134D01*
X199868356Y-127518500D01*
X199868363Y-127518500D01*
X200131637Y-127518500D01*
X200131644Y-127518500D01*
X200392680Y-127484134D01*
X200646997Y-127415990D01*
X200830099Y-127340146D01*
X200890234Y-127315238D01*
X200890237Y-127315236D01*
X200890243Y-127315234D01*
X201118257Y-127183590D01*
X201327138Y-127023311D01*
X201513311Y-126837138D01*
X201673590Y-126628257D01*
X201805234Y-126400243D01*
X201806332Y-126397594D01*
X201870305Y-126243147D01*
X201905990Y-126156997D01*
X201974134Y-125902680D01*
X202008500Y-125641644D01*
X202008500Y-125378356D01*
X201974134Y-125117320D01*
X201905990Y-124863003D01*
X201850781Y-124729716D01*
X201805238Y-124619765D01*
X201805230Y-124619749D01*
X201673590Y-124391743D01*
X201513312Y-124182863D01*
X201513306Y-124182856D01*
X201327143Y-123996693D01*
X201327136Y-123996687D01*
X201118256Y-123836409D01*
X200890250Y-123704769D01*
X200890234Y-123704761D01*
X200646995Y-123604009D01*
X200392678Y-123535865D01*
X200131653Y-123501501D01*
X200131650Y-123501500D01*
X200131644Y-123501500D01*
X199868356Y-123501500D01*
X199868350Y-123501500D01*
X199868346Y-123501501D01*
X199607321Y-123535865D01*
X199353004Y-123604009D01*
X199109765Y-123704761D01*
X199109749Y-123704769D01*
X198881743Y-123836409D01*
X198672863Y-123996687D01*
X198672856Y-123996693D01*
X198486693Y-124182856D01*
X198486687Y-124182863D01*
X198326409Y-124391743D01*
X198194769Y-124619749D01*
X198194761Y-124619765D01*
X198094010Y-124863002D01*
X198044385Y-125048206D01*
X198008020Y-125107866D01*
X197945173Y-125138395D01*
X197875797Y-125130100D01*
X197821919Y-125085615D01*
X197818882Y-125080901D01*
X197806448Y-125060611D01*
X197794176Y-125040584D01*
X197639969Y-124860031D01*
X197460078Y-124706389D01*
X197459413Y-124705821D01*
X197459410Y-124705820D01*
X197256962Y-124581759D01*
X197256959Y-124581757D01*
X197037596Y-124490895D01*
X196806714Y-124435465D01*
X196570000Y-124416835D01*
X196333285Y-124435465D01*
X196102404Y-124490895D01*
X196102402Y-124490895D01*
X195883040Y-124581757D01*
X195883037Y-124581759D01*
X195680589Y-124705820D01*
X195680586Y-124705821D01*
X195537455Y-124828068D01*
X195500031Y-124860031D01*
X195447532Y-124921500D01*
X195394290Y-124983838D01*
X195335783Y-125022031D01*
X195265915Y-125022529D01*
X195206869Y-124985176D01*
X195205710Y-124983838D01*
X195099969Y-124860031D01*
X194920078Y-124706389D01*
X194919413Y-124705821D01*
X194919410Y-124705820D01*
X194716962Y-124581759D01*
X194716959Y-124581757D01*
X194497596Y-124490895D01*
X194266714Y-124435465D01*
X194030000Y-124416835D01*
X193793285Y-124435465D01*
X193562404Y-124490895D01*
X193562402Y-124490895D01*
X193343040Y-124581757D01*
X193343037Y-124581759D01*
X193140589Y-124705820D01*
X193140586Y-124705821D01*
X192997455Y-124828068D01*
X192960031Y-124860031D01*
X192907532Y-124921500D01*
X192854290Y-124983838D01*
X192795783Y-125022031D01*
X192725915Y-125022529D01*
X192666869Y-124985176D01*
X192665710Y-124983838D01*
X192559969Y-124860031D01*
X192380078Y-124706389D01*
X192379413Y-124705821D01*
X192379410Y-124705820D01*
X192176962Y-124581759D01*
X192176959Y-124581757D01*
X191957596Y-124490895D01*
X191726714Y-124435465D01*
X191490000Y-124416835D01*
X191253285Y-124435465D01*
X191022404Y-124490895D01*
X191022402Y-124490895D01*
X190803040Y-124581757D01*
X190803037Y-124581759D01*
X190600589Y-124705820D01*
X190600586Y-124705821D01*
X190457455Y-124828068D01*
X190420031Y-124860031D01*
X190367532Y-124921500D01*
X190314290Y-124983838D01*
X190255783Y-125022031D01*
X190185915Y-125022529D01*
X190126869Y-124985176D01*
X190125710Y-124983838D01*
X190019969Y-124860031D01*
X189840078Y-124706389D01*
X189839413Y-124705821D01*
X189839410Y-124705820D01*
X189636962Y-124581759D01*
X189636959Y-124581757D01*
X189417596Y-124490895D01*
X189186714Y-124435465D01*
X188950000Y-124416835D01*
X188713285Y-124435465D01*
X188482404Y-124490895D01*
X188482402Y-124490895D01*
X188263040Y-124581757D01*
X188263037Y-124581759D01*
X188060589Y-124705820D01*
X188060586Y-124705821D01*
X187917455Y-124828068D01*
X187880031Y-124860031D01*
X187827532Y-124921500D01*
X187774290Y-124983838D01*
X187715783Y-125022031D01*
X187645915Y-125022529D01*
X187586869Y-124985176D01*
X187585710Y-124983838D01*
X187479969Y-124860031D01*
X187300078Y-124706389D01*
X187299413Y-124705821D01*
X187299410Y-124705820D01*
X187096962Y-124581759D01*
X187096959Y-124581757D01*
X186877596Y-124490895D01*
X186646714Y-124435465D01*
X186410000Y-124416835D01*
X186173285Y-124435465D01*
X185942404Y-124490895D01*
X185942402Y-124490895D01*
X185723040Y-124581757D01*
X185723037Y-124581759D01*
X185520589Y-124705820D01*
X185520586Y-124705821D01*
X185377455Y-124828068D01*
X185340031Y-124860031D01*
X185287532Y-124921500D01*
X185234290Y-124983838D01*
X185175783Y-125022031D01*
X185105915Y-125022529D01*
X185046869Y-124985176D01*
X185045710Y-124983838D01*
X184939969Y-124860031D01*
X184760078Y-124706389D01*
X184759413Y-124705821D01*
X184759410Y-124705820D01*
X184556962Y-124581759D01*
X184556959Y-124581757D01*
X184337596Y-124490895D01*
X184106714Y-124435465D01*
X183870000Y-124416835D01*
X183633285Y-124435465D01*
X183402404Y-124490895D01*
X183402402Y-124490895D01*
X183183040Y-124581757D01*
X183183037Y-124581759D01*
X182980589Y-124705820D01*
X182980586Y-124705821D01*
X182837455Y-124828068D01*
X182800031Y-124860031D01*
X182747532Y-124921500D01*
X182694290Y-124983838D01*
X182635783Y-125022031D01*
X182565915Y-125022529D01*
X182506869Y-124985176D01*
X182505710Y-124983838D01*
X182399969Y-124860031D01*
X182220078Y-124706389D01*
X182219413Y-124705821D01*
X182219410Y-124705820D01*
X182016962Y-124581759D01*
X182016959Y-124581757D01*
X181797596Y-124490895D01*
X181566714Y-124435465D01*
X181330000Y-124416835D01*
X181093285Y-124435465D01*
X180862404Y-124490895D01*
X180862402Y-124490895D01*
X180643040Y-124581757D01*
X180643037Y-124581759D01*
X180440589Y-124705820D01*
X180440586Y-124705821D01*
X180297455Y-124828068D01*
X180260031Y-124860031D01*
X180207532Y-124921500D01*
X180154290Y-124983838D01*
X180095783Y-125022031D01*
X180025915Y-125022529D01*
X179966869Y-124985176D01*
X179965710Y-124983838D01*
X179859969Y-124860031D01*
X179680078Y-124706389D01*
X179679413Y-124705821D01*
X179679410Y-124705820D01*
X179476962Y-124581759D01*
X179476959Y-124581757D01*
X179257596Y-124490895D01*
X179026714Y-124435465D01*
X178790000Y-124416835D01*
X178553285Y-124435465D01*
X178322404Y-124490895D01*
X178322402Y-124490895D01*
X178103040Y-124581757D01*
X178103037Y-124581759D01*
X177900589Y-124705820D01*
X177900586Y-124705821D01*
X177757455Y-124828068D01*
X177720031Y-124860031D01*
X177667532Y-124921500D01*
X177614290Y-124983838D01*
X177555783Y-125022031D01*
X177485915Y-125022529D01*
X177426869Y-124985176D01*
X177425710Y-124983838D01*
X177319969Y-124860031D01*
X177140078Y-124706389D01*
X177139413Y-124705821D01*
X177139410Y-124705820D01*
X176936962Y-124581759D01*
X176936959Y-124581757D01*
X176717596Y-124490895D01*
X176486714Y-124435465D01*
X176250000Y-124416835D01*
X176013285Y-124435465D01*
X175782404Y-124490895D01*
X175782402Y-124490895D01*
X175563040Y-124581757D01*
X175563037Y-124581759D01*
X175360589Y-124705820D01*
X175360586Y-124705821D01*
X175217455Y-124828068D01*
X175180031Y-124860031D01*
X175127532Y-124921500D01*
X175074290Y-124983838D01*
X175015783Y-125022031D01*
X174945915Y-125022529D01*
X174886869Y-124985176D01*
X174885710Y-124983838D01*
X174779969Y-124860031D01*
X174600078Y-124706389D01*
X174599413Y-124705821D01*
X174599410Y-124705820D01*
X174396962Y-124581759D01*
X174396959Y-124581757D01*
X174177596Y-124490895D01*
X173946714Y-124435465D01*
X173710000Y-124416835D01*
X173473285Y-124435465D01*
X173242404Y-124490895D01*
X173242402Y-124490895D01*
X173023040Y-124581757D01*
X173023037Y-124581759D01*
X172820589Y-124705820D01*
X172820586Y-124705821D01*
X172677455Y-124828068D01*
X172640031Y-124860031D01*
X172587532Y-124921500D01*
X172534290Y-124983838D01*
X172475783Y-125022031D01*
X172405915Y-125022529D01*
X172346869Y-124985176D01*
X172345710Y-124983838D01*
X172239969Y-124860031D01*
X172060078Y-124706389D01*
X172059413Y-124705821D01*
X172059410Y-124705820D01*
X171856962Y-124581759D01*
X171856959Y-124581757D01*
X171637596Y-124490895D01*
X171406714Y-124435465D01*
X171170000Y-124416835D01*
X170933285Y-124435465D01*
X170702404Y-124490895D01*
X170702402Y-124490895D01*
X170483040Y-124581757D01*
X170483037Y-124581759D01*
X170280589Y-124705820D01*
X170280586Y-124705821D01*
X170137455Y-124828068D01*
X170100031Y-124860031D01*
X170047532Y-124921500D01*
X169994290Y-124983838D01*
X169935783Y-125022031D01*
X169865915Y-125022529D01*
X169806869Y-124985176D01*
X169805710Y-124983838D01*
X169699969Y-124860031D01*
X169520078Y-124706389D01*
X169519413Y-124705821D01*
X169519410Y-124705820D01*
X169316962Y-124581759D01*
X169316959Y-124581757D01*
X169097596Y-124490895D01*
X168866714Y-124435465D01*
X168630000Y-124416835D01*
X168393285Y-124435465D01*
X168162404Y-124490895D01*
X168162402Y-124490895D01*
X167943040Y-124581757D01*
X167943037Y-124581759D01*
X167740589Y-124705820D01*
X167740586Y-124705821D01*
X167597455Y-124828068D01*
X167560031Y-124860031D01*
X167507532Y-124921500D01*
X167454290Y-124983838D01*
X167395783Y-125022031D01*
X167325915Y-125022529D01*
X167266869Y-124985176D01*
X167265710Y-124983838D01*
X167159969Y-124860031D01*
X166980078Y-124706389D01*
X166979413Y-124705821D01*
X166979410Y-124705820D01*
X166776962Y-124581759D01*
X166776959Y-124581757D01*
X166557596Y-124490895D01*
X166326714Y-124435465D01*
X166090000Y-124416835D01*
X165853285Y-124435465D01*
X165622404Y-124490895D01*
X165622402Y-124490895D01*
X165403040Y-124581757D01*
X165403037Y-124581759D01*
X165200589Y-124705820D01*
X165200586Y-124705821D01*
X165020031Y-124860031D01*
X164885279Y-125017804D01*
X164826772Y-125055997D01*
X164778198Y-125060611D01*
X164773435Y-125060117D01*
X164041128Y-125792424D01*
X164025245Y-125733147D01*
X163958102Y-125616853D01*
X163863147Y-125521898D01*
X163746853Y-125454755D01*
X163687572Y-125438871D01*
X164420055Y-124706389D01*
X164420055Y-124706388D01*
X164373236Y-124669947D01*
X164373231Y-124669944D01*
X164154614Y-124551635D01*
X164154603Y-124551630D01*
X163919493Y-124470916D01*
X163674293Y-124430000D01*
X163425707Y-124430000D01*
X163180506Y-124470916D01*
X162945396Y-124551630D01*
X162945385Y-124551635D01*
X162726771Y-124669942D01*
X162726769Y-124669943D01*
X162649974Y-124729716D01*
X162584980Y-124755358D01*
X162516440Y-124741791D01*
X162466115Y-124693323D01*
X162464977Y-124691284D01*
X162460890Y-124683801D01*
X162460889Y-124683796D01*
X162373261Y-124566739D01*
X162256204Y-124479111D01*
X162234233Y-124470916D01*
X162119203Y-124428011D01*
X162058654Y-124421500D01*
X162058638Y-124421500D01*
X159961362Y-124421500D01*
X159961345Y-124421500D01*
X159900797Y-124428011D01*
X159900795Y-124428011D01*
X159763795Y-124479111D01*
X159646739Y-124566739D01*
X159559111Y-124683795D01*
X159505299Y-124828068D01*
X159502667Y-124827086D01*
X159474682Y-124876225D01*
X159412770Y-124908607D01*
X159343178Y-124902375D01*
X159300904Y-124874669D01*
X157044819Y-122618584D01*
X157011334Y-122557261D01*
X157008500Y-122530903D01*
X157008500Y-122140000D01*
X195510000Y-122140000D01*
X202000000Y-122140000D01*
X202000000Y-104450000D01*
X195510000Y-104450000D01*
X195510000Y-122140000D01*
X157008500Y-122140000D01*
X157008500Y-100530000D01*
X159496835Y-100530000D01*
X159515465Y-100766714D01*
X159570895Y-100997595D01*
X159570895Y-100997597D01*
X159661757Y-101216959D01*
X159661759Y-101216962D01*
X159785820Y-101419410D01*
X159785821Y-101419413D01*
X159801669Y-101437968D01*
X159940031Y-101599969D01*
X159995094Y-101646997D01*
X160120586Y-101754178D01*
X160120589Y-101754179D01*
X160323037Y-101878240D01*
X160323040Y-101878242D01*
X160542403Y-101969104D01*
X160542404Y-101969104D01*
X160542406Y-101969105D01*
X160773289Y-102024535D01*
X161010000Y-102043165D01*
X161246711Y-102024535D01*
X161477594Y-101969105D01*
X161477596Y-101969104D01*
X161477597Y-101969104D01*
X161696959Y-101878242D01*
X161696960Y-101878241D01*
X161696963Y-101878240D01*
X161899416Y-101754176D01*
X162079969Y-101599969D01*
X162214722Y-101442192D01*
X162273228Y-101404001D01*
X162321804Y-101399388D01*
X162326564Y-101399881D01*
X163058871Y-100667574D01*
X163074755Y-100726853D01*
X163141898Y-100843147D01*
X163236853Y-100938102D01*
X163353147Y-101005245D01*
X163412425Y-101021128D01*
X162679943Y-101753609D01*
X162726768Y-101790055D01*
X162726771Y-101790057D01*
X162945385Y-101908364D01*
X162945396Y-101908369D01*
X163180506Y-101989083D01*
X163425707Y-102030000D01*
X163674293Y-102030000D01*
X163919493Y-101989083D01*
X164154603Y-101908369D01*
X164154614Y-101908364D01*
X164373230Y-101790056D01*
X164373236Y-101790051D01*
X164420055Y-101753610D01*
X164420056Y-101753609D01*
X163687574Y-101021128D01*
X163746853Y-101005245D01*
X163863147Y-100938102D01*
X163958102Y-100843147D01*
X164025245Y-100726853D01*
X164041128Y-100667574D01*
X164773434Y-101399881D01*
X164778196Y-101399388D01*
X164846909Y-101412051D01*
X164885276Y-101442192D01*
X165020031Y-101599969D01*
X165075094Y-101646997D01*
X165200586Y-101754178D01*
X165200589Y-101754179D01*
X165403037Y-101878240D01*
X165403040Y-101878242D01*
X165622403Y-101969104D01*
X165622404Y-101969104D01*
X165622406Y-101969105D01*
X165853289Y-102024535D01*
X166090000Y-102043165D01*
X166326711Y-102024535D01*
X166557594Y-101969105D01*
X166557596Y-101969104D01*
X166557597Y-101969104D01*
X166776959Y-101878242D01*
X166776960Y-101878241D01*
X166776963Y-101878240D01*
X166979416Y-101754176D01*
X167159969Y-101599969D01*
X167265711Y-101476160D01*
X167324216Y-101437968D01*
X167394084Y-101437469D01*
X167453131Y-101474823D01*
X167454200Y-101476057D01*
X167560030Y-101599968D01*
X167560031Y-101599969D01*
X167740586Y-101754178D01*
X167740589Y-101754179D01*
X167943037Y-101878240D01*
X167943040Y-101878242D01*
X168162403Y-101969104D01*
X168162404Y-101969104D01*
X168162406Y-101969105D01*
X168393289Y-102024535D01*
X168630000Y-102043165D01*
X168866711Y-102024535D01*
X169097594Y-101969105D01*
X169097596Y-101969104D01*
X169097597Y-101969104D01*
X169316959Y-101878242D01*
X169316960Y-101878241D01*
X169316963Y-101878240D01*
X169519416Y-101754176D01*
X169699969Y-101599969D01*
X169805711Y-101476160D01*
X169864216Y-101437968D01*
X169934084Y-101437469D01*
X169993131Y-101474823D01*
X169994200Y-101476057D01*
X170100030Y-101599968D01*
X170100031Y-101599969D01*
X170280586Y-101754178D01*
X170280589Y-101754179D01*
X170483037Y-101878240D01*
X170483040Y-101878242D01*
X170702403Y-101969104D01*
X170702404Y-101969104D01*
X170702406Y-101969105D01*
X170933289Y-102024535D01*
X171170000Y-102043165D01*
X171406711Y-102024535D01*
X171637594Y-101969105D01*
X171637596Y-101969104D01*
X171637597Y-101969104D01*
X171856959Y-101878242D01*
X171856960Y-101878241D01*
X171856963Y-101878240D01*
X172059416Y-101754176D01*
X172239969Y-101599969D01*
X172345711Y-101476160D01*
X172404216Y-101437968D01*
X172474084Y-101437469D01*
X172533131Y-101474823D01*
X172534200Y-101476057D01*
X172640030Y-101599968D01*
X172640031Y-101599969D01*
X172820586Y-101754178D01*
X172820589Y-101754179D01*
X173023037Y-101878240D01*
X173023040Y-101878242D01*
X173242403Y-101969104D01*
X173242404Y-101969104D01*
X173242406Y-101969105D01*
X173473289Y-102024535D01*
X173710000Y-102043165D01*
X173946711Y-102024535D01*
X174177594Y-101969105D01*
X174177596Y-101969104D01*
X174177597Y-101969104D01*
X174396959Y-101878242D01*
X174396960Y-101878241D01*
X174396963Y-101878240D01*
X174599416Y-101754176D01*
X174779969Y-101599969D01*
X174885711Y-101476160D01*
X174944216Y-101437968D01*
X175014084Y-101437469D01*
X175073131Y-101474823D01*
X175074200Y-101476057D01*
X175180030Y-101599968D01*
X175180031Y-101599969D01*
X175360586Y-101754178D01*
X175360589Y-101754179D01*
X175563037Y-101878240D01*
X175563040Y-101878242D01*
X175782403Y-101969104D01*
X175782404Y-101969104D01*
X175782406Y-101969105D01*
X176013289Y-102024535D01*
X176250000Y-102043165D01*
X176486711Y-102024535D01*
X176717594Y-101969105D01*
X176717596Y-101969104D01*
X176717597Y-101969104D01*
X176936959Y-101878242D01*
X176936960Y-101878241D01*
X176936963Y-101878240D01*
X177139416Y-101754176D01*
X177319969Y-101599969D01*
X177425711Y-101476160D01*
X177484216Y-101437968D01*
X177554084Y-101437469D01*
X177613131Y-101474823D01*
X177614200Y-101476057D01*
X177720030Y-101599968D01*
X177720031Y-101599969D01*
X177900586Y-101754178D01*
X177900589Y-101754179D01*
X178103037Y-101878240D01*
X178103040Y-101878242D01*
X178322403Y-101969104D01*
X178322404Y-101969104D01*
X178322406Y-101969105D01*
X178553289Y-102024535D01*
X178790000Y-102043165D01*
X179026711Y-102024535D01*
X179257594Y-101969105D01*
X179257596Y-101969104D01*
X179257597Y-101969104D01*
X179476959Y-101878242D01*
X179476960Y-101878241D01*
X179476963Y-101878240D01*
X179679416Y-101754176D01*
X179859969Y-101599969D01*
X179965711Y-101476160D01*
X180024216Y-101437968D01*
X180094084Y-101437469D01*
X180153131Y-101474823D01*
X180154200Y-101476057D01*
X180260030Y-101599968D01*
X180260031Y-101599969D01*
X180440586Y-101754178D01*
X180440589Y-101754179D01*
X180643037Y-101878240D01*
X180643040Y-101878242D01*
X180862403Y-101969104D01*
X180862404Y-101969104D01*
X180862406Y-101969105D01*
X181093289Y-102024535D01*
X181330000Y-102043165D01*
X181566711Y-102024535D01*
X181797594Y-101969105D01*
X181797596Y-101969104D01*
X181797597Y-101969104D01*
X182016959Y-101878242D01*
X182016960Y-101878241D01*
X182016963Y-101878240D01*
X182219416Y-101754176D01*
X182399969Y-101599969D01*
X182505711Y-101476160D01*
X182564216Y-101437968D01*
X182634084Y-101437469D01*
X182693131Y-101474823D01*
X182694200Y-101476057D01*
X182800030Y-101599968D01*
X182800031Y-101599969D01*
X182980586Y-101754178D01*
X182980589Y-101754179D01*
X183183037Y-101878240D01*
X183183040Y-101878242D01*
X183402403Y-101969104D01*
X183402404Y-101969104D01*
X183402406Y-101969105D01*
X183633289Y-102024535D01*
X183870000Y-102043165D01*
X184106711Y-102024535D01*
X184337594Y-101969105D01*
X184337596Y-101969104D01*
X184337597Y-101969104D01*
X184556959Y-101878242D01*
X184556960Y-101878241D01*
X184556963Y-101878240D01*
X184759416Y-101754176D01*
X184939969Y-101599969D01*
X185045711Y-101476160D01*
X185104216Y-101437968D01*
X185174084Y-101437469D01*
X185233131Y-101474823D01*
X185234200Y-101476057D01*
X185340030Y-101599968D01*
X185340031Y-101599969D01*
X185520586Y-101754178D01*
X185520589Y-101754179D01*
X185723037Y-101878240D01*
X185723040Y-101878242D01*
X185942403Y-101969104D01*
X185942404Y-101969104D01*
X185942406Y-101969105D01*
X186173289Y-102024535D01*
X186410000Y-102043165D01*
X186646711Y-102024535D01*
X186877594Y-101969105D01*
X186877596Y-101969104D01*
X186877597Y-101969104D01*
X187096959Y-101878242D01*
X187096960Y-101878241D01*
X187096963Y-101878240D01*
X187299416Y-101754176D01*
X187479969Y-101599969D01*
X187585711Y-101476160D01*
X187644216Y-101437968D01*
X187714084Y-101437469D01*
X187773131Y-101474823D01*
X187774200Y-101476057D01*
X187880030Y-101599968D01*
X187880031Y-101599969D01*
X188060586Y-101754178D01*
X188060589Y-101754179D01*
X188263037Y-101878240D01*
X188263040Y-101878242D01*
X188482403Y-101969104D01*
X188482404Y-101969104D01*
X188482406Y-101969105D01*
X188713289Y-102024535D01*
X188950000Y-102043165D01*
X189186711Y-102024535D01*
X189417594Y-101969105D01*
X189417596Y-101969104D01*
X189417597Y-101969104D01*
X189636959Y-101878242D01*
X189636960Y-101878241D01*
X189636963Y-101878240D01*
X189839416Y-101754176D01*
X190019969Y-101599969D01*
X190125711Y-101476160D01*
X190184216Y-101437968D01*
X190254084Y-101437469D01*
X190313131Y-101474823D01*
X190314200Y-101476057D01*
X190420030Y-101599968D01*
X190420031Y-101599969D01*
X190600586Y-101754178D01*
X190600589Y-101754179D01*
X190803037Y-101878240D01*
X190803040Y-101878242D01*
X191022403Y-101969104D01*
X191022404Y-101969104D01*
X191022406Y-101969105D01*
X191253289Y-102024535D01*
X191490000Y-102043165D01*
X191726711Y-102024535D01*
X191957594Y-101969105D01*
X191957596Y-101969104D01*
X191957597Y-101969104D01*
X192176959Y-101878242D01*
X192176960Y-101878241D01*
X192176963Y-101878240D01*
X192379416Y-101754176D01*
X192559969Y-101599969D01*
X192665711Y-101476160D01*
X192724216Y-101437968D01*
X192794084Y-101437469D01*
X192853131Y-101474823D01*
X192854200Y-101476057D01*
X192960030Y-101599968D01*
X192960031Y-101599969D01*
X193140586Y-101754178D01*
X193140589Y-101754179D01*
X193343037Y-101878240D01*
X193343040Y-101878242D01*
X193562403Y-101969104D01*
X193562404Y-101969104D01*
X193562406Y-101969105D01*
X193793289Y-102024535D01*
X194030000Y-102043165D01*
X194266711Y-102024535D01*
X194497594Y-101969105D01*
X194497596Y-101969104D01*
X194497597Y-101969104D01*
X194716959Y-101878242D01*
X194716960Y-101878241D01*
X194716963Y-101878240D01*
X194919416Y-101754176D01*
X195099969Y-101599969D01*
X195205711Y-101476160D01*
X195264216Y-101437968D01*
X195334084Y-101437469D01*
X195393131Y-101474823D01*
X195394200Y-101476057D01*
X195500030Y-101599968D01*
X195500031Y-101599969D01*
X195680586Y-101754178D01*
X195680589Y-101754179D01*
X195883037Y-101878240D01*
X195883040Y-101878242D01*
X196102403Y-101969104D01*
X196102404Y-101969104D01*
X196102406Y-101969105D01*
X196333289Y-102024535D01*
X196570000Y-102043165D01*
X196806711Y-102024535D01*
X197037594Y-101969105D01*
X197037596Y-101969104D01*
X197037597Y-101969104D01*
X197256959Y-101878242D01*
X197256960Y-101878241D01*
X197256963Y-101878240D01*
X197459416Y-101754176D01*
X197639969Y-101599969D01*
X197794176Y-101419416D01*
X197809561Y-101394309D01*
X197861373Y-101347434D01*
X197930303Y-101336011D01*
X197994466Y-101363668D01*
X198033490Y-101421623D01*
X198035059Y-101426990D01*
X198047876Y-101474823D01*
X198094009Y-101646995D01*
X198194761Y-101890234D01*
X198194769Y-101890250D01*
X198326409Y-102118256D01*
X198486687Y-102327136D01*
X198486693Y-102327143D01*
X198672856Y-102513306D01*
X198672863Y-102513312D01*
X198881743Y-102673590D01*
X199109749Y-102805230D01*
X199109765Y-102805238D01*
X199261451Y-102868068D01*
X199353003Y-102905990D01*
X199607320Y-102974134D01*
X199868356Y-103008500D01*
X199868363Y-103008500D01*
X200131637Y-103008500D01*
X200131644Y-103008500D01*
X200392680Y-102974134D01*
X200646997Y-102905990D01*
X200830099Y-102830146D01*
X200890234Y-102805238D01*
X200890237Y-102805236D01*
X200890243Y-102805234D01*
X201118257Y-102673590D01*
X201327138Y-102513311D01*
X201513311Y-102327138D01*
X201673590Y-102118257D01*
X201805234Y-101890243D01*
X201905990Y-101646997D01*
X201974134Y-101392680D01*
X202008500Y-101131644D01*
X202008500Y-100868356D01*
X201974134Y-100607320D01*
X201905990Y-100353003D01*
X201832858Y-100176446D01*
X201805238Y-100109765D01*
X201805230Y-100109749D01*
X201673590Y-99881743D01*
X201513312Y-99672863D01*
X201513306Y-99672856D01*
X201327143Y-99486693D01*
X201327136Y-99486687D01*
X201118256Y-99326409D01*
X200890250Y-99194769D01*
X200890234Y-99194761D01*
X200646995Y-99094009D01*
X200392678Y-99025865D01*
X200131653Y-98991501D01*
X200131650Y-98991500D01*
X200131644Y-98991500D01*
X199868356Y-98991500D01*
X199868350Y-98991500D01*
X199868346Y-98991501D01*
X199607321Y-99025865D01*
X199353004Y-99094009D01*
X199109765Y-99194761D01*
X199109749Y-99194769D01*
X198881743Y-99326409D01*
X198672863Y-99486687D01*
X198672856Y-99486693D01*
X198486693Y-99672856D01*
X198486687Y-99672863D01*
X198326409Y-99881743D01*
X198223806Y-100059456D01*
X198173239Y-100107672D01*
X198104632Y-100120894D01*
X198039767Y-100094926D01*
X198001858Y-100044909D01*
X197918240Y-99843036D01*
X197794179Y-99640589D01*
X197794178Y-99640586D01*
X197693142Y-99522289D01*
X197639969Y-99460031D01*
X197460078Y-99306389D01*
X197459413Y-99305821D01*
X197459410Y-99305820D01*
X197256962Y-99181759D01*
X197256959Y-99181757D01*
X197037596Y-99090895D01*
X196806714Y-99035465D01*
X196570000Y-99016835D01*
X196333285Y-99035465D01*
X196102404Y-99090895D01*
X196102402Y-99090895D01*
X195883040Y-99181757D01*
X195883037Y-99181759D01*
X195680589Y-99305820D01*
X195680586Y-99305821D01*
X195500031Y-99460031D01*
X195477260Y-99486693D01*
X195394290Y-99583838D01*
X195335783Y-99622031D01*
X195265915Y-99622529D01*
X195206869Y-99585176D01*
X195205710Y-99583838D01*
X195099969Y-99460031D01*
X194920078Y-99306389D01*
X194919413Y-99305821D01*
X194919410Y-99305820D01*
X194716962Y-99181759D01*
X194716959Y-99181757D01*
X194497596Y-99090895D01*
X194266714Y-99035465D01*
X194030000Y-99016835D01*
X193793285Y-99035465D01*
X193562404Y-99090895D01*
X193562402Y-99090895D01*
X193343040Y-99181757D01*
X193343037Y-99181759D01*
X193140589Y-99305820D01*
X193140586Y-99305821D01*
X192960031Y-99460031D01*
X192937260Y-99486693D01*
X192854290Y-99583838D01*
X192795783Y-99622031D01*
X192725915Y-99622529D01*
X192666869Y-99585176D01*
X192665710Y-99583838D01*
X192559969Y-99460031D01*
X192380078Y-99306389D01*
X192379413Y-99305821D01*
X192379410Y-99305820D01*
X192176962Y-99181759D01*
X192176959Y-99181757D01*
X191957596Y-99090895D01*
X191726714Y-99035465D01*
X191490000Y-99016835D01*
X191253285Y-99035465D01*
X191022404Y-99090895D01*
X191022402Y-99090895D01*
X190803040Y-99181757D01*
X190803037Y-99181759D01*
X190600589Y-99305820D01*
X190600586Y-99305821D01*
X190420031Y-99460031D01*
X190397260Y-99486693D01*
X190314290Y-99583838D01*
X190255783Y-99622031D01*
X190185915Y-99622529D01*
X190126869Y-99585176D01*
X190125710Y-99583838D01*
X190019969Y-99460031D01*
X189840078Y-99306389D01*
X189839413Y-99305821D01*
X189839410Y-99305820D01*
X189636962Y-99181759D01*
X189636959Y-99181757D01*
X189417596Y-99090895D01*
X189186714Y-99035465D01*
X188950000Y-99016835D01*
X188713285Y-99035465D01*
X188482404Y-99090895D01*
X188482402Y-99090895D01*
X188263040Y-99181757D01*
X188263037Y-99181759D01*
X188060589Y-99305820D01*
X188060586Y-99305821D01*
X187880031Y-99460031D01*
X187857260Y-99486693D01*
X187774290Y-99583838D01*
X187715783Y-99622031D01*
X187645915Y-99622529D01*
X187586869Y-99585176D01*
X187585710Y-99583838D01*
X187479969Y-99460031D01*
X187300078Y-99306389D01*
X187299413Y-99305821D01*
X187299410Y-99305820D01*
X187096962Y-99181759D01*
X187096959Y-99181757D01*
X186877596Y-99090895D01*
X186646714Y-99035465D01*
X186410000Y-99016835D01*
X186173285Y-99035465D01*
X185942404Y-99090895D01*
X185942402Y-99090895D01*
X185723040Y-99181757D01*
X185723037Y-99181759D01*
X185520589Y-99305820D01*
X185520586Y-99305821D01*
X185340031Y-99460031D01*
X185317260Y-99486693D01*
X185234290Y-99583838D01*
X185175783Y-99622031D01*
X185105915Y-99622529D01*
X185046869Y-99585176D01*
X185045710Y-99583838D01*
X184939969Y-99460031D01*
X184760078Y-99306389D01*
X184759413Y-99305821D01*
X184759410Y-99305820D01*
X184556962Y-99181759D01*
X184556959Y-99181757D01*
X184337596Y-99090895D01*
X184106714Y-99035465D01*
X183870000Y-99016835D01*
X183633285Y-99035465D01*
X183402404Y-99090895D01*
X183402402Y-99090895D01*
X183183040Y-99181757D01*
X183183037Y-99181759D01*
X182980589Y-99305820D01*
X182980586Y-99305821D01*
X182800031Y-99460031D01*
X182777260Y-99486693D01*
X182694290Y-99583838D01*
X182635783Y-99622031D01*
X182565915Y-99622529D01*
X182506869Y-99585176D01*
X182505710Y-99583838D01*
X182399969Y-99460031D01*
X182220078Y-99306389D01*
X182219413Y-99305821D01*
X182219410Y-99305820D01*
X182016962Y-99181759D01*
X182016959Y-99181757D01*
X181797596Y-99090895D01*
X181566714Y-99035465D01*
X181330000Y-99016835D01*
X181093285Y-99035465D01*
X180862404Y-99090895D01*
X180862402Y-99090895D01*
X180643040Y-99181757D01*
X180643037Y-99181759D01*
X180440589Y-99305820D01*
X180440586Y-99305821D01*
X180260031Y-99460031D01*
X180237260Y-99486693D01*
X180154290Y-99583838D01*
X180095783Y-99622031D01*
X180025915Y-99622529D01*
X179966869Y-99585176D01*
X179965710Y-99583838D01*
X179859969Y-99460031D01*
X179680078Y-99306389D01*
X179679413Y-99305821D01*
X179679410Y-99305820D01*
X179476962Y-99181759D01*
X179476959Y-99181757D01*
X179257596Y-99090895D01*
X179026714Y-99035465D01*
X178790000Y-99016835D01*
X178553285Y-99035465D01*
X178322404Y-99090895D01*
X178322402Y-99090895D01*
X178103040Y-99181757D01*
X178103037Y-99181759D01*
X177900589Y-99305820D01*
X177900586Y-99305821D01*
X177720031Y-99460031D01*
X177697260Y-99486693D01*
X177614290Y-99583838D01*
X177555783Y-99622031D01*
X177485915Y-99622529D01*
X177426869Y-99585176D01*
X177425710Y-99583838D01*
X177319969Y-99460031D01*
X177140078Y-99306389D01*
X177139413Y-99305821D01*
X177139410Y-99305820D01*
X176936962Y-99181759D01*
X176936959Y-99181757D01*
X176717596Y-99090895D01*
X176486714Y-99035465D01*
X176250000Y-99016835D01*
X176013285Y-99035465D01*
X175782404Y-99090895D01*
X175782402Y-99090895D01*
X175563040Y-99181757D01*
X175563037Y-99181759D01*
X175360589Y-99305820D01*
X175360586Y-99305821D01*
X175180031Y-99460031D01*
X175157260Y-99486693D01*
X175074290Y-99583838D01*
X175015783Y-99622031D01*
X174945915Y-99622529D01*
X174886869Y-99585176D01*
X174885710Y-99583838D01*
X174779969Y-99460031D01*
X174600078Y-99306389D01*
X174599413Y-99305821D01*
X174599410Y-99305820D01*
X174396962Y-99181759D01*
X174396959Y-99181757D01*
X174177596Y-99090895D01*
X173946714Y-99035465D01*
X173710000Y-99016835D01*
X173473285Y-99035465D01*
X173242404Y-99090895D01*
X173242402Y-99090895D01*
X173023040Y-99181757D01*
X173023037Y-99181759D01*
X172820589Y-99305820D01*
X172820586Y-99305821D01*
X172640031Y-99460031D01*
X172617260Y-99486693D01*
X172534290Y-99583838D01*
X172475783Y-99622031D01*
X172405915Y-99622529D01*
X172346869Y-99585176D01*
X172345710Y-99583838D01*
X172239969Y-99460031D01*
X172060078Y-99306389D01*
X172059413Y-99305821D01*
X172059410Y-99305820D01*
X171856962Y-99181759D01*
X171856959Y-99181757D01*
X171637596Y-99090895D01*
X171406714Y-99035465D01*
X171170000Y-99016835D01*
X170933285Y-99035465D01*
X170702404Y-99090895D01*
X170702402Y-99090895D01*
X170483040Y-99181757D01*
X170483037Y-99181759D01*
X170280589Y-99305820D01*
X170280586Y-99305821D01*
X170100031Y-99460031D01*
X170077260Y-99486693D01*
X169994290Y-99583838D01*
X169935783Y-99622031D01*
X169865915Y-99622529D01*
X169806869Y-99585176D01*
X169805710Y-99583838D01*
X169699969Y-99460031D01*
X169520078Y-99306389D01*
X169519413Y-99305821D01*
X169519410Y-99305820D01*
X169316962Y-99181759D01*
X169316959Y-99181757D01*
X169097596Y-99090895D01*
X168866714Y-99035465D01*
X168630000Y-99016835D01*
X168393285Y-99035465D01*
X168162404Y-99090895D01*
X168162402Y-99090895D01*
X167943040Y-99181757D01*
X167943037Y-99181759D01*
X167740589Y-99305820D01*
X167740586Y-99305821D01*
X167560031Y-99460031D01*
X167537260Y-99486693D01*
X167454290Y-99583838D01*
X167395783Y-99622031D01*
X167325915Y-99622529D01*
X167266869Y-99585176D01*
X167265710Y-99583838D01*
X167159969Y-99460031D01*
X166980078Y-99306389D01*
X166979413Y-99305821D01*
X166979410Y-99305820D01*
X166776962Y-99181759D01*
X166776959Y-99181757D01*
X166557596Y-99090895D01*
X166326714Y-99035465D01*
X166090000Y-99016835D01*
X165853285Y-99035465D01*
X165622404Y-99090895D01*
X165622402Y-99090895D01*
X165403040Y-99181757D01*
X165403037Y-99181759D01*
X165200589Y-99305820D01*
X165200586Y-99305821D01*
X165020031Y-99460031D01*
X164885279Y-99617804D01*
X164826772Y-99655997D01*
X164778198Y-99660611D01*
X164773435Y-99660117D01*
X164041128Y-100392424D01*
X164025245Y-100333147D01*
X163958102Y-100216853D01*
X163863147Y-100121898D01*
X163746853Y-100054755D01*
X163687574Y-100038871D01*
X164420055Y-99306389D01*
X164420055Y-99306388D01*
X164373236Y-99269947D01*
X164373231Y-99269944D01*
X164154614Y-99151635D01*
X164154603Y-99151630D01*
X163919493Y-99070916D01*
X163674293Y-99030000D01*
X163425707Y-99030000D01*
X163180506Y-99070916D01*
X162945396Y-99151630D01*
X162945385Y-99151635D01*
X162726770Y-99269943D01*
X162679943Y-99306389D01*
X163412425Y-100038871D01*
X163353147Y-100054755D01*
X163236853Y-100121898D01*
X163141898Y-100216853D01*
X163074755Y-100333147D01*
X163058871Y-100392424D01*
X162326563Y-99660116D01*
X162321800Y-99660611D01*
X162253087Y-99647946D01*
X162214719Y-99617803D01*
X162079971Y-99460033D01*
X161899413Y-99305821D01*
X161899410Y-99305820D01*
X161696962Y-99181759D01*
X161696959Y-99181757D01*
X161477596Y-99090895D01*
X161246714Y-99035465D01*
X161010000Y-99016835D01*
X160773285Y-99035465D01*
X160542404Y-99090895D01*
X160542402Y-99090895D01*
X160323040Y-99181757D01*
X160323037Y-99181759D01*
X160120589Y-99305820D01*
X160120586Y-99305821D01*
X159940031Y-99460031D01*
X159785821Y-99640586D01*
X159785820Y-99640589D01*
X159661759Y-99843037D01*
X159661757Y-99843040D01*
X159570895Y-100062402D01*
X159570895Y-100062404D01*
X159515465Y-100293285D01*
X159496835Y-100530000D01*
X157008500Y-100530000D01*
X157008500Y-100469095D01*
X157028185Y-100402056D01*
X157044814Y-100381419D01*
X158781598Y-98644634D01*
X158824482Y-98616691D01*
X159018600Y-98541489D01*
X159024400Y-98537897D01*
X159041884Y-98527073D01*
X159107161Y-98508500D01*
X174599330Y-98508500D01*
X174599331Y-98508499D01*
X174794169Y-98469744D01*
X174977704Y-98393721D01*
X175142881Y-98283353D01*
X175283353Y-98142881D01*
X189570491Y-83855742D01*
X194901500Y-83855742D01*
X194901500Y-84064257D01*
X194942175Y-84268745D01*
X194942177Y-84268753D01*
X195021967Y-84461385D01*
X195021972Y-84461394D01*
X195137808Y-84634754D01*
X195137811Y-84634758D01*
X195285241Y-84782188D01*
X195285245Y-84782191D01*
X195458605Y-84898027D01*
X195458611Y-84898030D01*
X195458612Y-84898031D01*
X195651247Y-84977823D01*
X195855742Y-85018499D01*
X195855746Y-85018500D01*
X195855747Y-85018500D01*
X196064254Y-85018500D01*
X196064255Y-85018499D01*
X196268753Y-84977823D01*
X196461388Y-84898031D01*
X196634755Y-84782191D01*
X196634758Y-84782188D01*
X196679819Y-84737128D01*
X196741142Y-84703643D01*
X196810834Y-84708627D01*
X196866767Y-84750499D01*
X196891184Y-84815963D01*
X196891500Y-84824809D01*
X196891500Y-85108654D01*
X196898011Y-85169202D01*
X196898011Y-85169204D01*
X196943364Y-85290795D01*
X196949111Y-85306204D01*
X197036739Y-85423261D01*
X197115308Y-85482077D01*
X197157179Y-85538011D01*
X197162163Y-85607703D01*
X197146725Y-85646133D01*
X197069979Y-85771370D01*
X197034850Y-85856182D01*
X196991009Y-85910585D01*
X196924715Y-85932650D01*
X196857016Y-85915371D01*
X196817187Y-85877619D01*
X196782194Y-85825249D01*
X196782188Y-85825241D01*
X196634758Y-85677811D01*
X196634754Y-85677808D01*
X196461394Y-85561972D01*
X196461385Y-85561967D01*
X196268753Y-85482177D01*
X196268745Y-85482175D01*
X196064257Y-85441500D01*
X196064253Y-85441500D01*
X195855747Y-85441500D01*
X195855742Y-85441500D01*
X195651254Y-85482175D01*
X195651246Y-85482177D01*
X195458614Y-85561967D01*
X195458605Y-85561972D01*
X195285245Y-85677808D01*
X195285241Y-85677811D01*
X195137811Y-85825241D01*
X195137808Y-85825245D01*
X195021972Y-85998605D01*
X195021967Y-85998614D01*
X194942177Y-86191246D01*
X194942175Y-86191254D01*
X194901500Y-86395742D01*
X194901500Y-86604257D01*
X194942175Y-86808745D01*
X194942177Y-86808753D01*
X195021967Y-87001385D01*
X195021972Y-87001394D01*
X195137808Y-87174754D01*
X195137811Y-87174758D01*
X195285241Y-87322188D01*
X195285245Y-87322191D01*
X195458605Y-87438027D01*
X195458614Y-87438032D01*
X195473457Y-87444180D01*
X195651247Y-87517823D01*
X195855742Y-87558499D01*
X195855746Y-87558500D01*
X195855747Y-87558500D01*
X196064254Y-87558500D01*
X196064255Y-87558499D01*
X196268753Y-87517823D01*
X196461388Y-87438031D01*
X196634755Y-87322191D01*
X196782191Y-87174755D01*
X196817187Y-87122378D01*
X196870798Y-87077575D01*
X196940123Y-87068866D01*
X197003151Y-87099021D01*
X197034850Y-87143818D01*
X197069978Y-87228627D01*
X197069980Y-87228630D01*
X197201568Y-87443362D01*
X197202266Y-87444179D01*
X197976212Y-86670233D01*
X197987482Y-86712292D01*
X198059890Y-86837708D01*
X198162292Y-86940110D01*
X198287708Y-87012518D01*
X198329765Y-87023787D01*
X197555819Y-87797732D01*
X197555819Y-87797733D01*
X197556634Y-87798429D01*
X197771368Y-87930019D01*
X198004043Y-88026396D01*
X198248927Y-88085187D01*
X198500000Y-88104947D01*
X198751072Y-88085187D01*
X198995956Y-88026396D01*
X199228631Y-87930019D01*
X199443361Y-87798432D01*
X199443363Y-87798430D01*
X199444180Y-87797732D01*
X198670234Y-87023787D01*
X198712292Y-87012518D01*
X198837708Y-86940110D01*
X198940110Y-86837708D01*
X199012518Y-86712292D01*
X199023787Y-86670234D01*
X199797732Y-87444180D01*
X199798430Y-87443363D01*
X199798432Y-87443361D01*
X199930019Y-87228631D01*
X200026396Y-86995956D01*
X200085187Y-86751072D01*
X200104947Y-86500000D01*
X200085187Y-86248927D01*
X200026396Y-86004043D01*
X199930019Y-85771368D01*
X199853275Y-85646134D01*
X199835030Y-85578688D01*
X199856146Y-85512086D01*
X199884692Y-85482077D01*
X199963261Y-85423261D01*
X200050889Y-85306204D01*
X200101989Y-85169201D01*
X200105591Y-85135692D01*
X200108499Y-85108654D01*
X200108500Y-85108637D01*
X200108500Y-82811362D01*
X200108499Y-82811345D01*
X200105157Y-82780270D01*
X200101989Y-82750799D01*
X200050889Y-82613796D01*
X199963261Y-82496739D01*
X199846204Y-82409111D01*
X199709203Y-82358011D01*
X199648654Y-82351500D01*
X199648638Y-82351500D01*
X197351362Y-82351500D01*
X197351345Y-82351500D01*
X197290797Y-82358011D01*
X197290795Y-82358011D01*
X197153795Y-82409111D01*
X197036739Y-82496739D01*
X196949111Y-82613795D01*
X196898011Y-82750795D01*
X196898011Y-82750797D01*
X196891500Y-82811345D01*
X196891500Y-83095191D01*
X196871815Y-83162230D01*
X196819011Y-83207985D01*
X196749853Y-83217929D01*
X196686297Y-83188904D01*
X196679819Y-83182872D01*
X196634758Y-83137811D01*
X196634754Y-83137808D01*
X196461394Y-83021972D01*
X196461385Y-83021967D01*
X196268753Y-82942177D01*
X196268745Y-82942175D01*
X196064257Y-82901500D01*
X196064253Y-82901500D01*
X195855747Y-82901500D01*
X195855742Y-82901500D01*
X195651254Y-82942175D01*
X195651246Y-82942177D01*
X195458614Y-83021967D01*
X195458605Y-83021972D01*
X195285245Y-83137808D01*
X195285241Y-83137811D01*
X195137811Y-83285241D01*
X195137808Y-83285245D01*
X195021972Y-83458605D01*
X195021967Y-83458614D01*
X194942177Y-83651246D01*
X194942175Y-83651254D01*
X194901500Y-83855742D01*
X189570491Y-83855742D01*
X198781598Y-74644634D01*
X198824482Y-74616691D01*
X199018600Y-74541489D01*
X199201143Y-74428464D01*
X199359810Y-74283820D01*
X199489196Y-74112484D01*
X199584897Y-73920291D01*
X199607481Y-73840911D01*
X199639065Y-73787167D01*
X201391353Y-72034881D01*
X201501721Y-71869704D01*
X201577744Y-71686169D01*
X201616500Y-71491329D01*
X201616500Y-71292671D01*
X201616500Y-50008671D01*
X201577744Y-49813831D01*
X201501721Y-49630296D01*
X201501720Y-49630295D01*
X201501717Y-49630289D01*
X201391354Y-49465120D01*
X201384745Y-49458511D01*
X201250881Y-49324647D01*
X201097828Y-49171594D01*
X194299637Y-42373402D01*
X198391500Y-42373402D01*
X198391500Y-42626597D01*
X198420152Y-42807498D01*
X198431106Y-42876658D01*
X198509344Y-43117450D01*
X198624287Y-43343038D01*
X198773105Y-43547868D01*
X198952132Y-43726895D01*
X199156962Y-43875713D01*
X199382550Y-43990656D01*
X199623342Y-44068894D01*
X199752176Y-44089299D01*
X199873403Y-44108500D01*
X199873408Y-44108500D01*
X200126597Y-44108500D01*
X200243398Y-44090000D01*
X200376658Y-44068894D01*
X200617450Y-43990656D01*
X200843038Y-43875713D01*
X201047868Y-43726895D01*
X201226895Y-43547868D01*
X201375713Y-43343038D01*
X201490656Y-43117450D01*
X201568894Y-42876658D01*
X201590996Y-42737108D01*
X201608500Y-42626597D01*
X201608500Y-42373402D01*
X201580295Y-42195329D01*
X201568894Y-42123342D01*
X201490656Y-41882550D01*
X201375713Y-41656962D01*
X201226895Y-41452132D01*
X201047868Y-41273105D01*
X200843038Y-41124287D01*
X200617450Y-41009344D01*
X200376658Y-40931106D01*
X200126597Y-40891500D01*
X200126592Y-40891500D01*
X199873408Y-40891500D01*
X199873403Y-40891500D01*
X199623341Y-40931106D01*
X199382547Y-41009345D01*
X199156961Y-41124287D01*
X199040098Y-41209193D01*
X198952132Y-41273105D01*
X198952130Y-41273107D01*
X198952129Y-41273107D01*
X198773107Y-41452129D01*
X198773107Y-41452130D01*
X198773105Y-41452132D01*
X198737314Y-41501394D01*
X198624287Y-41656961D01*
X198509345Y-41882547D01*
X198431106Y-42123341D01*
X198391500Y-42373402D01*
X194299637Y-42373402D01*
X194142884Y-42216649D01*
X194142880Y-42216646D01*
X193977710Y-42106282D01*
X193977697Y-42106275D01*
X193906389Y-42076739D01*
X193906388Y-42076739D01*
X193794169Y-42030256D01*
X193794161Y-42030254D01*
X193599333Y-41991500D01*
X193599329Y-41991500D01*
X164240634Y-41991500D01*
X164173595Y-41971815D01*
X164169525Y-41969084D01*
X164116597Y-41932024D01*
X163921777Y-41841178D01*
X163921774Y-41841177D01*
X163921772Y-41841176D01*
X163714144Y-41785542D01*
X163714136Y-41785541D01*
X163500002Y-41766807D01*
X163499998Y-41766807D01*
X163285863Y-41785541D01*
X163285855Y-41785542D01*
X163078227Y-41841176D01*
X163078221Y-41841179D01*
X162883405Y-41932023D01*
X162883403Y-41932024D01*
X162707316Y-42055320D01*
X162555320Y-42207316D01*
X162432024Y-42383403D01*
X162432023Y-42383405D01*
X162342382Y-42575641D01*
X162296209Y-42628080D01*
X162229016Y-42647232D01*
X162162135Y-42627016D01*
X162117618Y-42575641D01*
X162035296Y-42399102D01*
X162027976Y-42383404D01*
X161911214Y-42216649D01*
X161904679Y-42207316D01*
X161752682Y-42055319D01*
X161576601Y-41932026D01*
X161576597Y-41932024D01*
X161560923Y-41924715D01*
X161381777Y-41841178D01*
X161381774Y-41841177D01*
X161381772Y-41841176D01*
X161174144Y-41785542D01*
X161174136Y-41785541D01*
X160960002Y-41766807D01*
X160959998Y-41766807D01*
X160745863Y-41785541D01*
X160745855Y-41785542D01*
X160538227Y-41841176D01*
X160538221Y-41841179D01*
X160343405Y-41932023D01*
X160343403Y-41932024D01*
X160167316Y-42055320D01*
X160015320Y-42207316D01*
X159892024Y-42383403D01*
X159892023Y-42383405D01*
X159802382Y-42575641D01*
X159756209Y-42628080D01*
X159689016Y-42647232D01*
X159622135Y-42627016D01*
X159577618Y-42575641D01*
X159495296Y-42399102D01*
X159487976Y-42383404D01*
X159371214Y-42216649D01*
X159364679Y-42207316D01*
X159212682Y-42055319D01*
X159036601Y-41932026D01*
X159036597Y-41932024D01*
X159020923Y-41924715D01*
X158841777Y-41841178D01*
X158841774Y-41841177D01*
X158841772Y-41841176D01*
X158634144Y-41785542D01*
X158634136Y-41785541D01*
X158420002Y-41766807D01*
X158419998Y-41766807D01*
X158205863Y-41785541D01*
X158205855Y-41785542D01*
X157998227Y-41841176D01*
X157998221Y-41841179D01*
X157803405Y-41932023D01*
X157803403Y-41932024D01*
X157627316Y-42055320D01*
X157475320Y-42207316D01*
X157352024Y-42383403D01*
X157352023Y-42383405D01*
X157261179Y-42578221D01*
X157261176Y-42578227D01*
X157205542Y-42785855D01*
X157205541Y-42785863D01*
X157186807Y-42999998D01*
X157186807Y-43000001D01*
X157205541Y-43214136D01*
X157205542Y-43214144D01*
X157261176Y-43421772D01*
X157261177Y-43421774D01*
X157261178Y-43421777D01*
X157297654Y-43500000D01*
X157352024Y-43616597D01*
X157352026Y-43616601D01*
X157475319Y-43792682D01*
X157627317Y-43944680D01*
X157803398Y-44067973D01*
X157803400Y-44067974D01*
X157803403Y-44067976D01*
X157998223Y-44158822D01*
X158205858Y-44214458D01*
X158358816Y-44227840D01*
X158419998Y-44233193D01*
X158420000Y-44233193D01*
X158420002Y-44233193D01*
X158473535Y-44228509D01*
X158634142Y-44214458D01*
X158841777Y-44158822D01*
X159036597Y-44067976D01*
X159212681Y-43944681D01*
X159364681Y-43792681D01*
X159487976Y-43616597D01*
X159577618Y-43424356D01*
X159623790Y-43371919D01*
X159690984Y-43352767D01*
X159757865Y-43372983D01*
X159802381Y-43424356D01*
X159837654Y-43500000D01*
X159892024Y-43616597D01*
X159892026Y-43616601D01*
X160015319Y-43792682D01*
X160167317Y-43944680D01*
X160343398Y-44067973D01*
X160343400Y-44067974D01*
X160343403Y-44067976D01*
X160538223Y-44158822D01*
X160745858Y-44214458D01*
X160898816Y-44227840D01*
X160959998Y-44233193D01*
X160960000Y-44233193D01*
X160960002Y-44233193D01*
X161013535Y-44228509D01*
X161174142Y-44214458D01*
X161381777Y-44158822D01*
X161576597Y-44067976D01*
X161752681Y-43944681D01*
X161904681Y-43792681D01*
X162027976Y-43616597D01*
X162117618Y-43424356D01*
X162163790Y-43371919D01*
X162230984Y-43352767D01*
X162297865Y-43372983D01*
X162342381Y-43424356D01*
X162377654Y-43500000D01*
X162432024Y-43616597D01*
X162432026Y-43616601D01*
X162555319Y-43792682D01*
X162707317Y-43944680D01*
X162883398Y-44067973D01*
X162883400Y-44067974D01*
X162883403Y-44067976D01*
X163078223Y-44158822D01*
X163285858Y-44214458D01*
X163438816Y-44227840D01*
X163499998Y-44233193D01*
X163500000Y-44233193D01*
X163500002Y-44233193D01*
X163553535Y-44228509D01*
X163714142Y-44214458D01*
X163921777Y-44158822D01*
X164116597Y-44067976D01*
X164169512Y-44030924D01*
X164235717Y-44008598D01*
X164240634Y-44008500D01*
X193030904Y-44008500D01*
X193097943Y-44028185D01*
X193118585Y-44044819D01*
X198245360Y-49171594D01*
X198278845Y-49232917D01*
X198273861Y-49302609D01*
X198231989Y-49358542D01*
X198186829Y-49378371D01*
X198187117Y-49379382D01*
X198181605Y-49380950D01*
X197981397Y-49458512D01*
X197981393Y-49458514D01*
X197958116Y-49472927D01*
X197892839Y-49491500D01*
X137400666Y-49491500D01*
X137205838Y-49530254D01*
X137205830Y-49530256D01*
X137022298Y-49606277D01*
X137022289Y-49606282D01*
X136857119Y-49716646D01*
X136857115Y-49716649D01*
X133718399Y-52855365D01*
X133675513Y-52883310D01*
X133481399Y-52958511D01*
X133481396Y-52958513D01*
X133298858Y-53071534D01*
X133298856Y-53071536D01*
X133140189Y-53216179D01*
X133140187Y-53216182D01*
X133010805Y-53387512D01*
X132915107Y-53579698D01*
X132915101Y-53579713D01*
X132856347Y-53786212D01*
X132856346Y-53786214D01*
X132836537Y-53999999D01*
X128398500Y-53999999D01*
X128398500Y-53101362D01*
X128398499Y-53101345D01*
X128394672Y-53065759D01*
X128391989Y-53040799D01*
X128340889Y-52903796D01*
X128253261Y-52786739D01*
X128136204Y-52699111D01*
X127999203Y-52648011D01*
X127938654Y-52641500D01*
X127938638Y-52641500D01*
X126141362Y-52641500D01*
X126141345Y-52641500D01*
X126080797Y-52648011D01*
X126080795Y-52648011D01*
X125943795Y-52699111D01*
X125826739Y-52786739D01*
X125739111Y-52903795D01*
X125693861Y-53025111D01*
X125651989Y-53081044D01*
X125586524Y-53105460D01*
X125518252Y-53090607D01*
X125486454Y-53065762D01*
X125423240Y-52997094D01*
X125245576Y-52858811D01*
X125245575Y-52858810D01*
X125245572Y-52858808D01*
X125047580Y-52751661D01*
X125047577Y-52751659D01*
X125047574Y-52751658D01*
X125047571Y-52751657D01*
X125047569Y-52751656D01*
X124834637Y-52678556D01*
X124612569Y-52641500D01*
X124387431Y-52641500D01*
X124165362Y-52678556D01*
X123952430Y-52751656D01*
X123952419Y-52751661D01*
X123754427Y-52858808D01*
X123754422Y-52858812D01*
X123576761Y-52997092D01*
X123576756Y-52997097D01*
X123424284Y-53162723D01*
X123424276Y-53162734D01*
X123333808Y-53301206D01*
X123280662Y-53346562D01*
X123211431Y-53355986D01*
X123148095Y-53326484D01*
X123126192Y-53301206D01*
X123035723Y-53162734D01*
X123035715Y-53162723D01*
X122883243Y-52997097D01*
X122883238Y-52997092D01*
X122705577Y-52858812D01*
X122705572Y-52858808D01*
X122507580Y-52751661D01*
X122507577Y-52751659D01*
X122507574Y-52751658D01*
X122507571Y-52751657D01*
X122507569Y-52751656D01*
X122294637Y-52678556D01*
X122072569Y-52641500D01*
X121847431Y-52641500D01*
X121625362Y-52678556D01*
X121412430Y-52751656D01*
X121412419Y-52751661D01*
X121214427Y-52858808D01*
X121214422Y-52858812D01*
X121036761Y-52997092D01*
X121036756Y-52997097D01*
X120884284Y-53162723D01*
X120884276Y-53162734D01*
X120793808Y-53301206D01*
X120740662Y-53346562D01*
X120671431Y-53355986D01*
X120608095Y-53326484D01*
X120586192Y-53301206D01*
X120495723Y-53162734D01*
X120495715Y-53162723D01*
X120343243Y-52997097D01*
X120343238Y-52997092D01*
X120165577Y-52858812D01*
X120165572Y-52858808D01*
X119967580Y-52751661D01*
X119967577Y-52751659D01*
X119967574Y-52751658D01*
X119967571Y-52751657D01*
X119967569Y-52751656D01*
X119754637Y-52678556D01*
X119532569Y-52641500D01*
X119307431Y-52641500D01*
X119085362Y-52678556D01*
X118872430Y-52751656D01*
X118872419Y-52751661D01*
X118674427Y-52858808D01*
X118674422Y-52858812D01*
X118496761Y-52997092D01*
X118496756Y-52997097D01*
X118344284Y-53162723D01*
X118344276Y-53162734D01*
X118250251Y-53306650D01*
X118197105Y-53352007D01*
X118127873Y-53361430D01*
X118064538Y-53331928D01*
X118044868Y-53309951D01*
X117918113Y-53128926D01*
X117918108Y-53128920D01*
X117751082Y-52961894D01*
X117557578Y-52826399D01*
X117343492Y-52726570D01*
X117343486Y-52726567D01*
X117130000Y-52669364D01*
X117130000Y-53566988D01*
X117072993Y-53534075D01*
X116945826Y-53500000D01*
X116814174Y-53500000D01*
X116687007Y-53534075D01*
X116630000Y-53566988D01*
X116630000Y-52669364D01*
X116629999Y-52669364D01*
X116416513Y-52726567D01*
X116416507Y-52726570D01*
X116202422Y-52826399D01*
X116202420Y-52826400D01*
X116008926Y-52961886D01*
X116008920Y-52961891D01*
X115841891Y-53128920D01*
X115841886Y-53128926D01*
X115706400Y-53322420D01*
X115706399Y-53322422D01*
X115606570Y-53536507D01*
X115606567Y-53536513D01*
X115549364Y-53749999D01*
X105000000Y-53749999D01*
X105000000Y-42373402D01*
X108391500Y-42373402D01*
X108391500Y-42626597D01*
X108420152Y-42807498D01*
X108431106Y-42876658D01*
X108509344Y-43117450D01*
X108624287Y-43343038D01*
X108773105Y-43547868D01*
X108952132Y-43726895D01*
X109156962Y-43875713D01*
X109382550Y-43990656D01*
X109623342Y-44068894D01*
X109752176Y-44089299D01*
X109873403Y-44108500D01*
X109873408Y-44108500D01*
X110126597Y-44108500D01*
X110243398Y-44090000D01*
X110376658Y-44068894D01*
X110617450Y-43990656D01*
X110843038Y-43875713D01*
X111047868Y-43726895D01*
X111226895Y-43547868D01*
X111261673Y-43500000D01*
X117855052Y-43500000D01*
X117874812Y-43751072D01*
X117933603Y-43995956D01*
X118029980Y-44228631D01*
X118161568Y-44443362D01*
X118162266Y-44444179D01*
X118936212Y-43670233D01*
X118947482Y-43712292D01*
X119019890Y-43837708D01*
X119122292Y-43940110D01*
X119247708Y-44012518D01*
X119289764Y-44023787D01*
X118515819Y-44797732D01*
X118515819Y-44797733D01*
X118516634Y-44798429D01*
X118731368Y-44930019D01*
X118964043Y-45026396D01*
X119208927Y-45085187D01*
X119460000Y-45104947D01*
X119711072Y-45085187D01*
X119955956Y-45026396D01*
X120188631Y-44930019D01*
X120313865Y-44853275D01*
X120381310Y-44835030D01*
X120447913Y-44856146D01*
X120477922Y-44884691D01*
X120536739Y-44963261D01*
X120653796Y-45050889D01*
X120790799Y-45101989D01*
X120818050Y-45104918D01*
X120851345Y-45108499D01*
X120851362Y-45108500D01*
X123148638Y-45108500D01*
X123148654Y-45108499D01*
X123175692Y-45105591D01*
X123209201Y-45101989D01*
X123346204Y-45050889D01*
X123463261Y-44963261D01*
X123550889Y-44846204D01*
X123601989Y-44709201D01*
X123605591Y-44675692D01*
X123608499Y-44648654D01*
X123608500Y-44648637D01*
X123608500Y-43540000D01*
X141855052Y-43540000D01*
X141874812Y-43791072D01*
X141933603Y-44035956D01*
X142029980Y-44268631D01*
X142161568Y-44483362D01*
X142162266Y-44484179D01*
X142936212Y-43710233D01*
X142947482Y-43752292D01*
X143019890Y-43877708D01*
X143122292Y-43980110D01*
X143247708Y-44052518D01*
X143289765Y-44063787D01*
X142515819Y-44837732D01*
X142515819Y-44837733D01*
X142516634Y-44838429D01*
X142731368Y-44970019D01*
X142964043Y-45066396D01*
X143208927Y-45125187D01*
X143460000Y-45144947D01*
X143711072Y-45125187D01*
X143955956Y-45066396D01*
X144188631Y-44970019D01*
X144403361Y-44838432D01*
X144403363Y-44838430D01*
X144404180Y-44837732D01*
X143630234Y-44063787D01*
X143672292Y-44052518D01*
X143797708Y-43980110D01*
X143900110Y-43877708D01*
X143972518Y-43752292D01*
X143983787Y-43710234D01*
X144577847Y-44304294D01*
X144595893Y-44327185D01*
X144694668Y-44488370D01*
X144694669Y-44488372D01*
X144694670Y-44488374D01*
X144694672Y-44488376D01*
X144859102Y-44680898D01*
X145051624Y-44845328D01*
X145064592Y-44853275D01*
X145267497Y-44977616D01*
X145501406Y-45074504D01*
X145501407Y-45074504D01*
X145501409Y-45074505D01*
X145747597Y-45133609D01*
X146000000Y-45153474D01*
X146252403Y-45133609D01*
X146498591Y-45074505D01*
X146732502Y-44977616D01*
X146858982Y-44900108D01*
X146926426Y-44881864D01*
X146993029Y-44902980D01*
X147023037Y-44931524D01*
X147076739Y-45003261D01*
X147193796Y-45090889D01*
X147330799Y-45141989D01*
X147358050Y-45144918D01*
X147391345Y-45148499D01*
X147391362Y-45148500D01*
X149688638Y-45148500D01*
X149688654Y-45148499D01*
X149715692Y-45145591D01*
X149749201Y-45141989D01*
X149886204Y-45090889D01*
X150003261Y-45003261D01*
X150090889Y-44886204D01*
X150141989Y-44749201D01*
X150146289Y-44709201D01*
X150148499Y-44688654D01*
X150148500Y-44688637D01*
X150148500Y-42391362D01*
X150148499Y-42391345D01*
X150145157Y-42360270D01*
X150141989Y-42330799D01*
X150090889Y-42193796D01*
X150003261Y-42076739D01*
X149886204Y-41989111D01*
X149864900Y-41981165D01*
X149749203Y-41938011D01*
X149688654Y-41931500D01*
X149688638Y-41931500D01*
X149404809Y-41931500D01*
X149337770Y-41911815D01*
X149292015Y-41859011D01*
X149282071Y-41789853D01*
X149311096Y-41726297D01*
X149317128Y-41719819D01*
X149362188Y-41674758D01*
X149362191Y-41674755D01*
X149478031Y-41501388D01*
X149557823Y-41308753D01*
X149598500Y-41104253D01*
X149598500Y-40895747D01*
X149557823Y-40691247D01*
X149478031Y-40498612D01*
X149478030Y-40498611D01*
X149478027Y-40498605D01*
X149362191Y-40325245D01*
X149362188Y-40325241D01*
X149214758Y-40177811D01*
X149214754Y-40177808D01*
X149041394Y-40061972D01*
X149041385Y-40061967D01*
X148848753Y-39982177D01*
X148848745Y-39982175D01*
X148644257Y-39941500D01*
X148644253Y-39941500D01*
X148435747Y-39941500D01*
X148435742Y-39941500D01*
X148231254Y-39982175D01*
X148231246Y-39982177D01*
X148038614Y-40061967D01*
X148038605Y-40061972D01*
X147865245Y-40177808D01*
X147865241Y-40177811D01*
X147717811Y-40325241D01*
X147717808Y-40325245D01*
X147601972Y-40498605D01*
X147601967Y-40498614D01*
X147522177Y-40691246D01*
X147522175Y-40691254D01*
X147481500Y-40895742D01*
X147481500Y-41104257D01*
X147522175Y-41308745D01*
X147522177Y-41308753D01*
X147601967Y-41501385D01*
X147601972Y-41501394D01*
X147717808Y-41674754D01*
X147717811Y-41674758D01*
X147762872Y-41719819D01*
X147796357Y-41781142D01*
X147791373Y-41850834D01*
X147749501Y-41906767D01*
X147684037Y-41931184D01*
X147675191Y-41931500D01*
X147391345Y-41931500D01*
X147330797Y-41938011D01*
X147330795Y-41938011D01*
X147193795Y-41989111D01*
X147076738Y-42076739D01*
X147023037Y-42148475D01*
X146967103Y-42190345D01*
X146897411Y-42195329D01*
X146858981Y-42179890D01*
X146732502Y-42102383D01*
X146652317Y-42069170D01*
X146597914Y-42025329D01*
X146575849Y-41959035D01*
X146593128Y-41891336D01*
X146630876Y-41851509D01*
X146674755Y-41822191D01*
X146822191Y-41674755D01*
X146938031Y-41501388D01*
X147017823Y-41308753D01*
X147058500Y-41104253D01*
X147058500Y-40895747D01*
X147017823Y-40691247D01*
X146938031Y-40498612D01*
X146938030Y-40498611D01*
X146938027Y-40498605D01*
X146822191Y-40325245D01*
X146822188Y-40325241D01*
X146674758Y-40177811D01*
X146674754Y-40177808D01*
X146501394Y-40061972D01*
X146501385Y-40061967D01*
X146308753Y-39982177D01*
X146308745Y-39982175D01*
X146104257Y-39941500D01*
X146104253Y-39941500D01*
X145895747Y-39941500D01*
X145895742Y-39941500D01*
X145691254Y-39982175D01*
X145691246Y-39982177D01*
X145498614Y-40061967D01*
X145498605Y-40061972D01*
X145325245Y-40177808D01*
X145325241Y-40177811D01*
X145177811Y-40325241D01*
X145177808Y-40325245D01*
X145061972Y-40498605D01*
X145061967Y-40498614D01*
X144982177Y-40691246D01*
X144982175Y-40691254D01*
X144941500Y-40895742D01*
X144941500Y-41104257D01*
X144982175Y-41308745D01*
X144982177Y-41308753D01*
X145061967Y-41501385D01*
X145061972Y-41501394D01*
X145177808Y-41674754D01*
X145177811Y-41674758D01*
X145325242Y-41822189D01*
X145325245Y-41822191D01*
X145369120Y-41851507D01*
X145413924Y-41905118D01*
X145422633Y-41974443D01*
X145392478Y-42037471D01*
X145347682Y-42069170D01*
X145267497Y-42102383D01*
X145051629Y-42234668D01*
X145051627Y-42234669D01*
X144859102Y-42399102D01*
X144694674Y-42591621D01*
X144595894Y-42752813D01*
X144577848Y-42775703D01*
X143983787Y-43369764D01*
X143972518Y-43327708D01*
X143900110Y-43202292D01*
X143797708Y-43099890D01*
X143672292Y-43027482D01*
X143630232Y-43016212D01*
X144404179Y-42242266D01*
X144403362Y-42241568D01*
X144188630Y-42109980D01*
X144188627Y-42109978D01*
X144103818Y-42074850D01*
X144049414Y-42031009D01*
X144027349Y-41964715D01*
X144044628Y-41897016D01*
X144082377Y-41857188D01*
X144134755Y-41822191D01*
X144282191Y-41674755D01*
X144398031Y-41501388D01*
X144477823Y-41308753D01*
X144518500Y-41104253D01*
X144518500Y-40895747D01*
X144477823Y-40691247D01*
X144398031Y-40498612D01*
X144398030Y-40498611D01*
X144398027Y-40498605D01*
X144282191Y-40325245D01*
X144282188Y-40325241D01*
X144134758Y-40177811D01*
X144134754Y-40177808D01*
X143961394Y-40061972D01*
X143961385Y-40061967D01*
X143768753Y-39982177D01*
X143768745Y-39982175D01*
X143564257Y-39941500D01*
X143564253Y-39941500D01*
X143355747Y-39941500D01*
X143355742Y-39941500D01*
X143151254Y-39982175D01*
X143151246Y-39982177D01*
X142958614Y-40061967D01*
X142958605Y-40061972D01*
X142785245Y-40177808D01*
X142785241Y-40177811D01*
X142637811Y-40325241D01*
X142637808Y-40325245D01*
X142521972Y-40498605D01*
X142521967Y-40498614D01*
X142442177Y-40691246D01*
X142442175Y-40691254D01*
X142401500Y-40895742D01*
X142401500Y-41104257D01*
X142442175Y-41308745D01*
X142442177Y-41308753D01*
X142521967Y-41501385D01*
X142521972Y-41501394D01*
X142637808Y-41674754D01*
X142637811Y-41674758D01*
X142785241Y-41822188D01*
X142785249Y-41822194D01*
X142837619Y-41857187D01*
X142882425Y-41910799D01*
X142891132Y-41980124D01*
X142860978Y-42043151D01*
X142816182Y-42074850D01*
X142731368Y-42109980D01*
X142516637Y-42241567D01*
X142515818Y-42242266D01*
X143289765Y-43016212D01*
X143247708Y-43027482D01*
X143122292Y-43099890D01*
X143019890Y-43202292D01*
X142947482Y-43327708D01*
X142936212Y-43369765D01*
X142162266Y-42595818D01*
X142161567Y-42596637D01*
X142029980Y-42811368D01*
X141933603Y-43044043D01*
X141874812Y-43288927D01*
X141855052Y-43540000D01*
X123608500Y-43540000D01*
X123608500Y-42351362D01*
X123608499Y-42351345D01*
X123605157Y-42320270D01*
X123601989Y-42290799D01*
X123587212Y-42251182D01*
X123570851Y-42207316D01*
X123550889Y-42153796D01*
X123463261Y-42036739D01*
X123346204Y-41949111D01*
X123209203Y-41898011D01*
X123148654Y-41891500D01*
X123148638Y-41891500D01*
X122864809Y-41891500D01*
X122797770Y-41871815D01*
X122752015Y-41819011D01*
X122742071Y-41749853D01*
X122771096Y-41686297D01*
X122777128Y-41679819D01*
X122822188Y-41634758D01*
X122822191Y-41634755D01*
X122938031Y-41461388D01*
X123017823Y-41268753D01*
X123058500Y-41064253D01*
X123058500Y-40855747D01*
X123017823Y-40651247D01*
X122938031Y-40458612D01*
X122938030Y-40458611D01*
X122938027Y-40458605D01*
X122822191Y-40285245D01*
X122822188Y-40285241D01*
X122674758Y-40137811D01*
X122674754Y-40137808D01*
X122501394Y-40021972D01*
X122501385Y-40021967D01*
X122308753Y-39942177D01*
X122308745Y-39942175D01*
X122104257Y-39901500D01*
X122104253Y-39901500D01*
X121895747Y-39901500D01*
X121895742Y-39901500D01*
X121691254Y-39942175D01*
X121691246Y-39942177D01*
X121498614Y-40021967D01*
X121498605Y-40021972D01*
X121325245Y-40137808D01*
X121325241Y-40137811D01*
X121177811Y-40285241D01*
X121177808Y-40285245D01*
X121061972Y-40458605D01*
X121061967Y-40458614D01*
X120982177Y-40651246D01*
X120982175Y-40651254D01*
X120941500Y-40855742D01*
X120941500Y-41064257D01*
X120982175Y-41268745D01*
X120982177Y-41268753D01*
X121061967Y-41461385D01*
X121061972Y-41461394D01*
X121177808Y-41634754D01*
X121177811Y-41634758D01*
X121222872Y-41679819D01*
X121256357Y-41741142D01*
X121251373Y-41810834D01*
X121209501Y-41866767D01*
X121144037Y-41891184D01*
X121135191Y-41891500D01*
X120851345Y-41891500D01*
X120790797Y-41898011D01*
X120790795Y-41898011D01*
X120653795Y-41949111D01*
X120597171Y-41991500D01*
X120536739Y-42036739D01*
X120487599Y-42102383D01*
X120477923Y-42115308D01*
X120421989Y-42157179D01*
X120352297Y-42162163D01*
X120313867Y-42146725D01*
X120188627Y-42069978D01*
X120103818Y-42034850D01*
X120049414Y-41991009D01*
X120027349Y-41924715D01*
X120044628Y-41857016D01*
X120082377Y-41817188D01*
X120134755Y-41782191D01*
X120282191Y-41634755D01*
X120398031Y-41461388D01*
X120477823Y-41268753D01*
X120518500Y-41064253D01*
X120518500Y-40855747D01*
X120477823Y-40651247D01*
X120398031Y-40458612D01*
X120398030Y-40458611D01*
X120398027Y-40458605D01*
X120282191Y-40285245D01*
X120282188Y-40285241D01*
X120134758Y-40137811D01*
X120134754Y-40137808D01*
X119961394Y-40021972D01*
X119961385Y-40021967D01*
X119768753Y-39942177D01*
X119768745Y-39942175D01*
X119564257Y-39901500D01*
X119564253Y-39901500D01*
X119355747Y-39901500D01*
X119355742Y-39901500D01*
X119151254Y-39942175D01*
X119151246Y-39942177D01*
X118958614Y-40021967D01*
X118958605Y-40021972D01*
X118785245Y-40137808D01*
X118785241Y-40137811D01*
X118637811Y-40285241D01*
X118637808Y-40285245D01*
X118521972Y-40458605D01*
X118521967Y-40458614D01*
X118442177Y-40651246D01*
X118442175Y-40651254D01*
X118401500Y-40855742D01*
X118401500Y-41064257D01*
X118442175Y-41268745D01*
X118442177Y-41268753D01*
X118521967Y-41461385D01*
X118521972Y-41461394D01*
X118637808Y-41634754D01*
X118637811Y-41634758D01*
X118785241Y-41782188D01*
X118785249Y-41782194D01*
X118837619Y-41817187D01*
X118882425Y-41870799D01*
X118891132Y-41940124D01*
X118860978Y-42003151D01*
X118816182Y-42034850D01*
X118731368Y-42069980D01*
X118516637Y-42201567D01*
X118515818Y-42202266D01*
X119289765Y-42976212D01*
X119247708Y-42987482D01*
X119122292Y-43059890D01*
X119019890Y-43162292D01*
X118947482Y-43287708D01*
X118936212Y-43329765D01*
X118162266Y-42555818D01*
X118161567Y-42556637D01*
X118029980Y-42771368D01*
X117933603Y-43004043D01*
X117874812Y-43248927D01*
X117855052Y-43500000D01*
X111261673Y-43500000D01*
X111375713Y-43343038D01*
X111490656Y-43117450D01*
X111568894Y-42876658D01*
X111590996Y-42737108D01*
X111608500Y-42626597D01*
X111608500Y-42373402D01*
X111580295Y-42195329D01*
X111568894Y-42123342D01*
X111490656Y-41882550D01*
X111375713Y-41656962D01*
X111226895Y-41452132D01*
X111047868Y-41273105D01*
X110843038Y-41124287D01*
X110617450Y-41009344D01*
X110376658Y-40931106D01*
X110126597Y-40891500D01*
X110126592Y-40891500D01*
X109873408Y-40891500D01*
X109873403Y-40891500D01*
X109623341Y-40931106D01*
X109382547Y-41009345D01*
X109156961Y-41124287D01*
X109040098Y-41209193D01*
X108952132Y-41273105D01*
X108952130Y-41273107D01*
X108952129Y-41273107D01*
X108773107Y-41452129D01*
X108773107Y-41452130D01*
X108773105Y-41452132D01*
X108737314Y-41501394D01*
X108624287Y-41656961D01*
X108509345Y-41882547D01*
X108431106Y-42123341D01*
X108391500Y-42373402D01*
X105000000Y-42373402D01*
X105000000Y-37624000D01*
X105019685Y-37556961D01*
X105072489Y-37511206D01*
X105124000Y-37500000D01*
X204876000Y-37500000D01*
X204943039Y-37519685D01*
G37*
%TD.AperFunction*%
%TD*%
M02*
