%TF.GenerationSoftware,KiCad,Pcbnew,8.0.7*%
%TF.CreationDate,2025-03-03T08:30:58+07:00*%
%TF.ProjectId,esp32_getstok_testing,65737033-325f-4676-9574-73746f6b5f74,rev?*%
%TF.SameCoordinates,Original*%
%TF.FileFunction,Legend,Top*%
%TF.FilePolarity,Positive*%
%FSLAX46Y46*%
G04 Gerber Fmt 4.6, Leading zero omitted, Abs format (unit mm)*
G04 Created by KiCad (PCBNEW 8.0.7) date 2025-03-03 08:30:58*
%MOMM*%
%LPD*%
G01*
G04 APERTURE LIST*
%ADD10C,0.200000*%
%ADD11C,0.150000*%
%ADD12C,0.120000*%
%ADD13C,0.000000*%
%ADD14C,0.127000*%
G04 APERTURE END LIST*
D10*
X149500000Y-74730000D02*
X192500000Y-74730000D01*
X192500000Y-95730000D01*
X149500000Y-95730000D01*
X149500000Y-74730000D01*
D11*
X107500000Y-50500000D02*
X137500000Y-50500000D01*
X137500000Y-80500000D01*
X107500000Y-80500000D01*
X107500000Y-50500000D01*
D10*
X121500000Y-131000000D02*
X121500000Y-136000000D01*
X107500000Y-85500000D02*
X137500000Y-85500000D01*
X137500000Y-125500000D01*
X107500000Y-125500000D01*
X107500000Y-85500000D01*
X149500000Y-50730000D02*
X192500000Y-50730000D01*
X192500000Y-71730000D01*
X149500000Y-71730000D01*
X149500000Y-50730000D01*
D11*
X160364761Y-39794819D02*
X160031428Y-39318628D01*
X159793333Y-39794819D02*
X159793333Y-38794819D01*
X159793333Y-38794819D02*
X160174285Y-38794819D01*
X160174285Y-38794819D02*
X160269523Y-38842438D01*
X160269523Y-38842438D02*
X160317142Y-38890057D01*
X160317142Y-38890057D02*
X160364761Y-38985295D01*
X160364761Y-38985295D02*
X160364761Y-39128152D01*
X160364761Y-39128152D02*
X160317142Y-39223390D01*
X160317142Y-39223390D02*
X160269523Y-39271009D01*
X160269523Y-39271009D02*
X160174285Y-39318628D01*
X160174285Y-39318628D02*
X159793333Y-39318628D01*
X160650476Y-38794819D02*
X160983809Y-39794819D01*
X160983809Y-39794819D02*
X161317142Y-38794819D01*
X162174285Y-39794819D02*
X161602857Y-39794819D01*
X161888571Y-39794819D02*
X161888571Y-38794819D01*
X161888571Y-38794819D02*
X161793333Y-38937676D01*
X161793333Y-38937676D02*
X161698095Y-39032914D01*
X161698095Y-39032914D02*
X161602857Y-39080533D01*
X148619819Y-125346904D02*
X149429342Y-125346904D01*
X149429342Y-125346904D02*
X149524580Y-125299285D01*
X149524580Y-125299285D02*
X149572200Y-125251666D01*
X149572200Y-125251666D02*
X149619819Y-125156428D01*
X149619819Y-125156428D02*
X149619819Y-124965952D01*
X149619819Y-124965952D02*
X149572200Y-124870714D01*
X149572200Y-124870714D02*
X149524580Y-124823095D01*
X149524580Y-124823095D02*
X149429342Y-124775476D01*
X149429342Y-124775476D02*
X148619819Y-124775476D01*
X149619819Y-123775476D02*
X149619819Y-124346904D01*
X149619819Y-124061190D02*
X148619819Y-124061190D01*
X148619819Y-124061190D02*
X148762676Y-124156428D01*
X148762676Y-124156428D02*
X148857914Y-124251666D01*
X148857914Y-124251666D02*
X148905533Y-124346904D01*
X202114819Y-61563333D02*
X202829104Y-61563333D01*
X202829104Y-61563333D02*
X202971961Y-61610952D01*
X202971961Y-61610952D02*
X203067200Y-61706190D01*
X203067200Y-61706190D02*
X203114819Y-61849047D01*
X203114819Y-61849047D02*
X203114819Y-61944285D01*
X202114819Y-60658571D02*
X202114819Y-60849047D01*
X202114819Y-60849047D02*
X202162438Y-60944285D01*
X202162438Y-60944285D02*
X202210057Y-60991904D01*
X202210057Y-60991904D02*
X202352914Y-61087142D01*
X202352914Y-61087142D02*
X202543390Y-61134761D01*
X202543390Y-61134761D02*
X202924342Y-61134761D01*
X202924342Y-61134761D02*
X203019580Y-61087142D01*
X203019580Y-61087142D02*
X203067200Y-61039523D01*
X203067200Y-61039523D02*
X203114819Y-60944285D01*
X203114819Y-60944285D02*
X203114819Y-60753809D01*
X203114819Y-60753809D02*
X203067200Y-60658571D01*
X203067200Y-60658571D02*
X203019580Y-60610952D01*
X203019580Y-60610952D02*
X202924342Y-60563333D01*
X202924342Y-60563333D02*
X202686247Y-60563333D01*
X202686247Y-60563333D02*
X202591009Y-60610952D01*
X202591009Y-60610952D02*
X202543390Y-60658571D01*
X202543390Y-60658571D02*
X202495771Y-60753809D01*
X202495771Y-60753809D02*
X202495771Y-60944285D01*
X202495771Y-60944285D02*
X202543390Y-61039523D01*
X202543390Y-61039523D02*
X202591009Y-61087142D01*
X202591009Y-61087142D02*
X202686247Y-61134761D01*
X157238095Y-65254819D02*
X157238095Y-64254819D01*
X157238095Y-64731009D02*
X157809523Y-64731009D01*
X157809523Y-65254819D02*
X157809523Y-64254819D01*
X158761904Y-64254819D02*
X158285714Y-64254819D01*
X158285714Y-64254819D02*
X158238095Y-64731009D01*
X158238095Y-64731009D02*
X158285714Y-64683390D01*
X158285714Y-64683390D02*
X158380952Y-64635771D01*
X158380952Y-64635771D02*
X158619047Y-64635771D01*
X158619047Y-64635771D02*
X158714285Y-64683390D01*
X158714285Y-64683390D02*
X158761904Y-64731009D01*
X158761904Y-64731009D02*
X158809523Y-64826247D01*
X158809523Y-64826247D02*
X158809523Y-65064342D01*
X158809523Y-65064342D02*
X158761904Y-65159580D01*
X158761904Y-65159580D02*
X158714285Y-65207200D01*
X158714285Y-65207200D02*
X158619047Y-65254819D01*
X158619047Y-65254819D02*
X158380952Y-65254819D01*
X158380952Y-65254819D02*
X158285714Y-65207200D01*
X158285714Y-65207200D02*
X158238095Y-65159580D01*
X151738095Y-41306819D02*
X152309523Y-41306819D01*
X152023809Y-42306819D02*
X152023809Y-41306819D01*
X152642857Y-42306819D02*
X152642857Y-41306819D01*
X152642857Y-41306819D02*
X153023809Y-41306819D01*
X153023809Y-41306819D02*
X153119047Y-41354438D01*
X153119047Y-41354438D02*
X153166666Y-41402057D01*
X153166666Y-41402057D02*
X153214285Y-41497295D01*
X153214285Y-41497295D02*
X153214285Y-41640152D01*
X153214285Y-41640152D02*
X153166666Y-41735390D01*
X153166666Y-41735390D02*
X153119047Y-41783009D01*
X153119047Y-41783009D02*
X153023809Y-41830628D01*
X153023809Y-41830628D02*
X152642857Y-41830628D01*
X154166666Y-42306819D02*
X153595238Y-42306819D01*
X153880952Y-42306819D02*
X153880952Y-41306819D01*
X153880952Y-41306819D02*
X153785714Y-41449676D01*
X153785714Y-41449676D02*
X153690476Y-41544914D01*
X153690476Y-41544914D02*
X153595238Y-41592533D01*
X120396666Y-47114819D02*
X120396666Y-47829104D01*
X120396666Y-47829104D02*
X120349047Y-47971961D01*
X120349047Y-47971961D02*
X120253809Y-48067200D01*
X120253809Y-48067200D02*
X120110952Y-48114819D01*
X120110952Y-48114819D02*
X120015714Y-48114819D01*
X121396666Y-48114819D02*
X120825238Y-48114819D01*
X121110952Y-48114819D02*
X121110952Y-47114819D01*
X121110952Y-47114819D02*
X121015714Y-47257676D01*
X121015714Y-47257676D02*
X120920476Y-47352914D01*
X120920476Y-47352914D02*
X120825238Y-47400533D01*
X157238095Y-90254819D02*
X157238095Y-89254819D01*
X157238095Y-89731009D02*
X157809523Y-89731009D01*
X157809523Y-90254819D02*
X157809523Y-89254819D01*
X158190476Y-89254819D02*
X158857142Y-89254819D01*
X158857142Y-89254819D02*
X158428571Y-90254819D01*
X138754819Y-85563333D02*
X139469104Y-85563333D01*
X139469104Y-85563333D02*
X139611961Y-85610952D01*
X139611961Y-85610952D02*
X139707200Y-85706190D01*
X139707200Y-85706190D02*
X139754819Y-85849047D01*
X139754819Y-85849047D02*
X139754819Y-85944285D01*
X138754819Y-85182380D02*
X138754819Y-84515714D01*
X138754819Y-84515714D02*
X139754819Y-84944285D01*
X129264819Y-54333333D02*
X129979104Y-54333333D01*
X129979104Y-54333333D02*
X130121961Y-54380952D01*
X130121961Y-54380952D02*
X130217200Y-54476190D01*
X130217200Y-54476190D02*
X130264819Y-54619047D01*
X130264819Y-54619047D02*
X130264819Y-54714285D01*
X129264819Y-53380952D02*
X129264819Y-53857142D01*
X129264819Y-53857142D02*
X129741009Y-53904761D01*
X129741009Y-53904761D02*
X129693390Y-53857142D01*
X129693390Y-53857142D02*
X129645771Y-53761904D01*
X129645771Y-53761904D02*
X129645771Y-53523809D01*
X129645771Y-53523809D02*
X129693390Y-53428571D01*
X129693390Y-53428571D02*
X129741009Y-53380952D01*
X129741009Y-53380952D02*
X129836247Y-53333333D01*
X129836247Y-53333333D02*
X130074342Y-53333333D01*
X130074342Y-53333333D02*
X130169580Y-53380952D01*
X130169580Y-53380952D02*
X130217200Y-53428571D01*
X130217200Y-53428571D02*
X130264819Y-53523809D01*
X130264819Y-53523809D02*
X130264819Y-53761904D01*
X130264819Y-53761904D02*
X130217200Y-53857142D01*
X130217200Y-53857142D02*
X130169580Y-53904761D01*
X128261905Y-44954819D02*
X128261905Y-43954819D01*
X128261905Y-43954819D02*
X128500000Y-43954819D01*
X128500000Y-43954819D02*
X128642857Y-44002438D01*
X128642857Y-44002438D02*
X128738095Y-44097676D01*
X128738095Y-44097676D02*
X128785714Y-44192914D01*
X128785714Y-44192914D02*
X128833333Y-44383390D01*
X128833333Y-44383390D02*
X128833333Y-44526247D01*
X128833333Y-44526247D02*
X128785714Y-44716723D01*
X128785714Y-44716723D02*
X128738095Y-44811961D01*
X128738095Y-44811961D02*
X128642857Y-44907200D01*
X128642857Y-44907200D02*
X128500000Y-44954819D01*
X128500000Y-44954819D02*
X128261905Y-44954819D01*
X129785714Y-44954819D02*
X129214286Y-44954819D01*
X129500000Y-44954819D02*
X129500000Y-43954819D01*
X129500000Y-43954819D02*
X129404762Y-44097676D01*
X129404762Y-44097676D02*
X129309524Y-44192914D01*
X129309524Y-44192914D02*
X129214286Y-44240533D01*
X197238095Y-75806819D02*
X197809523Y-75806819D01*
X197523809Y-76806819D02*
X197523809Y-75806819D01*
X198142857Y-76806819D02*
X198142857Y-75806819D01*
X198142857Y-75806819D02*
X198523809Y-75806819D01*
X198523809Y-75806819D02*
X198619047Y-75854438D01*
X198619047Y-75854438D02*
X198666666Y-75902057D01*
X198666666Y-75902057D02*
X198714285Y-75997295D01*
X198714285Y-75997295D02*
X198714285Y-76140152D01*
X198714285Y-76140152D02*
X198666666Y-76235390D01*
X198666666Y-76235390D02*
X198619047Y-76283009D01*
X198619047Y-76283009D02*
X198523809Y-76330628D01*
X198523809Y-76330628D02*
X198142857Y-76330628D01*
X199095238Y-75902057D02*
X199142857Y-75854438D01*
X199142857Y-75854438D02*
X199238095Y-75806819D01*
X199238095Y-75806819D02*
X199476190Y-75806819D01*
X199476190Y-75806819D02*
X199571428Y-75854438D01*
X199571428Y-75854438D02*
X199619047Y-75902057D01*
X199619047Y-75902057D02*
X199666666Y-75997295D01*
X199666666Y-75997295D02*
X199666666Y-76092533D01*
X199666666Y-76092533D02*
X199619047Y-76235390D01*
X199619047Y-76235390D02*
X199047619Y-76806819D01*
X199047619Y-76806819D02*
X199666666Y-76806819D01*
X183738095Y-76254819D02*
X183738095Y-75254819D01*
X183738095Y-75731009D02*
X184309523Y-75731009D01*
X184309523Y-76254819D02*
X184309523Y-75254819D01*
X184928571Y-75683390D02*
X184833333Y-75635771D01*
X184833333Y-75635771D02*
X184785714Y-75588152D01*
X184785714Y-75588152D02*
X184738095Y-75492914D01*
X184738095Y-75492914D02*
X184738095Y-75445295D01*
X184738095Y-75445295D02*
X184785714Y-75350057D01*
X184785714Y-75350057D02*
X184833333Y-75302438D01*
X184833333Y-75302438D02*
X184928571Y-75254819D01*
X184928571Y-75254819D02*
X185119047Y-75254819D01*
X185119047Y-75254819D02*
X185214285Y-75302438D01*
X185214285Y-75302438D02*
X185261904Y-75350057D01*
X185261904Y-75350057D02*
X185309523Y-75445295D01*
X185309523Y-75445295D02*
X185309523Y-75492914D01*
X185309523Y-75492914D02*
X185261904Y-75588152D01*
X185261904Y-75588152D02*
X185214285Y-75635771D01*
X185214285Y-75635771D02*
X185119047Y-75683390D01*
X185119047Y-75683390D02*
X184928571Y-75683390D01*
X184928571Y-75683390D02*
X184833333Y-75731009D01*
X184833333Y-75731009D02*
X184785714Y-75778628D01*
X184785714Y-75778628D02*
X184738095Y-75873866D01*
X184738095Y-75873866D02*
X184738095Y-76064342D01*
X184738095Y-76064342D02*
X184785714Y-76159580D01*
X184785714Y-76159580D02*
X184833333Y-76207200D01*
X184833333Y-76207200D02*
X184928571Y-76254819D01*
X184928571Y-76254819D02*
X185119047Y-76254819D01*
X185119047Y-76254819D02*
X185214285Y-76207200D01*
X185214285Y-76207200D02*
X185261904Y-76159580D01*
X185261904Y-76159580D02*
X185309523Y-76064342D01*
X185309523Y-76064342D02*
X185309523Y-75873866D01*
X185309523Y-75873866D02*
X185261904Y-75778628D01*
X185261904Y-75778628D02*
X185214285Y-75731009D01*
X185214285Y-75731009D02*
X185119047Y-75683390D01*
X197238095Y-52306819D02*
X197809523Y-52306819D01*
X197523809Y-53306819D02*
X197523809Y-52306819D01*
X198142857Y-53306819D02*
X198142857Y-52306819D01*
X198142857Y-52306819D02*
X198523809Y-52306819D01*
X198523809Y-52306819D02*
X198619047Y-52354438D01*
X198619047Y-52354438D02*
X198666666Y-52402057D01*
X198666666Y-52402057D02*
X198714285Y-52497295D01*
X198714285Y-52497295D02*
X198714285Y-52640152D01*
X198714285Y-52640152D02*
X198666666Y-52735390D01*
X198666666Y-52735390D02*
X198619047Y-52783009D01*
X198619047Y-52783009D02*
X198523809Y-52830628D01*
X198523809Y-52830628D02*
X198142857Y-52830628D01*
X199047619Y-52306819D02*
X199666666Y-52306819D01*
X199666666Y-52306819D02*
X199333333Y-52687771D01*
X199333333Y-52687771D02*
X199476190Y-52687771D01*
X199476190Y-52687771D02*
X199571428Y-52735390D01*
X199571428Y-52735390D02*
X199619047Y-52783009D01*
X199619047Y-52783009D02*
X199666666Y-52878247D01*
X199666666Y-52878247D02*
X199666666Y-53116342D01*
X199666666Y-53116342D02*
X199619047Y-53211580D01*
X199619047Y-53211580D02*
X199571428Y-53259200D01*
X199571428Y-53259200D02*
X199476190Y-53306819D01*
X199476190Y-53306819D02*
X199190476Y-53306819D01*
X199190476Y-53306819D02*
X199095238Y-53259200D01*
X199095238Y-53259200D02*
X199047619Y-53211580D01*
X128666666Y-48931009D02*
X128333333Y-48931009D01*
X128333333Y-49454819D02*
X128333333Y-48454819D01*
X128333333Y-48454819D02*
X128809523Y-48454819D01*
X129714285Y-49454819D02*
X129142857Y-49454819D01*
X129428571Y-49454819D02*
X129428571Y-48454819D01*
X129428571Y-48454819D02*
X129333333Y-48597676D01*
X129333333Y-48597676D02*
X129238095Y-48692914D01*
X129238095Y-48692914D02*
X129142857Y-48740533D01*
X199238095Y-129754819D02*
X199238095Y-128754819D01*
X199238095Y-129231009D02*
X199809523Y-129231009D01*
X199809523Y-129754819D02*
X199809523Y-128754819D01*
X200714285Y-129088152D02*
X200714285Y-129754819D01*
X200476190Y-128707200D02*
X200238095Y-129421485D01*
X200238095Y-129421485D02*
X200857142Y-129421485D01*
X199238095Y-39754819D02*
X199238095Y-38754819D01*
X199238095Y-39231009D02*
X199809523Y-39231009D01*
X199809523Y-39754819D02*
X199809523Y-38754819D01*
X200238095Y-38850057D02*
X200285714Y-38802438D01*
X200285714Y-38802438D02*
X200380952Y-38754819D01*
X200380952Y-38754819D02*
X200619047Y-38754819D01*
X200619047Y-38754819D02*
X200714285Y-38802438D01*
X200714285Y-38802438D02*
X200761904Y-38850057D01*
X200761904Y-38850057D02*
X200809523Y-38945295D01*
X200809523Y-38945295D02*
X200809523Y-39040533D01*
X200809523Y-39040533D02*
X200761904Y-39183390D01*
X200761904Y-39183390D02*
X200190476Y-39754819D01*
X200190476Y-39754819D02*
X200809523Y-39754819D01*
X115104819Y-89833333D02*
X115819104Y-89833333D01*
X115819104Y-89833333D02*
X115961961Y-89880952D01*
X115961961Y-89880952D02*
X116057200Y-89976190D01*
X116057200Y-89976190D02*
X116104819Y-90119047D01*
X116104819Y-90119047D02*
X116104819Y-90214285D01*
X115104819Y-89452380D02*
X115104819Y-88833333D01*
X115104819Y-88833333D02*
X115485771Y-89166666D01*
X115485771Y-89166666D02*
X115485771Y-89023809D01*
X115485771Y-89023809D02*
X115533390Y-88928571D01*
X115533390Y-88928571D02*
X115581009Y-88880952D01*
X115581009Y-88880952D02*
X115676247Y-88833333D01*
X115676247Y-88833333D02*
X115914342Y-88833333D01*
X115914342Y-88833333D02*
X116009580Y-88880952D01*
X116009580Y-88880952D02*
X116057200Y-88928571D01*
X116057200Y-88928571D02*
X116104819Y-89023809D01*
X116104819Y-89023809D02*
X116104819Y-89309523D01*
X116104819Y-89309523D02*
X116057200Y-89404761D01*
X116057200Y-89404761D02*
X116009580Y-89452380D01*
X138754819Y-61563333D02*
X139469104Y-61563333D01*
X139469104Y-61563333D02*
X139611961Y-61610952D01*
X139611961Y-61610952D02*
X139707200Y-61706190D01*
X139707200Y-61706190D02*
X139754819Y-61849047D01*
X139754819Y-61849047D02*
X139754819Y-61944285D01*
X139088152Y-60658571D02*
X139754819Y-60658571D01*
X138707200Y-60896666D02*
X139421485Y-61134761D01*
X139421485Y-61134761D02*
X139421485Y-60515714D01*
X109238095Y-129754819D02*
X109238095Y-128754819D01*
X109238095Y-129231009D02*
X109809523Y-129231009D01*
X109809523Y-129754819D02*
X109809523Y-128754819D01*
X110190476Y-128754819D02*
X110809523Y-128754819D01*
X110809523Y-128754819D02*
X110476190Y-129135771D01*
X110476190Y-129135771D02*
X110619047Y-129135771D01*
X110619047Y-129135771D02*
X110714285Y-129183390D01*
X110714285Y-129183390D02*
X110761904Y-129231009D01*
X110761904Y-129231009D02*
X110809523Y-129326247D01*
X110809523Y-129326247D02*
X110809523Y-129564342D01*
X110809523Y-129564342D02*
X110761904Y-129659580D01*
X110761904Y-129659580D02*
X110714285Y-129707200D01*
X110714285Y-129707200D02*
X110619047Y-129754819D01*
X110619047Y-129754819D02*
X110333333Y-129754819D01*
X110333333Y-129754819D02*
X110238095Y-129707200D01*
X110238095Y-129707200D02*
X110190476Y-129659580D01*
X202114819Y-85563333D02*
X202829104Y-85563333D01*
X202829104Y-85563333D02*
X202971961Y-85610952D01*
X202971961Y-85610952D02*
X203067200Y-85706190D01*
X203067200Y-85706190D02*
X203114819Y-85849047D01*
X203114819Y-85849047D02*
X203114819Y-85944285D01*
X202543390Y-84944285D02*
X202495771Y-85039523D01*
X202495771Y-85039523D02*
X202448152Y-85087142D01*
X202448152Y-85087142D02*
X202352914Y-85134761D01*
X202352914Y-85134761D02*
X202305295Y-85134761D01*
X202305295Y-85134761D02*
X202210057Y-85087142D01*
X202210057Y-85087142D02*
X202162438Y-85039523D01*
X202162438Y-85039523D02*
X202114819Y-84944285D01*
X202114819Y-84944285D02*
X202114819Y-84753809D01*
X202114819Y-84753809D02*
X202162438Y-84658571D01*
X202162438Y-84658571D02*
X202210057Y-84610952D01*
X202210057Y-84610952D02*
X202305295Y-84563333D01*
X202305295Y-84563333D02*
X202352914Y-84563333D01*
X202352914Y-84563333D02*
X202448152Y-84610952D01*
X202448152Y-84610952D02*
X202495771Y-84658571D01*
X202495771Y-84658571D02*
X202543390Y-84753809D01*
X202543390Y-84753809D02*
X202543390Y-84944285D01*
X202543390Y-84944285D02*
X202591009Y-85039523D01*
X202591009Y-85039523D02*
X202638628Y-85087142D01*
X202638628Y-85087142D02*
X202733866Y-85134761D01*
X202733866Y-85134761D02*
X202924342Y-85134761D01*
X202924342Y-85134761D02*
X203019580Y-85087142D01*
X203019580Y-85087142D02*
X203067200Y-85039523D01*
X203067200Y-85039523D02*
X203114819Y-84944285D01*
X203114819Y-84944285D02*
X203114819Y-84753809D01*
X203114819Y-84753809D02*
X203067200Y-84658571D01*
X203067200Y-84658571D02*
X203019580Y-84610952D01*
X203019580Y-84610952D02*
X202924342Y-84563333D01*
X202924342Y-84563333D02*
X202733866Y-84563333D01*
X202733866Y-84563333D02*
X202638628Y-84610952D01*
X202638628Y-84610952D02*
X202591009Y-84658571D01*
X202591009Y-84658571D02*
X202543390Y-84753809D01*
X183238095Y-52254819D02*
X183238095Y-51254819D01*
X183238095Y-51731009D02*
X183809523Y-51731009D01*
X183809523Y-52254819D02*
X183809523Y-51254819D01*
X184714285Y-51254819D02*
X184523809Y-51254819D01*
X184523809Y-51254819D02*
X184428571Y-51302438D01*
X184428571Y-51302438D02*
X184380952Y-51350057D01*
X184380952Y-51350057D02*
X184285714Y-51492914D01*
X184285714Y-51492914D02*
X184238095Y-51683390D01*
X184238095Y-51683390D02*
X184238095Y-52064342D01*
X184238095Y-52064342D02*
X184285714Y-52159580D01*
X184285714Y-52159580D02*
X184333333Y-52207200D01*
X184333333Y-52207200D02*
X184428571Y-52254819D01*
X184428571Y-52254819D02*
X184619047Y-52254819D01*
X184619047Y-52254819D02*
X184714285Y-52207200D01*
X184714285Y-52207200D02*
X184761904Y-52159580D01*
X184761904Y-52159580D02*
X184809523Y-52064342D01*
X184809523Y-52064342D02*
X184809523Y-51826247D01*
X184809523Y-51826247D02*
X184761904Y-51731009D01*
X184761904Y-51731009D02*
X184714285Y-51683390D01*
X184714285Y-51683390D02*
X184619047Y-51635771D01*
X184619047Y-51635771D02*
X184428571Y-51635771D01*
X184428571Y-51635771D02*
X184333333Y-51683390D01*
X184333333Y-51683390D02*
X184285714Y-51731009D01*
X184285714Y-51731009D02*
X184238095Y-51826247D01*
X109238095Y-39754819D02*
X109238095Y-38754819D01*
X109238095Y-39231009D02*
X109809523Y-39231009D01*
X109809523Y-39754819D02*
X109809523Y-38754819D01*
X110809523Y-39754819D02*
X110238095Y-39754819D01*
X110523809Y-39754819D02*
X110523809Y-38754819D01*
X110523809Y-38754819D02*
X110428571Y-38897676D01*
X110428571Y-38897676D02*
X110333333Y-38992914D01*
X110333333Y-38992914D02*
X110238095Y-39040533D01*
X145666666Y-47154819D02*
X145666666Y-47869104D01*
X145666666Y-47869104D02*
X145619047Y-48011961D01*
X145619047Y-48011961D02*
X145523809Y-48107200D01*
X145523809Y-48107200D02*
X145380952Y-48154819D01*
X145380952Y-48154819D02*
X145285714Y-48154819D01*
X146095238Y-47250057D02*
X146142857Y-47202438D01*
X146142857Y-47202438D02*
X146238095Y-47154819D01*
X146238095Y-47154819D02*
X146476190Y-47154819D01*
X146476190Y-47154819D02*
X146571428Y-47202438D01*
X146571428Y-47202438D02*
X146619047Y-47250057D01*
X146619047Y-47250057D02*
X146666666Y-47345295D01*
X146666666Y-47345295D02*
X146666666Y-47440533D01*
X146666666Y-47440533D02*
X146619047Y-47583390D01*
X146619047Y-47583390D02*
X146047619Y-48154819D01*
X146047619Y-48154819D02*
X146666666Y-48154819D01*
D12*
%TO.C,RV1*%
X156075000Y-40470000D02*
X156075000Y-45540000D01*
X156075000Y-40470000D02*
X165845000Y-40470000D01*
X156075000Y-45540000D02*
X165845000Y-45540000D01*
X165845000Y-40470000D02*
X165845000Y-45540000D01*
D13*
%TO.C,G\u002A\u002A\u002A*%
G36*
X125889230Y-136282471D02*
G01*
X125903074Y-136295365D01*
X125841565Y-136302384D01*
X125811384Y-136302815D01*
X125730454Y-136298177D01*
X125720917Y-136286630D01*
X125733538Y-136282471D01*
X125846358Y-136275553D01*
X125889230Y-136282471D01*
G37*
G36*
X125522414Y-135954182D02*
G01*
X125538037Y-136066241D01*
X125544442Y-136230765D01*
X125544483Y-136246410D01*
X125538964Y-136414515D01*
X125524023Y-136531685D01*
X125502086Y-136579723D01*
X125500000Y-136580035D01*
X125477586Y-136538638D01*
X125461963Y-136426579D01*
X125455558Y-136262055D01*
X125455517Y-136246410D01*
X125461036Y-136078305D01*
X125475978Y-135961135D01*
X125497914Y-135913097D01*
X125500000Y-135912785D01*
X125522414Y-135954182D01*
G37*
G36*
X126145181Y-135954182D02*
G01*
X126160804Y-136066241D01*
X126167209Y-136230765D01*
X126167251Y-136246410D01*
X126161731Y-136414515D01*
X126146790Y-136531685D01*
X126124853Y-136579723D01*
X126122767Y-136580035D01*
X126100353Y-136538638D01*
X126084730Y-136426579D01*
X126078325Y-136262055D01*
X126078284Y-136246410D01*
X126083803Y-136078305D01*
X126098745Y-135961135D01*
X126120681Y-135913097D01*
X126122767Y-135912785D01*
X126145181Y-135954182D01*
G37*
G36*
X124766558Y-135920097D02*
G01*
X124855424Y-135938961D01*
X124877233Y-135957268D01*
X124839165Y-135990707D01*
X124766025Y-136001751D01*
X124706244Y-136006822D01*
X124672947Y-136035431D01*
X124658402Y-136107681D01*
X124654880Y-136243669D01*
X124654816Y-136290893D01*
X124648531Y-136441987D01*
X124631882Y-136545434D01*
X124610333Y-136580035D01*
X124587088Y-136539182D01*
X124571173Y-136430960D01*
X124565849Y-136290893D01*
X124563077Y-136134414D01*
X124550726Y-136047173D01*
X124522748Y-136009512D01*
X124476883Y-136001751D01*
X124404599Y-135983123D01*
X124387916Y-135957268D01*
X124428136Y-135932907D01*
X124531887Y-135916750D01*
X124632575Y-135912785D01*
X124766558Y-135920097D01*
G37*
G36*
X126608671Y-135921094D02*
G01*
X126701058Y-135942256D01*
X126723293Y-135957268D01*
X126707544Y-135990254D01*
X126636951Y-136001751D01*
X126575775Y-136006511D01*
X126541702Y-136034199D01*
X126526814Y-136104931D01*
X126523192Y-136238822D01*
X126523117Y-136290893D01*
X126516832Y-136441987D01*
X126500183Y-136545434D01*
X126478634Y-136580035D01*
X126455389Y-136539182D01*
X126439474Y-136430960D01*
X126434151Y-136290893D01*
X126431378Y-136134414D01*
X126419027Y-136047173D01*
X126391049Y-136009512D01*
X126345184Y-136001751D01*
X126272900Y-135983123D01*
X126256217Y-135957268D01*
X126296197Y-135931764D01*
X126398302Y-135915672D01*
X126476009Y-135912785D01*
X126608671Y-135921094D01*
G37*
G36*
X125255556Y-135922651D02*
G01*
X125317529Y-135947297D01*
X125322067Y-135957268D01*
X125283412Y-135988501D01*
X125190277Y-136001748D01*
X125188617Y-136001751D01*
X125093244Y-136013721D01*
X125058353Y-136064600D01*
X125055166Y-136112960D01*
X125072985Y-136196955D01*
X125143898Y-136223498D01*
X125169000Y-136224168D01*
X125244684Y-136238289D01*
X125255342Y-136268652D01*
X125192599Y-136306021D01*
X125141508Y-136313135D01*
X125069033Y-136345861D01*
X125055166Y-136402102D01*
X125076138Y-136467223D01*
X125154168Y-136490151D01*
X125188617Y-136491068D01*
X125282316Y-136503953D01*
X125322056Y-136534998D01*
X125322067Y-136535552D01*
X125282603Y-136563407D01*
X125184019Y-136578901D01*
X125144133Y-136580035D01*
X124966200Y-136580035D01*
X124966200Y-136246410D01*
X124966200Y-135912785D01*
X125144133Y-135912785D01*
X125255556Y-135922651D01*
G37*
G36*
X124253165Y-135935877D02*
G01*
X124317582Y-135965981D01*
X124323795Y-135997537D01*
X124269810Y-136015564D01*
X124168963Y-136011746D01*
X124167458Y-136011528D01*
X124064184Y-136015862D01*
X124029585Y-136058799D01*
X124062037Y-136124407D01*
X124159922Y-136196754D01*
X124187741Y-136210885D01*
X124296077Y-136278219D01*
X124339277Y-136357655D01*
X124343433Y-136408775D01*
X124310899Y-136528246D01*
X124257390Y-136578470D01*
X124171965Y-136615203D01*
X124094956Y-136612601D01*
X123998687Y-136578649D01*
X123913735Y-136535260D01*
X123915372Y-136509094D01*
X124002715Y-136501146D01*
X124065412Y-136503519D01*
X124176333Y-136502489D01*
X124223788Y-136474097D01*
X124232224Y-136424343D01*
X124189134Y-136335876D01*
X124087653Y-136271745D01*
X123984044Y-136208478D01*
X123945511Y-136125144D01*
X123943082Y-136083538D01*
X123964443Y-135982540D01*
X124042158Y-135934222D01*
X124051080Y-135931857D01*
X124154322Y-135922092D01*
X124253165Y-135935877D01*
G37*
G36*
X127075028Y-135936811D02*
G01*
X127182914Y-135999254D01*
X127231767Y-136085665D01*
X127209123Y-136181593D01*
X127181471Y-136215272D01*
X127154399Y-136260965D01*
X127176712Y-136268652D01*
X127235484Y-136305068D01*
X127257860Y-136390817D01*
X127235026Y-136490650D01*
X127233127Y-136494291D01*
X127167356Y-136556552D01*
X127045460Y-136579403D01*
X127010869Y-136580035D01*
X126834501Y-136580035D01*
X126834501Y-136402102D01*
X126923468Y-136402102D01*
X126932915Y-136498386D01*
X126973746Y-136530084D01*
X127023555Y-136527525D01*
X127102931Y-136489056D01*
X127123643Y-136402102D01*
X127099166Y-136310430D01*
X127023555Y-136276679D01*
X126953580Y-136279921D01*
X126926704Y-136333069D01*
X126923468Y-136402102D01*
X126834501Y-136402102D01*
X126834501Y-136246410D01*
X126836238Y-136112960D01*
X126923468Y-136112960D01*
X126950006Y-136202272D01*
X127015268Y-136220458D01*
X127097723Y-136161848D01*
X127099784Y-136159392D01*
X127131088Y-136075850D01*
X127085538Y-136017000D01*
X127009809Y-136001751D01*
X126941704Y-136029238D01*
X126923468Y-136112960D01*
X126836238Y-136112960D01*
X126836725Y-136075549D01*
X126846550Y-135975275D01*
X126868705Y-135927256D01*
X126907921Y-135913158D01*
X126920572Y-135912785D01*
X127075028Y-135936811D01*
G37*
G36*
X127091262Y-131832365D02*
G01*
X127457268Y-132200282D01*
X127457268Y-133789633D01*
X127457268Y-135378984D01*
X125888247Y-135378984D01*
X124319227Y-135378984D01*
X123953221Y-135011067D01*
X123809419Y-134863891D01*
X123692177Y-134738905D01*
X123613977Y-134649760D01*
X123587216Y-134610717D01*
X123629324Y-134600218D01*
X123746161Y-134591136D01*
X123923489Y-134584063D01*
X124147075Y-134579594D01*
X124365674Y-134578284D01*
X125144133Y-134578284D01*
X125900350Y-134578284D01*
X126300701Y-134578284D01*
X126701051Y-134578284D01*
X126701051Y-134200175D01*
X126701051Y-133822067D01*
X126300701Y-133822067D01*
X125900350Y-133822067D01*
X125900350Y-134200175D01*
X125900350Y-134578284D01*
X125144133Y-134578284D01*
X125144133Y-134200175D01*
X125144133Y-133822067D01*
X124753976Y-133822067D01*
X124363819Y-133822067D01*
X123975517Y-133431957D01*
X123587216Y-133041848D01*
X123587216Y-133021366D01*
X124343433Y-133021366D01*
X124743783Y-133021366D01*
X125144133Y-133021366D01*
X125900350Y-133021366D01*
X126300701Y-133021366D01*
X126701051Y-133021366D01*
X126701051Y-132621016D01*
X126701051Y-132220666D01*
X126300701Y-132220666D01*
X125900350Y-132220666D01*
X125900350Y-132621016D01*
X125900350Y-133021366D01*
X125144133Y-133021366D01*
X125144133Y-132621016D01*
X125144133Y-132220666D01*
X124743783Y-132220666D01*
X124343433Y-132220666D01*
X124343433Y-132621016D01*
X124343433Y-133021366D01*
X123587216Y-133021366D01*
X123587216Y-132621016D01*
X123587216Y-132253148D01*
X123587216Y-131464448D01*
X125156236Y-131464448D01*
X126725257Y-131464448D01*
X127091262Y-131832365D01*
G37*
D14*
%TO.C,U1*%
X151050000Y-99000000D02*
X202000000Y-99000000D01*
X151050000Y-99000000D02*
X202000000Y-99000000D01*
X151050000Y-109730000D02*
X151050000Y-99000000D01*
X151050000Y-116441000D02*
X151050000Y-109730000D01*
X151050000Y-127510000D02*
X151050000Y-99000000D01*
X151050000Y-127510000D02*
X151050000Y-116441000D01*
X202000000Y-99000000D02*
X202000000Y-127510000D01*
X202000000Y-104450000D02*
X202000000Y-99000000D01*
X202000000Y-122140000D02*
X202000000Y-104450000D01*
X202000000Y-127510000D02*
X151050000Y-127510000D01*
X202000000Y-127510000D02*
X151050000Y-127510000D01*
X202000000Y-127510000D02*
X202000000Y-122140000D01*
D10*
X161110000Y-128080000D02*
G75*
G02*
X160910000Y-128080000I-100000J0D01*
G01*
X160910000Y-128080000D02*
G75*
G02*
X161110000Y-128080000I100000J0D01*
G01*
D12*
%TO.C,J6*%
X195100000Y-58160000D02*
X195100000Y-58660000D01*
X195340000Y-58400000D02*
X195340000Y-59170000D01*
X195340000Y-60750000D02*
X195340000Y-61710000D01*
X195340000Y-63290000D02*
X195340000Y-64060000D01*
X195840000Y-58160000D02*
X195100000Y-58160000D01*
X195900000Y-58400000D02*
X195900000Y-59170000D01*
X195900000Y-60750000D02*
X195900000Y-61710000D01*
X195900000Y-63290000D02*
X195900000Y-64060000D01*
X201200000Y-58400000D02*
X201200000Y-64060000D01*
X201660000Y-58400000D02*
X195340000Y-58400000D01*
X201660000Y-58400000D02*
X201660000Y-64060000D01*
X201660000Y-64060000D02*
X195340000Y-64060000D01*
%TO.C,TP1*%
X153950000Y-43500000D02*
G75*
G02*
X152050000Y-43500000I-950000J0D01*
G01*
X152050000Y-43500000D02*
G75*
G02*
X153950000Y-43500000I950000J0D01*
G01*
%TO.C,J1*%
X117900000Y-46660000D02*
X117900000Y-40340000D01*
X118670000Y-40340000D02*
X117900000Y-40340000D01*
X118670000Y-40900000D02*
X117900000Y-40900000D01*
X121210000Y-40340000D02*
X120250000Y-40340000D01*
X121210000Y-40900000D02*
X120250000Y-40900000D01*
X123560000Y-40340000D02*
X122790000Y-40340000D01*
X123560000Y-40900000D02*
X122790000Y-40900000D01*
X123560000Y-46200000D02*
X117900000Y-46200000D01*
X123560000Y-46660000D02*
X117900000Y-46660000D01*
X123560000Y-46660000D02*
X123560000Y-40340000D01*
X123800000Y-40100000D02*
X123300000Y-40100000D01*
X123800000Y-40840000D02*
X123800000Y-40100000D01*
D13*
%TO.C,G\u002A\u002A\u002A*%
G36*
X120000923Y-134936077D02*
G01*
X120000923Y-136000923D01*
X118936077Y-136000923D01*
X117871230Y-136000923D01*
X117871230Y-134936077D01*
X117871230Y-133871230D01*
X118936077Y-133871230D01*
X120000923Y-133871230D01*
X120000923Y-134936077D01*
G37*
G36*
X119258461Y-132063923D02*
G01*
X119258461Y-133128769D01*
X118193615Y-133128769D01*
X117128769Y-133128769D01*
X117128769Y-134203384D01*
X117128769Y-135278000D01*
X116063923Y-135278000D01*
X114999077Y-135278000D01*
X114999077Y-133138538D01*
X114999077Y-130999077D01*
X117128769Y-130999077D01*
X119258461Y-130999077D01*
X119258461Y-132063923D01*
G37*
D12*
%TO.C,J7*%
X140300000Y-82400000D02*
X146620000Y-82400000D01*
X140300000Y-88060000D02*
X140300000Y-82400000D01*
X140300000Y-88060000D02*
X146620000Y-88060000D01*
X140760000Y-88060000D02*
X140760000Y-82400000D01*
X146060000Y-83170000D02*
X146060000Y-82400000D01*
X146060000Y-85710000D02*
X146060000Y-84750000D01*
X146060000Y-88060000D02*
X146060000Y-87290000D01*
X146120000Y-88300000D02*
X146860000Y-88300000D01*
X146620000Y-83170000D02*
X146620000Y-82400000D01*
X146620000Y-85710000D02*
X146620000Y-84750000D01*
X146620000Y-88060000D02*
X146620000Y-87290000D01*
X146860000Y-88300000D02*
X146860000Y-87800000D01*
%TO.C,J5*%
X115550000Y-52670000D02*
X115550000Y-55330000D01*
X125770000Y-52670000D02*
X115550000Y-52670000D01*
X125770000Y-52670000D02*
X125770000Y-55330000D01*
X125770000Y-55330000D02*
X115550000Y-55330000D01*
X128370000Y-54000000D02*
X128370000Y-55330000D01*
X128370000Y-55330000D02*
X127040000Y-55330000D01*
%TO.C,D1*%
X132510000Y-40350000D02*
X127000000Y-40350000D01*
X132510000Y-43650000D02*
X127000000Y-43650000D01*
X132510000Y-43650000D02*
X132510000Y-40350000D01*
%TO.C,TP2*%
X199450000Y-78000000D02*
G75*
G02*
X197550000Y-78000000I-950000J0D01*
G01*
X197550000Y-78000000D02*
G75*
G02*
X199450000Y-78000000I950000J0D01*
G01*
%TO.C,TP3*%
X199450000Y-54500000D02*
G75*
G02*
X197550000Y-54500000I-950000J0D01*
G01*
X197550000Y-54500000D02*
G75*
G02*
X199450000Y-54500000I950000J0D01*
G01*
%TO.C,F1*%
X128497936Y-46090000D02*
X129702064Y-46090000D01*
X128497936Y-47910000D02*
X129702064Y-47910000D01*
%TO.C,J3*%
X117090000Y-88170000D02*
X118420000Y-88170000D01*
X117090000Y-89500000D02*
X117090000Y-88170000D01*
X119690000Y-88170000D02*
X127370000Y-88170000D01*
X119690000Y-90830000D02*
X119690000Y-88170000D01*
X119690000Y-90830000D02*
X127370000Y-90830000D01*
X127370000Y-90830000D02*
X127370000Y-88170000D01*
%TO.C,J4*%
X140300000Y-58400000D02*
X146620000Y-58400000D01*
X140300000Y-64060000D02*
X140300000Y-58400000D01*
X140300000Y-64060000D02*
X146620000Y-64060000D01*
X140760000Y-64060000D02*
X140760000Y-58400000D01*
X146060000Y-59170000D02*
X146060000Y-58400000D01*
X146060000Y-61710000D02*
X146060000Y-60750000D01*
X146060000Y-64060000D02*
X146060000Y-63290000D01*
X146120000Y-64300000D02*
X146860000Y-64300000D01*
X146620000Y-59170000D02*
X146620000Y-58400000D01*
X146620000Y-61710000D02*
X146620000Y-60750000D01*
X146620000Y-64060000D02*
X146620000Y-63290000D01*
X146860000Y-64300000D02*
X146860000Y-63800000D01*
%TO.C,J8*%
X195100000Y-82160000D02*
X195100000Y-82660000D01*
X195340000Y-82400000D02*
X195340000Y-83170000D01*
X195340000Y-84750000D02*
X195340000Y-85710000D01*
X195340000Y-87290000D02*
X195340000Y-88060000D01*
X195840000Y-82160000D02*
X195100000Y-82160000D01*
X195900000Y-82400000D02*
X195900000Y-83170000D01*
X195900000Y-84750000D02*
X195900000Y-85710000D01*
X195900000Y-87290000D02*
X195900000Y-88060000D01*
X201200000Y-82400000D02*
X201200000Y-88060000D01*
X201660000Y-82400000D02*
X195340000Y-82400000D01*
X201660000Y-82400000D02*
X201660000Y-88060000D01*
X201660000Y-88060000D02*
X195340000Y-88060000D01*
%TO.C,J2*%
X141900000Y-46700000D02*
X141900000Y-40380000D01*
X142670000Y-40380000D02*
X141900000Y-40380000D01*
X142670000Y-40940000D02*
X141900000Y-40940000D01*
X145210000Y-40380000D02*
X144250000Y-40380000D01*
X145210000Y-40940000D02*
X144250000Y-40940000D01*
X147750000Y-40380000D02*
X146790000Y-40380000D01*
X147750000Y-40940000D02*
X146790000Y-40940000D01*
X150100000Y-40380000D02*
X149330000Y-40380000D01*
X150100000Y-40940000D02*
X149330000Y-40940000D01*
X150100000Y-46240000D02*
X141900000Y-46240000D01*
X150100000Y-46700000D02*
X141900000Y-46700000D01*
X150100000Y-46700000D02*
X150100000Y-40380000D01*
X150340000Y-40140000D02*
X149840000Y-40140000D01*
X150340000Y-40880000D02*
X150340000Y-40140000D01*
%TD*%
M02*
