M48
; DRILL file {KiCad 8.0.7} date 2025-03-03T08:31:04+0700
; FORMAT={-:-/ absolute / inch / decimal}
; #@! TF.CreationDate,2025-03-03T08:31:04+07:00
; #@! TF.GenerationSoftware,Kicad,Pcbnew,8.0.7
; #@! TF.FileFunction,NonPlated,1,2,NPTH
FMAT,2
INCH
; #@! TA.AperFunction,NonPlated,NPTH,ComponentDrill
T1C0.0433
; #@! TA.AperFunction,NonPlated,NPTH,ComponentDrill
T2C0.0866
; #@! TA.AperFunction,NonPlated,NPTH,ComponentDrill
T3C0.1181
%
G90
G05
T1
X4.7031Y-1.6126
X4.8031Y-1.6126
X5.648Y-1.6142
X5.748Y-1.6142
X5.748Y-2.3606
X5.748Y-2.4606
X5.748Y-3.3055
X5.748Y-3.4055
X5.848Y-1.6142
X7.715Y-2.3606
X7.715Y-2.4606
X7.715Y-3.3055
X7.715Y-3.4055
T2
X4.3307Y-1.6732
X4.3307Y-5.2165
X6.2205Y-2.6772
X6.2205Y-3.6614
X7.2441Y-2.1654
X7.2638Y-3.1102
X7.874Y-1.6732
X7.874Y-5.2165
T3
X6.0256Y-3.9764
X6.0256Y-4.9413
X7.874Y-3.9764
X7.874Y-4.9413
M30
