<svg width="1920" height="557" viewBox="0 0 1920 557" fill="none" xmlns="http://www.w3.org/2000/svg">
<g clip-path="url(#clip0_1013_27)">
<path fill-rule="evenodd" clip-rule="evenodd" d="M262.154 0H0V254.891H131.076V127.446H262.153V254.891H262.154V0Z" fill="#009EFF"/>
<path d="M306.811 170.2H175.734V297.645H306.811V170.2Z" fill="#009EFF"/>
<path d="M580.316 237.271V275.188C561.473 248.348 530.803 230.88 491.804 230.88C421.255 230.88 377.001 281.579 377.001 343.781C377.001 405.984 421.255 456.68 491.804 456.68C530.803 456.68 561.473 439.212 580.316 412.374V452.847C580.316 500.989 547.015 531.237 494.434 531.237C448.423 531.237 419.504 511.215 406.36 470.742L380.507 488.632C398.473 534.221 435.717 556.8 494.434 556.8C564.541 556.8 608.797 517.179 608.797 454.126V237.271H580.316ZM405.922 343.781C405.922 296.49 437.468 256.443 494.872 256.443C550.959 256.443 581.191 296.49 581.191 343.781C581.191 391.496 550.959 431.117 494.872 431.117C437.468 431.117 405.922 391.069 405.922 343.781Z" fill="black"/>
<path d="M756.595 230.88C693.058 230.88 646.172 281.579 646.172 348.041C646.172 417.485 693.058 465.201 760.097 465.201C800.409 465.201 843.79 448.585 863.071 409.39L840.284 391.496C826.264 423.875 799.096 439.212 760.097 439.212C714.966 439.212 679.472 410.243 675.529 357.84H866.139C866.576 353.58 866.576 348.467 866.576 344.633C866.576 276.893 826.264 230.88 756.595 230.88ZM675.97 333.13C681.665 283.709 716.72 256.869 756.595 256.869C803.04 256.869 835.465 284.987 835.465 333.13H675.97Z" fill="black"/>
<path d="M923.796 177.625V237.271H884.359V263.685H923.796V404.705C923.796 449.011 947.458 464.348 989.522 464.348C995.22 464.348 1007.05 463.073 1013.18 460.942V436.232C1007.93 437.084 999.164 438.363 993.903 438.363C968.052 438.363 952.277 434.953 952.277 401.295V263.685H1018.88V237.271H952.277V156.323L923.796 177.625Z" fill="black"/>
<path d="M1133.68 229.176C1081.98 229.176 1037.72 259.425 1037.72 301.176C1037.72 390.217 1178.81 354.431 1178.81 397.889C1178.81 413.652 1160.85 421.747 1139.82 421.747C1111.33 421.747 1087.68 409.816 1085.48 377.438L1031.59 400.016C1039.91 442.195 1081.98 465.2 1139.82 465.2C1194.59 465.2 1239.28 443.047 1239.28 394.479C1239.28 305.437 1096 339.094 1096 297.768C1096 282.431 1110.02 272.206 1133.68 272.206C1163.04 272.206 1181.44 286.265 1183.2 312.254L1236.66 292.656C1227.89 253.886 1189.77 229.176 1133.68 229.176Z" fill="black"/>
<path d="M1287.97 194.667V237.271H1246.78V284.135H1287.97V390.643C1287.97 443.048 1316.01 464.348 1368.16 464.348C1375.61 464.348 1398.39 462.221 1406.28 459.237V411.095C1397.95 412.8 1383.93 414.505 1376.04 414.505C1354.13 414.505 1344.93 408.111 1344.93 382.976V284.135H1408.91V237.271H1344.93V152.915L1287.97 194.667Z" fill="black"/>
<path d="M1546.81 229.176C1475.38 229.176 1422.36 278.171 1422.36 347.189C1422.36 416.206 1475.38 465.2 1546.81 465.2C1618.23 465.2 1671.25 416.206 1671.25 347.189C1671.25 278.171 1618.23 229.176 1546.81 229.176ZM1481.52 347.189C1481.52 305.863 1509.12 279.875 1546.81 279.875C1584.05 279.875 1612.09 305.863 1612.09 347.189C1612.09 388.516 1584.05 414.505 1546.81 414.505C1509.56 414.505 1481.52 388.516 1481.52 347.189Z" fill="black"/>
<path d="M1699.16 145.672V458.811H1756.12V389.368L1779.78 367.213L1850.33 458.811H1920L1819.66 329.721L1917.81 237.271H1841.57L1756.12 318.644V145.672H1699.16Z" fill="black"/>
</g>
<defs>
<clipPath id="clip0_1013_27">
<rect width="1920" height="556.8" fill="white"/>
</clipPath>
</defs>
</svg>
