%TF.GenerationSoftware,KiCad,Pcbnew,8.0.7*%
%TF.CreationDate,2025-04-11T13:17:33+07:00*%
%TF.ProjectId,esp32_getstok_testing-2,65737033-325f-4676-9574-73746f6b5f74,rev?*%
%TF.SameCoordinates,Original*%
%TF.FileFunction,Legend,Top*%
%TF.FilePolarity,Positive*%
%FSLAX46Y46*%
G04 Gerber Fmt 4.6, Leading zero omitted, Abs format (unit mm)*
G04 Created by KiCad (PCBNEW 8.0.7) date 2025-04-11 13:17:33*
%MOMM*%
%LPD*%
G01*
G04 APERTURE LIST*
%ADD10C,0.100000*%
%ADD11C,0.200000*%
%ADD12C,0.150000*%
%ADD13C,0.120000*%
%ADD14C,0.000000*%
%ADD15C,0.127000*%
G04 APERTURE END LIST*
D10*
X173835000Y-46365000D02*
X195285000Y-46365000D01*
X195285000Y-90115000D01*
X173835000Y-90115000D01*
X173835000Y-46365000D01*
X172260000Y-93140000D02*
X209260000Y-93140000D01*
X209260000Y-120140000D01*
X172260000Y-120140000D01*
X172260000Y-93140000D01*
X196260000Y-46390000D02*
X217710000Y-46390000D01*
X217710000Y-90140000D01*
X196260000Y-90140000D01*
X196260000Y-46390000D01*
D11*
X188693482Y-128157275D02*
X188122054Y-128157275D01*
X188407768Y-128157275D02*
X188407768Y-127157275D01*
X188407768Y-127157275D02*
X188312530Y-127300132D01*
X188312530Y-127300132D02*
X188217292Y-127395370D01*
X188217292Y-127395370D02*
X188122054Y-127442989D01*
X189026816Y-127157275D02*
X189645863Y-127157275D01*
X189645863Y-127157275D02*
X189312530Y-127538227D01*
X189312530Y-127538227D02*
X189455387Y-127538227D01*
X189455387Y-127538227D02*
X189550625Y-127585846D01*
X189550625Y-127585846D02*
X189598244Y-127633465D01*
X189598244Y-127633465D02*
X189645863Y-127728703D01*
X189645863Y-127728703D02*
X189645863Y-127966798D01*
X189645863Y-127966798D02*
X189598244Y-128062036D01*
X189598244Y-128062036D02*
X189550625Y-128109656D01*
X189550625Y-128109656D02*
X189455387Y-128157275D01*
X189455387Y-128157275D02*
X189169673Y-128157275D01*
X189169673Y-128157275D02*
X189074435Y-128109656D01*
X189074435Y-128109656D02*
X189026816Y-128062036D01*
X190026816Y-127252513D02*
X190074435Y-127204894D01*
X190074435Y-127204894D02*
X190169673Y-127157275D01*
X190169673Y-127157275D02*
X190407768Y-127157275D01*
X190407768Y-127157275D02*
X190503006Y-127204894D01*
X190503006Y-127204894D02*
X190550625Y-127252513D01*
X190550625Y-127252513D02*
X190598244Y-127347751D01*
X190598244Y-127347751D02*
X190598244Y-127442989D01*
X190598244Y-127442989D02*
X190550625Y-127585846D01*
X190550625Y-127585846D02*
X189979197Y-128157275D01*
X189979197Y-128157275D02*
X190598244Y-128157275D01*
X190979197Y-127252513D02*
X191026816Y-127204894D01*
X191026816Y-127204894D02*
X191122054Y-127157275D01*
X191122054Y-127157275D02*
X191360149Y-127157275D01*
X191360149Y-127157275D02*
X191455387Y-127204894D01*
X191455387Y-127204894D02*
X191503006Y-127252513D01*
X191503006Y-127252513D02*
X191550625Y-127347751D01*
X191550625Y-127347751D02*
X191550625Y-127442989D01*
X191550625Y-127442989D02*
X191503006Y-127585846D01*
X191503006Y-127585846D02*
X190931578Y-128157275D01*
X190931578Y-128157275D02*
X191550625Y-128157275D01*
X192503006Y-128157275D02*
X191931578Y-128157275D01*
X192217292Y-128157275D02*
X192217292Y-127157275D01*
X192217292Y-127157275D02*
X192122054Y-127300132D01*
X192122054Y-127300132D02*
X192026816Y-127395370D01*
X192026816Y-127395370D02*
X191931578Y-127442989D01*
X193122054Y-127157275D02*
X193217292Y-127157275D01*
X193217292Y-127157275D02*
X193312530Y-127204894D01*
X193312530Y-127204894D02*
X193360149Y-127252513D01*
X193360149Y-127252513D02*
X193407768Y-127347751D01*
X193407768Y-127347751D02*
X193455387Y-127538227D01*
X193455387Y-127538227D02*
X193455387Y-127776322D01*
X193455387Y-127776322D02*
X193407768Y-127966798D01*
X193407768Y-127966798D02*
X193360149Y-128062036D01*
X193360149Y-128062036D02*
X193312530Y-128109656D01*
X193312530Y-128109656D02*
X193217292Y-128157275D01*
X193217292Y-128157275D02*
X193122054Y-128157275D01*
X193122054Y-128157275D02*
X193026816Y-128109656D01*
X193026816Y-128109656D02*
X192979197Y-128062036D01*
X192979197Y-128062036D02*
X192931578Y-127966798D01*
X192931578Y-127966798D02*
X192883959Y-127776322D01*
X192883959Y-127776322D02*
X192883959Y-127538227D01*
X192883959Y-127538227D02*
X192931578Y-127347751D01*
X192931578Y-127347751D02*
X192979197Y-127252513D01*
X192979197Y-127252513D02*
X193026816Y-127204894D01*
X193026816Y-127204894D02*
X193122054Y-127157275D01*
X194074435Y-127157275D02*
X194169673Y-127157275D01*
X194169673Y-127157275D02*
X194264911Y-127204894D01*
X194264911Y-127204894D02*
X194312530Y-127252513D01*
X194312530Y-127252513D02*
X194360149Y-127347751D01*
X194360149Y-127347751D02*
X194407768Y-127538227D01*
X194407768Y-127538227D02*
X194407768Y-127776322D01*
X194407768Y-127776322D02*
X194360149Y-127966798D01*
X194360149Y-127966798D02*
X194312530Y-128062036D01*
X194312530Y-128062036D02*
X194264911Y-128109656D01*
X194264911Y-128109656D02*
X194169673Y-128157275D01*
X194169673Y-128157275D02*
X194074435Y-128157275D01*
X194074435Y-128157275D02*
X193979197Y-128109656D01*
X193979197Y-128109656D02*
X193931578Y-128062036D01*
X193931578Y-128062036D02*
X193883959Y-127966798D01*
X193883959Y-127966798D02*
X193836340Y-127776322D01*
X193836340Y-127776322D02*
X193836340Y-127538227D01*
X193836340Y-127538227D02*
X193883959Y-127347751D01*
X193883959Y-127347751D02*
X193931578Y-127252513D01*
X193931578Y-127252513D02*
X193979197Y-127204894D01*
X193979197Y-127204894D02*
X194074435Y-127157275D01*
X195264911Y-127157275D02*
X195074435Y-127157275D01*
X195074435Y-127157275D02*
X194979197Y-127204894D01*
X194979197Y-127204894D02*
X194931578Y-127252513D01*
X194931578Y-127252513D02*
X194836340Y-127395370D01*
X194836340Y-127395370D02*
X194788721Y-127585846D01*
X194788721Y-127585846D02*
X194788721Y-127966798D01*
X194788721Y-127966798D02*
X194836340Y-128062036D01*
X194836340Y-128062036D02*
X194883959Y-128109656D01*
X194883959Y-128109656D02*
X194979197Y-128157275D01*
X194979197Y-128157275D02*
X195169673Y-128157275D01*
X195169673Y-128157275D02*
X195264911Y-128109656D01*
X195264911Y-128109656D02*
X195312530Y-128062036D01*
X195312530Y-128062036D02*
X195360149Y-127966798D01*
X195360149Y-127966798D02*
X195360149Y-127728703D01*
X195360149Y-127728703D02*
X195312530Y-127633465D01*
X195312530Y-127633465D02*
X195264911Y-127585846D01*
X195264911Y-127585846D02*
X195169673Y-127538227D01*
X195169673Y-127538227D02*
X194979197Y-127538227D01*
X194979197Y-127538227D02*
X194883959Y-127585846D01*
X194883959Y-127585846D02*
X194836340Y-127633465D01*
X194836340Y-127633465D02*
X194788721Y-127728703D01*
X196788721Y-128490608D02*
X196788721Y-127062036D01*
X198788721Y-128157275D02*
X198217293Y-128157275D01*
X198503007Y-128157275D02*
X198503007Y-127157275D01*
X198503007Y-127157275D02*
X198407769Y-127300132D01*
X198407769Y-127300132D02*
X198312531Y-127395370D01*
X198312531Y-127395370D02*
X198217293Y-127442989D01*
X199122055Y-127157275D02*
X199741102Y-127157275D01*
X199741102Y-127157275D02*
X199407769Y-127538227D01*
X199407769Y-127538227D02*
X199550626Y-127538227D01*
X199550626Y-127538227D02*
X199645864Y-127585846D01*
X199645864Y-127585846D02*
X199693483Y-127633465D01*
X199693483Y-127633465D02*
X199741102Y-127728703D01*
X199741102Y-127728703D02*
X199741102Y-127966798D01*
X199741102Y-127966798D02*
X199693483Y-128062036D01*
X199693483Y-128062036D02*
X199645864Y-128109656D01*
X199645864Y-128109656D02*
X199550626Y-128157275D01*
X199550626Y-128157275D02*
X199264912Y-128157275D01*
X199264912Y-128157275D02*
X199169674Y-128109656D01*
X199169674Y-128109656D02*
X199122055Y-128062036D01*
X200122055Y-127252513D02*
X200169674Y-127204894D01*
X200169674Y-127204894D02*
X200264912Y-127157275D01*
X200264912Y-127157275D02*
X200503007Y-127157275D01*
X200503007Y-127157275D02*
X200598245Y-127204894D01*
X200598245Y-127204894D02*
X200645864Y-127252513D01*
X200645864Y-127252513D02*
X200693483Y-127347751D01*
X200693483Y-127347751D02*
X200693483Y-127442989D01*
X200693483Y-127442989D02*
X200645864Y-127585846D01*
X200645864Y-127585846D02*
X200074436Y-128157275D01*
X200074436Y-128157275D02*
X200693483Y-128157275D01*
X201074436Y-127252513D02*
X201122055Y-127204894D01*
X201122055Y-127204894D02*
X201217293Y-127157275D01*
X201217293Y-127157275D02*
X201455388Y-127157275D01*
X201455388Y-127157275D02*
X201550626Y-127204894D01*
X201550626Y-127204894D02*
X201598245Y-127252513D01*
X201598245Y-127252513D02*
X201645864Y-127347751D01*
X201645864Y-127347751D02*
X201645864Y-127442989D01*
X201645864Y-127442989D02*
X201598245Y-127585846D01*
X201598245Y-127585846D02*
X201026817Y-128157275D01*
X201026817Y-128157275D02*
X201645864Y-128157275D01*
X202598245Y-128157275D02*
X202026817Y-128157275D01*
X202312531Y-128157275D02*
X202312531Y-127157275D01*
X202312531Y-127157275D02*
X202217293Y-127300132D01*
X202217293Y-127300132D02*
X202122055Y-127395370D01*
X202122055Y-127395370D02*
X202026817Y-127442989D01*
X203217293Y-127157275D02*
X203312531Y-127157275D01*
X203312531Y-127157275D02*
X203407769Y-127204894D01*
X203407769Y-127204894D02*
X203455388Y-127252513D01*
X203455388Y-127252513D02*
X203503007Y-127347751D01*
X203503007Y-127347751D02*
X203550626Y-127538227D01*
X203550626Y-127538227D02*
X203550626Y-127776322D01*
X203550626Y-127776322D02*
X203503007Y-127966798D01*
X203503007Y-127966798D02*
X203455388Y-128062036D01*
X203455388Y-128062036D02*
X203407769Y-128109656D01*
X203407769Y-128109656D02*
X203312531Y-128157275D01*
X203312531Y-128157275D02*
X203217293Y-128157275D01*
X203217293Y-128157275D02*
X203122055Y-128109656D01*
X203122055Y-128109656D02*
X203074436Y-128062036D01*
X203074436Y-128062036D02*
X203026817Y-127966798D01*
X203026817Y-127966798D02*
X202979198Y-127776322D01*
X202979198Y-127776322D02*
X202979198Y-127538227D01*
X202979198Y-127538227D02*
X203026817Y-127347751D01*
X203026817Y-127347751D02*
X203074436Y-127252513D01*
X203074436Y-127252513D02*
X203122055Y-127204894D01*
X203122055Y-127204894D02*
X203217293Y-127157275D01*
X204503007Y-128157275D02*
X203931579Y-128157275D01*
X204217293Y-128157275D02*
X204217293Y-127157275D01*
X204217293Y-127157275D02*
X204122055Y-127300132D01*
X204122055Y-127300132D02*
X204026817Y-127395370D01*
X204026817Y-127395370D02*
X203931579Y-127442989D01*
X205360150Y-127490608D02*
X205360150Y-128157275D01*
X205122055Y-127109656D02*
X204883960Y-127823941D01*
X204883960Y-127823941D02*
X205503007Y-127823941D01*
X188693482Y-129767219D02*
X188122054Y-129767219D01*
X188407768Y-129767219D02*
X188407768Y-128767219D01*
X188407768Y-128767219D02*
X188312530Y-128910076D01*
X188312530Y-128910076D02*
X188217292Y-129005314D01*
X188217292Y-129005314D02*
X188122054Y-129052933D01*
X189264911Y-129195790D02*
X189169673Y-129148171D01*
X189169673Y-129148171D02*
X189122054Y-129100552D01*
X189122054Y-129100552D02*
X189074435Y-129005314D01*
X189074435Y-129005314D02*
X189074435Y-128957695D01*
X189074435Y-128957695D02*
X189122054Y-128862457D01*
X189122054Y-128862457D02*
X189169673Y-128814838D01*
X189169673Y-128814838D02*
X189264911Y-128767219D01*
X189264911Y-128767219D02*
X189455387Y-128767219D01*
X189455387Y-128767219D02*
X189550625Y-128814838D01*
X189550625Y-128814838D02*
X189598244Y-128862457D01*
X189598244Y-128862457D02*
X189645863Y-128957695D01*
X189645863Y-128957695D02*
X189645863Y-129005314D01*
X189645863Y-129005314D02*
X189598244Y-129100552D01*
X189598244Y-129100552D02*
X189550625Y-129148171D01*
X189550625Y-129148171D02*
X189455387Y-129195790D01*
X189455387Y-129195790D02*
X189264911Y-129195790D01*
X189264911Y-129195790D02*
X189169673Y-129243409D01*
X189169673Y-129243409D02*
X189122054Y-129291028D01*
X189122054Y-129291028D02*
X189074435Y-129386266D01*
X189074435Y-129386266D02*
X189074435Y-129576742D01*
X189074435Y-129576742D02*
X189122054Y-129671980D01*
X189122054Y-129671980D02*
X189169673Y-129719600D01*
X189169673Y-129719600D02*
X189264911Y-129767219D01*
X189264911Y-129767219D02*
X189455387Y-129767219D01*
X189455387Y-129767219D02*
X189550625Y-129719600D01*
X189550625Y-129719600D02*
X189598244Y-129671980D01*
X189598244Y-129671980D02*
X189645863Y-129576742D01*
X189645863Y-129576742D02*
X189645863Y-129386266D01*
X189645863Y-129386266D02*
X189598244Y-129291028D01*
X189598244Y-129291028D02*
X189550625Y-129243409D01*
X189550625Y-129243409D02*
X189455387Y-129195790D01*
X190026816Y-128862457D02*
X190074435Y-128814838D01*
X190074435Y-128814838D02*
X190169673Y-128767219D01*
X190169673Y-128767219D02*
X190407768Y-128767219D01*
X190407768Y-128767219D02*
X190503006Y-128814838D01*
X190503006Y-128814838D02*
X190550625Y-128862457D01*
X190550625Y-128862457D02*
X190598244Y-128957695D01*
X190598244Y-128957695D02*
X190598244Y-129052933D01*
X190598244Y-129052933D02*
X190550625Y-129195790D01*
X190550625Y-129195790D02*
X189979197Y-129767219D01*
X189979197Y-129767219D02*
X190598244Y-129767219D01*
X190979197Y-128862457D02*
X191026816Y-128814838D01*
X191026816Y-128814838D02*
X191122054Y-128767219D01*
X191122054Y-128767219D02*
X191360149Y-128767219D01*
X191360149Y-128767219D02*
X191455387Y-128814838D01*
X191455387Y-128814838D02*
X191503006Y-128862457D01*
X191503006Y-128862457D02*
X191550625Y-128957695D01*
X191550625Y-128957695D02*
X191550625Y-129052933D01*
X191550625Y-129052933D02*
X191503006Y-129195790D01*
X191503006Y-129195790D02*
X190931578Y-129767219D01*
X190931578Y-129767219D02*
X191550625Y-129767219D01*
X192503006Y-129767219D02*
X191931578Y-129767219D01*
X192217292Y-129767219D02*
X192217292Y-128767219D01*
X192217292Y-128767219D02*
X192122054Y-128910076D01*
X192122054Y-128910076D02*
X192026816Y-129005314D01*
X192026816Y-129005314D02*
X191931578Y-129052933D01*
X193122054Y-128767219D02*
X193217292Y-128767219D01*
X193217292Y-128767219D02*
X193312530Y-128814838D01*
X193312530Y-128814838D02*
X193360149Y-128862457D01*
X193360149Y-128862457D02*
X193407768Y-128957695D01*
X193407768Y-128957695D02*
X193455387Y-129148171D01*
X193455387Y-129148171D02*
X193455387Y-129386266D01*
X193455387Y-129386266D02*
X193407768Y-129576742D01*
X193407768Y-129576742D02*
X193360149Y-129671980D01*
X193360149Y-129671980D02*
X193312530Y-129719600D01*
X193312530Y-129719600D02*
X193217292Y-129767219D01*
X193217292Y-129767219D02*
X193122054Y-129767219D01*
X193122054Y-129767219D02*
X193026816Y-129719600D01*
X193026816Y-129719600D02*
X192979197Y-129671980D01*
X192979197Y-129671980D02*
X192931578Y-129576742D01*
X192931578Y-129576742D02*
X192883959Y-129386266D01*
X192883959Y-129386266D02*
X192883959Y-129148171D01*
X192883959Y-129148171D02*
X192931578Y-128957695D01*
X192931578Y-128957695D02*
X192979197Y-128862457D01*
X192979197Y-128862457D02*
X193026816Y-128814838D01*
X193026816Y-128814838D02*
X193122054Y-128767219D01*
X194360149Y-128767219D02*
X193883959Y-128767219D01*
X193883959Y-128767219D02*
X193836340Y-129243409D01*
X193836340Y-129243409D02*
X193883959Y-129195790D01*
X193883959Y-129195790D02*
X193979197Y-129148171D01*
X193979197Y-129148171D02*
X194217292Y-129148171D01*
X194217292Y-129148171D02*
X194312530Y-129195790D01*
X194312530Y-129195790D02*
X194360149Y-129243409D01*
X194360149Y-129243409D02*
X194407768Y-129338647D01*
X194407768Y-129338647D02*
X194407768Y-129576742D01*
X194407768Y-129576742D02*
X194360149Y-129671980D01*
X194360149Y-129671980D02*
X194312530Y-129719600D01*
X194312530Y-129719600D02*
X194217292Y-129767219D01*
X194217292Y-129767219D02*
X193979197Y-129767219D01*
X193979197Y-129767219D02*
X193883959Y-129719600D01*
X193883959Y-129719600D02*
X193836340Y-129671980D01*
X195264911Y-128767219D02*
X195074435Y-128767219D01*
X195074435Y-128767219D02*
X194979197Y-128814838D01*
X194979197Y-128814838D02*
X194931578Y-128862457D01*
X194931578Y-128862457D02*
X194836340Y-129005314D01*
X194836340Y-129005314D02*
X194788721Y-129195790D01*
X194788721Y-129195790D02*
X194788721Y-129576742D01*
X194788721Y-129576742D02*
X194836340Y-129671980D01*
X194836340Y-129671980D02*
X194883959Y-129719600D01*
X194883959Y-129719600D02*
X194979197Y-129767219D01*
X194979197Y-129767219D02*
X195169673Y-129767219D01*
X195169673Y-129767219D02*
X195264911Y-129719600D01*
X195264911Y-129719600D02*
X195312530Y-129671980D01*
X195312530Y-129671980D02*
X195360149Y-129576742D01*
X195360149Y-129576742D02*
X195360149Y-129338647D01*
X195360149Y-129338647D02*
X195312530Y-129243409D01*
X195312530Y-129243409D02*
X195264911Y-129195790D01*
X195264911Y-129195790D02*
X195169673Y-129148171D01*
X195169673Y-129148171D02*
X194979197Y-129148171D01*
X194979197Y-129148171D02*
X194883959Y-129195790D01*
X194883959Y-129195790D02*
X194836340Y-129243409D01*
X194836340Y-129243409D02*
X194788721Y-129338647D01*
X196788721Y-130100552D02*
X196788721Y-128671980D01*
X198788721Y-129767219D02*
X198217293Y-129767219D01*
X198503007Y-129767219D02*
X198503007Y-128767219D01*
X198503007Y-128767219D02*
X198407769Y-128910076D01*
X198407769Y-128910076D02*
X198312531Y-129005314D01*
X198312531Y-129005314D02*
X198217293Y-129052933D01*
X199360150Y-129195790D02*
X199264912Y-129148171D01*
X199264912Y-129148171D02*
X199217293Y-129100552D01*
X199217293Y-129100552D02*
X199169674Y-129005314D01*
X199169674Y-129005314D02*
X199169674Y-128957695D01*
X199169674Y-128957695D02*
X199217293Y-128862457D01*
X199217293Y-128862457D02*
X199264912Y-128814838D01*
X199264912Y-128814838D02*
X199360150Y-128767219D01*
X199360150Y-128767219D02*
X199550626Y-128767219D01*
X199550626Y-128767219D02*
X199645864Y-128814838D01*
X199645864Y-128814838D02*
X199693483Y-128862457D01*
X199693483Y-128862457D02*
X199741102Y-128957695D01*
X199741102Y-128957695D02*
X199741102Y-129005314D01*
X199741102Y-129005314D02*
X199693483Y-129100552D01*
X199693483Y-129100552D02*
X199645864Y-129148171D01*
X199645864Y-129148171D02*
X199550626Y-129195790D01*
X199550626Y-129195790D02*
X199360150Y-129195790D01*
X199360150Y-129195790D02*
X199264912Y-129243409D01*
X199264912Y-129243409D02*
X199217293Y-129291028D01*
X199217293Y-129291028D02*
X199169674Y-129386266D01*
X199169674Y-129386266D02*
X199169674Y-129576742D01*
X199169674Y-129576742D02*
X199217293Y-129671980D01*
X199217293Y-129671980D02*
X199264912Y-129719600D01*
X199264912Y-129719600D02*
X199360150Y-129767219D01*
X199360150Y-129767219D02*
X199550626Y-129767219D01*
X199550626Y-129767219D02*
X199645864Y-129719600D01*
X199645864Y-129719600D02*
X199693483Y-129671980D01*
X199693483Y-129671980D02*
X199741102Y-129576742D01*
X199741102Y-129576742D02*
X199741102Y-129386266D01*
X199741102Y-129386266D02*
X199693483Y-129291028D01*
X199693483Y-129291028D02*
X199645864Y-129243409D01*
X199645864Y-129243409D02*
X199550626Y-129195790D01*
X200122055Y-128862457D02*
X200169674Y-128814838D01*
X200169674Y-128814838D02*
X200264912Y-128767219D01*
X200264912Y-128767219D02*
X200503007Y-128767219D01*
X200503007Y-128767219D02*
X200598245Y-128814838D01*
X200598245Y-128814838D02*
X200645864Y-128862457D01*
X200645864Y-128862457D02*
X200693483Y-128957695D01*
X200693483Y-128957695D02*
X200693483Y-129052933D01*
X200693483Y-129052933D02*
X200645864Y-129195790D01*
X200645864Y-129195790D02*
X200074436Y-129767219D01*
X200074436Y-129767219D02*
X200693483Y-129767219D01*
X201074436Y-128862457D02*
X201122055Y-128814838D01*
X201122055Y-128814838D02*
X201217293Y-128767219D01*
X201217293Y-128767219D02*
X201455388Y-128767219D01*
X201455388Y-128767219D02*
X201550626Y-128814838D01*
X201550626Y-128814838D02*
X201598245Y-128862457D01*
X201598245Y-128862457D02*
X201645864Y-128957695D01*
X201645864Y-128957695D02*
X201645864Y-129052933D01*
X201645864Y-129052933D02*
X201598245Y-129195790D01*
X201598245Y-129195790D02*
X201026817Y-129767219D01*
X201026817Y-129767219D02*
X201645864Y-129767219D01*
X202598245Y-129767219D02*
X202026817Y-129767219D01*
X202312531Y-129767219D02*
X202312531Y-128767219D01*
X202312531Y-128767219D02*
X202217293Y-128910076D01*
X202217293Y-128910076D02*
X202122055Y-129005314D01*
X202122055Y-129005314D02*
X202026817Y-129052933D01*
X203217293Y-128767219D02*
X203312531Y-128767219D01*
X203312531Y-128767219D02*
X203407769Y-128814838D01*
X203407769Y-128814838D02*
X203455388Y-128862457D01*
X203455388Y-128862457D02*
X203503007Y-128957695D01*
X203503007Y-128957695D02*
X203550626Y-129148171D01*
X203550626Y-129148171D02*
X203550626Y-129386266D01*
X203550626Y-129386266D02*
X203503007Y-129576742D01*
X203503007Y-129576742D02*
X203455388Y-129671980D01*
X203455388Y-129671980D02*
X203407769Y-129719600D01*
X203407769Y-129719600D02*
X203312531Y-129767219D01*
X203312531Y-129767219D02*
X203217293Y-129767219D01*
X203217293Y-129767219D02*
X203122055Y-129719600D01*
X203122055Y-129719600D02*
X203074436Y-129671980D01*
X203074436Y-129671980D02*
X203026817Y-129576742D01*
X203026817Y-129576742D02*
X202979198Y-129386266D01*
X202979198Y-129386266D02*
X202979198Y-129148171D01*
X202979198Y-129148171D02*
X203026817Y-128957695D01*
X203026817Y-128957695D02*
X203074436Y-128862457D01*
X203074436Y-128862457D02*
X203122055Y-128814838D01*
X203122055Y-128814838D02*
X203217293Y-128767219D01*
X203883960Y-128767219D02*
X204550626Y-128767219D01*
X204550626Y-128767219D02*
X204122055Y-129767219D01*
X205360150Y-129100552D02*
X205360150Y-129767219D01*
X205122055Y-128719600D02*
X204883960Y-129433885D01*
X204883960Y-129433885D02*
X205503007Y-129433885D01*
D12*
X216014819Y-99873333D02*
X216729104Y-99873333D01*
X216729104Y-99873333D02*
X216871961Y-99920952D01*
X216871961Y-99920952D02*
X216967200Y-100016190D01*
X216967200Y-100016190D02*
X217014819Y-100159047D01*
X217014819Y-100159047D02*
X217014819Y-100254285D01*
X217014819Y-99397142D02*
X216014819Y-99397142D01*
X216014819Y-99397142D02*
X216014819Y-99016190D01*
X216014819Y-99016190D02*
X216062438Y-98920952D01*
X216062438Y-98920952D02*
X216110057Y-98873333D01*
X216110057Y-98873333D02*
X216205295Y-98825714D01*
X216205295Y-98825714D02*
X216348152Y-98825714D01*
X216348152Y-98825714D02*
X216443390Y-98873333D01*
X216443390Y-98873333D02*
X216491009Y-98920952D01*
X216491009Y-98920952D02*
X216538628Y-99016190D01*
X216538628Y-99016190D02*
X216538628Y-99397142D01*
X216348152Y-97968571D02*
X217014819Y-97968571D01*
X215967200Y-98206666D02*
X216681485Y-98444761D01*
X216681485Y-98444761D02*
X216681485Y-97825714D01*
X219426666Y-99294819D02*
X219426666Y-100009104D01*
X219426666Y-100009104D02*
X219379047Y-100151961D01*
X219379047Y-100151961D02*
X219283809Y-100247200D01*
X219283809Y-100247200D02*
X219140952Y-100294819D01*
X219140952Y-100294819D02*
X219045714Y-100294819D01*
X219902857Y-100294819D02*
X219902857Y-99294819D01*
X219902857Y-99294819D02*
X220283809Y-99294819D01*
X220283809Y-99294819D02*
X220379047Y-99342438D01*
X220379047Y-99342438D02*
X220426666Y-99390057D01*
X220426666Y-99390057D02*
X220474285Y-99485295D01*
X220474285Y-99485295D02*
X220474285Y-99628152D01*
X220474285Y-99628152D02*
X220426666Y-99723390D01*
X220426666Y-99723390D02*
X220379047Y-99771009D01*
X220379047Y-99771009D02*
X220283809Y-99818628D01*
X220283809Y-99818628D02*
X219902857Y-99818628D01*
X221426666Y-100294819D02*
X220855238Y-100294819D01*
X221140952Y-100294819D02*
X221140952Y-99294819D01*
X221140952Y-99294819D02*
X221045714Y-99437676D01*
X221045714Y-99437676D02*
X220950476Y-99532914D01*
X220950476Y-99532914D02*
X220855238Y-99580533D01*
X219144819Y-70311904D02*
X219954342Y-70311904D01*
X219954342Y-70311904D02*
X220049580Y-70264285D01*
X220049580Y-70264285D02*
X220097200Y-70216666D01*
X220097200Y-70216666D02*
X220144819Y-70121428D01*
X220144819Y-70121428D02*
X220144819Y-69930952D01*
X220144819Y-69930952D02*
X220097200Y-69835714D01*
X220097200Y-69835714D02*
X220049580Y-69788095D01*
X220049580Y-69788095D02*
X219954342Y-69740476D01*
X219954342Y-69740476D02*
X219144819Y-69740476D01*
X219144819Y-69359523D02*
X219144819Y-68740476D01*
X219144819Y-68740476D02*
X219525771Y-69073809D01*
X219525771Y-69073809D02*
X219525771Y-68930952D01*
X219525771Y-68930952D02*
X219573390Y-68835714D01*
X219573390Y-68835714D02*
X219621009Y-68788095D01*
X219621009Y-68788095D02*
X219716247Y-68740476D01*
X219716247Y-68740476D02*
X219954342Y-68740476D01*
X219954342Y-68740476D02*
X220049580Y-68788095D01*
X220049580Y-68788095D02*
X220097200Y-68835714D01*
X220097200Y-68835714D02*
X220144819Y-68930952D01*
X220144819Y-68930952D02*
X220144819Y-69216666D01*
X220144819Y-69216666D02*
X220097200Y-69311904D01*
X220097200Y-69311904D02*
X220049580Y-69359523D01*
X223954819Y-39385238D02*
X223478628Y-39718571D01*
X223954819Y-39956666D02*
X222954819Y-39956666D01*
X222954819Y-39956666D02*
X222954819Y-39575714D01*
X222954819Y-39575714D02*
X223002438Y-39480476D01*
X223002438Y-39480476D02*
X223050057Y-39432857D01*
X223050057Y-39432857D02*
X223145295Y-39385238D01*
X223145295Y-39385238D02*
X223288152Y-39385238D01*
X223288152Y-39385238D02*
X223383390Y-39432857D01*
X223383390Y-39432857D02*
X223431009Y-39480476D01*
X223431009Y-39480476D02*
X223478628Y-39575714D01*
X223478628Y-39575714D02*
X223478628Y-39956666D01*
X222954819Y-39099523D02*
X223954819Y-38766190D01*
X223954819Y-38766190D02*
X222954819Y-38432857D01*
X223954819Y-37575714D02*
X223954819Y-38147142D01*
X223954819Y-37861428D02*
X222954819Y-37861428D01*
X222954819Y-37861428D02*
X223097676Y-37956666D01*
X223097676Y-37956666D02*
X223192914Y-38051904D01*
X223192914Y-38051904D02*
X223240533Y-38147142D01*
X197983095Y-88159819D02*
X197983095Y-87159819D01*
X197983095Y-87636009D02*
X198554523Y-87636009D01*
X198554523Y-88159819D02*
X198554523Y-87159819D01*
X198935476Y-87159819D02*
X199554523Y-87159819D01*
X199554523Y-87159819D02*
X199221190Y-87540771D01*
X199221190Y-87540771D02*
X199364047Y-87540771D01*
X199364047Y-87540771D02*
X199459285Y-87588390D01*
X199459285Y-87588390D02*
X199506904Y-87636009D01*
X199506904Y-87636009D02*
X199554523Y-87731247D01*
X199554523Y-87731247D02*
X199554523Y-87969342D01*
X199554523Y-87969342D02*
X199506904Y-88064580D01*
X199506904Y-88064580D02*
X199459285Y-88112200D01*
X199459285Y-88112200D02*
X199364047Y-88159819D01*
X199364047Y-88159819D02*
X199078333Y-88159819D01*
X199078333Y-88159819D02*
X198983095Y-88112200D01*
X198983095Y-88112200D02*
X198935476Y-88064580D01*
X237198095Y-37342819D02*
X237769523Y-37342819D01*
X237483809Y-38342819D02*
X237483809Y-37342819D01*
X238102857Y-38342819D02*
X238102857Y-37342819D01*
X238102857Y-37342819D02*
X238483809Y-37342819D01*
X238483809Y-37342819D02*
X238579047Y-37390438D01*
X238579047Y-37390438D02*
X238626666Y-37438057D01*
X238626666Y-37438057D02*
X238674285Y-37533295D01*
X238674285Y-37533295D02*
X238674285Y-37676152D01*
X238674285Y-37676152D02*
X238626666Y-37771390D01*
X238626666Y-37771390D02*
X238579047Y-37819009D01*
X238579047Y-37819009D02*
X238483809Y-37866628D01*
X238483809Y-37866628D02*
X238102857Y-37866628D01*
X239055238Y-37438057D02*
X239102857Y-37390438D01*
X239102857Y-37390438D02*
X239198095Y-37342819D01*
X239198095Y-37342819D02*
X239436190Y-37342819D01*
X239436190Y-37342819D02*
X239531428Y-37390438D01*
X239531428Y-37390438D02*
X239579047Y-37438057D01*
X239579047Y-37438057D02*
X239626666Y-37533295D01*
X239626666Y-37533295D02*
X239626666Y-37628533D01*
X239626666Y-37628533D02*
X239579047Y-37771390D01*
X239579047Y-37771390D02*
X239007619Y-38342819D01*
X239007619Y-38342819D02*
X239626666Y-38342819D01*
X175538095Y-88134819D02*
X175538095Y-87134819D01*
X175538095Y-87611009D02*
X176109523Y-87611009D01*
X176109523Y-88134819D02*
X176109523Y-87134819D01*
X177109523Y-88134819D02*
X176538095Y-88134819D01*
X176823809Y-88134819D02*
X176823809Y-87134819D01*
X176823809Y-87134819D02*
X176728571Y-87277676D01*
X176728571Y-87277676D02*
X176633333Y-87372914D01*
X176633333Y-87372914D02*
X176538095Y-87420533D01*
X215561666Y-49749819D02*
X215561666Y-50464104D01*
X215561666Y-50464104D02*
X215514047Y-50606961D01*
X215514047Y-50606961D02*
X215418809Y-50702200D01*
X215418809Y-50702200D02*
X215275952Y-50749819D01*
X215275952Y-50749819D02*
X215180714Y-50749819D01*
X215942619Y-49749819D02*
X216561666Y-49749819D01*
X216561666Y-49749819D02*
X216228333Y-50130771D01*
X216228333Y-50130771D02*
X216371190Y-50130771D01*
X216371190Y-50130771D02*
X216466428Y-50178390D01*
X216466428Y-50178390D02*
X216514047Y-50226009D01*
X216514047Y-50226009D02*
X216561666Y-50321247D01*
X216561666Y-50321247D02*
X216561666Y-50559342D01*
X216561666Y-50559342D02*
X216514047Y-50654580D01*
X216514047Y-50654580D02*
X216466428Y-50702200D01*
X216466428Y-50702200D02*
X216371190Y-50749819D01*
X216371190Y-50749819D02*
X216085476Y-50749819D01*
X216085476Y-50749819D02*
X215990238Y-50702200D01*
X215990238Y-50702200D02*
X215942619Y-50654580D01*
X174850476Y-49724819D02*
X174850476Y-50439104D01*
X174850476Y-50439104D02*
X174802857Y-50581961D01*
X174802857Y-50581961D02*
X174707619Y-50677200D01*
X174707619Y-50677200D02*
X174564762Y-50724819D01*
X174564762Y-50724819D02*
X174469524Y-50724819D01*
X175850476Y-50724819D02*
X175279048Y-50724819D01*
X175564762Y-50724819D02*
X175564762Y-49724819D01*
X175564762Y-49724819D02*
X175469524Y-49867676D01*
X175469524Y-49867676D02*
X175374286Y-49962914D01*
X175374286Y-49962914D02*
X175279048Y-50010533D01*
X176802857Y-50724819D02*
X176231429Y-50724819D01*
X176517143Y-50724819D02*
X176517143Y-49724819D01*
X176517143Y-49724819D02*
X176421905Y-49867676D01*
X176421905Y-49867676D02*
X176326667Y-49962914D01*
X176326667Y-49962914D02*
X176231429Y-50010533D01*
X244898095Y-32994819D02*
X244898095Y-31994819D01*
X244898095Y-32471009D02*
X245469523Y-32471009D01*
X245469523Y-32994819D02*
X245469523Y-31994819D01*
X246374285Y-31994819D02*
X246183809Y-31994819D01*
X246183809Y-31994819D02*
X246088571Y-32042438D01*
X246088571Y-32042438D02*
X246040952Y-32090057D01*
X246040952Y-32090057D02*
X245945714Y-32232914D01*
X245945714Y-32232914D02*
X245898095Y-32423390D01*
X245898095Y-32423390D02*
X245898095Y-32804342D01*
X245898095Y-32804342D02*
X245945714Y-32899580D01*
X245945714Y-32899580D02*
X245993333Y-32947200D01*
X245993333Y-32947200D02*
X246088571Y-32994819D01*
X246088571Y-32994819D02*
X246279047Y-32994819D01*
X246279047Y-32994819D02*
X246374285Y-32947200D01*
X246374285Y-32947200D02*
X246421904Y-32899580D01*
X246421904Y-32899580D02*
X246469523Y-32804342D01*
X246469523Y-32804342D02*
X246469523Y-32566247D01*
X246469523Y-32566247D02*
X246421904Y-32471009D01*
X246421904Y-32471009D02*
X246374285Y-32423390D01*
X246374285Y-32423390D02*
X246279047Y-32375771D01*
X246279047Y-32375771D02*
X246088571Y-32375771D01*
X246088571Y-32375771D02*
X245993333Y-32423390D01*
X245993333Y-32423390D02*
X245945714Y-32471009D01*
X245945714Y-32471009D02*
X245898095Y-32566247D01*
X196734819Y-70281904D02*
X197544342Y-70281904D01*
X197544342Y-70281904D02*
X197639580Y-70234285D01*
X197639580Y-70234285D02*
X197687200Y-70186666D01*
X197687200Y-70186666D02*
X197734819Y-70091428D01*
X197734819Y-70091428D02*
X197734819Y-69900952D01*
X197734819Y-69900952D02*
X197687200Y-69805714D01*
X197687200Y-69805714D02*
X197639580Y-69758095D01*
X197639580Y-69758095D02*
X197544342Y-69710476D01*
X197544342Y-69710476D02*
X196734819Y-69710476D01*
X196830057Y-69281904D02*
X196782438Y-69234285D01*
X196782438Y-69234285D02*
X196734819Y-69139047D01*
X196734819Y-69139047D02*
X196734819Y-68900952D01*
X196734819Y-68900952D02*
X196782438Y-68805714D01*
X196782438Y-68805714D02*
X196830057Y-68758095D01*
X196830057Y-68758095D02*
X196925295Y-68710476D01*
X196925295Y-68710476D02*
X197020533Y-68710476D01*
X197020533Y-68710476D02*
X197163390Y-68758095D01*
X197163390Y-68758095D02*
X197734819Y-69329523D01*
X197734819Y-69329523D02*
X197734819Y-68710476D01*
X175326666Y-90324819D02*
X175326666Y-91039104D01*
X175326666Y-91039104D02*
X175279047Y-91181961D01*
X175279047Y-91181961D02*
X175183809Y-91277200D01*
X175183809Y-91277200D02*
X175040952Y-91324819D01*
X175040952Y-91324819D02*
X174945714Y-91324819D01*
X175850476Y-91324819D02*
X176040952Y-91324819D01*
X176040952Y-91324819D02*
X176136190Y-91277200D01*
X176136190Y-91277200D02*
X176183809Y-91229580D01*
X176183809Y-91229580D02*
X176279047Y-91086723D01*
X176279047Y-91086723D02*
X176326666Y-90896247D01*
X176326666Y-90896247D02*
X176326666Y-90515295D01*
X176326666Y-90515295D02*
X176279047Y-90420057D01*
X176279047Y-90420057D02*
X176231428Y-90372438D01*
X176231428Y-90372438D02*
X176136190Y-90324819D01*
X176136190Y-90324819D02*
X175945714Y-90324819D01*
X175945714Y-90324819D02*
X175850476Y-90372438D01*
X175850476Y-90372438D02*
X175802857Y-90420057D01*
X175802857Y-90420057D02*
X175755238Y-90515295D01*
X175755238Y-90515295D02*
X175755238Y-90753390D01*
X175755238Y-90753390D02*
X175802857Y-90848628D01*
X175802857Y-90848628D02*
X175850476Y-90896247D01*
X175850476Y-90896247D02*
X175945714Y-90943866D01*
X175945714Y-90943866D02*
X176136190Y-90943866D01*
X176136190Y-90943866D02*
X176231428Y-90896247D01*
X176231428Y-90896247D02*
X176279047Y-90848628D01*
X176279047Y-90848628D02*
X176326666Y-90753390D01*
D10*
X229212580Y-117818095D02*
X228403057Y-117818095D01*
X228403057Y-117818095D02*
X228307819Y-117865714D01*
X228307819Y-117865714D02*
X228260200Y-117913333D01*
X228260200Y-117913333D02*
X228212580Y-118008571D01*
X228212580Y-118008571D02*
X228212580Y-118199047D01*
X228212580Y-118199047D02*
X228260200Y-118294285D01*
X228260200Y-118294285D02*
X228307819Y-118341904D01*
X228307819Y-118341904D02*
X228403057Y-118389523D01*
X228403057Y-118389523D02*
X229212580Y-118389523D01*
X228879247Y-119294285D02*
X228212580Y-119294285D01*
X229260200Y-119056190D02*
X228545914Y-118818095D01*
X228545914Y-118818095D02*
X228545914Y-119437142D01*
D12*
X244898095Y-120994819D02*
X244898095Y-119994819D01*
X244898095Y-120471009D02*
X245469523Y-120471009D01*
X245469523Y-120994819D02*
X245469523Y-119994819D01*
X245850476Y-119994819D02*
X246517142Y-119994819D01*
X246517142Y-119994819D02*
X246088571Y-120994819D01*
X216014819Y-94673333D02*
X216729104Y-94673333D01*
X216729104Y-94673333D02*
X216871961Y-94720952D01*
X216871961Y-94720952D02*
X216967200Y-94816190D01*
X216967200Y-94816190D02*
X217014819Y-94959047D01*
X217014819Y-94959047D02*
X217014819Y-95054285D01*
X217014819Y-94197142D02*
X216014819Y-94197142D01*
X216014819Y-94197142D02*
X216014819Y-93816190D01*
X216014819Y-93816190D02*
X216062438Y-93720952D01*
X216062438Y-93720952D02*
X216110057Y-93673333D01*
X216110057Y-93673333D02*
X216205295Y-93625714D01*
X216205295Y-93625714D02*
X216348152Y-93625714D01*
X216348152Y-93625714D02*
X216443390Y-93673333D01*
X216443390Y-93673333D02*
X216491009Y-93720952D01*
X216491009Y-93720952D02*
X216538628Y-93816190D01*
X216538628Y-93816190D02*
X216538628Y-94197142D01*
X216014819Y-93292380D02*
X216014819Y-92673333D01*
X216014819Y-92673333D02*
X216395771Y-93006666D01*
X216395771Y-93006666D02*
X216395771Y-92863809D01*
X216395771Y-92863809D02*
X216443390Y-92768571D01*
X216443390Y-92768571D02*
X216491009Y-92720952D01*
X216491009Y-92720952D02*
X216586247Y-92673333D01*
X216586247Y-92673333D02*
X216824342Y-92673333D01*
X216824342Y-92673333D02*
X216919580Y-92720952D01*
X216919580Y-92720952D02*
X216967200Y-92768571D01*
X216967200Y-92768571D02*
X217014819Y-92863809D01*
X217014819Y-92863809D02*
X217014819Y-93149523D01*
X217014819Y-93149523D02*
X216967200Y-93244761D01*
X216967200Y-93244761D02*
X216919580Y-93292380D01*
X196326666Y-40554819D02*
X196326666Y-41269104D01*
X196326666Y-41269104D02*
X196279047Y-41411961D01*
X196279047Y-41411961D02*
X196183809Y-41507200D01*
X196183809Y-41507200D02*
X196040952Y-41554819D01*
X196040952Y-41554819D02*
X195945714Y-41554819D01*
X197326666Y-41554819D02*
X196755238Y-41554819D01*
X197040952Y-41554819D02*
X197040952Y-40554819D01*
X197040952Y-40554819D02*
X196945714Y-40697676D01*
X196945714Y-40697676D02*
X196850476Y-40792914D01*
X196850476Y-40792914D02*
X196755238Y-40840533D01*
X176898095Y-120994819D02*
X176898095Y-119994819D01*
X176898095Y-120471009D02*
X177469523Y-120471009D01*
X177469523Y-120994819D02*
X177469523Y-119994819D01*
X178088571Y-120423390D02*
X177993333Y-120375771D01*
X177993333Y-120375771D02*
X177945714Y-120328152D01*
X177945714Y-120328152D02*
X177898095Y-120232914D01*
X177898095Y-120232914D02*
X177898095Y-120185295D01*
X177898095Y-120185295D02*
X177945714Y-120090057D01*
X177945714Y-120090057D02*
X177993333Y-120042438D01*
X177993333Y-120042438D02*
X178088571Y-119994819D01*
X178088571Y-119994819D02*
X178279047Y-119994819D01*
X178279047Y-119994819D02*
X178374285Y-120042438D01*
X178374285Y-120042438D02*
X178421904Y-120090057D01*
X178421904Y-120090057D02*
X178469523Y-120185295D01*
X178469523Y-120185295D02*
X178469523Y-120232914D01*
X178469523Y-120232914D02*
X178421904Y-120328152D01*
X178421904Y-120328152D02*
X178374285Y-120375771D01*
X178374285Y-120375771D02*
X178279047Y-120423390D01*
X178279047Y-120423390D02*
X178088571Y-120423390D01*
X178088571Y-120423390D02*
X177993333Y-120471009D01*
X177993333Y-120471009D02*
X177945714Y-120518628D01*
X177945714Y-120518628D02*
X177898095Y-120613866D01*
X177898095Y-120613866D02*
X177898095Y-120804342D01*
X177898095Y-120804342D02*
X177945714Y-120899580D01*
X177945714Y-120899580D02*
X177993333Y-120947200D01*
X177993333Y-120947200D02*
X178088571Y-120994819D01*
X178088571Y-120994819D02*
X178279047Y-120994819D01*
X178279047Y-120994819D02*
X178374285Y-120947200D01*
X178374285Y-120947200D02*
X178421904Y-120899580D01*
X178421904Y-120899580D02*
X178469523Y-120804342D01*
X178469523Y-120804342D02*
X178469523Y-120613866D01*
X178469523Y-120613866D02*
X178421904Y-120518628D01*
X178421904Y-120518628D02*
X178374285Y-120471009D01*
X178374285Y-120471009D02*
X178279047Y-120423390D01*
X197761666Y-49749819D02*
X197761666Y-50464104D01*
X197761666Y-50464104D02*
X197714047Y-50606961D01*
X197714047Y-50606961D02*
X197618809Y-50702200D01*
X197618809Y-50702200D02*
X197475952Y-50749819D01*
X197475952Y-50749819D02*
X197380714Y-50749819D01*
X198666428Y-50083152D02*
X198666428Y-50749819D01*
X198428333Y-49702200D02*
X198190238Y-50416485D01*
X198190238Y-50416485D02*
X198809285Y-50416485D01*
X226026666Y-99294819D02*
X226026666Y-100009104D01*
X226026666Y-100009104D02*
X225979047Y-100151961D01*
X225979047Y-100151961D02*
X225883809Y-100247200D01*
X225883809Y-100247200D02*
X225740952Y-100294819D01*
X225740952Y-100294819D02*
X225645714Y-100294819D01*
X226502857Y-100294819D02*
X226502857Y-99294819D01*
X226502857Y-99294819D02*
X226883809Y-99294819D01*
X226883809Y-99294819D02*
X226979047Y-99342438D01*
X226979047Y-99342438D02*
X227026666Y-99390057D01*
X227026666Y-99390057D02*
X227074285Y-99485295D01*
X227074285Y-99485295D02*
X227074285Y-99628152D01*
X227074285Y-99628152D02*
X227026666Y-99723390D01*
X227026666Y-99723390D02*
X226979047Y-99771009D01*
X226979047Y-99771009D02*
X226883809Y-99818628D01*
X226883809Y-99818628D02*
X226502857Y-99818628D01*
X227455238Y-99390057D02*
X227502857Y-99342438D01*
X227502857Y-99342438D02*
X227598095Y-99294819D01*
X227598095Y-99294819D02*
X227836190Y-99294819D01*
X227836190Y-99294819D02*
X227931428Y-99342438D01*
X227931428Y-99342438D02*
X227979047Y-99390057D01*
X227979047Y-99390057D02*
X228026666Y-99485295D01*
X228026666Y-99485295D02*
X228026666Y-99580533D01*
X228026666Y-99580533D02*
X227979047Y-99723390D01*
X227979047Y-99723390D02*
X227407619Y-100294819D01*
X227407619Y-100294819D02*
X228026666Y-100294819D01*
X215561666Y-90349819D02*
X215561666Y-91064104D01*
X215561666Y-91064104D02*
X215514047Y-91206961D01*
X215514047Y-91206961D02*
X215418809Y-91302200D01*
X215418809Y-91302200D02*
X215275952Y-91349819D01*
X215275952Y-91349819D02*
X215180714Y-91349819D01*
X216514047Y-90349819D02*
X216037857Y-90349819D01*
X216037857Y-90349819D02*
X215990238Y-90826009D01*
X215990238Y-90826009D02*
X216037857Y-90778390D01*
X216037857Y-90778390D02*
X216133095Y-90730771D01*
X216133095Y-90730771D02*
X216371190Y-90730771D01*
X216371190Y-90730771D02*
X216466428Y-90778390D01*
X216466428Y-90778390D02*
X216514047Y-90826009D01*
X216514047Y-90826009D02*
X216561666Y-90921247D01*
X216561666Y-90921247D02*
X216561666Y-91159342D01*
X216561666Y-91159342D02*
X216514047Y-91254580D01*
X216514047Y-91254580D02*
X216466428Y-91302200D01*
X216466428Y-91302200D02*
X216371190Y-91349819D01*
X216371190Y-91349819D02*
X216133095Y-91349819D01*
X216133095Y-91349819D02*
X216037857Y-91302200D01*
X216037857Y-91302200D02*
X215990238Y-91254580D01*
X176898095Y-32994819D02*
X176898095Y-31994819D01*
X176898095Y-32471009D02*
X177469523Y-32471009D01*
X177469523Y-32994819D02*
X177469523Y-31994819D01*
X178421904Y-31994819D02*
X177945714Y-31994819D01*
X177945714Y-31994819D02*
X177898095Y-32471009D01*
X177898095Y-32471009D02*
X177945714Y-32423390D01*
X177945714Y-32423390D02*
X178040952Y-32375771D01*
X178040952Y-32375771D02*
X178279047Y-32375771D01*
X178279047Y-32375771D02*
X178374285Y-32423390D01*
X178374285Y-32423390D02*
X178421904Y-32471009D01*
X178421904Y-32471009D02*
X178469523Y-32566247D01*
X178469523Y-32566247D02*
X178469523Y-32804342D01*
X178469523Y-32804342D02*
X178421904Y-32899580D01*
X178421904Y-32899580D02*
X178374285Y-32947200D01*
X178374285Y-32947200D02*
X178279047Y-32994819D01*
X178279047Y-32994819D02*
X178040952Y-32994819D01*
X178040952Y-32994819D02*
X177945714Y-32947200D01*
X177945714Y-32947200D02*
X177898095Y-32899580D01*
X207526666Y-99524819D02*
X207526666Y-100239104D01*
X207526666Y-100239104D02*
X207479047Y-100381961D01*
X207479047Y-100381961D02*
X207383809Y-100477200D01*
X207383809Y-100477200D02*
X207240952Y-100524819D01*
X207240952Y-100524819D02*
X207145714Y-100524819D01*
X207907619Y-99524819D02*
X208574285Y-99524819D01*
X208574285Y-99524819D02*
X208145714Y-100524819D01*
X192650476Y-49724819D02*
X192650476Y-50439104D01*
X192650476Y-50439104D02*
X192602857Y-50581961D01*
X192602857Y-50581961D02*
X192507619Y-50677200D01*
X192507619Y-50677200D02*
X192364762Y-50724819D01*
X192364762Y-50724819D02*
X192269524Y-50724819D01*
X193650476Y-50724819D02*
X193079048Y-50724819D01*
X193364762Y-50724819D02*
X193364762Y-49724819D01*
X193364762Y-49724819D02*
X193269524Y-49867676D01*
X193269524Y-49867676D02*
X193174286Y-49962914D01*
X193174286Y-49962914D02*
X193079048Y-50010533D01*
X194269524Y-49724819D02*
X194364762Y-49724819D01*
X194364762Y-49724819D02*
X194460000Y-49772438D01*
X194460000Y-49772438D02*
X194507619Y-49820057D01*
X194507619Y-49820057D02*
X194555238Y-49915295D01*
X194555238Y-49915295D02*
X194602857Y-50105771D01*
X194602857Y-50105771D02*
X194602857Y-50343866D01*
X194602857Y-50343866D02*
X194555238Y-50534342D01*
X194555238Y-50534342D02*
X194507619Y-50629580D01*
X194507619Y-50629580D02*
X194460000Y-50677200D01*
X194460000Y-50677200D02*
X194364762Y-50724819D01*
X194364762Y-50724819D02*
X194269524Y-50724819D01*
X194269524Y-50724819D02*
X194174286Y-50677200D01*
X194174286Y-50677200D02*
X194126667Y-50629580D01*
X194126667Y-50629580D02*
X194079048Y-50534342D01*
X194079048Y-50534342D02*
X194031429Y-50343866D01*
X194031429Y-50343866D02*
X194031429Y-50105771D01*
X194031429Y-50105771D02*
X194079048Y-49915295D01*
X194079048Y-49915295D02*
X194126667Y-49820057D01*
X194126667Y-49820057D02*
X194174286Y-49772438D01*
X194174286Y-49772438D02*
X194269524Y-49724819D01*
X197761666Y-90349819D02*
X197761666Y-91064104D01*
X197761666Y-91064104D02*
X197714047Y-91206961D01*
X197714047Y-91206961D02*
X197618809Y-91302200D01*
X197618809Y-91302200D02*
X197475952Y-91349819D01*
X197475952Y-91349819D02*
X197380714Y-91349819D01*
X198666428Y-90349819D02*
X198475952Y-90349819D01*
X198475952Y-90349819D02*
X198380714Y-90397438D01*
X198380714Y-90397438D02*
X198333095Y-90445057D01*
X198333095Y-90445057D02*
X198237857Y-90587914D01*
X198237857Y-90587914D02*
X198190238Y-90778390D01*
X198190238Y-90778390D02*
X198190238Y-91159342D01*
X198190238Y-91159342D02*
X198237857Y-91254580D01*
X198237857Y-91254580D02*
X198285476Y-91302200D01*
X198285476Y-91302200D02*
X198380714Y-91349819D01*
X198380714Y-91349819D02*
X198571190Y-91349819D01*
X198571190Y-91349819D02*
X198666428Y-91302200D01*
X198666428Y-91302200D02*
X198714047Y-91254580D01*
X198714047Y-91254580D02*
X198761666Y-91159342D01*
X198761666Y-91159342D02*
X198761666Y-90921247D01*
X198761666Y-90921247D02*
X198714047Y-90826009D01*
X198714047Y-90826009D02*
X198666428Y-90778390D01*
X198666428Y-90778390D02*
X198571190Y-90730771D01*
X198571190Y-90730771D02*
X198380714Y-90730771D01*
X198380714Y-90730771D02*
X198285476Y-90778390D01*
X198285476Y-90778390D02*
X198237857Y-90826009D01*
X198237857Y-90826009D02*
X198190238Y-90921247D01*
X192058095Y-57654819D02*
X192058095Y-56654819D01*
X192058095Y-57131009D02*
X192629523Y-57131009D01*
X192629523Y-57654819D02*
X192629523Y-56654819D01*
X193058095Y-56750057D02*
X193105714Y-56702438D01*
X193105714Y-56702438D02*
X193200952Y-56654819D01*
X193200952Y-56654819D02*
X193439047Y-56654819D01*
X193439047Y-56654819D02*
X193534285Y-56702438D01*
X193534285Y-56702438D02*
X193581904Y-56750057D01*
X193581904Y-56750057D02*
X193629523Y-56845295D01*
X193629523Y-56845295D02*
X193629523Y-56940533D01*
X193629523Y-56940533D02*
X193581904Y-57083390D01*
X193581904Y-57083390D02*
X193010476Y-57654819D01*
X193010476Y-57654819D02*
X193629523Y-57654819D01*
X237198095Y-41542819D02*
X237769523Y-41542819D01*
X237483809Y-42542819D02*
X237483809Y-41542819D01*
X238102857Y-42542819D02*
X238102857Y-41542819D01*
X238102857Y-41542819D02*
X238483809Y-41542819D01*
X238483809Y-41542819D02*
X238579047Y-41590438D01*
X238579047Y-41590438D02*
X238626666Y-41638057D01*
X238626666Y-41638057D02*
X238674285Y-41733295D01*
X238674285Y-41733295D02*
X238674285Y-41876152D01*
X238674285Y-41876152D02*
X238626666Y-41971390D01*
X238626666Y-41971390D02*
X238579047Y-42019009D01*
X238579047Y-42019009D02*
X238483809Y-42066628D01*
X238483809Y-42066628D02*
X238102857Y-42066628D01*
X239626666Y-42542819D02*
X239055238Y-42542819D01*
X239340952Y-42542819D02*
X239340952Y-41542819D01*
X239340952Y-41542819D02*
X239245714Y-41685676D01*
X239245714Y-41685676D02*
X239150476Y-41780914D01*
X239150476Y-41780914D02*
X239055238Y-41828533D01*
X193126666Y-90324819D02*
X193126666Y-91039104D01*
X193126666Y-91039104D02*
X193079047Y-91181961D01*
X193079047Y-91181961D02*
X192983809Y-91277200D01*
X192983809Y-91277200D02*
X192840952Y-91324819D01*
X192840952Y-91324819D02*
X192745714Y-91324819D01*
X193745714Y-90753390D02*
X193650476Y-90705771D01*
X193650476Y-90705771D02*
X193602857Y-90658152D01*
X193602857Y-90658152D02*
X193555238Y-90562914D01*
X193555238Y-90562914D02*
X193555238Y-90515295D01*
X193555238Y-90515295D02*
X193602857Y-90420057D01*
X193602857Y-90420057D02*
X193650476Y-90372438D01*
X193650476Y-90372438D02*
X193745714Y-90324819D01*
X193745714Y-90324819D02*
X193936190Y-90324819D01*
X193936190Y-90324819D02*
X194031428Y-90372438D01*
X194031428Y-90372438D02*
X194079047Y-90420057D01*
X194079047Y-90420057D02*
X194126666Y-90515295D01*
X194126666Y-90515295D02*
X194126666Y-90562914D01*
X194126666Y-90562914D02*
X194079047Y-90658152D01*
X194079047Y-90658152D02*
X194031428Y-90705771D01*
X194031428Y-90705771D02*
X193936190Y-90753390D01*
X193936190Y-90753390D02*
X193745714Y-90753390D01*
X193745714Y-90753390D02*
X193650476Y-90801009D01*
X193650476Y-90801009D02*
X193602857Y-90848628D01*
X193602857Y-90848628D02*
X193555238Y-90943866D01*
X193555238Y-90943866D02*
X193555238Y-91134342D01*
X193555238Y-91134342D02*
X193602857Y-91229580D01*
X193602857Y-91229580D02*
X193650476Y-91277200D01*
X193650476Y-91277200D02*
X193745714Y-91324819D01*
X193745714Y-91324819D02*
X193936190Y-91324819D01*
X193936190Y-91324819D02*
X194031428Y-91277200D01*
X194031428Y-91277200D02*
X194079047Y-91229580D01*
X194079047Y-91229580D02*
X194126666Y-91134342D01*
X194126666Y-91134342D02*
X194126666Y-90943866D01*
X194126666Y-90943866D02*
X194079047Y-90848628D01*
X194079047Y-90848628D02*
X194031428Y-90801009D01*
X194031428Y-90801009D02*
X193936190Y-90753390D01*
X213350476Y-40554819D02*
X213350476Y-41269104D01*
X213350476Y-41269104D02*
X213302857Y-41411961D01*
X213302857Y-41411961D02*
X213207619Y-41507200D01*
X213207619Y-41507200D02*
X213064762Y-41554819D01*
X213064762Y-41554819D02*
X212969524Y-41554819D01*
X214350476Y-41554819D02*
X213779048Y-41554819D01*
X214064762Y-41554819D02*
X214064762Y-40554819D01*
X214064762Y-40554819D02*
X213969524Y-40697676D01*
X213969524Y-40697676D02*
X213874286Y-40792914D01*
X213874286Y-40792914D02*
X213779048Y-40840533D01*
X214731429Y-40650057D02*
X214779048Y-40602438D01*
X214779048Y-40602438D02*
X214874286Y-40554819D01*
X214874286Y-40554819D02*
X215112381Y-40554819D01*
X215112381Y-40554819D02*
X215207619Y-40602438D01*
X215207619Y-40602438D02*
X215255238Y-40650057D01*
X215255238Y-40650057D02*
X215302857Y-40745295D01*
X215302857Y-40745295D02*
X215302857Y-40840533D01*
X215302857Y-40840533D02*
X215255238Y-40983390D01*
X215255238Y-40983390D02*
X214683810Y-41554819D01*
X214683810Y-41554819D02*
X215302857Y-41554819D01*
X234098095Y-100146819D02*
X234669523Y-100146819D01*
X234383809Y-101146819D02*
X234383809Y-100146819D01*
X235002857Y-101146819D02*
X235002857Y-100146819D01*
X235002857Y-100146819D02*
X235383809Y-100146819D01*
X235383809Y-100146819D02*
X235479047Y-100194438D01*
X235479047Y-100194438D02*
X235526666Y-100242057D01*
X235526666Y-100242057D02*
X235574285Y-100337295D01*
X235574285Y-100337295D02*
X235574285Y-100480152D01*
X235574285Y-100480152D02*
X235526666Y-100575390D01*
X235526666Y-100575390D02*
X235479047Y-100623009D01*
X235479047Y-100623009D02*
X235383809Y-100670628D01*
X235383809Y-100670628D02*
X235002857Y-100670628D01*
X236431428Y-100480152D02*
X236431428Y-101146819D01*
X236193333Y-100099200D02*
X235955238Y-100813485D01*
X235955238Y-100813485D02*
X236574285Y-100813485D01*
X214463095Y-57669819D02*
X214463095Y-56669819D01*
X214463095Y-57146009D02*
X215034523Y-57146009D01*
X215034523Y-57669819D02*
X215034523Y-56669819D01*
X215939285Y-57003152D02*
X215939285Y-57669819D01*
X215701190Y-56622200D02*
X215463095Y-57336485D01*
X215463095Y-57336485D02*
X216082142Y-57336485D01*
D13*
%TO.C,JP4*%
X213260000Y-97440000D02*
X213260000Y-98040000D01*
X213560000Y-97740000D02*
X213260000Y-97440000D01*
X213560000Y-97740000D02*
X213260000Y-98040000D01*
X213760000Y-96990000D02*
X215760000Y-96990000D01*
X213760000Y-101090000D02*
X213760000Y-96990000D01*
X215760000Y-96990000D02*
X215760000Y-101090000D01*
X215760000Y-101090000D02*
X213760000Y-101090000D01*
%TO.C,JP1*%
X218210000Y-100640000D02*
X222310000Y-100640000D01*
X218210000Y-102640000D02*
X218210000Y-100640000D01*
X218660000Y-103140000D02*
X219260000Y-103140000D01*
X218960000Y-102840000D02*
X218660000Y-103140000D01*
X218960000Y-102840000D02*
X219260000Y-103140000D01*
X222310000Y-100640000D02*
X222310000Y-102640000D01*
X222310000Y-102640000D02*
X218210000Y-102640000D01*
%TO.C,U3*%
X196265000Y-46405000D02*
X196265000Y-90155000D01*
X196265000Y-90155000D02*
X217715000Y-90155000D01*
X196520000Y-46410000D02*
X196520000Y-49540000D01*
X196520000Y-87020000D02*
X196520000Y-90135000D01*
X196520000Y-87020000D02*
X199680000Y-87020000D01*
X197094204Y-69927397D02*
X197094204Y-79627397D01*
X197196783Y-61141636D02*
X197196783Y-57541636D01*
X197296783Y-57441636D02*
X199596783Y-57441636D01*
X197571783Y-56991636D02*
X199321783Y-56991636D01*
X197571783Y-57441636D02*
X197571783Y-56991636D01*
X197571783Y-61691636D02*
X197571783Y-61241636D01*
X198594204Y-81127397D02*
X208294204Y-81127397D01*
X199085304Y-61242636D02*
X199179856Y-61242636D01*
X199321783Y-56991636D02*
X199321783Y-57441636D01*
X199321783Y-61241636D02*
X199321783Y-61691636D01*
X199321783Y-61691636D02*
X197571783Y-61691636D01*
X199596783Y-60371358D02*
X197296783Y-60371358D01*
X199596783Y-61241636D02*
X197296783Y-61241636D01*
X199680000Y-46410000D02*
X199680000Y-49540000D01*
X199680000Y-49540000D02*
X196520000Y-49540000D01*
X199680000Y-87020000D02*
X199680000Y-90135000D01*
X199696783Y-57541636D02*
X199696783Y-61141636D01*
X202183330Y-57970233D02*
X202183330Y-58810233D01*
X202183330Y-57970233D02*
X206813330Y-57970233D01*
X202183330Y-58810233D02*
X206813330Y-58810233D01*
X202183330Y-59670233D02*
X202183330Y-60510233D01*
X202183330Y-59670233D02*
X206813330Y-59670233D01*
X202183330Y-60510233D02*
X206813330Y-60510233D01*
X202183330Y-61370233D02*
X202183330Y-62210233D01*
X202183330Y-61370233D02*
X206813330Y-61370233D01*
X202183330Y-62210233D02*
X206813330Y-62210233D01*
X202183330Y-63070233D02*
X202183330Y-63910233D01*
X202183330Y-63070233D02*
X206813330Y-63070233D01*
X202183330Y-63910233D02*
X206813330Y-63910233D01*
X202183330Y-64770233D02*
X202183330Y-65610233D01*
X202183330Y-64770233D02*
X206813330Y-64770233D01*
X202183330Y-65610233D02*
X206813330Y-65610233D01*
X206813330Y-56787797D02*
X206813330Y-66792670D01*
X206813330Y-66792670D02*
X206890894Y-66870233D01*
X206890894Y-56710233D02*
X206813330Y-56787797D01*
X206890894Y-56710233D02*
X216242390Y-56710233D01*
X206890894Y-66870233D02*
X216242390Y-66870233D01*
X208294204Y-68427397D02*
X198594204Y-68427397D01*
X209794204Y-79627397D02*
X209794204Y-69927397D01*
X212247706Y-81209783D02*
X212247706Y-71309783D01*
X212297706Y-71259783D02*
X217197705Y-71259783D01*
X214300000Y-87020000D02*
X214300000Y-90180000D01*
X214300000Y-87020000D02*
X217460000Y-87020000D01*
X214305000Y-46410000D02*
X214300000Y-49540000D01*
X214610000Y-49540000D02*
X214300000Y-49540000D01*
X214875851Y-56709233D02*
X214714313Y-56709233D01*
X214899705Y-84608681D02*
X216499704Y-84608681D01*
X214899705Y-85408681D02*
X214899705Y-84608681D01*
X215219705Y-85408681D02*
X215219705Y-84608681D01*
X215397706Y-72320553D02*
X215397706Y-74399014D01*
X215453330Y-66870233D02*
X215453330Y-56710233D01*
X215872706Y-72308594D02*
X215877938Y-72284147D01*
X215872706Y-72308594D02*
X215897705Y-72320553D01*
X215872706Y-72308594D02*
X215903925Y-72315764D01*
X215897705Y-74399014D02*
X215897705Y-72320553D01*
X215929100Y-72296385D02*
X215897705Y-72320553D01*
X216179704Y-84608681D02*
X216179704Y-85408681D01*
X216242390Y-56710233D02*
X216533329Y-58360233D01*
X216499704Y-85408681D02*
X214899705Y-85408681D01*
X216499704Y-85408681D02*
X216499704Y-84608681D01*
X216533329Y-58360233D02*
X216533329Y-65220233D01*
X216533329Y-65220233D02*
X216242390Y-66870233D01*
X217197705Y-81259783D02*
X212297706Y-81259783D01*
X217247705Y-71309783D02*
X217247705Y-81209783D01*
X217248705Y-79818978D02*
X217248705Y-79774106D01*
X217248705Y-79902312D02*
X217248705Y-79868357D01*
X217460000Y-46410000D02*
X217460000Y-47710000D01*
X217460000Y-87020000D02*
X217460000Y-90135000D01*
X217715000Y-46405000D02*
X196265000Y-46405000D01*
X217715000Y-90155000D02*
X217715000Y-46405000D01*
X197094204Y-69927397D02*
G75*
G02*
X198594204Y-68427404I1499996J-3D01*
G01*
X197196783Y-57541636D02*
G75*
G02*
X197296783Y-57441683I99917J36D01*
G01*
X197296783Y-61241636D02*
G75*
G02*
X197196764Y-61141636I17J100036D01*
G01*
X198407938Y-71807611D02*
G75*
G02*
X198442082Y-71941816I-52838J-84889D01*
G01*
X198407938Y-71807611D02*
G75*
G02*
X200474410Y-69741137I793662J1272811D01*
G01*
X198442024Y-77613011D02*
G75*
G02*
X198407925Y-77747162I-87024J-49289D01*
G01*
X198442024Y-77613011D02*
G75*
G02*
X198442024Y-71941783I5002180J2835614D01*
G01*
X198594204Y-81127397D02*
G75*
G02*
X197094203Y-79627397I-4J1499997D01*
G01*
X199596783Y-57441636D02*
G75*
G02*
X199696764Y-57541636I17J-99964D01*
G01*
X199696783Y-61141636D02*
G75*
G02*
X199596783Y-61241683I-100083J36D01*
G01*
X200474417Y-79813663D02*
G75*
G02*
X200608602Y-79779555I84883J-52937D01*
G01*
X200474418Y-79813662D02*
G75*
G02*
X198407938Y-77747182I-1272858J793622D01*
G01*
X200608590Y-69775218D02*
G75*
G02*
X206279815Y-69775221I2835610J-5002182D01*
G01*
X200608591Y-69775217D02*
G75*
G02*
X200474440Y-69741118I-49291J87017D01*
G01*
X206279816Y-79779577D02*
G75*
G02*
X206413990Y-79813662I49284J-87123D01*
G01*
X206279817Y-79779576D02*
G75*
G02*
X200608588Y-79779579I-2835617J5002176D01*
G01*
X206413989Y-69741132D02*
G75*
G02*
X208480469Y-71807611I1272851J-793628D01*
G01*
X206413990Y-69741131D02*
G75*
G02*
X206279783Y-69775278I-84890J52831D01*
G01*
X208294204Y-68427397D02*
G75*
G02*
X209794203Y-69927397I-4J-1500003D01*
G01*
X208446383Y-71941783D02*
G75*
G02*
X208480470Y-71807612I87117J49283D01*
G01*
X208446383Y-71941784D02*
G75*
G02*
X208446383Y-77613011I-5002178J-2835614D01*
G01*
X208480469Y-77747183D02*
G75*
G02*
X206413982Y-79813667I-793669J-1272817D01*
G01*
X208480469Y-77747183D02*
G75*
G02*
X208446359Y-77612998I52931J84883D01*
G01*
X209794204Y-79627397D02*
G75*
G02*
X208294204Y-81127404I-1500004J-3D01*
G01*
X212247706Y-71309783D02*
G75*
G02*
X212297706Y-71259806I49994J-17D01*
G01*
X212297706Y-81259783D02*
G75*
G02*
X212247717Y-81209783I-6J49983D01*
G01*
X215417473Y-72284148D02*
G75*
G02*
X215366310Y-72296385I230227J-1075652D01*
G01*
X217197705Y-71259783D02*
G75*
G02*
X217247717Y-71309783I-5J-50017D01*
G01*
X217247705Y-81209783D02*
G75*
G02*
X217197705Y-81259805I-50005J-17D01*
G01*
X200334000Y-83520000D02*
G75*
G02*
X197136000Y-83520000I-1599000J0D01*
G01*
X197136000Y-83520000D02*
G75*
G02*
X200334000Y-83520000I1599000J0D01*
G01*
X208694204Y-74777397D02*
G75*
G02*
X198194204Y-74777397I-5250000J0D01*
G01*
X198194204Y-74777397D02*
G75*
G02*
X208694204Y-74777397I5250000J0D01*
G01*
X210424794Y-85989307D02*
G75*
G02*
X202424794Y-85989307I-4000000J0D01*
G01*
X202424794Y-85989307D02*
G75*
G02*
X210424794Y-85989307I4000000J0D01*
G01*
X210922582Y-50606666D02*
G75*
G02*
X202922582Y-50606666I-4000000J0D01*
G01*
X202922582Y-50606666D02*
G75*
G02*
X210922582Y-50606666I4000000J0D01*
G01*
X208100406Y-57633179D02*
G75*
G02*
X207350406Y-57633179I-375000J0D01*
G01*
X207350406Y-57633179D02*
G75*
G02*
X208100406Y-57633179I375000J0D01*
G01*
X216843999Y-53040000D02*
G75*
G02*
X213646001Y-53040000I-1598999J0D01*
G01*
X213646001Y-53040000D02*
G75*
G02*
X216843999Y-53040000I1598999J0D01*
G01*
D14*
%TO.C,G\u002A\u002A\u002A*%
G36*
X201980022Y-121363831D02*
G01*
X202470324Y-121855759D01*
X202470324Y-123802484D01*
X202470324Y-125749210D01*
X200511835Y-125749210D01*
X198553347Y-125749210D01*
X198078852Y-125274364D01*
X197604358Y-124799518D01*
X197680860Y-124799085D01*
X200527847Y-124799085D01*
X201002909Y-124799085D01*
X201477971Y-124799085D01*
X201477971Y-124302909D01*
X201477971Y-123806733D01*
X201002909Y-123806733D01*
X200527847Y-123806733D01*
X200527847Y-124302909D01*
X200527847Y-124799085D01*
X197680860Y-124799085D01*
X198575205Y-124794023D01*
X199546051Y-124788528D01*
X199546051Y-124302909D01*
X199546051Y-123817290D01*
X199060432Y-123811683D01*
X198574813Y-123806076D01*
X198083915Y-123315675D01*
X197603247Y-122835494D01*
X200505968Y-122835494D01*
X200992352Y-122835494D01*
X201478736Y-122835494D01*
X201473075Y-122334039D01*
X201467414Y-121832585D01*
X200992352Y-121832585D01*
X200517290Y-121832585D01*
X200511629Y-122334039D01*
X200505968Y-122835494D01*
X197603247Y-122835494D01*
X197593017Y-122825274D01*
X197593017Y-122570627D01*
X198567716Y-122570627D01*
X198568449Y-122675720D01*
X198570055Y-122754488D01*
X198572474Y-122800505D01*
X198573886Y-122809022D01*
X198586125Y-122818081D01*
X198617823Y-122824730D01*
X198673336Y-122829160D01*
X198757025Y-122831562D01*
X198873248Y-122832128D01*
X199026362Y-122831050D01*
X199065200Y-122830613D01*
X199546051Y-122824937D01*
X199551717Y-122334539D01*
X199557384Y-121844141D01*
X199509490Y-121832388D01*
X199474539Y-121829135D01*
X199404456Y-121826802D01*
X199306325Y-121825474D01*
X199187235Y-121825234D01*
X199054270Y-121826165D01*
X199018204Y-121826610D01*
X198574813Y-121832585D01*
X198569117Y-122307169D01*
X198567919Y-122445634D01*
X198567716Y-122570627D01*
X197593017Y-122570627D01*
X197593017Y-121848589D01*
X197593017Y-120871903D01*
X199541368Y-120871903D01*
X201489719Y-120871903D01*
X201980022Y-121363831D01*
G37*
D13*
%TO.C,RV1*%
X224630000Y-33905000D02*
X229700000Y-33905000D01*
X224630000Y-43675000D02*
X224630000Y-33905000D01*
X224630000Y-43675000D02*
X229700000Y-43675000D01*
X229700000Y-43675000D02*
X229700000Y-33905000D01*
%TO.C,TP2*%
X239410000Y-36240000D02*
G75*
G02*
X237510000Y-36240000I-950000J0D01*
G01*
X237510000Y-36240000D02*
G75*
G02*
X239410000Y-36240000I950000J0D01*
G01*
D15*
%TO.C,U1*%
X220480000Y-45800000D02*
X231549000Y-45800000D01*
X220480000Y-45800000D02*
X248990000Y-45800000D01*
X220480000Y-96750000D02*
X220480000Y-45800000D01*
X220480000Y-96750000D02*
X220480000Y-45800000D01*
X220480000Y-96750000D02*
X225850000Y-96750000D01*
X225850000Y-96750000D02*
X243540000Y-96750000D01*
X231549000Y-45800000D02*
X238260000Y-45800000D01*
X238260000Y-45800000D02*
X248990000Y-45800000D01*
X243540000Y-96750000D02*
X248990000Y-96750000D01*
X248990000Y-45800000D02*
X248990000Y-96750000D01*
X248990000Y-45800000D02*
X248990000Y-96750000D01*
X248990000Y-96750000D02*
X220480000Y-96750000D01*
D11*
X220010000Y-55760000D02*
G75*
G02*
X219810000Y-55760000I-100000J0D01*
G01*
X219810000Y-55760000D02*
G75*
G02*
X220010000Y-55760000I100000J0D01*
G01*
D13*
%TO.C,J3*%
X214565000Y-46695000D02*
X214565000Y-46635000D01*
X217225000Y-46635000D02*
X214565000Y-46635000D01*
X217225000Y-46695000D02*
X214565000Y-46695000D01*
X217225000Y-46695000D02*
X217225000Y-46635000D01*
X217225000Y-47965000D02*
X217225000Y-49295000D01*
X217225000Y-49295000D02*
X215895000Y-49295000D01*
%TO.C,J11*%
X174330000Y-46670000D02*
X174330000Y-46610000D01*
X176990000Y-46610000D02*
X174330000Y-46610000D01*
X176990000Y-46670000D02*
X174330000Y-46670000D01*
X176990000Y-46670000D02*
X176990000Y-46610000D01*
X176990000Y-47940000D02*
X176990000Y-49270000D01*
X176990000Y-49270000D02*
X175660000Y-49270000D01*
%TO.C,U2*%
X173855000Y-46375000D02*
X173855000Y-90125000D01*
X173855000Y-90125000D02*
X195305000Y-90125000D01*
X174110000Y-46380000D02*
X174110000Y-49510000D01*
X174110000Y-86990000D02*
X174110000Y-90105000D01*
X174110000Y-86990000D02*
X177270000Y-86990000D01*
X174684204Y-69897397D02*
X174684204Y-79597397D01*
X174786783Y-61111636D02*
X174786783Y-57511636D01*
X174886783Y-57411636D02*
X177186783Y-57411636D01*
X175161783Y-56961636D02*
X176911783Y-56961636D01*
X175161783Y-57411636D02*
X175161783Y-56961636D01*
X175161783Y-61661636D02*
X175161783Y-61211636D01*
X176184204Y-81097397D02*
X185884204Y-81097397D01*
X176675304Y-61212636D02*
X176769856Y-61212636D01*
X176911783Y-56961636D02*
X176911783Y-57411636D01*
X176911783Y-61211636D02*
X176911783Y-61661636D01*
X176911783Y-61661636D02*
X175161783Y-61661636D01*
X177186783Y-60341358D02*
X174886783Y-60341358D01*
X177186783Y-61211636D02*
X174886783Y-61211636D01*
X177270000Y-46380000D02*
X177270000Y-49510000D01*
X177270000Y-49510000D02*
X174110000Y-49510000D01*
X177270000Y-86990000D02*
X177270000Y-90105000D01*
X177286783Y-57511636D02*
X177286783Y-61111636D01*
X179773330Y-57940233D02*
X179773330Y-58780233D01*
X179773330Y-57940233D02*
X184403330Y-57940233D01*
X179773330Y-58780233D02*
X184403330Y-58780233D01*
X179773330Y-59640233D02*
X179773330Y-60480233D01*
X179773330Y-59640233D02*
X184403330Y-59640233D01*
X179773330Y-60480233D02*
X184403330Y-60480233D01*
X179773330Y-61340233D02*
X179773330Y-62180233D01*
X179773330Y-61340233D02*
X184403330Y-61340233D01*
X179773330Y-62180233D02*
X184403330Y-62180233D01*
X179773330Y-63040233D02*
X179773330Y-63880233D01*
X179773330Y-63040233D02*
X184403330Y-63040233D01*
X179773330Y-63880233D02*
X184403330Y-63880233D01*
X179773330Y-64740233D02*
X179773330Y-65580233D01*
X179773330Y-64740233D02*
X184403330Y-64740233D01*
X179773330Y-65580233D02*
X184403330Y-65580233D01*
X184403330Y-56757797D02*
X184403330Y-66762670D01*
X184403330Y-66762670D02*
X184480894Y-66840233D01*
X184480894Y-56680233D02*
X184403330Y-56757797D01*
X184480894Y-56680233D02*
X193832390Y-56680233D01*
X184480894Y-66840233D02*
X193832390Y-66840233D01*
X185884204Y-68397397D02*
X176184204Y-68397397D01*
X187384204Y-79597397D02*
X187384204Y-69897397D01*
X189837706Y-81179783D02*
X189837706Y-71279783D01*
X189887706Y-71229783D02*
X194787705Y-71229783D01*
X191890000Y-86990000D02*
X191890000Y-90150000D01*
X191890000Y-86990000D02*
X195050000Y-86990000D01*
X191895000Y-46380000D02*
X191890000Y-49510000D01*
X192200000Y-49510000D02*
X191890000Y-49510000D01*
X192465851Y-56679233D02*
X192304313Y-56679233D01*
X192489705Y-84578681D02*
X194089704Y-84578681D01*
X192489705Y-85378681D02*
X192489705Y-84578681D01*
X192809705Y-85378681D02*
X192809705Y-84578681D01*
X192987706Y-72290553D02*
X192987706Y-74369014D01*
X193043330Y-66840233D02*
X193043330Y-56680233D01*
X193462706Y-72278594D02*
X193467938Y-72254147D01*
X193462706Y-72278594D02*
X193487705Y-72290553D01*
X193462706Y-72278594D02*
X193493925Y-72285764D01*
X193487705Y-74369014D02*
X193487705Y-72290553D01*
X193519100Y-72266385D02*
X193487705Y-72290553D01*
X193769704Y-84578681D02*
X193769704Y-85378681D01*
X193832390Y-56680233D02*
X194123329Y-58330233D01*
X194089704Y-85378681D02*
X192489705Y-85378681D01*
X194089704Y-85378681D02*
X194089704Y-84578681D01*
X194123329Y-58330233D02*
X194123329Y-65190233D01*
X194123329Y-65190233D02*
X193832390Y-66840233D01*
X194787705Y-81229783D02*
X189887706Y-81229783D01*
X194837705Y-71279783D02*
X194837705Y-81179783D01*
X194838705Y-79788978D02*
X194838705Y-79744106D01*
X194838705Y-79872312D02*
X194838705Y-79838357D01*
X195050000Y-46380000D02*
X195050000Y-47680000D01*
X195050000Y-86990000D02*
X195050000Y-90105000D01*
X195305000Y-46375000D02*
X173855000Y-46375000D01*
X195305000Y-90125000D02*
X195305000Y-46375000D01*
X174684204Y-69897397D02*
G75*
G02*
X176184204Y-68397404I1499996J-3D01*
G01*
X174786783Y-57511636D02*
G75*
G02*
X174886783Y-57411683I99917J36D01*
G01*
X174886783Y-61211636D02*
G75*
G02*
X174786764Y-61111636I17J100036D01*
G01*
X175997938Y-71777611D02*
G75*
G02*
X176032082Y-71911816I-52838J-84889D01*
G01*
X175997938Y-71777611D02*
G75*
G02*
X178064410Y-69711137I793662J1272811D01*
G01*
X176032024Y-77583011D02*
G75*
G02*
X175997925Y-77717162I-87024J-49289D01*
G01*
X176032024Y-77583011D02*
G75*
G02*
X176032024Y-71911783I5002180J2835614D01*
G01*
X176184204Y-81097397D02*
G75*
G02*
X174684203Y-79597397I-4J1499997D01*
G01*
X177186783Y-57411636D02*
G75*
G02*
X177286764Y-57511636I17J-99964D01*
G01*
X177286783Y-61111636D02*
G75*
G02*
X177186783Y-61211683I-100083J36D01*
G01*
X178064417Y-79783663D02*
G75*
G02*
X178198602Y-79749555I84883J-52937D01*
G01*
X178064418Y-79783662D02*
G75*
G02*
X175997938Y-77717182I-1272858J793622D01*
G01*
X178198590Y-69745218D02*
G75*
G02*
X183869815Y-69745221I2835610J-5002182D01*
G01*
X178198591Y-69745217D02*
G75*
G02*
X178064440Y-69711118I-49291J87017D01*
G01*
X183869816Y-79749577D02*
G75*
G02*
X184003990Y-79783662I49284J-87123D01*
G01*
X183869817Y-79749576D02*
G75*
G02*
X178198588Y-79749579I-2835617J5002176D01*
G01*
X184003989Y-69711132D02*
G75*
G02*
X186070469Y-71777611I1272851J-793628D01*
G01*
X184003990Y-69711131D02*
G75*
G02*
X183869783Y-69745278I-84890J52831D01*
G01*
X185884204Y-68397397D02*
G75*
G02*
X187384203Y-69897397I-4J-1500003D01*
G01*
X186036383Y-71911783D02*
G75*
G02*
X186070470Y-71777612I87117J49283D01*
G01*
X186036383Y-71911784D02*
G75*
G02*
X186036383Y-77583011I-5002178J-2835614D01*
G01*
X186070469Y-77717183D02*
G75*
G02*
X184003982Y-79783667I-793669J-1272817D01*
G01*
X186070469Y-77717183D02*
G75*
G02*
X186036359Y-77582998I52931J84883D01*
G01*
X187384204Y-79597397D02*
G75*
G02*
X185884204Y-81097404I-1500004J-3D01*
G01*
X189837706Y-71279783D02*
G75*
G02*
X189887706Y-71229806I49994J-17D01*
G01*
X189887706Y-81229783D02*
G75*
G02*
X189837717Y-81179783I-6J49983D01*
G01*
X193007473Y-72254148D02*
G75*
G02*
X192956310Y-72266385I230227J-1075652D01*
G01*
X194787705Y-71229783D02*
G75*
G02*
X194837717Y-71279783I-5J-50017D01*
G01*
X194837705Y-81179783D02*
G75*
G02*
X194787705Y-81229805I-50005J-17D01*
G01*
X177924000Y-83490000D02*
G75*
G02*
X174726000Y-83490000I-1599000J0D01*
G01*
X174726000Y-83490000D02*
G75*
G02*
X177924000Y-83490000I1599000J0D01*
G01*
X186284204Y-74747397D02*
G75*
G02*
X175784204Y-74747397I-5250000J0D01*
G01*
X175784204Y-74747397D02*
G75*
G02*
X186284204Y-74747397I5250000J0D01*
G01*
X188014794Y-85959307D02*
G75*
G02*
X180014794Y-85959307I-4000000J0D01*
G01*
X180014794Y-85959307D02*
G75*
G02*
X188014794Y-85959307I4000000J0D01*
G01*
X188512582Y-50576666D02*
G75*
G02*
X180512582Y-50576666I-4000000J0D01*
G01*
X180512582Y-50576666D02*
G75*
G02*
X188512582Y-50576666I4000000J0D01*
G01*
X185690406Y-57603179D02*
G75*
G02*
X184940406Y-57603179I-375000J0D01*
G01*
X184940406Y-57603179D02*
G75*
G02*
X185690406Y-57603179I375000J0D01*
G01*
X194433999Y-53010000D02*
G75*
G02*
X191236001Y-53010000I-1598999J0D01*
G01*
X191236001Y-53010000D02*
G75*
G02*
X194433999Y-53010000I1598999J0D01*
G01*
%TO.C,J9*%
X174330000Y-87270000D02*
X174330000Y-87210000D01*
X176990000Y-87210000D02*
X174330000Y-87210000D01*
X176990000Y-87270000D02*
X174330000Y-87270000D01*
X176990000Y-87270000D02*
X176990000Y-87210000D01*
X176990000Y-88540000D02*
X176990000Y-89870000D01*
X176990000Y-89870000D02*
X175660000Y-89870000D01*
%TO.C,U4*%
X216810000Y-128220000D02*
X216810000Y-130880000D01*
X219270000Y-106280000D02*
X219270000Y-108940000D01*
X229460000Y-106280000D02*
X219270000Y-106280000D01*
X229460000Y-106280000D02*
X229460000Y-108940000D01*
X229460000Y-108940000D02*
X219270000Y-108940000D01*
X230660000Y-106270000D02*
X231990000Y-106270000D01*
X231990000Y-106270000D02*
X231990000Y-107600000D01*
X232070000Y-128220000D02*
X216810000Y-128220000D01*
X232070000Y-128220000D02*
X232070000Y-130880000D01*
X232070000Y-130880000D02*
X216810000Y-130880000D01*
D10*
X238170000Y-106080000D02*
X213170000Y-106080000D01*
X213170000Y-131080000D01*
X238170000Y-131080000D01*
X238170000Y-106080000D01*
D13*
%TO.C,JP3*%
X213260000Y-92240000D02*
X213260000Y-92840000D01*
X213560000Y-92540000D02*
X213260000Y-92240000D01*
X213560000Y-92540000D02*
X213260000Y-92840000D01*
X213760000Y-91790000D02*
X215760000Y-91790000D01*
X213760000Y-95890000D02*
X213760000Y-91790000D01*
X215760000Y-91790000D02*
X215760000Y-95890000D01*
X215760000Y-95890000D02*
X213760000Y-95890000D01*
%TO.C,J1*%
X191600000Y-40100000D02*
X191600000Y-33040000D01*
X192506000Y-37428000D02*
X192901000Y-37032000D01*
X192772000Y-37694000D02*
X193152000Y-37314000D01*
X195167000Y-34766000D02*
X195547000Y-34386000D01*
X195418000Y-35048000D02*
X195813000Y-34652000D01*
X197506000Y-37428000D02*
X197613000Y-37321000D01*
X197772000Y-37694000D02*
X197879000Y-37587000D01*
X200442000Y-34493000D02*
X200548000Y-34386000D01*
X200708000Y-34759000D02*
X200814000Y-34652000D01*
X201720000Y-33040000D02*
X191600000Y-33040000D01*
X201720000Y-40100000D02*
X191600000Y-40100000D01*
X201720000Y-40100000D02*
X201720000Y-33040000D01*
X196340000Y-36040000D02*
G75*
G02*
X191980000Y-36040000I-2180000J0D01*
G01*
X191980000Y-36040000D02*
G75*
G02*
X196340000Y-36040000I2180000J0D01*
G01*
X201340000Y-36040000D02*
G75*
G02*
X196980000Y-36040000I-2180000J0D01*
G01*
X196980000Y-36040000D02*
G75*
G02*
X201340000Y-36040000I2180000J0D01*
G01*
%TO.C,J4*%
X196765000Y-46695000D02*
X196765000Y-46635000D01*
X199425000Y-46635000D02*
X196765000Y-46635000D01*
X199425000Y-46695000D02*
X196765000Y-46695000D01*
X199425000Y-46695000D02*
X199425000Y-46635000D01*
X199425000Y-47965000D02*
X199425000Y-49295000D01*
X199425000Y-49295000D02*
X198095000Y-49295000D01*
%TO.C,JP2*%
X224810000Y-100640000D02*
X228910000Y-100640000D01*
X224810000Y-102640000D02*
X224810000Y-100640000D01*
X225260000Y-103140000D02*
X225860000Y-103140000D01*
X225560000Y-102840000D02*
X225260000Y-103140000D01*
X225560000Y-102840000D02*
X225860000Y-103140000D01*
X228910000Y-100640000D02*
X228910000Y-102640000D01*
X228910000Y-102640000D02*
X224810000Y-102640000D01*
%TO.C,J5*%
X214565000Y-87295000D02*
X214565000Y-87235000D01*
X217225000Y-87235000D02*
X214565000Y-87235000D01*
X217225000Y-87295000D02*
X214565000Y-87295000D01*
X217225000Y-87295000D02*
X217225000Y-87235000D01*
X217225000Y-88565000D02*
X217225000Y-89895000D01*
X217225000Y-89895000D02*
X215895000Y-89895000D01*
%TO.C,J7*%
X206530000Y-104110000D02*
X206530000Y-111790000D01*
X206530000Y-104110000D02*
X209190000Y-104110000D01*
X206530000Y-111790000D02*
X209190000Y-111790000D01*
X207860000Y-101510000D02*
X209190000Y-101510000D01*
X209190000Y-101510000D02*
X209190000Y-102840000D01*
X209190000Y-104110000D02*
X209190000Y-111790000D01*
%TO.C,J10*%
X192130000Y-46670000D02*
X192130000Y-46610000D01*
X194790000Y-46610000D02*
X192130000Y-46610000D01*
X194790000Y-46670000D02*
X192130000Y-46670000D01*
X194790000Y-46670000D02*
X194790000Y-46610000D01*
X194790000Y-47940000D02*
X194790000Y-49270000D01*
X194790000Y-49270000D02*
X193460000Y-49270000D01*
%TO.C,J6*%
X196765000Y-87295000D02*
X196765000Y-87235000D01*
X199425000Y-87235000D02*
X196765000Y-87235000D01*
X199425000Y-87295000D02*
X196765000Y-87295000D01*
X199425000Y-87295000D02*
X199425000Y-87235000D01*
X199425000Y-88565000D02*
X199425000Y-89895000D01*
X199425000Y-89895000D02*
X198095000Y-89895000D01*
D14*
%TO.C,G\u002A\u002A\u002A*%
G36*
X195600923Y-121874479D02*
G01*
X195600923Y-122939326D01*
X194536077Y-122939326D01*
X193471230Y-122939326D01*
X193471230Y-121874479D01*
X193471230Y-120809633D01*
X194536077Y-120809633D01*
X195600923Y-120809633D01*
X195600923Y-121874479D01*
G37*
G36*
X192728769Y-122616941D02*
G01*
X192728769Y-123681787D01*
X193803384Y-123681787D01*
X194878000Y-123681787D01*
X194878000Y-124746633D01*
X194878000Y-125811479D01*
X192738538Y-125811479D01*
X190599077Y-125811479D01*
X190599077Y-123681787D01*
X190599077Y-121552095D01*
X191663923Y-121552095D01*
X192728769Y-121552095D01*
X192728769Y-122616941D01*
G37*
D13*
%TO.C,TP1*%
X239410000Y-40440000D02*
G75*
G02*
X237510000Y-40440000I-950000J0D01*
G01*
X237510000Y-40440000D02*
G75*
G02*
X239410000Y-40440000I950000J0D01*
G01*
%TO.C,J8*%
X192130000Y-87270000D02*
X192130000Y-87210000D01*
X194790000Y-87210000D02*
X192130000Y-87210000D01*
X194790000Y-87270000D02*
X192130000Y-87270000D01*
X194790000Y-87270000D02*
X194790000Y-87210000D01*
X194790000Y-88540000D02*
X194790000Y-89870000D01*
X194790000Y-89870000D02*
X193460000Y-89870000D01*
%TO.C,J12*%
X206600000Y-40100000D02*
X206600000Y-33040000D01*
X207506000Y-37428000D02*
X207901000Y-37032000D01*
X207772000Y-37694000D02*
X208152000Y-37314000D01*
X210167000Y-34766000D02*
X210547000Y-34386000D01*
X210418000Y-35048000D02*
X210813000Y-34652000D01*
X212506000Y-37428000D02*
X212901000Y-37032000D01*
X212772000Y-37694000D02*
X213152000Y-37314000D01*
X215167000Y-34766000D02*
X215547000Y-34386000D01*
X215418000Y-35048000D02*
X215813000Y-34652000D01*
X217506000Y-37428000D02*
X217613000Y-37321000D01*
X217772000Y-37694000D02*
X217879000Y-37587000D01*
X220442000Y-34493000D02*
X220548000Y-34386000D01*
X220708000Y-34759000D02*
X220814000Y-34652000D01*
X221720000Y-33040000D02*
X206600000Y-33040000D01*
X221720000Y-40100000D02*
X206600000Y-40100000D01*
X221720000Y-40100000D02*
X221720000Y-33040000D01*
X211340000Y-36040000D02*
G75*
G02*
X206980000Y-36040000I-2180000J0D01*
G01*
X206980000Y-36040000D02*
G75*
G02*
X211340000Y-36040000I2180000J0D01*
G01*
X216340000Y-36040000D02*
G75*
G02*
X211980000Y-36040000I-2180000J0D01*
G01*
X211980000Y-36040000D02*
G75*
G02*
X216340000Y-36040000I2180000J0D01*
G01*
X221340000Y-36040000D02*
G75*
G02*
X216980000Y-36040000I-2180000J0D01*
G01*
X216980000Y-36040000D02*
G75*
G02*
X221340000Y-36040000I2180000J0D01*
G01*
%TO.C,TP4*%
X236310000Y-102340000D02*
G75*
G02*
X234410000Y-102340000I-950000J0D01*
G01*
X234410000Y-102340000D02*
G75*
G02*
X236310000Y-102340000I950000J0D01*
G01*
%TD*%
M02*
