M48
; DRILL file {KiCad 8.0.7} date 2025-04-11T13:17:38+0700
; FORMAT={-:-/ absolute / inch / decimal}
; #@! TF.CreationDate,2025-04-11T13:17:38+07:00
; #@! TF.GenerationSoftware,Kicad,Pcbnew,8.0.7
; #@! TF.FileFunction,Plated,1,2,PTH
FMAT,2
INCH
; #@! TA.AperFunction,Plated,PTH,ViaDrill
T1C0.0236
; #@! TA.AperFunction,Plated,PTH,ComponentDrill
T2C0.0315
; #@! TA.AperFunction,Plated,PTH,ComponentDrill
T3C0.0394
; #@! TA.AperFunction,Plated,PTH,ComponentDrill
T4C0.0402
; #@! TA.AperFunction,Plated,PTH,ComponentDrill
T5C0.0512
; #@! TA.AperFunction,Plated,PTH,ComponentDrill
T6C0.1969
%
G90
G05
T1
X8.3803Y-3.6433
X8.3803Y-3.848
X8.3803Y-4.0134
X8.6402Y-3.9031
X8.7425Y-3.9189
X8.7819Y-4.1236
X8.8055Y-1.4268
X8.8803Y-4.0724
X9.3882Y-1.6906
T2
X8.9433Y-1.4272
X8.9433Y-1.5272
X8.9433Y-1.6272
T3
X6.9157Y-1.8874
X6.9157Y-3.4858
X6.9169Y-1.887
X6.9169Y-3.487
X7.6165Y-1.8874
X7.6165Y-3.4858
X7.6169Y-1.887
X7.6169Y-3.487
X7.799Y-1.8884
X7.799Y-3.4868
X7.7992Y-1.8882
X7.7992Y-3.4882
X8.1835Y-4.0488
X8.1835Y-4.1488
X8.1835Y-4.2488
X8.1835Y-4.3488
X8.4992Y-1.8882
X8.4992Y-3.4882
X8.4998Y-1.8884
X8.4998Y-3.4868
X8.5862Y-5.1016
X8.6831Y-4.2354
X8.6862Y-5.1016
X8.7831Y-4.2354
X8.7862Y-5.1016
X8.8831Y-4.2354
X8.8862Y-5.1016
X8.9831Y-4.2354
X8.9862Y-5.1016
X9.0831Y-4.2354
X9.0862Y-5.1016
T4
X8.7425Y-2.1953
X8.7425Y-2.2953
X8.7425Y-2.3953
X8.7425Y-2.4953
X8.7425Y-2.5953
X8.7425Y-2.6953
X8.7425Y-2.7953
X8.7425Y-2.8953
X8.7425Y-2.9953
X8.7425Y-3.0953
X8.7425Y-3.1953
X8.7425Y-3.2953
X8.7425Y-3.3953
X8.7425Y-3.4953
X8.7425Y-3.5953
X9.7425Y-2.1953
X9.7425Y-2.2953
X9.7425Y-2.3953
X9.7425Y-2.4953
X9.7425Y-2.5953
X9.7425Y-2.6953
X9.7425Y-2.7953
X9.7425Y-2.8953
X9.7425Y-2.9953
X9.7425Y-3.0953
X9.7425Y-3.1953
X9.7425Y-3.2953
X9.7425Y-3.3953
X9.7425Y-3.4953
X9.7425Y-3.5953
T5
X7.6441Y-1.4189
X7.8409Y-1.4189
X8.2346Y-1.4189
X8.4315Y-1.4189
X8.6283Y-1.4189
T6
X6.9945Y-1.5173
X6.9945Y-4.9819
X9.6717Y-1.5173
X9.6717Y-4.9819
M30
