%TF.GenerationSoftware,KiCad,Pcbnew,8.0.7*%
%TF.CreationDate,2025-04-11T13:17:33+07:00*%
%TF.ProjectId,esp32_getstok_testing-2,65737033-325f-4676-9574-73746f6b5f74,rev?*%
%TF.SameCoordinates,Original*%
%TF.FileFunction,Copper,L1,Top*%
%TF.FilePolarity,Positive*%
%FSLAX46Y46*%
G04 Gerber Fmt 4.6, Leading zero omitted, Abs format (unit mm)*
G04 Created by KiCad (PCBNEW 8.0.7) date 2025-04-11 13:17:33*
%MOMM*%
%LPD*%
G01*
G04 APERTURE LIST*
%TA.AperFunction,SMDPad,CuDef*%
%ADD10R,1.500000X1.000000*%
%TD*%
%TA.AperFunction,SMDPad,CuDef*%
%ADD11R,1.000000X1.500000*%
%TD*%
%TA.AperFunction,ComponentPad*%
%ADD12R,2.540000X2.540000*%
%TD*%
%TA.AperFunction,ComponentPad*%
%ADD13C,2.540000*%
%TD*%
%TA.AperFunction,ComponentPad*%
%ADD14C,1.440000*%
%TD*%
%TA.AperFunction,SMDPad,CuDef*%
%ADD15C,1.500000*%
%TD*%
%TA.AperFunction,ComponentPad*%
%ADD16R,2.000000X2.000000*%
%TD*%
%TA.AperFunction,ComponentPad*%
%ADD17C,2.000000*%
%TD*%
%TA.AperFunction,ComponentPad*%
%ADD18R,1.700000X1.700000*%
%TD*%
%TA.AperFunction,ComponentPad*%
%ADD19C,10.000000*%
%TD*%
%TA.AperFunction,ComponentPad*%
%ADD20C,1.700000*%
%TD*%
%TA.AperFunction,ComponentPad*%
%ADD21R,2.600000X2.600000*%
%TD*%
%TA.AperFunction,ComponentPad*%
%ADD22C,2.600000*%
%TD*%
%TA.AperFunction,ComponentPad*%
%ADD23O,1.700000X1.700000*%
%TD*%
%TA.AperFunction,ViaPad*%
%ADD24C,1.000000*%
%TD*%
%TA.AperFunction,Conductor*%
%ADD25C,1.000000*%
%TD*%
%TA.AperFunction,Conductor*%
%ADD26C,0.500000*%
%TD*%
%TA.AperFunction,Conductor*%
%ADD27C,0.300000*%
%TD*%
G04 APERTURE END LIST*
D10*
%TO.P,JP4,1,A*%
%TO.N,/TX_GPS*%
X214760000Y-97740000D03*
%TO.P,JP4,2,C*%
%TO.N,/GPIO23*%
X214760000Y-99040000D03*
%TO.P,JP4,3,B*%
%TO.N,/RX_GPS*%
X214760000Y-100340000D03*
%TD*%
D11*
%TO.P,JP1,1,A*%
%TO.N,/TX_SIM*%
X218960000Y-101640000D03*
%TO.P,JP1,2,C*%
%TO.N,/RX2*%
X220260000Y-101640000D03*
%TO.P,JP1,3,B*%
%TO.N,/RX_SIM*%
X221560000Y-101640000D03*
%TD*%
D12*
%TO.P,U3,1,Vin*%
%TO.N,unconnected-(U3-Vin-Pad1)*%
X215880000Y-47960000D03*
D13*
%TO.P,U3,2,GND*%
%TO.N,unconnected-(U3-GND-Pad2)*%
X198100000Y-47960000D03*
%TO.P,U3,3,GND*%
%TO.N,unconnected-(U3-GND-Pad3)*%
X198100000Y-88600000D03*
%TO.P,U3,4,Vout*%
%TO.N,unconnected-(U3-Vout-Pad4)*%
X215880000Y-88600000D03*
%TD*%
D14*
%TO.P,RV1,1,1*%
%TO.N,+3.3V*%
X227160000Y-36250000D03*
%TO.P,RV1,2,2*%
%TO.N,/ADC_IN*%
X227160000Y-38790000D03*
%TO.P,RV1,3,3*%
%TO.N,unconnected-(RV1-Pad3)*%
X227160000Y-41330000D03*
%TD*%
D15*
%TO.P,TP2,1,1*%
%TO.N,+3.3V*%
X238460000Y-36240000D03*
%TD*%
D16*
%TO.P,U1,1,3V3*%
%TO.N,+3.3V*%
X222060000Y-55760000D03*
D17*
%TO.P,U1,2,GND*%
%TO.N,GND*%
X222060000Y-58300000D03*
%TO.P,U1,3,D15*%
%TO.N,unconnected-(U1-D15-Pad3)*%
X222060000Y-60840000D03*
%TO.P,U1,4,D2*%
%TO.N,unconnected-(U1-D2-Pad4)*%
X222060000Y-63380000D03*
%TO.P,U1,5,D4*%
%TO.N,unconnected-(U1-D4-Pad5)*%
X222060000Y-65920000D03*
%TO.P,U1,6,RX2*%
%TO.N,/RX2*%
X222060000Y-68460000D03*
%TO.P,U1,7,TX2*%
%TO.N,/TX2*%
X222060000Y-71000000D03*
%TO.P,U1,8,D5*%
%TO.N,unconnected-(U1-D5-Pad8)*%
X222060000Y-73540000D03*
%TO.P,U1,9,D18*%
%TO.N,unconnected-(U1-D18-Pad9)*%
X222060000Y-76080000D03*
%TO.P,U1,10,D19*%
%TO.N,unconnected-(U1-D19-Pad10)*%
X222060000Y-78620000D03*
%TO.P,U1,11,D21*%
%TO.N,unconnected-(U1-D21-Pad11)*%
X222060000Y-81160000D03*
%TO.P,U1,12,RX0*%
%TO.N,unconnected-(U1-RX0-Pad12)*%
X222060000Y-83700000D03*
%TO.P,U1,13,TX0*%
%TO.N,unconnected-(U1-TX0-Pad13)*%
X222060000Y-86240000D03*
%TO.P,U1,14,D22*%
%TO.N,/GPIO22*%
X222060000Y-88780000D03*
%TO.P,U1,15,D23*%
%TO.N,/GPIO23*%
X222060000Y-91320000D03*
%TO.P,U1,16,EN*%
%TO.N,unconnected-(U1-EN-Pad16)*%
X247460000Y-91320000D03*
%TO.P,U1,17,VP*%
%TO.N,unconnected-(U1-VP-Pad17)*%
X247460000Y-88780000D03*
%TO.P,U1,18,VN*%
%TO.N,unconnected-(U1-VN-Pad18)*%
X247460000Y-86240000D03*
%TO.P,U1,19,D34*%
%TO.N,/RST_SIM*%
X247460000Y-83700000D03*
%TO.P,U1,20,D35*%
%TO.N,unconnected-(U1-D35-Pad20)*%
X247460000Y-81160000D03*
%TO.P,U1,21,D32*%
%TO.N,unconnected-(U1-D32-Pad21)*%
X247460000Y-78620000D03*
%TO.P,U1,22,D33*%
%TO.N,/ADC_IN*%
X247460000Y-76080000D03*
%TO.P,U1,23,D25*%
%TO.N,unconnected-(U1-D25-Pad23)*%
X247460000Y-73540000D03*
%TO.P,U1,24,D26*%
%TO.N,unconnected-(U1-D26-Pad24)*%
X247460000Y-71000000D03*
%TO.P,U1,25,D27*%
%TO.N,unconnected-(U1-D27-Pad25)*%
X247460000Y-68460000D03*
%TO.P,U1,26,D14*%
%TO.N,unconnected-(U1-D14-Pad26)*%
X247460000Y-65920000D03*
%TO.P,U1,27,D12*%
%TO.N,unconnected-(U1-D12-Pad27)*%
X247460000Y-63380000D03*
%TO.P,U1,28,D13*%
%TO.N,unconnected-(U1-D13-Pad28)*%
X247460000Y-60840000D03*
%TO.P,U1,29,GND*%
%TO.N,GND*%
X247460000Y-58300000D03*
%TO.P,U1,30,VIN*%
%TO.N,unconnected-(U1-VIN-Pad30)*%
X247460000Y-55760000D03*
%TD*%
D18*
%TO.P,J3,1,Pin_1*%
%TO.N,/Vin*%
X215895000Y-47965000D03*
%TD*%
%TO.P,J11,1,Pin_1*%
%TO.N,GND*%
X175660000Y-47940000D03*
%TD*%
D19*
%TO.P,H6,1,1*%
%TO.N,GND*%
X245660000Y-38540000D03*
%TD*%
D12*
%TO.P,U2,1,Vin*%
%TO.N,unconnected-(U2-Vin-Pad1)*%
X193470000Y-47930000D03*
D13*
%TO.P,U2,2,GND*%
%TO.N,unconnected-(U2-GND-Pad2)*%
X175690000Y-47930000D03*
%TO.P,U2,3,GND*%
%TO.N,unconnected-(U2-GND-Pad3)*%
X175690000Y-88570000D03*
%TO.P,U2,4,Vout*%
%TO.N,unconnected-(U2-Vout-Pad4)*%
X193470000Y-88570000D03*
%TD*%
D18*
%TO.P,J9,1,Pin_1*%
%TO.N,GND*%
X175660000Y-88540000D03*
%TD*%
%TO.P,U4,1,VCC*%
%TO.N,+4V*%
X230710000Y-107580000D03*
D20*
%TO.P,U4,2,RST*%
%TO.N,/RST_SIM*%
X228170000Y-107580000D03*
%TO.P,U4,3,RXD*%
%TO.N,/RX_SIM*%
X225630000Y-107580000D03*
%TO.P,U4,4,TXD*%
%TO.N,/TX_SIM*%
X223090000Y-107580000D03*
%TO.P,U4,5,GND*%
%TO.N,GND*%
X220550000Y-107580000D03*
%TO.P,U4,6,SPK-*%
%TO.N,unconnected-(U4-SPK--Pad6)*%
X218090000Y-129580000D03*
%TO.P,U4,7,SPK+*%
%TO.N,unconnected-(U4-SPK+-Pad7)*%
X220630000Y-129580000D03*
%TO.P,U4,8,MIC-*%
%TO.N,unconnected-(U4-MIC--Pad8)*%
X223170000Y-129580000D03*
%TO.P,U4,9,MIC+*%
%TO.N,unconnected-(U4-MIC+-Pad9)*%
X225710000Y-129580000D03*
%TO.P,U4,10,DTR*%
%TO.N,unconnected-(U4-DTR-Pad10)*%
X228250000Y-129580000D03*
%TO.P,U4,11,RING*%
%TO.N,unconnected-(U4-RING-Pad11)*%
X230790000Y-129580000D03*
%TD*%
D19*
%TO.P,H7,1,1*%
%TO.N,GND*%
X245660000Y-126540000D03*
%TD*%
D10*
%TO.P,JP3,1,A*%
%TO.N,/TX_GPS*%
X214760000Y-92540000D03*
%TO.P,JP3,2,C*%
%TO.N,/GPIO22*%
X214760000Y-93840000D03*
%TO.P,JP3,3,B*%
%TO.N,/RX_GPS*%
X214760000Y-95140000D03*
%TD*%
D21*
%TO.P,J1,1,Pin_1*%
%TO.N,/Vin*%
X199160000Y-36040000D03*
D22*
%TO.P,J1,2,Pin_2*%
%TO.N,GND*%
X194160000Y-36040000D03*
%TD*%
D19*
%TO.P,H8,1,1*%
%TO.N,GND*%
X177660000Y-126540000D03*
%TD*%
D18*
%TO.P,J4,1,Pin_1*%
%TO.N,GND*%
X198095000Y-47965000D03*
%TD*%
D11*
%TO.P,JP2,1,A*%
%TO.N,/TX_SIM*%
X225560000Y-101640000D03*
%TO.P,JP2,2,C*%
%TO.N,/TX2*%
X226860000Y-101640000D03*
%TO.P,JP2,3,B*%
%TO.N,/RX_SIM*%
X228160000Y-101640000D03*
%TD*%
D18*
%TO.P,J5,1,Pin_1*%
%TO.N,+4V*%
X215895000Y-88565000D03*
%TD*%
D19*
%TO.P,H5,1,1*%
%TO.N,GND*%
X177660000Y-38540000D03*
%TD*%
D18*
%TO.P,J7,1,Pin_1*%
%TO.N,+3.3V*%
X207860000Y-102840000D03*
D23*
%TO.P,J7,2,Pin_2*%
%TO.N,/RX_GPS*%
X207860000Y-105380000D03*
%TO.P,J7,3,Pin_3*%
%TO.N,/TX_GPS*%
X207860000Y-107920000D03*
%TO.P,J7,4,Pin_4*%
%TO.N,GND*%
X207860000Y-110460000D03*
%TD*%
D18*
%TO.P,J10,1,Pin_1*%
%TO.N,/Vin*%
X193460000Y-47940000D03*
%TD*%
%TO.P,J6,1,Pin_1*%
%TO.N,GND*%
X198095000Y-88565000D03*
%TD*%
D15*
%TO.P,TP1,1,1*%
%TO.N,/ADC_IN*%
X238460000Y-40440000D03*
%TD*%
D18*
%TO.P,J8,1,Pin_1*%
%TO.N,+3.3V*%
X193460000Y-88540000D03*
%TD*%
D21*
%TO.P,J12,1,Pin_1*%
%TO.N,GND*%
X219160000Y-36040000D03*
D22*
%TO.P,J12,2,Pin_2*%
%TO.N,/ADC_IN*%
X214160000Y-36040000D03*
%TO.P,J12,3,Pin_3*%
X209160000Y-36040000D03*
%TD*%
D15*
%TO.P,TP4,1,1*%
%TO.N,+4V*%
X235360000Y-102340000D03*
%TD*%
D24*
%TO.N,/ADC_IN*%
X238460000Y-42940000D03*
%TO.N,/TX_GPS*%
X212860000Y-92540000D03*
X212860000Y-97740000D03*
X212860000Y-101940000D03*
%TO.N,+3.3V*%
X223660000Y-36240000D03*
%TO.N,/TX_SIM*%
X223060000Y-104740000D03*
X225560000Y-103440000D03*
%TO.N,/RX2*%
X219460000Y-99140000D03*
%TO.N,/TX2*%
X222060000Y-99540000D03*
%TD*%
D25*
%TO.N,/Vin*%
X215895000Y-45875000D02*
X214660000Y-44640000D01*
X199160000Y-36040000D02*
X199160000Y-44640000D01*
X215895000Y-47965000D02*
X215895000Y-45875000D01*
X193460000Y-45140000D02*
X193460000Y-47940000D01*
X193960000Y-44640000D02*
X193460000Y-45140000D01*
X199160000Y-44640000D02*
X198660000Y-44640000D01*
X214660000Y-44640000D02*
X202460000Y-44640000D01*
X202460000Y-44640000D02*
X199160000Y-44640000D01*
X198660000Y-44640000D02*
X193960000Y-44640000D01*
D26*
%TO.N,/ADC_IN*%
X209160000Y-41540000D02*
X210660000Y-43040000D01*
X227160000Y-38790000D02*
X224910000Y-38790000D01*
X209160000Y-36040000D02*
X209160000Y-41540000D01*
X238360000Y-42840000D02*
X238460000Y-42940000D01*
X210660000Y-43040000D02*
X221660000Y-43040000D01*
X236810000Y-38790000D02*
X238460000Y-40440000D01*
X221960000Y-41740000D02*
X224910000Y-38790000D01*
X223160000Y-44540000D02*
X233660000Y-44540000D01*
X238460000Y-40440000D02*
X238460000Y-42940000D01*
X214160000Y-36040000D02*
X214160000Y-41740000D01*
X235360000Y-42840000D02*
X238360000Y-42840000D01*
X221660000Y-43040000D02*
X223160000Y-44540000D01*
X215060000Y-41740000D02*
X221960000Y-41740000D01*
X233660000Y-44540000D02*
X235360000Y-42840000D01*
X227160000Y-38790000D02*
X236810000Y-38790000D01*
X214160000Y-41740000D02*
X215060000Y-41740000D01*
D27*
%TO.N,/TX_GPS*%
X210760000Y-106640000D02*
X212860000Y-104540000D01*
X212860000Y-104540000D02*
X212860000Y-101940000D01*
X207860000Y-107920000D02*
X209480000Y-107920000D01*
X212860000Y-92540000D02*
X214760000Y-92540000D01*
X209480000Y-107920000D02*
X210760000Y-106640000D01*
X212860000Y-97740000D02*
X214760000Y-97740000D01*
D26*
%TO.N,+3.3V*%
X193460000Y-88540000D02*
X193460000Y-90840000D01*
X227160000Y-36250000D02*
X233350000Y-36250000D01*
X233360000Y-36240000D02*
X238460000Y-36240000D01*
X210360000Y-92240000D02*
X210360000Y-102540000D01*
X227150000Y-36240000D02*
X227160000Y-36250000D01*
X193460000Y-90840000D02*
X194060000Y-91440000D01*
X233350000Y-36250000D02*
X233360000Y-36240000D01*
X223660000Y-36240000D02*
X227150000Y-36240000D01*
X209560000Y-91440000D02*
X210360000Y-92240000D01*
X210360000Y-102540000D02*
X210060000Y-102840000D01*
X210060000Y-102840000D02*
X207860000Y-102840000D01*
X194060000Y-91440000D02*
X209560000Y-91440000D01*
D27*
%TO.N,/RX_GPS*%
X209920000Y-105380000D02*
X211760000Y-103540000D01*
X207860000Y-105380000D02*
X209920000Y-105380000D01*
X211760000Y-96240000D02*
X212860000Y-95140000D01*
X211760000Y-103540000D02*
X211760000Y-100340000D01*
X211760000Y-100340000D02*
X214760000Y-100340000D01*
X211760000Y-100340000D02*
X211760000Y-96240000D01*
X212860000Y-95140000D02*
X214760000Y-95140000D01*
%TO.N,/RX_SIM*%
X228160000Y-101640000D02*
X228160000Y-103740000D01*
X225660000Y-104398000D02*
X224318000Y-104398000D01*
X224318000Y-104398000D02*
X223560000Y-103640000D01*
X228160000Y-103740000D02*
X227502000Y-104398000D01*
X227502000Y-104398000D02*
X225660000Y-104398000D01*
X225660000Y-104398000D02*
X225660000Y-107630000D01*
X223560000Y-101940000D02*
X223260000Y-101640000D01*
X225660000Y-107630000D02*
X225670000Y-107640000D01*
X223260000Y-101640000D02*
X221560000Y-101640000D01*
X223560000Y-103640000D02*
X223560000Y-101940000D01*
D25*
%TO.N,+4V*%
X230710000Y-105490000D02*
X231260000Y-104940000D01*
X230710000Y-107580000D02*
X230710000Y-105490000D01*
X231260000Y-104940000D02*
X234660000Y-104940000D01*
X234660000Y-104940000D02*
X235360000Y-104240000D01*
X235360000Y-104240000D02*
X235360000Y-102340000D01*
D27*
%TO.N,/TX_SIM*%
X223060000Y-104740000D02*
X223090000Y-104770000D01*
X220260000Y-104740000D02*
X218960000Y-103440000D01*
X223090000Y-107600000D02*
X223130000Y-107640000D01*
X223090000Y-104770000D02*
X223090000Y-107600000D01*
X218960000Y-103440000D02*
X218960000Y-101640000D01*
X223060000Y-104740000D02*
X220260000Y-104740000D01*
X225560000Y-101640000D02*
X225560000Y-103440000D01*
D26*
%TO.N,/RST_SIM*%
X234760000Y-98740000D02*
X242860000Y-98740000D01*
X242860000Y-98740000D02*
X244360000Y-97240000D01*
X228170000Y-105330000D02*
X234760000Y-98740000D01*
X244360000Y-97240000D02*
X244360000Y-84840000D01*
X228170000Y-107580000D02*
X228170000Y-105330000D01*
X245500000Y-83700000D02*
X247460000Y-83700000D01*
X244360000Y-84840000D02*
X245500000Y-83700000D01*
D27*
%TO.N,/RX2*%
X220260000Y-99940000D02*
X220260000Y-101640000D01*
X219460000Y-99140000D02*
X220260000Y-99940000D01*
%TO.N,/TX2*%
X222060000Y-99540000D02*
X226460000Y-99540000D01*
X226860000Y-99940000D02*
X226860000Y-101640000D01*
X226460000Y-99540000D02*
X226860000Y-99940000D01*
%TO.N,/GPIO22*%
X218460000Y-92240000D02*
X218460000Y-89840000D01*
X218460000Y-89840000D02*
X219560000Y-88740000D01*
X219560000Y-88740000D02*
X222020000Y-88740000D01*
X214760000Y-93840000D02*
X216860000Y-93840000D01*
X222020000Y-88740000D02*
X222060000Y-88780000D01*
X216860000Y-93840000D02*
X218460000Y-92240000D01*
%TO.N,/GPIO23*%
X219160000Y-96540000D02*
X219160000Y-92040000D01*
X216660000Y-99040000D02*
X219160000Y-96540000D01*
X219880000Y-91320000D02*
X222060000Y-91320000D01*
X219160000Y-92040000D02*
X219880000Y-91320000D01*
X214760000Y-99040000D02*
X216660000Y-99040000D01*
%TD*%
M02*
