%TF.GenerationSoftware,KiCad,Pcbnew,8.0.7*%
%TF.CreationDate,2025-04-11T13:17:33+07:00*%
%TF.ProjectId,esp32_getstok_testing-2,65737033-325f-4676-9574-73746f6b5f74,rev?*%
%TF.SameCoordinates,Original*%
%TF.FileFunction,Copper,L2,Bot*%
%TF.FilePolarity,Positive*%
%FSLAX46Y46*%
G04 Gerber Fmt 4.6, Leading zero omitted, Abs format (unit mm)*
G04 Created by KiCad (PCBNEW 8.0.7) date 2025-04-11 13:17:33*
%MOMM*%
%LPD*%
G01*
G04 APERTURE LIST*
%TA.AperFunction,ComponentPad*%
%ADD10R,2.540000X2.540000*%
%TD*%
%TA.AperFunction,ComponentPad*%
%ADD11C,2.540000*%
%TD*%
%TA.AperFunction,ComponentPad*%
%ADD12C,1.440000*%
%TD*%
%TA.AperFunction,ComponentPad*%
%ADD13R,2.000000X2.000000*%
%TD*%
%TA.AperFunction,ComponentPad*%
%ADD14C,2.000000*%
%TD*%
%TA.AperFunction,ComponentPad*%
%ADD15R,1.700000X1.700000*%
%TD*%
%TA.AperFunction,ComponentPad*%
%ADD16C,10.000000*%
%TD*%
%TA.AperFunction,ComponentPad*%
%ADD17C,1.700000*%
%TD*%
%TA.AperFunction,ComponentPad*%
%ADD18R,2.600000X2.600000*%
%TD*%
%TA.AperFunction,ComponentPad*%
%ADD19C,2.600000*%
%TD*%
%TA.AperFunction,ComponentPad*%
%ADD20O,1.700000X1.700000*%
%TD*%
%TA.AperFunction,ViaPad*%
%ADD21C,1.000000*%
%TD*%
%TA.AperFunction,Conductor*%
%ADD22C,0.500000*%
%TD*%
%TA.AperFunction,Conductor*%
%ADD23C,0.300000*%
%TD*%
%TA.AperFunction,Conductor*%
%ADD24C,1.000000*%
%TD*%
G04 APERTURE END LIST*
D10*
%TO.P,U3,1,Vin*%
%TO.N,unconnected-(U3-Vin-Pad1)*%
X215880000Y-47960000D03*
D11*
%TO.P,U3,2,GND*%
%TO.N,unconnected-(U3-GND-Pad2)*%
X198100000Y-47960000D03*
%TO.P,U3,3,GND*%
%TO.N,unconnected-(U3-GND-Pad3)*%
X198100000Y-88600000D03*
%TO.P,U3,4,Vout*%
%TO.N,unconnected-(U3-Vout-Pad4)*%
X215880000Y-88600000D03*
%TD*%
D12*
%TO.P,RV1,1,1*%
%TO.N,+3.3V*%
X227160000Y-36250000D03*
%TO.P,RV1,2,2*%
%TO.N,/ADC_IN*%
X227160000Y-38790000D03*
%TO.P,RV1,3,3*%
%TO.N,unconnected-(RV1-Pad3)*%
X227160000Y-41330000D03*
%TD*%
D13*
%TO.P,U1,1,3V3*%
%TO.N,+3.3V*%
X222060000Y-55760000D03*
D14*
%TO.P,U1,2,GND*%
%TO.N,GND*%
X222060000Y-58300000D03*
%TO.P,U1,3,D15*%
%TO.N,unconnected-(U1-D15-Pad3)*%
X222060000Y-60840000D03*
%TO.P,U1,4,D2*%
%TO.N,unconnected-(U1-D2-Pad4)*%
X222060000Y-63380000D03*
%TO.P,U1,5,D4*%
%TO.N,unconnected-(U1-D4-Pad5)*%
X222060000Y-65920000D03*
%TO.P,U1,6,RX2*%
%TO.N,/RX2*%
X222060000Y-68460000D03*
%TO.P,U1,7,TX2*%
%TO.N,/TX2*%
X222060000Y-71000000D03*
%TO.P,U1,8,D5*%
%TO.N,unconnected-(U1-D5-Pad8)*%
X222060000Y-73540000D03*
%TO.P,U1,9,D18*%
%TO.N,unconnected-(U1-D18-Pad9)*%
X222060000Y-76080000D03*
%TO.P,U1,10,D19*%
%TO.N,unconnected-(U1-D19-Pad10)*%
X222060000Y-78620000D03*
%TO.P,U1,11,D21*%
%TO.N,unconnected-(U1-D21-Pad11)*%
X222060000Y-81160000D03*
%TO.P,U1,12,RX0*%
%TO.N,unconnected-(U1-RX0-Pad12)*%
X222060000Y-83700000D03*
%TO.P,U1,13,TX0*%
%TO.N,unconnected-(U1-TX0-Pad13)*%
X222060000Y-86240000D03*
%TO.P,U1,14,D22*%
%TO.N,/GPIO22*%
X222060000Y-88780000D03*
%TO.P,U1,15,D23*%
%TO.N,/GPIO23*%
X222060000Y-91320000D03*
%TO.P,U1,16,EN*%
%TO.N,unconnected-(U1-EN-Pad16)*%
X247460000Y-91320000D03*
%TO.P,U1,17,VP*%
%TO.N,unconnected-(U1-VP-Pad17)*%
X247460000Y-88780000D03*
%TO.P,U1,18,VN*%
%TO.N,unconnected-(U1-VN-Pad18)*%
X247460000Y-86240000D03*
%TO.P,U1,19,D34*%
%TO.N,/RST_SIM*%
X247460000Y-83700000D03*
%TO.P,U1,20,D35*%
%TO.N,unconnected-(U1-D35-Pad20)*%
X247460000Y-81160000D03*
%TO.P,U1,21,D32*%
%TO.N,unconnected-(U1-D32-Pad21)*%
X247460000Y-78620000D03*
%TO.P,U1,22,D33*%
%TO.N,/ADC_IN*%
X247460000Y-76080000D03*
%TO.P,U1,23,D25*%
%TO.N,unconnected-(U1-D25-Pad23)*%
X247460000Y-73540000D03*
%TO.P,U1,24,D26*%
%TO.N,unconnected-(U1-D26-Pad24)*%
X247460000Y-71000000D03*
%TO.P,U1,25,D27*%
%TO.N,unconnected-(U1-D27-Pad25)*%
X247460000Y-68460000D03*
%TO.P,U1,26,D14*%
%TO.N,unconnected-(U1-D14-Pad26)*%
X247460000Y-65920000D03*
%TO.P,U1,27,D12*%
%TO.N,unconnected-(U1-D12-Pad27)*%
X247460000Y-63380000D03*
%TO.P,U1,28,D13*%
%TO.N,unconnected-(U1-D13-Pad28)*%
X247460000Y-60840000D03*
%TO.P,U1,29,GND*%
%TO.N,GND*%
X247460000Y-58300000D03*
%TO.P,U1,30,VIN*%
%TO.N,unconnected-(U1-VIN-Pad30)*%
X247460000Y-55760000D03*
%TD*%
D15*
%TO.P,J3,1,Pin_1*%
%TO.N,/Vin*%
X215895000Y-47965000D03*
%TD*%
%TO.P,J11,1,Pin_1*%
%TO.N,GND*%
X175660000Y-47940000D03*
%TD*%
D16*
%TO.P,H6,1,1*%
%TO.N,GND*%
X245660000Y-38540000D03*
%TD*%
D10*
%TO.P,U2,1,Vin*%
%TO.N,unconnected-(U2-Vin-Pad1)*%
X193470000Y-47930000D03*
D11*
%TO.P,U2,2,GND*%
%TO.N,unconnected-(U2-GND-Pad2)*%
X175690000Y-47930000D03*
%TO.P,U2,3,GND*%
%TO.N,unconnected-(U2-GND-Pad3)*%
X175690000Y-88570000D03*
%TO.P,U2,4,Vout*%
%TO.N,unconnected-(U2-Vout-Pad4)*%
X193470000Y-88570000D03*
%TD*%
D15*
%TO.P,J9,1,Pin_1*%
%TO.N,GND*%
X175660000Y-88540000D03*
%TD*%
%TO.P,U4,1,VCC*%
%TO.N,+4V*%
X230710000Y-107580000D03*
D17*
%TO.P,U4,2,RST*%
%TO.N,/RST_SIM*%
X228170000Y-107580000D03*
%TO.P,U4,3,RXD*%
%TO.N,/RX_SIM*%
X225630000Y-107580000D03*
%TO.P,U4,4,TXD*%
%TO.N,/TX_SIM*%
X223090000Y-107580000D03*
%TO.P,U4,5,GND*%
%TO.N,GND*%
X220550000Y-107580000D03*
%TO.P,U4,6,SPK-*%
%TO.N,unconnected-(U4-SPK--Pad6)*%
X218090000Y-129580000D03*
%TO.P,U4,7,SPK+*%
%TO.N,unconnected-(U4-SPK+-Pad7)*%
X220630000Y-129580000D03*
%TO.P,U4,8,MIC-*%
%TO.N,unconnected-(U4-MIC--Pad8)*%
X223170000Y-129580000D03*
%TO.P,U4,9,MIC+*%
%TO.N,unconnected-(U4-MIC+-Pad9)*%
X225710000Y-129580000D03*
%TO.P,U4,10,DTR*%
%TO.N,unconnected-(U4-DTR-Pad10)*%
X228250000Y-129580000D03*
%TO.P,U4,11,RING*%
%TO.N,unconnected-(U4-RING-Pad11)*%
X230790000Y-129580000D03*
%TD*%
D16*
%TO.P,H7,1,1*%
%TO.N,GND*%
X245660000Y-126540000D03*
%TD*%
D18*
%TO.P,J1,1,Pin_1*%
%TO.N,/Vin*%
X199160000Y-36040000D03*
D19*
%TO.P,J1,2,Pin_2*%
%TO.N,GND*%
X194160000Y-36040000D03*
%TD*%
D16*
%TO.P,H8,1,1*%
%TO.N,GND*%
X177660000Y-126540000D03*
%TD*%
D15*
%TO.P,J4,1,Pin_1*%
%TO.N,GND*%
X198095000Y-47965000D03*
%TD*%
%TO.P,J5,1,Pin_1*%
%TO.N,+4V*%
X215895000Y-88565000D03*
%TD*%
D16*
%TO.P,H5,1,1*%
%TO.N,GND*%
X177660000Y-38540000D03*
%TD*%
D15*
%TO.P,J7,1,Pin_1*%
%TO.N,+3.3V*%
X207860000Y-102840000D03*
D20*
%TO.P,J7,2,Pin_2*%
%TO.N,/RX_GPS*%
X207860000Y-105380000D03*
%TO.P,J7,3,Pin_3*%
%TO.N,/TX_GPS*%
X207860000Y-107920000D03*
%TO.P,J7,4,Pin_4*%
%TO.N,GND*%
X207860000Y-110460000D03*
%TD*%
D15*
%TO.P,J10,1,Pin_1*%
%TO.N,/Vin*%
X193460000Y-47940000D03*
%TD*%
%TO.P,J6,1,Pin_1*%
%TO.N,GND*%
X198095000Y-88565000D03*
%TD*%
%TO.P,J8,1,Pin_1*%
%TO.N,+3.3V*%
X193460000Y-88540000D03*
%TD*%
D18*
%TO.P,J12,1,Pin_1*%
%TO.N,GND*%
X219160000Y-36040000D03*
D19*
%TO.P,J12,2,Pin_2*%
%TO.N,/ADC_IN*%
X214160000Y-36040000D03*
%TO.P,J12,3,Pin_3*%
X209160000Y-36040000D03*
%TD*%
D21*
%TO.N,/ADC_IN*%
X238460000Y-42940000D03*
%TO.N,/TX_GPS*%
X212860000Y-92540000D03*
X212860000Y-97740000D03*
X212860000Y-101940000D03*
%TO.N,+3.3V*%
X223660000Y-36240000D03*
%TO.N,/TX_SIM*%
X223060000Y-104740000D03*
X225560000Y-103440000D03*
%TO.N,/RX2*%
X219460000Y-99140000D03*
%TO.N,/TX2*%
X222060000Y-99540000D03*
%TD*%
D22*
%TO.N,/ADC_IN*%
X244300000Y-76080000D02*
X247460000Y-76080000D01*
X241360000Y-73140000D02*
X244300000Y-76080000D01*
X238460000Y-42940000D02*
X241360000Y-45840000D01*
X241360000Y-45840000D02*
X241360000Y-73140000D01*
D23*
%TO.N,/TX_GPS*%
X212860000Y-101940000D02*
X212860000Y-97740000D01*
X212860000Y-97740000D02*
X212860000Y-92540000D01*
D22*
%TO.N,+3.3V*%
X226110000Y-45920000D02*
X226110000Y-54520000D01*
X196260000Y-65740000D02*
X209460000Y-65740000D01*
X193460000Y-68540000D02*
X196260000Y-65740000D01*
X209460000Y-65740000D02*
X219360000Y-55840000D01*
X193460000Y-88540000D02*
X193460000Y-68540000D01*
X224870000Y-55760000D02*
X222060000Y-55760000D01*
X223660000Y-43470000D02*
X226110000Y-45920000D01*
X221980000Y-55840000D02*
X222060000Y-55760000D01*
X223660000Y-36240000D02*
X223660000Y-43470000D01*
X226110000Y-54520000D02*
X224870000Y-55760000D01*
X219360000Y-55840000D02*
X221980000Y-55840000D01*
D24*
%TO.N,+4V*%
X230760000Y-109540000D02*
X230750000Y-109530000D01*
X214760000Y-109740000D02*
X216560000Y-111540000D01*
X215895000Y-88565000D02*
X215895000Y-89905000D01*
X230750000Y-109530000D02*
X230750000Y-107640000D01*
X216560000Y-111540000D02*
X228760000Y-111540000D01*
X228760000Y-111540000D02*
X230760000Y-109540000D01*
X215895000Y-89905000D02*
X214760000Y-91040000D01*
X214760000Y-91040000D02*
X214760000Y-109740000D01*
D23*
%TO.N,/TX_SIM*%
X224260000Y-104740000D02*
X225560000Y-103440000D01*
X223060000Y-104740000D02*
X224260000Y-104740000D01*
%TO.N,/RX2*%
X219740000Y-68460000D02*
X222060000Y-68460000D01*
X218460000Y-98140000D02*
X218460000Y-69740000D01*
X218460000Y-69740000D02*
X219740000Y-68460000D01*
X219460000Y-99140000D02*
X218460000Y-98140000D01*
%TO.N,/TX2*%
X222060000Y-99540000D02*
X219360000Y-96840000D01*
X219360000Y-96840000D02*
X219360000Y-71840000D01*
X219360000Y-71840000D02*
X220200000Y-71000000D01*
X220200000Y-71000000D02*
X222060000Y-71000000D01*
%TD*%
%TA.AperFunction,Conductor*%
%TO.N,GND*%
G36*
X193029731Y-34560185D02*
G01*
X193050373Y-34576819D01*
X193912512Y-35438958D01*
X193852110Y-35463978D01*
X193745649Y-35535112D01*
X193655112Y-35625649D01*
X193583978Y-35732110D01*
X193558958Y-35792512D01*
X192722294Y-34955848D01*
X192668602Y-35023177D01*
X192533709Y-35256818D01*
X192435148Y-35507947D01*
X192435142Y-35507966D01*
X192375113Y-35770971D01*
X192375113Y-35770973D01*
X192354953Y-36039995D01*
X192354953Y-36040004D01*
X192375113Y-36309026D01*
X192375113Y-36309028D01*
X192435142Y-36572033D01*
X192435148Y-36572052D01*
X192533709Y-36823181D01*
X192533708Y-36823181D01*
X192668600Y-37056818D01*
X192722294Y-37124150D01*
X193558957Y-36287486D01*
X193583978Y-36347890D01*
X193655112Y-36454351D01*
X193745649Y-36544888D01*
X193852110Y-36616022D01*
X193912511Y-36641041D01*
X193074848Y-37478703D01*
X193257476Y-37603216D01*
X193257485Y-37603221D01*
X193500539Y-37720269D01*
X193500537Y-37720269D01*
X193758337Y-37799790D01*
X193758343Y-37799792D01*
X194025101Y-37839999D01*
X194025110Y-37840000D01*
X194294890Y-37840000D01*
X194294898Y-37839999D01*
X194561656Y-37799792D01*
X194561662Y-37799790D01*
X194819461Y-37720269D01*
X195062516Y-37603221D01*
X195062517Y-37603220D01*
X195245150Y-37478703D01*
X194407487Y-36641041D01*
X194467890Y-36616022D01*
X194574351Y-36544888D01*
X194664888Y-36454351D01*
X194736022Y-36347890D01*
X194761041Y-36287487D01*
X195597703Y-37124150D01*
X195597704Y-37124149D01*
X195651400Y-37056818D01*
X195786290Y-36823181D01*
X195884851Y-36572052D01*
X195884857Y-36572033D01*
X195944886Y-36309028D01*
X195944886Y-36309026D01*
X195965047Y-36040004D01*
X195965047Y-36039995D01*
X195944886Y-35770973D01*
X195944886Y-35770971D01*
X195884857Y-35507966D01*
X195884851Y-35507947D01*
X195786290Y-35256818D01*
X195786291Y-35256818D01*
X195651400Y-35023182D01*
X195651393Y-35023171D01*
X195597704Y-34955849D01*
X195597703Y-34955848D01*
X194761041Y-35792511D01*
X194736022Y-35732110D01*
X194664888Y-35625649D01*
X194574351Y-35535112D01*
X194467890Y-35463978D01*
X194407488Y-35438958D01*
X195269626Y-34576819D01*
X195330949Y-34543334D01*
X195357307Y-34540500D01*
X197237756Y-34540500D01*
X197304795Y-34560185D01*
X197350550Y-34612989D01*
X197361045Y-34677752D01*
X197359500Y-34692127D01*
X197359500Y-34692133D01*
X197359500Y-34692134D01*
X197359500Y-37387870D01*
X197359501Y-37387876D01*
X197365908Y-37447483D01*
X197416202Y-37582328D01*
X197416206Y-37582335D01*
X197502452Y-37697544D01*
X197502455Y-37697547D01*
X197617664Y-37783793D01*
X197617671Y-37783797D01*
X197752517Y-37834091D01*
X197752516Y-37834091D01*
X197759444Y-37834835D01*
X197812127Y-37840500D01*
X200507872Y-37840499D01*
X200567483Y-37834091D01*
X200702331Y-37783796D01*
X200817546Y-37697546D01*
X200903796Y-37582331D01*
X200954091Y-37447483D01*
X200960500Y-37387873D01*
X200960499Y-34692128D01*
X200958954Y-34677752D01*
X200971361Y-34608993D01*
X201018973Y-34557857D01*
X201082244Y-34540500D01*
X207813008Y-34540500D01*
X207880047Y-34560185D01*
X207925802Y-34612989D01*
X207935746Y-34682147D01*
X207906721Y-34745703D01*
X207897349Y-34755399D01*
X207836442Y-34811910D01*
X207668185Y-35022898D01*
X207533258Y-35256599D01*
X207533256Y-35256603D01*
X207434666Y-35507804D01*
X207434664Y-35507811D01*
X207374616Y-35770898D01*
X207354451Y-36039995D01*
X207354451Y-36040004D01*
X207374616Y-36309101D01*
X207434664Y-36572188D01*
X207434666Y-36572195D01*
X207523496Y-36798529D01*
X207533257Y-36823398D01*
X207668185Y-37057102D01*
X207772995Y-37188529D01*
X207836442Y-37268089D01*
X207979985Y-37401276D01*
X208034259Y-37451635D01*
X208257226Y-37603651D01*
X208500359Y-37720738D01*
X208758228Y-37800280D01*
X208758229Y-37800280D01*
X208758232Y-37800281D01*
X209025063Y-37840499D01*
X209025068Y-37840499D01*
X209025071Y-37840500D01*
X209025072Y-37840500D01*
X209294928Y-37840500D01*
X209294929Y-37840500D01*
X209294936Y-37840499D01*
X209561767Y-37800281D01*
X209561768Y-37800280D01*
X209561772Y-37800280D01*
X209819641Y-37720738D01*
X210062775Y-37603651D01*
X210285741Y-37451635D01*
X210483561Y-37268085D01*
X210651815Y-37057102D01*
X210786743Y-36823398D01*
X210885334Y-36572195D01*
X210945383Y-36309103D01*
X210958511Y-36133922D01*
X210965549Y-36040004D01*
X210965549Y-36039995D01*
X210948744Y-35815747D01*
X210945383Y-35770897D01*
X210885334Y-35507805D01*
X210786743Y-35256602D01*
X210651815Y-35022898D01*
X210483561Y-34811915D01*
X210483560Y-34811914D01*
X210483557Y-34811910D01*
X210422651Y-34755399D01*
X210386896Y-34695371D01*
X210389271Y-34625542D01*
X210429021Y-34568081D01*
X210493527Y-34541233D01*
X210506992Y-34540500D01*
X212813008Y-34540500D01*
X212880047Y-34560185D01*
X212925802Y-34612989D01*
X212935746Y-34682147D01*
X212906721Y-34745703D01*
X212897349Y-34755399D01*
X212836442Y-34811910D01*
X212668185Y-35022898D01*
X212533258Y-35256599D01*
X212533256Y-35256603D01*
X212434666Y-35507804D01*
X212434664Y-35507811D01*
X212374616Y-35770898D01*
X212354451Y-36039995D01*
X212354451Y-36040004D01*
X212374616Y-36309101D01*
X212434664Y-36572188D01*
X212434666Y-36572195D01*
X212523496Y-36798529D01*
X212533257Y-36823398D01*
X212668185Y-37057102D01*
X212772995Y-37188529D01*
X212836442Y-37268089D01*
X212979985Y-37401276D01*
X213034259Y-37451635D01*
X213257226Y-37603651D01*
X213500359Y-37720738D01*
X213758228Y-37800280D01*
X213758229Y-37800280D01*
X213758232Y-37800281D01*
X214025063Y-37840499D01*
X214025068Y-37840499D01*
X214025071Y-37840500D01*
X214025072Y-37840500D01*
X214294928Y-37840500D01*
X214294929Y-37840500D01*
X214294936Y-37840499D01*
X214561767Y-37800281D01*
X214561768Y-37800280D01*
X214561772Y-37800280D01*
X214819641Y-37720738D01*
X215062775Y-37603651D01*
X215285741Y-37451635D01*
X215483561Y-37268085D01*
X215651815Y-37057102D01*
X215786743Y-36823398D01*
X215885334Y-36572195D01*
X215945383Y-36309103D01*
X215958511Y-36133922D01*
X215965549Y-36040004D01*
X215965549Y-36039995D01*
X215948744Y-35815747D01*
X215945383Y-35770897D01*
X215885334Y-35507805D01*
X215786743Y-35256602D01*
X215651815Y-35022898D01*
X215483561Y-34811915D01*
X215483560Y-34811914D01*
X215483557Y-34811910D01*
X215422651Y-34755399D01*
X215386896Y-34695371D01*
X215389271Y-34625542D01*
X215429021Y-34568081D01*
X215493527Y-34541233D01*
X215506992Y-34540500D01*
X217238260Y-34540500D01*
X217305299Y-34560185D01*
X217351054Y-34612989D01*
X217361550Y-34677755D01*
X217360000Y-34692171D01*
X217360000Y-35790000D01*
X218559999Y-35790000D01*
X218534979Y-35850402D01*
X218510000Y-35975981D01*
X218510000Y-36104019D01*
X218534979Y-36229598D01*
X218559999Y-36290000D01*
X217360000Y-36290000D01*
X217360000Y-37387844D01*
X217366401Y-37447372D01*
X217366403Y-37447379D01*
X217416645Y-37582086D01*
X217416649Y-37582093D01*
X217502809Y-37697187D01*
X217502812Y-37697190D01*
X217617906Y-37783350D01*
X217617913Y-37783354D01*
X217752620Y-37833596D01*
X217752627Y-37833598D01*
X217812155Y-37839999D01*
X217812172Y-37840000D01*
X218910000Y-37840000D01*
X218910000Y-36640001D01*
X218970402Y-36665021D01*
X219095981Y-36690000D01*
X219224019Y-36690000D01*
X219349598Y-36665021D01*
X219410000Y-36640001D01*
X219410000Y-37840000D01*
X220507828Y-37840000D01*
X220507844Y-37839999D01*
X220567372Y-37833598D01*
X220567379Y-37833596D01*
X220702086Y-37783354D01*
X220702093Y-37783350D01*
X220817187Y-37697190D01*
X220817190Y-37697187D01*
X220903350Y-37582093D01*
X220903354Y-37582086D01*
X220953596Y-37447379D01*
X220953598Y-37447372D01*
X220959999Y-37387844D01*
X220960000Y-37387827D01*
X220960000Y-36290000D01*
X219760001Y-36290000D01*
X219785021Y-36229598D01*
X219810000Y-36104019D01*
X219810000Y-35975981D01*
X219785021Y-35850402D01*
X219760001Y-35790000D01*
X220960000Y-35790000D01*
X220960000Y-34692172D01*
X220959999Y-34692171D01*
X220958450Y-34677755D01*
X220970856Y-34608996D01*
X221018466Y-34557858D01*
X221081740Y-34540500D01*
X241578919Y-34540500D01*
X241645958Y-34560185D01*
X241691713Y-34612989D01*
X241701657Y-34682147D01*
X241672632Y-34745703D01*
X241672002Y-34746424D01*
X241376953Y-35081661D01*
X241376947Y-35081669D01*
X241099091Y-35457356D01*
X240854093Y-35855256D01*
X240854083Y-35855276D01*
X240643723Y-36272499D01*
X240643719Y-36272510D01*
X240469502Y-36706063D01*
X240469497Y-36706076D01*
X240332671Y-37152862D01*
X240332669Y-37152870D01*
X240234224Y-37609655D01*
X240174870Y-38073159D01*
X240155040Y-38539993D01*
X240155040Y-38540006D01*
X240174870Y-39006840D01*
X240234224Y-39470344D01*
X240332669Y-39927129D01*
X240332671Y-39927137D01*
X240469497Y-40373923D01*
X240469502Y-40373936D01*
X240643719Y-40807489D01*
X240643723Y-40807500D01*
X240854083Y-41224723D01*
X240854093Y-41224743D01*
X241099091Y-41622643D01*
X241376947Y-41998330D01*
X241376953Y-41998338D01*
X241597508Y-42248936D01*
X243724187Y-40122256D01*
X243792958Y-40208491D01*
X243991509Y-40407042D01*
X244077741Y-40475810D01*
X241950565Y-42602987D01*
X242023014Y-42672423D01*
X242386573Y-42965975D01*
X242773698Y-43227626D01*
X242773717Y-43227638D01*
X243181636Y-43455516D01*
X243181658Y-43455527D01*
X243607434Y-43647990D01*
X243607440Y-43647992D01*
X244048026Y-43803661D01*
X244500220Y-43921402D01*
X244960768Y-44000371D01*
X244960776Y-44000372D01*
X245426344Y-44039999D01*
X245426364Y-44040000D01*
X245893636Y-44040000D01*
X245893655Y-44039999D01*
X246359223Y-44000372D01*
X246359231Y-44000371D01*
X246819779Y-43921402D01*
X247271973Y-43803661D01*
X247712559Y-43647992D01*
X247712565Y-43647990D01*
X248138341Y-43455527D01*
X248138363Y-43455516D01*
X248546282Y-43227638D01*
X248546301Y-43227626D01*
X248933426Y-42965975D01*
X249296985Y-42672423D01*
X249449699Y-42526059D01*
X249511719Y-42493883D01*
X249581290Y-42500345D01*
X249636322Y-42543394D01*
X249659344Y-42609362D01*
X249659500Y-42615581D01*
X249659500Y-122464418D01*
X249639815Y-122531457D01*
X249587011Y-122577212D01*
X249517853Y-122587156D01*
X249454297Y-122558131D01*
X249449700Y-122553941D01*
X249296985Y-122407576D01*
X248933426Y-122114024D01*
X248546301Y-121852373D01*
X248546282Y-121852361D01*
X248138363Y-121624483D01*
X248138341Y-121624472D01*
X247712565Y-121432009D01*
X247712559Y-121432007D01*
X247271973Y-121276338D01*
X246819779Y-121158597D01*
X246359231Y-121079628D01*
X246359223Y-121079627D01*
X245893655Y-121040000D01*
X245426344Y-121040000D01*
X244960776Y-121079627D01*
X244960768Y-121079628D01*
X244500220Y-121158597D01*
X244048026Y-121276338D01*
X243607440Y-121432007D01*
X243607434Y-121432009D01*
X243181658Y-121624472D01*
X243181636Y-121624483D01*
X242773717Y-121852361D01*
X242773698Y-121852373D01*
X242386566Y-122114028D01*
X242386565Y-122114029D01*
X242023024Y-122407568D01*
X242023008Y-122407582D01*
X241950565Y-122477012D01*
X244077741Y-124604188D01*
X243991509Y-124672958D01*
X243792958Y-124871509D01*
X243724188Y-124957742D01*
X241597509Y-122831063D01*
X241376947Y-123081669D01*
X241376944Y-123081673D01*
X241099091Y-123457356D01*
X240854093Y-123855256D01*
X240854083Y-123855276D01*
X240643723Y-124272499D01*
X240643719Y-124272510D01*
X240469502Y-124706063D01*
X240469497Y-124706076D01*
X240332671Y-125152862D01*
X240332669Y-125152870D01*
X240234224Y-125609655D01*
X240174870Y-126073159D01*
X240155040Y-126539993D01*
X240155040Y-126540006D01*
X240174870Y-127006840D01*
X240234224Y-127470344D01*
X240332669Y-127927129D01*
X240332671Y-127927137D01*
X240469497Y-128373923D01*
X240469502Y-128373936D01*
X240643719Y-128807489D01*
X240643723Y-128807500D01*
X240854083Y-129224723D01*
X240854093Y-129224743D01*
X241099091Y-129622643D01*
X241376947Y-129998330D01*
X241376953Y-129998338D01*
X241672002Y-130333576D01*
X241701517Y-130396906D01*
X241692108Y-130466139D01*
X241646762Y-130519295D01*
X241579877Y-130539496D01*
X241578919Y-130539500D01*
X232005009Y-130539500D01*
X231937970Y-130519815D01*
X231892215Y-130467011D01*
X231882271Y-130397853D01*
X231903432Y-130344378D01*
X231964035Y-130257830D01*
X232063903Y-130043663D01*
X232125063Y-129815408D01*
X232145659Y-129580000D01*
X232125063Y-129344592D01*
X232063903Y-129116337D01*
X231964035Y-128902171D01*
X231958425Y-128894158D01*
X231828494Y-128708597D01*
X231661402Y-128541506D01*
X231661395Y-128541501D01*
X231467834Y-128405967D01*
X231467830Y-128405965D01*
X231467828Y-128405964D01*
X231253663Y-128306097D01*
X231253659Y-128306096D01*
X231253655Y-128306094D01*
X231025413Y-128244938D01*
X231025403Y-128244936D01*
X230790001Y-128224341D01*
X230789999Y-128224341D01*
X230554596Y-128244936D01*
X230554586Y-128244938D01*
X230326344Y-128306094D01*
X230326335Y-128306098D01*
X230112171Y-128405964D01*
X230112169Y-128405965D01*
X229918597Y-128541505D01*
X229751505Y-128708597D01*
X229621575Y-128894158D01*
X229566998Y-128937783D01*
X229497500Y-128944977D01*
X229435145Y-128913454D01*
X229418425Y-128894158D01*
X229288494Y-128708597D01*
X229121402Y-128541506D01*
X229121395Y-128541501D01*
X228927834Y-128405967D01*
X228927830Y-128405965D01*
X228927828Y-128405964D01*
X228713663Y-128306097D01*
X228713659Y-128306096D01*
X228713655Y-128306094D01*
X228485413Y-128244938D01*
X228485403Y-128244936D01*
X228250001Y-128224341D01*
X228249999Y-128224341D01*
X228014596Y-128244936D01*
X228014586Y-128244938D01*
X227786344Y-128306094D01*
X227786335Y-128306098D01*
X227572171Y-128405964D01*
X227572169Y-128405965D01*
X227378597Y-128541505D01*
X227211505Y-128708597D01*
X227081575Y-128894158D01*
X227026998Y-128937783D01*
X226957500Y-128944977D01*
X226895145Y-128913454D01*
X226878425Y-128894158D01*
X226748494Y-128708597D01*
X226581402Y-128541506D01*
X226581395Y-128541501D01*
X226387834Y-128405967D01*
X226387830Y-128405965D01*
X226387828Y-128405964D01*
X226173663Y-128306097D01*
X226173659Y-128306096D01*
X226173655Y-128306094D01*
X225945413Y-128244938D01*
X225945403Y-128244936D01*
X225710001Y-128224341D01*
X225709999Y-128224341D01*
X225474596Y-128244936D01*
X225474586Y-128244938D01*
X225246344Y-128306094D01*
X225246335Y-128306098D01*
X225032171Y-128405964D01*
X225032169Y-128405965D01*
X224838597Y-128541505D01*
X224671505Y-128708597D01*
X224541575Y-128894158D01*
X224486998Y-128937783D01*
X224417500Y-128944977D01*
X224355145Y-128913454D01*
X224338425Y-128894158D01*
X224208494Y-128708597D01*
X224041402Y-128541506D01*
X224041395Y-128541501D01*
X223847834Y-128405967D01*
X223847830Y-128405965D01*
X223847828Y-128405964D01*
X223633663Y-128306097D01*
X223633659Y-128306096D01*
X223633655Y-128306094D01*
X223405413Y-128244938D01*
X223405403Y-128244936D01*
X223170001Y-128224341D01*
X223169999Y-128224341D01*
X222934596Y-128244936D01*
X222934586Y-128244938D01*
X222706344Y-128306094D01*
X222706335Y-128306098D01*
X222492171Y-128405964D01*
X222492169Y-128405965D01*
X222298597Y-128541505D01*
X222131505Y-128708597D01*
X222001575Y-128894158D01*
X221946998Y-128937783D01*
X221877500Y-128944977D01*
X221815145Y-128913454D01*
X221798425Y-128894158D01*
X221668494Y-128708597D01*
X221501402Y-128541506D01*
X221501395Y-128541501D01*
X221307834Y-128405967D01*
X221307830Y-128405965D01*
X221307828Y-128405964D01*
X221093663Y-128306097D01*
X221093659Y-128306096D01*
X221093655Y-128306094D01*
X220865413Y-128244938D01*
X220865403Y-128244936D01*
X220630001Y-128224341D01*
X220629999Y-128224341D01*
X220394596Y-128244936D01*
X220394586Y-128244938D01*
X220166344Y-128306094D01*
X220166335Y-128306098D01*
X219952171Y-128405964D01*
X219952169Y-128405965D01*
X219758597Y-128541505D01*
X219591505Y-128708597D01*
X219461575Y-128894158D01*
X219406998Y-128937783D01*
X219337500Y-128944977D01*
X219275145Y-128913454D01*
X219258425Y-128894158D01*
X219128494Y-128708597D01*
X218961402Y-128541506D01*
X218961395Y-128541501D01*
X218767834Y-128405967D01*
X218767830Y-128405965D01*
X218767828Y-128405964D01*
X218553663Y-128306097D01*
X218553659Y-128306096D01*
X218553655Y-128306094D01*
X218325413Y-128244938D01*
X218325403Y-128244936D01*
X218090001Y-128224341D01*
X218089999Y-128224341D01*
X217854596Y-128244936D01*
X217854586Y-128244938D01*
X217626344Y-128306094D01*
X217626335Y-128306098D01*
X217412171Y-128405964D01*
X217412169Y-128405965D01*
X217218597Y-128541505D01*
X217051505Y-128708597D01*
X216915965Y-128902169D01*
X216915964Y-128902171D01*
X216816098Y-129116335D01*
X216816094Y-129116344D01*
X216754938Y-129344586D01*
X216754936Y-129344596D01*
X216734341Y-129579999D01*
X216734341Y-129580000D01*
X216754936Y-129815403D01*
X216754938Y-129815413D01*
X216816094Y-130043655D01*
X216816096Y-130043659D01*
X216816097Y-130043663D01*
X216820000Y-130052032D01*
X216915964Y-130257829D01*
X216932761Y-130281818D01*
X216976566Y-130344378D01*
X216998893Y-130410582D01*
X216981883Y-130478350D01*
X216930935Y-130526163D01*
X216874991Y-130539500D01*
X181741081Y-130539500D01*
X181674042Y-130519815D01*
X181628287Y-130467011D01*
X181618343Y-130397853D01*
X181647368Y-130334297D01*
X181647998Y-130333576D01*
X181943046Y-129998338D01*
X181943052Y-129998330D01*
X182220908Y-129622643D01*
X182465906Y-129224743D01*
X182465916Y-129224723D01*
X182676276Y-128807500D01*
X182676280Y-128807489D01*
X182850497Y-128373936D01*
X182850502Y-128373923D01*
X182987328Y-127927137D01*
X182987330Y-127927129D01*
X183085775Y-127470344D01*
X183145129Y-127006840D01*
X183164960Y-126540006D01*
X183164960Y-126539993D01*
X183145129Y-126073159D01*
X183085775Y-125609655D01*
X182987330Y-125152870D01*
X182987328Y-125152862D01*
X182850502Y-124706076D01*
X182850497Y-124706063D01*
X182676280Y-124272510D01*
X182676276Y-124272499D01*
X182465916Y-123855276D01*
X182465906Y-123855256D01*
X182220908Y-123457356D01*
X181943052Y-123081669D01*
X181943046Y-123081661D01*
X181722490Y-122831062D01*
X179595810Y-124957741D01*
X179527042Y-124871509D01*
X179328491Y-124672958D01*
X179242256Y-124604187D01*
X181369433Y-122477011D01*
X181296985Y-122407576D01*
X180933426Y-122114024D01*
X180546301Y-121852373D01*
X180546282Y-121852361D01*
X180138363Y-121624483D01*
X180138341Y-121624472D01*
X179712565Y-121432009D01*
X179712559Y-121432007D01*
X179271973Y-121276338D01*
X178819779Y-121158597D01*
X178359231Y-121079628D01*
X178359223Y-121079627D01*
X177893655Y-121040000D01*
X177426344Y-121040000D01*
X176960776Y-121079627D01*
X176960768Y-121079628D01*
X176500220Y-121158597D01*
X176048026Y-121276338D01*
X175607440Y-121432007D01*
X175607434Y-121432009D01*
X175181658Y-121624472D01*
X175181636Y-121624483D01*
X174773717Y-121852361D01*
X174773698Y-121852373D01*
X174386573Y-122114024D01*
X174023014Y-122407576D01*
X173870300Y-122553941D01*
X173808280Y-122586116D01*
X173738710Y-122579654D01*
X173683678Y-122536605D01*
X173660656Y-122470637D01*
X173660500Y-122464418D01*
X173660500Y-105379999D01*
X206504341Y-105379999D01*
X206504341Y-105380000D01*
X206524936Y-105615403D01*
X206524938Y-105615413D01*
X206586094Y-105843655D01*
X206586096Y-105843659D01*
X206586097Y-105843663D01*
X206685965Y-106057830D01*
X206685967Y-106057834D01*
X206794281Y-106212521D01*
X206817325Y-106245432D01*
X206821501Y-106251395D01*
X206821506Y-106251402D01*
X206988597Y-106418493D01*
X206988603Y-106418498D01*
X207174158Y-106548425D01*
X207217783Y-106603002D01*
X207224977Y-106672500D01*
X207193454Y-106734855D01*
X207174158Y-106751575D01*
X206988597Y-106881505D01*
X206821505Y-107048597D01*
X206685965Y-107242169D01*
X206685964Y-107242171D01*
X206586098Y-107456335D01*
X206586094Y-107456344D01*
X206524938Y-107684586D01*
X206524936Y-107684596D01*
X206504341Y-107919999D01*
X206504341Y-107920000D01*
X206524936Y-108155403D01*
X206524938Y-108155413D01*
X206586094Y-108383655D01*
X206586096Y-108383659D01*
X206586097Y-108383663D01*
X206623132Y-108463084D01*
X206685965Y-108597830D01*
X206685967Y-108597834D01*
X206753952Y-108694926D01*
X206818806Y-108787547D01*
X206821501Y-108791395D01*
X206821506Y-108791402D01*
X206988597Y-108958493D01*
X206988603Y-108958498D01*
X207174594Y-109088730D01*
X207218219Y-109143307D01*
X207225413Y-109212805D01*
X207193890Y-109275160D01*
X207174595Y-109291880D01*
X206988922Y-109421890D01*
X206988920Y-109421891D01*
X206821891Y-109588920D01*
X206821886Y-109588926D01*
X206686400Y-109782420D01*
X206686399Y-109782422D01*
X206586570Y-109996507D01*
X206586567Y-109996513D01*
X206529364Y-110209999D01*
X206529364Y-110210000D01*
X207426988Y-110210000D01*
X207394075Y-110267007D01*
X207360000Y-110394174D01*
X207360000Y-110525826D01*
X207394075Y-110652993D01*
X207426988Y-110710000D01*
X206529364Y-110710000D01*
X206586567Y-110923486D01*
X206586570Y-110923492D01*
X206686399Y-111137578D01*
X206821894Y-111331082D01*
X206988917Y-111498105D01*
X207182421Y-111633600D01*
X207396507Y-111733429D01*
X207396516Y-111733433D01*
X207610000Y-111790634D01*
X207610000Y-110893012D01*
X207667007Y-110925925D01*
X207794174Y-110960000D01*
X207925826Y-110960000D01*
X208052993Y-110925925D01*
X208110000Y-110893012D01*
X208110000Y-111790633D01*
X208323483Y-111733433D01*
X208323492Y-111733429D01*
X208537578Y-111633600D01*
X208731082Y-111498105D01*
X208898105Y-111331082D01*
X209033600Y-111137578D01*
X209133429Y-110923492D01*
X209133432Y-110923486D01*
X209190636Y-110710000D01*
X208293012Y-110710000D01*
X208325925Y-110652993D01*
X208360000Y-110525826D01*
X208360000Y-110394174D01*
X208325925Y-110267007D01*
X208293012Y-110210000D01*
X209190636Y-110210000D01*
X209190635Y-110209999D01*
X209133432Y-109996513D01*
X209133429Y-109996507D01*
X209033600Y-109782422D01*
X209033599Y-109782420D01*
X208898113Y-109588926D01*
X208898108Y-109588920D01*
X208731078Y-109421890D01*
X208545405Y-109291879D01*
X208501780Y-109237302D01*
X208494588Y-109167804D01*
X208526110Y-109105449D01*
X208545406Y-109088730D01*
X208551850Y-109084218D01*
X208731401Y-108958495D01*
X208898495Y-108791401D01*
X209034035Y-108597830D01*
X209133903Y-108383663D01*
X209195063Y-108155408D01*
X209215659Y-107920000D01*
X209195063Y-107684592D01*
X209133903Y-107456337D01*
X209034035Y-107242171D01*
X209023025Y-107226446D01*
X208898494Y-107048597D01*
X208731402Y-106881506D01*
X208731396Y-106881501D01*
X208545842Y-106751575D01*
X208502217Y-106696998D01*
X208495023Y-106627500D01*
X208526546Y-106565145D01*
X208545842Y-106548425D01*
X208568026Y-106532891D01*
X208731401Y-106418495D01*
X208898495Y-106251401D01*
X209034035Y-106057830D01*
X209133903Y-105843663D01*
X209195063Y-105615408D01*
X209215659Y-105380000D01*
X209214390Y-105365501D01*
X209203872Y-105245275D01*
X209195063Y-105144592D01*
X209133903Y-104916337D01*
X209034035Y-104702171D01*
X208898495Y-104508599D01*
X208776567Y-104386671D01*
X208743084Y-104325351D01*
X208748068Y-104255659D01*
X208789939Y-104199725D01*
X208820915Y-104182810D01*
X208952331Y-104133796D01*
X209067546Y-104047546D01*
X209153796Y-103932331D01*
X209204091Y-103797483D01*
X209210500Y-103737873D01*
X209210499Y-101942128D01*
X209204091Y-101882517D01*
X209153796Y-101747669D01*
X209153795Y-101747668D01*
X209153793Y-101747664D01*
X209067547Y-101632455D01*
X209067544Y-101632452D01*
X208952335Y-101546206D01*
X208952328Y-101546202D01*
X208817482Y-101495908D01*
X208817483Y-101495908D01*
X208757883Y-101489501D01*
X208757881Y-101489500D01*
X208757873Y-101489500D01*
X208757864Y-101489500D01*
X206962129Y-101489500D01*
X206962123Y-101489501D01*
X206902516Y-101495908D01*
X206767671Y-101546202D01*
X206767664Y-101546206D01*
X206652455Y-101632452D01*
X206652452Y-101632455D01*
X206566206Y-101747664D01*
X206566202Y-101747671D01*
X206515908Y-101882517D01*
X206509501Y-101942116D01*
X206509501Y-101942123D01*
X206509500Y-101942135D01*
X206509500Y-103737870D01*
X206509501Y-103737876D01*
X206515908Y-103797483D01*
X206566202Y-103932328D01*
X206566206Y-103932335D01*
X206652452Y-104047544D01*
X206652455Y-104047547D01*
X206767664Y-104133793D01*
X206767671Y-104133797D01*
X206899081Y-104182810D01*
X206955015Y-104224681D01*
X206979432Y-104290145D01*
X206964580Y-104358418D01*
X206943430Y-104386673D01*
X206821503Y-104508600D01*
X206685965Y-104702169D01*
X206685964Y-104702171D01*
X206586098Y-104916335D01*
X206586094Y-104916344D01*
X206524938Y-105144586D01*
X206524936Y-105144596D01*
X206504341Y-105379999D01*
X173660500Y-105379999D01*
X173660500Y-88569995D01*
X173914535Y-88569995D01*
X173914535Y-88570004D01*
X173934363Y-88834609D01*
X173934364Y-88834614D01*
X173993410Y-89093313D01*
X173993412Y-89093322D01*
X173993414Y-89093327D01*
X174090361Y-89340345D01*
X174223042Y-89570155D01*
X174388492Y-89777623D01*
X174583016Y-89958114D01*
X174802268Y-90107598D01*
X174802273Y-90107600D01*
X174802274Y-90107601D01*
X174802276Y-90107602D01*
X174864570Y-90137601D01*
X175041350Y-90222734D01*
X175294922Y-90300950D01*
X175294923Y-90300950D01*
X175294926Y-90300951D01*
X175557311Y-90340499D01*
X175557316Y-90340499D01*
X175557319Y-90340500D01*
X175557320Y-90340500D01*
X175822680Y-90340500D01*
X175822681Y-90340500D01*
X175822688Y-90340499D01*
X176085073Y-90300951D01*
X176085074Y-90300950D01*
X176085078Y-90300950D01*
X176338650Y-90222734D01*
X176577733Y-90107598D01*
X176796984Y-89958114D01*
X176991508Y-89777623D01*
X177156958Y-89570155D01*
X177289639Y-89340345D01*
X177386586Y-89093327D01*
X177445635Y-88834619D01*
X177449728Y-88780000D01*
X177465465Y-88570004D01*
X177465465Y-88569995D01*
X191694535Y-88569995D01*
X191694535Y-88570004D01*
X191714363Y-88834609D01*
X191714364Y-88834614D01*
X191773410Y-89093313D01*
X191773412Y-89093322D01*
X191773414Y-89093327D01*
X191870361Y-89340345D01*
X192003042Y-89570155D01*
X192168492Y-89777623D01*
X192363016Y-89958114D01*
X192582268Y-90107598D01*
X192582273Y-90107600D01*
X192582274Y-90107601D01*
X192582276Y-90107602D01*
X192644570Y-90137601D01*
X192821350Y-90222734D01*
X193074922Y-90300950D01*
X193074923Y-90300950D01*
X193074926Y-90300951D01*
X193337311Y-90340499D01*
X193337316Y-90340499D01*
X193337319Y-90340500D01*
X193337320Y-90340500D01*
X193602680Y-90340500D01*
X193602681Y-90340500D01*
X193602688Y-90340499D01*
X193865073Y-90300951D01*
X193865074Y-90300950D01*
X193865078Y-90300950D01*
X194118650Y-90222734D01*
X194357733Y-90107598D01*
X194576984Y-89958114D01*
X194771508Y-89777623D01*
X194936958Y-89570155D01*
X195069639Y-89340345D01*
X195166586Y-89093327D01*
X195225635Y-88834619D01*
X195229728Y-88780000D01*
X195243217Y-88599995D01*
X196324535Y-88599995D01*
X196324535Y-88600004D01*
X196344363Y-88864609D01*
X196344364Y-88864614D01*
X196403410Y-89123313D01*
X196403412Y-89123322D01*
X196403414Y-89123327D01*
X196500361Y-89370345D01*
X196633042Y-89600155D01*
X196798492Y-89807623D01*
X196993016Y-89988114D01*
X197212268Y-90137598D01*
X197451350Y-90252734D01*
X197704922Y-90330950D01*
X197704923Y-90330950D01*
X197704926Y-90330951D01*
X197967311Y-90370499D01*
X197967316Y-90370499D01*
X197967319Y-90370500D01*
X197967320Y-90370500D01*
X198232680Y-90370500D01*
X198232681Y-90370500D01*
X198232688Y-90370499D01*
X198495073Y-90330951D01*
X198495074Y-90330950D01*
X198495078Y-90330950D01*
X198748650Y-90252734D01*
X198987733Y-90137598D01*
X199206984Y-89988114D01*
X199401508Y-89807623D01*
X199566958Y-89600155D01*
X199699639Y-89370345D01*
X199796586Y-89123327D01*
X199855635Y-88864619D01*
X199861977Y-88779994D01*
X199875465Y-88600004D01*
X199875465Y-88599995D01*
X199855636Y-88335390D01*
X199855635Y-88335385D01*
X199855635Y-88335381D01*
X199796586Y-88076673D01*
X199699639Y-87829655D01*
X199566958Y-87599845D01*
X199401508Y-87392377D01*
X199206984Y-87211886D01*
X199162982Y-87181886D01*
X198987736Y-87062404D01*
X198987725Y-87062397D01*
X198748655Y-86947268D01*
X198748636Y-86947261D01*
X198495083Y-86869051D01*
X198495073Y-86869048D01*
X198232688Y-86829500D01*
X198232681Y-86829500D01*
X197967319Y-86829500D01*
X197967311Y-86829500D01*
X197704926Y-86869048D01*
X197704916Y-86869051D01*
X197451363Y-86947261D01*
X197451344Y-86947268D01*
X197212276Y-87062397D01*
X197212274Y-87062398D01*
X196993015Y-87211886D01*
X196798494Y-87392375D01*
X196798492Y-87392377D01*
X196633042Y-87599845D01*
X196500361Y-87829654D01*
X196403416Y-88076667D01*
X196403410Y-88076686D01*
X196344364Y-88335385D01*
X196344363Y-88335390D01*
X196324535Y-88599995D01*
X195243217Y-88599995D01*
X195245465Y-88570004D01*
X195245465Y-88569995D01*
X195225636Y-88305390D01*
X195225635Y-88305385D01*
X195225635Y-88305381D01*
X195166586Y-88046673D01*
X195069639Y-87799655D01*
X194936958Y-87569845D01*
X194771508Y-87362377D01*
X194576984Y-87181886D01*
X194551897Y-87164782D01*
X194357736Y-87032404D01*
X194357734Y-87032403D01*
X194357735Y-87032403D01*
X194357733Y-87032402D01*
X194305628Y-87007309D01*
X194280697Y-86995303D01*
X194228838Y-86948480D01*
X194210500Y-86883583D01*
X194210500Y-83366808D01*
X196636500Y-83366808D01*
X196636500Y-83643191D01*
X196636501Y-83643208D01*
X196669285Y-83892231D01*
X196672577Y-83917231D01*
X196680774Y-83947824D01*
X196744116Y-84184216D01*
X196849881Y-84439557D01*
X196849886Y-84439567D01*
X196988085Y-84678933D01*
X196988087Y-84678936D01*
X196988091Y-84678942D01*
X197156342Y-84898212D01*
X197156348Y-84898219D01*
X197351780Y-85093651D01*
X197351787Y-85093657D01*
X197571057Y-85261908D01*
X197571061Y-85261910D01*
X197571067Y-85261915D01*
X197810433Y-85400114D01*
X197810438Y-85400116D01*
X197810442Y-85400118D01*
X198065783Y-85505883D01*
X198065785Y-85505883D01*
X198065791Y-85505886D01*
X198332769Y-85577423D01*
X198606802Y-85613500D01*
X198606809Y-85613500D01*
X198883191Y-85613500D01*
X198883198Y-85613500D01*
X199157231Y-85577423D01*
X199424209Y-85505886D01*
X199679567Y-85400114D01*
X199918933Y-85261915D01*
X200138214Y-85093656D01*
X200333656Y-84898214D01*
X200501915Y-84678933D01*
X200640114Y-84439567D01*
X200745886Y-84184209D01*
X200817423Y-83917231D01*
X200853500Y-83643198D01*
X200853500Y-83366802D01*
X200817423Y-83092769D01*
X200745886Y-82825791D01*
X200735527Y-82800783D01*
X200640118Y-82570442D01*
X200640113Y-82570432D01*
X200625680Y-82545433D01*
X200501915Y-82331067D01*
X200501910Y-82331061D01*
X200501908Y-82331057D01*
X200333657Y-82111787D01*
X200333651Y-82111780D01*
X200138219Y-81916348D01*
X200138212Y-81916342D01*
X199918942Y-81748091D01*
X199918936Y-81748087D01*
X199918933Y-81748085D01*
X199679567Y-81609886D01*
X199679557Y-81609881D01*
X199424216Y-81504116D01*
X199330915Y-81479116D01*
X199157231Y-81432577D01*
X199157230Y-81432576D01*
X199157227Y-81432576D01*
X198883208Y-81396501D01*
X198883203Y-81396500D01*
X198883198Y-81396500D01*
X198606802Y-81396500D01*
X198606796Y-81396500D01*
X198606791Y-81396501D01*
X198332772Y-81432576D01*
X198065783Y-81504116D01*
X197810442Y-81609881D01*
X197810432Y-81609886D01*
X197571067Y-81748085D01*
X197571057Y-81748091D01*
X197351787Y-81916342D01*
X197351780Y-81916348D01*
X197156348Y-82111780D01*
X197156342Y-82111787D01*
X196988091Y-82331057D01*
X196988085Y-82331067D01*
X196849886Y-82570432D01*
X196849881Y-82570442D01*
X196744116Y-82825783D01*
X196672576Y-83092772D01*
X196636501Y-83366791D01*
X196636500Y-83366808D01*
X194210500Y-83366808D01*
X194210500Y-68902230D01*
X194230185Y-68835191D01*
X194246819Y-68814549D01*
X196534549Y-66526819D01*
X196595872Y-66493334D01*
X196622230Y-66490500D01*
X209533920Y-66490500D01*
X209631462Y-66471096D01*
X209678913Y-66461658D01*
X209815495Y-66405084D01*
X209864729Y-66372186D01*
X209938416Y-66322952D01*
X219634548Y-56626818D01*
X219695871Y-56593334D01*
X219722229Y-56590500D01*
X220435501Y-56590500D01*
X220502540Y-56610185D01*
X220548295Y-56662989D01*
X220559501Y-56714500D01*
X220559501Y-56807876D01*
X220565908Y-56867483D01*
X220616202Y-57002328D01*
X220616206Y-57002335D01*
X220702452Y-57117544D01*
X220702455Y-57117547D01*
X220817663Y-57203793D01*
X220822799Y-57206597D01*
X220872205Y-57256002D01*
X220887057Y-57324275D01*
X220867182Y-57383251D01*
X220736267Y-57583632D01*
X220636412Y-57811282D01*
X220575387Y-58052261D01*
X220575385Y-58052270D01*
X220554859Y-58299994D01*
X220554859Y-58300000D01*
X220575385Y-58547729D01*
X220575387Y-58547738D01*
X220636412Y-58788717D01*
X220736267Y-59016367D01*
X220836562Y-59169881D01*
X221568871Y-58437572D01*
X221584755Y-58496853D01*
X221651898Y-58613147D01*
X221746853Y-58708102D01*
X221863147Y-58775245D01*
X221922425Y-58791128D01*
X221189943Y-59523609D01*
X221191344Y-59546176D01*
X221175851Y-59614306D01*
X221143745Y-59651712D01*
X221040258Y-59732260D01*
X220871833Y-59915217D01*
X220735826Y-60123393D01*
X220635936Y-60351118D01*
X220574892Y-60592175D01*
X220574890Y-60592187D01*
X220554357Y-60839994D01*
X220554357Y-60840005D01*
X220574890Y-61087812D01*
X220574892Y-61087824D01*
X220635936Y-61328881D01*
X220735826Y-61556606D01*
X220871833Y-61764782D01*
X220871836Y-61764785D01*
X221040256Y-61947738D01*
X221123008Y-62012147D01*
X221163821Y-62068857D01*
X221167496Y-62138630D01*
X221132864Y-62199313D01*
X221123014Y-62207848D01*
X221064400Y-62253469D01*
X221040257Y-62272261D01*
X220871833Y-62455217D01*
X220735826Y-62663393D01*
X220635936Y-62891118D01*
X220574892Y-63132175D01*
X220574890Y-63132187D01*
X220554357Y-63379994D01*
X220554357Y-63380005D01*
X220574890Y-63627812D01*
X220574892Y-63627824D01*
X220635936Y-63868881D01*
X220735826Y-64096606D01*
X220871833Y-64304782D01*
X220871836Y-64304785D01*
X221040256Y-64487738D01*
X221123008Y-64552147D01*
X221163821Y-64608857D01*
X221167496Y-64678630D01*
X221132864Y-64739313D01*
X221123014Y-64747848D01*
X221064400Y-64793469D01*
X221040257Y-64812261D01*
X220871833Y-64995217D01*
X220735826Y-65203393D01*
X220635936Y-65431118D01*
X220574892Y-65672175D01*
X220574890Y-65672187D01*
X220554357Y-65919994D01*
X220554357Y-65920005D01*
X220574890Y-66167812D01*
X220574892Y-66167824D01*
X220635936Y-66408881D01*
X220735826Y-66636606D01*
X220871833Y-66844782D01*
X220871836Y-66844785D01*
X221040256Y-67027738D01*
X221123008Y-67092147D01*
X221163821Y-67148857D01*
X221167496Y-67218630D01*
X221132864Y-67279313D01*
X221123014Y-67287848D01*
X221064400Y-67333469D01*
X221040257Y-67352261D01*
X220871833Y-67535217D01*
X220735826Y-67743393D01*
X220735214Y-67744525D01*
X220734842Y-67744898D01*
X220733022Y-67747686D01*
X220732448Y-67747311D01*
X220685991Y-67794112D01*
X220626163Y-67809500D01*
X219675929Y-67809500D01*
X219550261Y-67834497D01*
X219550255Y-67834499D01*
X219431870Y-67883535D01*
X219325331Y-67954722D01*
X219325324Y-67954728D01*
X217954727Y-69325325D01*
X217954721Y-69325332D01*
X217914997Y-69384784D01*
X217914998Y-69384785D01*
X217883534Y-69431874D01*
X217834499Y-69550255D01*
X217834497Y-69550261D01*
X217809500Y-69675928D01*
X217809500Y-88014773D01*
X217789815Y-88081812D01*
X217737011Y-88127567D01*
X217667853Y-88137511D01*
X217604297Y-88108486D01*
X217570072Y-88060075D01*
X217489671Y-87855217D01*
X217479639Y-87829655D01*
X217346958Y-87599845D01*
X217181508Y-87392377D01*
X216986984Y-87211886D01*
X216942982Y-87181886D01*
X216767736Y-87062404D01*
X216767725Y-87062397D01*
X216528655Y-86947268D01*
X216528636Y-86947261D01*
X216275083Y-86869051D01*
X216275073Y-86869048D01*
X216012688Y-86829500D01*
X216012681Y-86829500D01*
X215747319Y-86829500D01*
X215747311Y-86829500D01*
X215484926Y-86869048D01*
X215484916Y-86869051D01*
X215231363Y-86947261D01*
X215231344Y-86947268D01*
X214992276Y-87062397D01*
X214992274Y-87062398D01*
X214773015Y-87211886D01*
X214578494Y-87392375D01*
X214578492Y-87392377D01*
X214413042Y-87599845D01*
X214280361Y-87829654D01*
X214183416Y-88076667D01*
X214183410Y-88076686D01*
X214124364Y-88335385D01*
X214124363Y-88335390D01*
X214104535Y-88599995D01*
X214104535Y-88600004D01*
X214124363Y-88864609D01*
X214124364Y-88864614D01*
X214183410Y-89123313D01*
X214183412Y-89123322D01*
X214183414Y-89123327D01*
X214280361Y-89370345D01*
X214413042Y-89600155D01*
X214496482Y-89704785D01*
X214508941Y-89720408D01*
X214535350Y-89785095D01*
X214522593Y-89853790D01*
X214499675Y-89885402D01*
X214188243Y-90196836D01*
X214122220Y-90262859D01*
X214122218Y-90262861D01*
X214084131Y-90300948D01*
X213982859Y-90402219D01*
X213873371Y-90566079D01*
X213873364Y-90566092D01*
X213797950Y-90748160D01*
X213797947Y-90748170D01*
X213759500Y-90941456D01*
X213759500Y-91721734D01*
X213739815Y-91788773D01*
X213687011Y-91834528D01*
X213617853Y-91844472D01*
X213556835Y-91817587D01*
X213418539Y-91704090D01*
X213418532Y-91704086D01*
X213244733Y-91611188D01*
X213244727Y-91611186D01*
X213118997Y-91573046D01*
X213056129Y-91553975D01*
X212860000Y-91534659D01*
X212663870Y-91553975D01*
X212475266Y-91611188D01*
X212301467Y-91704086D01*
X212301460Y-91704090D01*
X212149116Y-91829116D01*
X212024090Y-91981460D01*
X212024086Y-91981467D01*
X211931188Y-92155266D01*
X211873975Y-92343870D01*
X211854659Y-92540000D01*
X211873975Y-92736129D01*
X211931188Y-92924733D01*
X212024086Y-93098532D01*
X212024090Y-93098539D01*
X212149116Y-93250883D01*
X212160334Y-93260089D01*
X212164125Y-93263200D01*
X212164161Y-93263229D01*
X212203498Y-93320973D01*
X212209500Y-93359085D01*
X212209500Y-96920914D01*
X212189815Y-96987953D01*
X212164167Y-97016765D01*
X212149115Y-97029118D01*
X212024090Y-97181460D01*
X212024086Y-97181467D01*
X211931188Y-97355266D01*
X211873975Y-97543870D01*
X211854659Y-97740000D01*
X211873975Y-97936129D01*
X211931188Y-98124733D01*
X212024086Y-98298532D01*
X212024090Y-98298539D01*
X212149116Y-98450883D01*
X212160334Y-98460089D01*
X212164125Y-98463200D01*
X212164161Y-98463229D01*
X212203498Y-98520973D01*
X212209500Y-98559085D01*
X212209500Y-101120914D01*
X212189815Y-101187953D01*
X212164167Y-101216765D01*
X212149115Y-101229118D01*
X212024090Y-101381460D01*
X212024086Y-101381467D01*
X211931188Y-101555266D01*
X211873975Y-101743870D01*
X211854659Y-101940000D01*
X211873975Y-102136129D01*
X211931188Y-102324733D01*
X212024086Y-102498532D01*
X212024090Y-102498539D01*
X212149116Y-102650883D01*
X212301460Y-102775909D01*
X212301467Y-102775913D01*
X212475266Y-102868811D01*
X212475269Y-102868811D01*
X212475273Y-102868814D01*
X212663868Y-102926024D01*
X212860000Y-102945341D01*
X213056132Y-102926024D01*
X213244727Y-102868814D01*
X213418538Y-102775910D01*
X213556835Y-102662412D01*
X213621145Y-102635099D01*
X213690012Y-102646890D01*
X213741573Y-102694042D01*
X213759500Y-102758265D01*
X213759500Y-109838541D01*
X213759500Y-109838543D01*
X213759499Y-109838543D01*
X213797947Y-110031829D01*
X213797950Y-110031839D01*
X213873364Y-110213907D01*
X213873371Y-110213920D01*
X213982859Y-110377780D01*
X213982860Y-110377781D01*
X213982861Y-110377782D01*
X214122218Y-110517139D01*
X214122219Y-110517139D01*
X214129286Y-110524206D01*
X214129285Y-110524206D01*
X214129288Y-110524208D01*
X215782860Y-112177781D01*
X215782861Y-112177782D01*
X215922218Y-112317139D01*
X216086086Y-112426632D01*
X216192745Y-112470811D01*
X216268164Y-112502051D01*
X216461454Y-112540499D01*
X216461457Y-112540500D01*
X216461459Y-112540500D01*
X228858542Y-112540500D01*
X228877870Y-112536655D01*
X228955188Y-112521275D01*
X229051836Y-112502051D01*
X229105165Y-112479961D01*
X229233914Y-112426632D01*
X229397782Y-112317139D01*
X229537139Y-112177782D01*
X229537140Y-112177779D01*
X229544206Y-112170714D01*
X229544208Y-112170710D01*
X231537139Y-110177781D01*
X231646631Y-110013914D01*
X231722051Y-109831836D01*
X231760500Y-109638540D01*
X231760500Y-109441460D01*
X231752883Y-109403166D01*
X231750500Y-109378974D01*
X231750500Y-108974666D01*
X231770185Y-108907627D01*
X231800189Y-108875399D01*
X231802329Y-108873796D01*
X231802331Y-108873796D01*
X231917546Y-108787546D01*
X232003796Y-108672331D01*
X232054091Y-108537483D01*
X232060500Y-108477873D01*
X232060499Y-106682128D01*
X232054091Y-106622517D01*
X232052810Y-106619083D01*
X232003797Y-106487671D01*
X232003793Y-106487664D01*
X231917547Y-106372455D01*
X231917544Y-106372452D01*
X231802335Y-106286206D01*
X231802328Y-106286202D01*
X231667482Y-106235908D01*
X231667483Y-106235908D01*
X231607883Y-106229501D01*
X231607881Y-106229500D01*
X231607873Y-106229500D01*
X231607864Y-106229500D01*
X229812129Y-106229500D01*
X229812123Y-106229501D01*
X229752516Y-106235908D01*
X229617671Y-106286202D01*
X229617664Y-106286206D01*
X229502455Y-106372452D01*
X229502452Y-106372455D01*
X229416206Y-106487664D01*
X229416203Y-106487669D01*
X229367189Y-106619083D01*
X229325317Y-106675016D01*
X229259853Y-106699433D01*
X229191580Y-106684581D01*
X229163326Y-106663430D01*
X229041402Y-106541506D01*
X229041395Y-106541501D01*
X228847834Y-106405967D01*
X228847830Y-106405965D01*
X228847828Y-106405964D01*
X228633663Y-106306097D01*
X228633659Y-106306096D01*
X228633655Y-106306094D01*
X228405413Y-106244938D01*
X228405403Y-106244936D01*
X228170001Y-106224341D01*
X228169999Y-106224341D01*
X227934596Y-106244936D01*
X227934586Y-106244938D01*
X227706344Y-106306094D01*
X227706335Y-106306098D01*
X227492171Y-106405964D01*
X227492169Y-106405965D01*
X227298597Y-106541505D01*
X227131505Y-106708597D01*
X227001575Y-106894158D01*
X226946998Y-106937783D01*
X226877500Y-106944977D01*
X226815145Y-106913454D01*
X226798425Y-106894158D01*
X226668494Y-106708597D01*
X226501402Y-106541506D01*
X226501395Y-106541501D01*
X226307834Y-106405967D01*
X226307830Y-106405965D01*
X226307828Y-106405964D01*
X226093663Y-106306097D01*
X226093659Y-106306096D01*
X226093655Y-106306094D01*
X225865413Y-106244938D01*
X225865403Y-106244936D01*
X225630001Y-106224341D01*
X225629999Y-106224341D01*
X225394596Y-106244936D01*
X225394586Y-106244938D01*
X225166344Y-106306094D01*
X225166335Y-106306098D01*
X224952171Y-106405964D01*
X224952169Y-106405965D01*
X224758597Y-106541505D01*
X224591505Y-106708597D01*
X224461575Y-106894158D01*
X224406998Y-106937783D01*
X224337500Y-106944977D01*
X224275145Y-106913454D01*
X224258425Y-106894158D01*
X224128494Y-106708597D01*
X223961402Y-106541506D01*
X223961395Y-106541501D01*
X223767834Y-106405967D01*
X223767830Y-106405965D01*
X223767828Y-106405964D01*
X223553663Y-106306097D01*
X223553659Y-106306096D01*
X223553655Y-106306094D01*
X223325413Y-106244938D01*
X223325403Y-106244936D01*
X223090001Y-106224341D01*
X223089999Y-106224341D01*
X222854596Y-106244936D01*
X222854586Y-106244938D01*
X222626344Y-106306094D01*
X222626335Y-106306098D01*
X222412171Y-106405964D01*
X222412169Y-106405965D01*
X222218597Y-106541505D01*
X222051508Y-106708594D01*
X221921269Y-106894595D01*
X221866692Y-106938219D01*
X221797193Y-106945412D01*
X221734839Y-106913890D01*
X221718119Y-106894595D01*
X221664925Y-106818626D01*
X221032962Y-107450590D01*
X221015925Y-107387007D01*
X220950099Y-107272993D01*
X220857007Y-107179901D01*
X220742993Y-107114075D01*
X220679409Y-107097037D01*
X221311372Y-106465073D01*
X221227576Y-106406398D01*
X221013492Y-106306570D01*
X221013483Y-106306566D01*
X220785326Y-106245432D01*
X220785315Y-106245430D01*
X220550002Y-106224843D01*
X220549998Y-106224843D01*
X220314684Y-106245430D01*
X220314673Y-106245432D01*
X220086516Y-106306566D01*
X220086507Y-106306570D01*
X219872423Y-106406399D01*
X219872421Y-106406400D01*
X219788627Y-106465073D01*
X219788626Y-106465073D01*
X220420591Y-107097037D01*
X220357007Y-107114075D01*
X220242993Y-107179901D01*
X220149901Y-107272993D01*
X220084075Y-107387007D01*
X220067037Y-107450590D01*
X219435073Y-106818626D01*
X219435073Y-106818627D01*
X219376400Y-106902421D01*
X219376399Y-106902423D01*
X219276570Y-107116507D01*
X219276566Y-107116516D01*
X219215432Y-107344673D01*
X219215430Y-107344684D01*
X219194843Y-107579998D01*
X219194843Y-107580001D01*
X219215430Y-107815315D01*
X219215432Y-107815326D01*
X219276566Y-108043483D01*
X219276570Y-108043492D01*
X219376398Y-108257576D01*
X219435073Y-108341372D01*
X220067037Y-107709408D01*
X220084075Y-107772993D01*
X220149901Y-107887007D01*
X220242993Y-107980099D01*
X220357007Y-108045925D01*
X220420591Y-108062962D01*
X219788626Y-108694926D01*
X219872417Y-108753598D01*
X219872421Y-108753600D01*
X220086507Y-108853429D01*
X220086516Y-108853433D01*
X220314673Y-108914567D01*
X220314684Y-108914569D01*
X220549998Y-108935157D01*
X220550002Y-108935157D01*
X220785315Y-108914569D01*
X220785326Y-108914567D01*
X221013483Y-108853433D01*
X221013492Y-108853429D01*
X221227580Y-108753599D01*
X221311371Y-108694925D01*
X220679408Y-108062962D01*
X220742993Y-108045925D01*
X220857007Y-107980099D01*
X220950099Y-107887007D01*
X221015925Y-107772993D01*
X221032962Y-107709408D01*
X221664925Y-108341371D01*
X221718120Y-108265404D01*
X221772697Y-108221780D01*
X221842196Y-108214588D01*
X221904550Y-108246111D01*
X221921268Y-108265404D01*
X222051505Y-108451401D01*
X222218599Y-108618495D01*
X222315384Y-108686265D01*
X222412165Y-108754032D01*
X222412167Y-108754033D01*
X222412170Y-108754035D01*
X222626337Y-108853903D01*
X222854592Y-108915063D01*
X223042918Y-108931539D01*
X223089999Y-108935659D01*
X223090000Y-108935659D01*
X223090001Y-108935659D01*
X223129234Y-108932226D01*
X223325408Y-108915063D01*
X223553663Y-108853903D01*
X223767830Y-108754035D01*
X223961401Y-108618495D01*
X224128495Y-108451401D01*
X224258425Y-108265842D01*
X224313002Y-108222217D01*
X224382500Y-108215023D01*
X224444855Y-108246546D01*
X224461575Y-108265842D01*
X224544068Y-108383655D01*
X224591505Y-108451401D01*
X224758599Y-108618495D01*
X224855384Y-108686265D01*
X224952165Y-108754032D01*
X224952167Y-108754033D01*
X224952170Y-108754035D01*
X225166337Y-108853903D01*
X225394592Y-108915063D01*
X225582918Y-108931539D01*
X225629999Y-108935659D01*
X225630000Y-108935659D01*
X225630001Y-108935659D01*
X225669234Y-108932226D01*
X225865408Y-108915063D01*
X226093663Y-108853903D01*
X226307830Y-108754035D01*
X226501401Y-108618495D01*
X226668495Y-108451401D01*
X226798425Y-108265842D01*
X226853002Y-108222217D01*
X226922500Y-108215023D01*
X226984855Y-108246546D01*
X227001575Y-108265842D01*
X227084068Y-108383655D01*
X227131505Y-108451401D01*
X227298599Y-108618495D01*
X227395384Y-108686265D01*
X227492165Y-108754032D01*
X227492167Y-108754033D01*
X227492170Y-108754035D01*
X227706337Y-108853903D01*
X227934592Y-108915063D01*
X228122918Y-108931539D01*
X228169999Y-108935659D01*
X228170000Y-108935659D01*
X228170001Y-108935659D01*
X228209234Y-108932226D01*
X228405408Y-108915063D01*
X228633663Y-108853903D01*
X228847830Y-108754035D01*
X229041401Y-108618495D01*
X229163329Y-108496566D01*
X229224648Y-108463084D01*
X229294340Y-108468068D01*
X229350274Y-108509939D01*
X229367189Y-108540917D01*
X229416202Y-108672328D01*
X229416206Y-108672335D01*
X229502452Y-108787544D01*
X229502455Y-108787547D01*
X229617666Y-108873794D01*
X229617667Y-108873794D01*
X229617669Y-108873796D01*
X229668833Y-108892878D01*
X229724766Y-108934748D01*
X229749184Y-109000212D01*
X229749500Y-109009060D01*
X229749500Y-109084218D01*
X229729815Y-109151257D01*
X229713181Y-109171899D01*
X228381899Y-110503181D01*
X228320576Y-110536666D01*
X228294218Y-110539500D01*
X217025783Y-110539500D01*
X216958744Y-110519815D01*
X216938102Y-110503181D01*
X215796819Y-109361898D01*
X215763334Y-109300575D01*
X215760500Y-109274217D01*
X215760500Y-104740000D01*
X222054659Y-104740000D01*
X222073975Y-104936129D01*
X222131188Y-105124733D01*
X222224086Y-105298532D01*
X222224090Y-105298539D01*
X222349116Y-105450883D01*
X222501460Y-105575909D01*
X222501467Y-105575913D01*
X222675266Y-105668811D01*
X222675269Y-105668811D01*
X222675273Y-105668814D01*
X222863868Y-105726024D01*
X223060000Y-105745341D01*
X223256132Y-105726024D01*
X223444727Y-105668814D01*
X223618538Y-105575910D01*
X223770883Y-105450883D01*
X223783232Y-105435836D01*
X223840978Y-105396501D01*
X223879086Y-105390500D01*
X224324071Y-105390500D01*
X224408615Y-105373682D01*
X224449744Y-105365501D01*
X224568127Y-105316465D01*
X224621697Y-105280671D01*
X224674669Y-105245277D01*
X225440792Y-104479152D01*
X225502113Y-104445669D01*
X225540622Y-104443432D01*
X225560000Y-104445341D01*
X225756132Y-104426024D01*
X225944727Y-104368814D01*
X225970061Y-104355273D01*
X226118532Y-104275913D01*
X226118538Y-104275910D01*
X226270883Y-104150883D01*
X226395910Y-103998538D01*
X226488814Y-103824727D01*
X226546024Y-103636132D01*
X226565341Y-103440000D01*
X226546024Y-103243868D01*
X226488814Y-103055273D01*
X226488811Y-103055269D01*
X226488811Y-103055266D01*
X226395913Y-102881467D01*
X226395909Y-102881460D01*
X226270883Y-102729116D01*
X226118539Y-102604090D01*
X226118532Y-102604086D01*
X225944733Y-102511188D01*
X225944727Y-102511186D01*
X225756132Y-102453976D01*
X225756129Y-102453975D01*
X225560000Y-102434659D01*
X225363870Y-102453975D01*
X225175266Y-102511188D01*
X225001467Y-102604086D01*
X225001460Y-102604090D01*
X224849116Y-102729116D01*
X224724090Y-102881460D01*
X224724086Y-102881467D01*
X224631188Y-103055266D01*
X224573975Y-103243870D01*
X224554659Y-103440000D01*
X224556567Y-103459374D01*
X224543548Y-103528020D01*
X224520845Y-103559208D01*
X224026873Y-104053181D01*
X223965550Y-104086666D01*
X223939192Y-104089500D01*
X223879086Y-104089500D01*
X223812047Y-104069815D01*
X223783232Y-104044164D01*
X223770882Y-104029116D01*
X223618539Y-103904090D01*
X223618532Y-103904086D01*
X223444733Y-103811188D01*
X223444727Y-103811186D01*
X223256132Y-103753976D01*
X223256129Y-103753975D01*
X223060000Y-103734659D01*
X222863870Y-103753975D01*
X222675266Y-103811188D01*
X222501467Y-103904086D01*
X222501460Y-103904090D01*
X222349116Y-104029116D01*
X222224090Y-104181460D01*
X222224086Y-104181467D01*
X222131188Y-104355266D01*
X222073975Y-104543870D01*
X222054659Y-104740000D01*
X215760500Y-104740000D01*
X215760500Y-91505782D01*
X215780185Y-91438743D01*
X215796819Y-91418101D01*
X216672136Y-90542785D01*
X216672136Y-90542784D01*
X216672139Y-90542782D01*
X216703869Y-90495293D01*
X216766060Y-90402220D01*
X216766061Y-90402217D01*
X216770739Y-90395217D01*
X216781632Y-90378914D01*
X216839349Y-90239571D01*
X216857051Y-90196836D01*
X216874808Y-90107561D01*
X216907192Y-90045653D01*
X216926571Y-90029301D01*
X216986984Y-89988114D01*
X216986986Y-89988111D01*
X216986989Y-89988110D01*
X217112590Y-89871568D01*
X217181508Y-89807623D01*
X217346958Y-89600155D01*
X217479639Y-89370345D01*
X217570072Y-89139923D01*
X217612888Y-89084710D01*
X217678757Y-89061409D01*
X217746768Y-89077420D01*
X217795327Y-89127657D01*
X217809500Y-89185226D01*
X217809500Y-98204069D01*
X217817697Y-98245275D01*
X217817697Y-98245277D01*
X217828291Y-98298538D01*
X217834499Y-98329744D01*
X217883535Y-98448127D01*
X217954260Y-98553976D01*
X217954726Y-98554673D01*
X217954727Y-98554674D01*
X218420845Y-99020791D01*
X218454330Y-99082114D01*
X218456567Y-99120625D01*
X218454659Y-99139999D01*
X218473975Y-99336129D01*
X218473976Y-99336132D01*
X218518259Y-99482114D01*
X218531188Y-99524733D01*
X218624086Y-99698532D01*
X218624090Y-99698539D01*
X218749116Y-99850883D01*
X218901460Y-99975909D01*
X218901467Y-99975913D01*
X219075266Y-100068811D01*
X219075269Y-100068811D01*
X219075273Y-100068814D01*
X219263868Y-100126024D01*
X219460000Y-100145341D01*
X219656132Y-100126024D01*
X219844727Y-100068814D01*
X220018538Y-99975910D01*
X220170883Y-99850883D01*
X220295910Y-99698538D01*
X220342362Y-99611632D01*
X220388811Y-99524733D01*
X220388811Y-99524732D01*
X220388814Y-99524727D01*
X220446024Y-99336132D01*
X220464274Y-99150830D01*
X220490435Y-99086044D01*
X220547469Y-99045685D01*
X220617269Y-99042568D01*
X220675358Y-99075304D01*
X221020845Y-99420791D01*
X221054330Y-99482114D01*
X221056567Y-99520625D01*
X221054659Y-99539999D01*
X221073975Y-99736129D01*
X221131188Y-99924733D01*
X221224086Y-100098532D01*
X221224090Y-100098539D01*
X221349116Y-100250883D01*
X221501460Y-100375909D01*
X221501467Y-100375913D01*
X221675266Y-100468811D01*
X221675269Y-100468811D01*
X221675273Y-100468814D01*
X221863868Y-100526024D01*
X222060000Y-100545341D01*
X222256132Y-100526024D01*
X222444727Y-100468814D01*
X222618538Y-100375910D01*
X222770883Y-100250883D01*
X222895910Y-100098538D01*
X222942362Y-100011632D01*
X222988811Y-99924733D01*
X222988811Y-99924732D01*
X222988814Y-99924727D01*
X223046024Y-99736132D01*
X223065341Y-99540000D01*
X223046024Y-99343868D01*
X222988814Y-99155273D01*
X222988811Y-99155269D01*
X222988811Y-99155266D01*
X222895913Y-98981467D01*
X222895909Y-98981460D01*
X222770883Y-98829116D01*
X222618539Y-98704090D01*
X222618532Y-98704086D01*
X222444733Y-98611188D01*
X222444727Y-98611186D01*
X222256132Y-98553976D01*
X222256129Y-98553975D01*
X222060000Y-98534659D01*
X222040625Y-98536567D01*
X221971979Y-98523547D01*
X221940791Y-98500845D01*
X220046819Y-96606873D01*
X220013334Y-96545550D01*
X220010500Y-96519192D01*
X220010500Y-72160808D01*
X220030185Y-72093769D01*
X220046819Y-72073127D01*
X220433127Y-71686819D01*
X220494450Y-71653334D01*
X220520808Y-71650500D01*
X220626163Y-71650500D01*
X220693202Y-71670185D01*
X220732561Y-71712615D01*
X220733022Y-71712314D01*
X220734785Y-71715012D01*
X220735214Y-71715475D01*
X220735826Y-71716606D01*
X220871833Y-71924782D01*
X220871836Y-71924785D01*
X221040256Y-72107738D01*
X221123008Y-72172147D01*
X221163821Y-72228857D01*
X221167496Y-72298630D01*
X221132864Y-72359313D01*
X221123014Y-72367848D01*
X221064400Y-72413469D01*
X221040257Y-72432261D01*
X220871833Y-72615217D01*
X220735826Y-72823393D01*
X220635936Y-73051118D01*
X220574892Y-73292175D01*
X220574890Y-73292187D01*
X220554357Y-73539994D01*
X220554357Y-73540000D01*
X220574890Y-73787812D01*
X220574892Y-73787824D01*
X220635936Y-74028881D01*
X220735826Y-74256606D01*
X220871833Y-74464782D01*
X220871836Y-74464785D01*
X221040256Y-74647738D01*
X221123008Y-74712147D01*
X221163821Y-74768857D01*
X221167496Y-74838630D01*
X221132864Y-74899313D01*
X221123014Y-74907848D01*
X221064400Y-74953469D01*
X221040257Y-74972261D01*
X220871833Y-75155217D01*
X220735826Y-75363393D01*
X220635936Y-75591118D01*
X220574892Y-75832175D01*
X220574890Y-75832187D01*
X220554357Y-76079994D01*
X220554357Y-76080005D01*
X220574890Y-76327812D01*
X220574892Y-76327824D01*
X220635936Y-76568881D01*
X220735826Y-76796606D01*
X220871833Y-77004782D01*
X220871835Y-77004784D01*
X220871836Y-77004785D01*
X221040256Y-77187738D01*
X221123008Y-77252147D01*
X221163821Y-77308857D01*
X221167496Y-77378630D01*
X221132864Y-77439313D01*
X221123014Y-77447848D01*
X221064400Y-77493469D01*
X221040257Y-77512261D01*
X220871833Y-77695217D01*
X220735826Y-77903393D01*
X220635936Y-78131118D01*
X220574892Y-78372175D01*
X220574890Y-78372187D01*
X220554357Y-78619994D01*
X220554357Y-78620005D01*
X220574890Y-78867812D01*
X220574892Y-78867824D01*
X220635936Y-79108881D01*
X220735826Y-79336606D01*
X220871833Y-79544782D01*
X220871836Y-79544785D01*
X221040256Y-79727738D01*
X221123008Y-79792147D01*
X221163821Y-79848857D01*
X221167496Y-79918630D01*
X221132864Y-79979313D01*
X221123014Y-79987848D01*
X221064400Y-80033469D01*
X221040257Y-80052261D01*
X220871833Y-80235217D01*
X220735826Y-80443393D01*
X220635936Y-80671118D01*
X220574892Y-80912175D01*
X220574890Y-80912187D01*
X220554357Y-81159994D01*
X220554357Y-81160005D01*
X220574890Y-81407812D01*
X220574892Y-81407824D01*
X220635936Y-81648881D01*
X220735826Y-81876606D01*
X220871833Y-82084782D01*
X220873678Y-82086786D01*
X221040256Y-82267738D01*
X221123008Y-82332147D01*
X221163821Y-82388857D01*
X221167496Y-82458630D01*
X221132864Y-82519313D01*
X221123014Y-82527848D01*
X221068303Y-82570432D01*
X221040257Y-82592261D01*
X220871833Y-82775217D01*
X220735826Y-82983393D01*
X220635936Y-83211118D01*
X220574892Y-83452175D01*
X220574890Y-83452187D01*
X220554357Y-83699994D01*
X220554357Y-83700005D01*
X220574890Y-83947812D01*
X220574892Y-83947824D01*
X220635936Y-84188881D01*
X220735826Y-84416606D01*
X220871833Y-84624782D01*
X220871836Y-84624785D01*
X221040256Y-84807738D01*
X221123008Y-84872147D01*
X221163821Y-84928857D01*
X221167496Y-84998630D01*
X221132864Y-85059313D01*
X221123014Y-85067848D01*
X221089857Y-85093656D01*
X221040257Y-85132261D01*
X220871833Y-85315217D01*
X220735826Y-85523393D01*
X220635936Y-85751118D01*
X220574892Y-85992175D01*
X220574890Y-85992187D01*
X220554357Y-86239994D01*
X220554357Y-86240005D01*
X220574890Y-86487812D01*
X220574892Y-86487824D01*
X220635936Y-86728881D01*
X220735826Y-86956606D01*
X220871833Y-87164782D01*
X220904245Y-87199991D01*
X221040256Y-87347738D01*
X221123008Y-87412147D01*
X221163821Y-87468857D01*
X221167496Y-87538630D01*
X221132864Y-87599313D01*
X221123014Y-87607848D01*
X221064400Y-87653469D01*
X221040257Y-87672261D01*
X220871833Y-87855217D01*
X220735826Y-88063393D01*
X220635936Y-88291118D01*
X220574892Y-88532175D01*
X220574890Y-88532187D01*
X220554357Y-88779994D01*
X220554357Y-88780005D01*
X220574890Y-89027812D01*
X220574892Y-89027824D01*
X220635936Y-89268881D01*
X220735826Y-89496606D01*
X220871833Y-89704782D01*
X220871836Y-89704785D01*
X221040256Y-89887738D01*
X221123008Y-89952147D01*
X221163821Y-90008857D01*
X221167496Y-90078630D01*
X221132864Y-90139313D01*
X221123014Y-90147848D01*
X221064400Y-90193469D01*
X221040257Y-90212261D01*
X220871833Y-90395217D01*
X220735826Y-90603393D01*
X220635936Y-90831118D01*
X220574892Y-91072175D01*
X220574890Y-91072187D01*
X220554357Y-91319994D01*
X220554357Y-91320005D01*
X220574890Y-91567812D01*
X220574892Y-91567824D01*
X220635936Y-91808881D01*
X220735826Y-92036606D01*
X220871833Y-92244782D01*
X220871836Y-92244785D01*
X221040256Y-92427738D01*
X221236491Y-92580474D01*
X221236493Y-92580475D01*
X221444958Y-92693291D01*
X221455190Y-92698828D01*
X221498851Y-92713816D01*
X221549048Y-92731050D01*
X221606063Y-92771435D01*
X221632194Y-92836235D01*
X221619143Y-92904875D01*
X221571054Y-92955563D01*
X221570785Y-92955718D01*
X221361743Y-93076409D01*
X221152863Y-93236687D01*
X221152856Y-93236693D01*
X220966693Y-93422856D01*
X220966687Y-93422863D01*
X220806409Y-93631743D01*
X220674769Y-93859749D01*
X220674761Y-93859765D01*
X220574009Y-94103004D01*
X220505865Y-94357321D01*
X220471501Y-94618346D01*
X220471500Y-94618362D01*
X220471500Y-94881637D01*
X220471501Y-94881653D01*
X220505865Y-95142678D01*
X220574009Y-95396995D01*
X220674761Y-95640234D01*
X220674769Y-95640250D01*
X220806409Y-95868256D01*
X220966687Y-96077136D01*
X220966693Y-96077143D01*
X221152856Y-96263306D01*
X221152863Y-96263312D01*
X221361743Y-96423590D01*
X221589749Y-96555230D01*
X221589765Y-96555238D01*
X221714424Y-96606873D01*
X221833003Y-96655990D01*
X222087320Y-96724134D01*
X222348356Y-96758500D01*
X222348363Y-96758500D01*
X222611637Y-96758500D01*
X222611644Y-96758500D01*
X222676208Y-96750000D01*
X225850000Y-96750000D01*
X243540000Y-96750000D01*
X243540000Y-90260000D01*
X225850000Y-90260000D01*
X225850000Y-96750000D01*
X222676208Y-96750000D01*
X222872680Y-96724134D01*
X223126997Y-96655990D01*
X223310099Y-96580146D01*
X223370234Y-96555238D01*
X223370237Y-96555236D01*
X223370243Y-96555234D01*
X223598257Y-96423590D01*
X223807138Y-96263311D01*
X223993311Y-96077138D01*
X224153590Y-95868257D01*
X224285234Y-95640243D01*
X224385990Y-95396997D01*
X224454134Y-95142680D01*
X224488500Y-94881644D01*
X224488500Y-94618356D01*
X224454134Y-94357320D01*
X224385990Y-94103003D01*
X224348068Y-94011451D01*
X224285238Y-93859765D01*
X224285230Y-93859749D01*
X224153590Y-93631743D01*
X223993312Y-93422863D01*
X223993306Y-93422856D01*
X223807143Y-93236693D01*
X223807136Y-93236687D01*
X223598256Y-93076409D01*
X223370250Y-92944769D01*
X223370234Y-92944761D01*
X223126997Y-92844010D01*
X222934770Y-92792503D01*
X222875110Y-92756138D01*
X222844581Y-92693291D01*
X222852876Y-92623915D01*
X222890699Y-92574877D01*
X223079744Y-92427738D01*
X223248164Y-92244785D01*
X223384173Y-92036607D01*
X223484063Y-91808881D01*
X223545108Y-91567821D01*
X223546255Y-91553976D01*
X223565643Y-91320005D01*
X223565643Y-91319994D01*
X223545109Y-91072187D01*
X223545107Y-91072175D01*
X223484063Y-90831118D01*
X223384173Y-90603393D01*
X223248166Y-90395217D01*
X223189002Y-90330948D01*
X223079744Y-90212262D01*
X222996991Y-90147852D01*
X222956179Y-90091143D01*
X222952504Y-90021370D01*
X222987136Y-89960687D01*
X222996985Y-89952151D01*
X223079744Y-89887738D01*
X223248164Y-89704785D01*
X223384173Y-89496607D01*
X223484063Y-89268881D01*
X223545108Y-89027821D01*
X223545109Y-89027812D01*
X223565643Y-88780005D01*
X223565643Y-88779994D01*
X223545109Y-88532187D01*
X223545107Y-88532175D01*
X223484063Y-88291118D01*
X223384173Y-88063393D01*
X223248166Y-87855217D01*
X223197017Y-87799655D01*
X223079744Y-87672262D01*
X222996991Y-87607852D01*
X222956179Y-87551143D01*
X222952504Y-87481370D01*
X222987136Y-87420687D01*
X222996985Y-87412151D01*
X223079744Y-87347738D01*
X223248164Y-87164785D01*
X223384173Y-86956607D01*
X223484063Y-86728881D01*
X223545108Y-86487821D01*
X223565643Y-86240000D01*
X223545108Y-85992179D01*
X223484063Y-85751119D01*
X223384173Y-85523393D01*
X223303634Y-85400118D01*
X223248166Y-85315217D01*
X223199091Y-85261908D01*
X223079744Y-85132262D01*
X222996991Y-85067852D01*
X222956179Y-85011143D01*
X222952504Y-84941370D01*
X222987136Y-84880687D01*
X222996985Y-84872151D01*
X223079744Y-84807738D01*
X223248164Y-84624785D01*
X223384173Y-84416607D01*
X223484063Y-84188881D01*
X223545108Y-83947821D01*
X223547643Y-83917227D01*
X223565643Y-83700005D01*
X223565643Y-83699994D01*
X223545109Y-83452187D01*
X223545107Y-83452175D01*
X223484063Y-83211118D01*
X223384173Y-82983393D01*
X223248166Y-82775217D01*
X223226557Y-82751744D01*
X223079744Y-82592262D01*
X222996991Y-82527852D01*
X222956179Y-82471143D01*
X222952504Y-82401370D01*
X222987136Y-82340687D01*
X222996985Y-82332151D01*
X223079744Y-82267738D01*
X223248164Y-82084785D01*
X223384173Y-81876607D01*
X223484063Y-81648881D01*
X223545108Y-81407821D01*
X223545128Y-81407577D01*
X223565643Y-81160005D01*
X223565643Y-81159994D01*
X223545109Y-80912187D01*
X223545107Y-80912175D01*
X223484063Y-80671118D01*
X223384173Y-80443393D01*
X223248166Y-80235217D01*
X223226557Y-80211744D01*
X223079744Y-80052262D01*
X222996991Y-79987852D01*
X222956179Y-79931143D01*
X222952504Y-79861370D01*
X222987136Y-79800687D01*
X222996985Y-79792151D01*
X223079744Y-79727738D01*
X223248164Y-79544785D01*
X223384173Y-79336607D01*
X223484063Y-79108881D01*
X223545108Y-78867821D01*
X223565643Y-78620000D01*
X223545108Y-78372179D01*
X223484063Y-78131119D01*
X223384173Y-77903393D01*
X223248166Y-77695217D01*
X223226557Y-77671744D01*
X223079744Y-77512262D01*
X222996991Y-77447852D01*
X222956179Y-77391143D01*
X222952504Y-77321370D01*
X222987136Y-77260687D01*
X222996985Y-77252151D01*
X223079744Y-77187738D01*
X223248164Y-77004785D01*
X223384173Y-76796607D01*
X223484063Y-76568881D01*
X223545108Y-76327821D01*
X223565643Y-76080000D01*
X223545108Y-75832179D01*
X223484063Y-75591119D01*
X223384173Y-75363393D01*
X223349169Y-75309815D01*
X223248166Y-75155217D01*
X223226557Y-75131744D01*
X223079744Y-74972262D01*
X222996991Y-74907852D01*
X222956179Y-74851143D01*
X222952504Y-74781370D01*
X222987136Y-74720687D01*
X222996985Y-74712151D01*
X223079744Y-74647738D01*
X223248164Y-74464785D01*
X223384173Y-74256607D01*
X223484063Y-74028881D01*
X223545108Y-73787821D01*
X223565643Y-73540000D01*
X223561955Y-73495495D01*
X223545109Y-73292187D01*
X223545107Y-73292175D01*
X223484063Y-73051118D01*
X223384173Y-72823393D01*
X223248166Y-72615217D01*
X223226557Y-72591744D01*
X223079744Y-72432262D01*
X222996991Y-72367852D01*
X222956179Y-72311143D01*
X222952504Y-72241370D01*
X222987136Y-72180687D01*
X222996985Y-72172151D01*
X223079744Y-72107738D01*
X223248164Y-71924785D01*
X223384173Y-71716607D01*
X223484063Y-71488881D01*
X223545108Y-71247821D01*
X223545109Y-71247812D01*
X223565643Y-71000005D01*
X223565643Y-70999994D01*
X223545109Y-70752187D01*
X223545107Y-70752175D01*
X223484063Y-70511118D01*
X223384173Y-70283393D01*
X223248166Y-70075217D01*
X223187619Y-70009446D01*
X223079744Y-69892262D01*
X222996991Y-69827852D01*
X222956179Y-69771143D01*
X222952504Y-69701370D01*
X222987136Y-69640687D01*
X222996985Y-69632151D01*
X223079744Y-69567738D01*
X223248164Y-69384785D01*
X223384173Y-69176607D01*
X223484063Y-68948881D01*
X223545108Y-68707821D01*
X223565139Y-68466082D01*
X223565643Y-68460005D01*
X223565643Y-68459990D01*
X223545109Y-68212187D01*
X223545107Y-68212175D01*
X223484063Y-67971118D01*
X223384173Y-67743393D01*
X223248166Y-67535217D01*
X223226557Y-67511744D01*
X223079744Y-67352262D01*
X222996991Y-67287852D01*
X222956179Y-67231143D01*
X222952504Y-67161370D01*
X222987136Y-67100687D01*
X222996985Y-67092151D01*
X223079744Y-67027738D01*
X223248164Y-66844785D01*
X223384173Y-66636607D01*
X223484063Y-66408881D01*
X223545108Y-66167821D01*
X223565643Y-65920000D01*
X223545108Y-65672179D01*
X223484063Y-65431119D01*
X223384173Y-65203393D01*
X223353896Y-65157050D01*
X223248166Y-64995217D01*
X223209469Y-64953181D01*
X223079744Y-64812262D01*
X222996991Y-64747852D01*
X222956179Y-64691143D01*
X222952504Y-64621370D01*
X222987136Y-64560687D01*
X222996985Y-64552151D01*
X223079744Y-64487738D01*
X223248164Y-64304785D01*
X223384173Y-64096607D01*
X223484063Y-63868881D01*
X223545108Y-63627821D01*
X223565643Y-63380000D01*
X223545108Y-63132179D01*
X223484063Y-62891119D01*
X223384173Y-62663393D01*
X223248166Y-62455217D01*
X223226557Y-62431744D01*
X223079744Y-62272262D01*
X222996991Y-62207852D01*
X222956179Y-62151143D01*
X222952504Y-62081370D01*
X222987136Y-62020687D01*
X222996985Y-62012151D01*
X223079744Y-61947738D01*
X223248164Y-61764785D01*
X223384173Y-61556607D01*
X223484063Y-61328881D01*
X223545108Y-61087821D01*
X223565643Y-60840000D01*
X223545108Y-60592179D01*
X223484063Y-60351119D01*
X223384173Y-60123393D01*
X223248166Y-59915217D01*
X223227860Y-59893159D01*
X223079744Y-59732262D01*
X223033255Y-59696078D01*
X222976254Y-59651712D01*
X222935441Y-59595002D01*
X222928655Y-59546176D01*
X222930055Y-59523608D01*
X222197574Y-58791128D01*
X222256853Y-58775245D01*
X222373147Y-58708102D01*
X222468102Y-58613147D01*
X222535245Y-58496853D01*
X222551128Y-58437575D01*
X223283435Y-59169882D01*
X223383733Y-59016364D01*
X223483587Y-58788717D01*
X223544612Y-58547738D01*
X223544614Y-58547729D01*
X223565141Y-58300000D01*
X223565141Y-58299994D01*
X223544614Y-58052270D01*
X223544612Y-58052261D01*
X223483587Y-57811282D01*
X223383733Y-57583635D01*
X223252817Y-57383252D01*
X223232630Y-57316362D01*
X223251810Y-57249176D01*
X223297203Y-57206595D01*
X223302321Y-57203799D01*
X223302331Y-57203796D01*
X223417546Y-57117546D01*
X223503796Y-57002331D01*
X223554091Y-56867483D01*
X223560500Y-56807873D01*
X223560500Y-56634500D01*
X223580185Y-56567461D01*
X223632989Y-56521706D01*
X223684500Y-56510500D01*
X224943920Y-56510500D01*
X225041462Y-56491096D01*
X225088913Y-56481658D01*
X225225495Y-56425084D01*
X225274729Y-56392186D01*
X225348416Y-56342952D01*
X226692952Y-54998416D01*
X226751950Y-54910118D01*
X226761971Y-54895121D01*
X226761975Y-54895114D01*
X226775084Y-54875495D01*
X226831658Y-54738913D01*
X226848844Y-54652516D01*
X226860500Y-54593920D01*
X226860500Y-45846079D01*
X226831659Y-45701092D01*
X226831658Y-45701091D01*
X226831658Y-45701087D01*
X226798519Y-45621082D01*
X226775087Y-45564511D01*
X226775080Y-45564498D01*
X226692952Y-45441585D01*
X226692951Y-45441584D01*
X226588416Y-45337049D01*
X224446819Y-43195451D01*
X224413334Y-43134128D01*
X224410500Y-43107770D01*
X224410500Y-42940000D01*
X237454659Y-42940000D01*
X237473975Y-43136129D01*
X237531188Y-43324733D01*
X237624086Y-43498532D01*
X237624090Y-43498539D01*
X237749116Y-43650883D01*
X237901460Y-43775909D01*
X237901467Y-43775913D01*
X238075266Y-43868811D01*
X238075269Y-43868811D01*
X238075273Y-43868814D01*
X238263868Y-43926024D01*
X238353697Y-43934871D01*
X238418485Y-43961031D01*
X238429225Y-43970593D01*
X240573181Y-46114548D01*
X240606666Y-46175871D01*
X240609500Y-46202229D01*
X240609500Y-73213918D01*
X240609500Y-73213920D01*
X240609499Y-73213920D01*
X240638340Y-73358907D01*
X240638343Y-73358917D01*
X240694914Y-73495491D01*
X240694916Y-73495495D01*
X240714828Y-73525296D01*
X240724652Y-73539999D01*
X240777049Y-73618418D01*
X240777052Y-73618421D01*
X243821584Y-76662952D01*
X243821586Y-76662954D01*
X243851058Y-76682645D01*
X243895270Y-76712186D01*
X243944505Y-76745084D01*
X243944506Y-76745084D01*
X243944507Y-76745085D01*
X243944509Y-76745086D01*
X244068890Y-76796606D01*
X244081087Y-76801658D01*
X244081091Y-76801658D01*
X244081092Y-76801659D01*
X244226079Y-76830500D01*
X244226082Y-76830500D01*
X244226083Y-76830500D01*
X244373917Y-76830500D01*
X246090864Y-76830500D01*
X246157903Y-76850185D01*
X246194672Y-76886677D01*
X246271836Y-77004785D01*
X246440256Y-77187738D01*
X246523008Y-77252147D01*
X246563821Y-77308857D01*
X246567496Y-77378630D01*
X246532864Y-77439313D01*
X246523014Y-77447848D01*
X246464400Y-77493469D01*
X246440257Y-77512261D01*
X246271833Y-77695217D01*
X246135826Y-77903393D01*
X246035936Y-78131118D01*
X245974892Y-78372175D01*
X245974890Y-78372187D01*
X245954357Y-78619994D01*
X245954357Y-78620005D01*
X245974890Y-78867812D01*
X245974892Y-78867824D01*
X246035936Y-79108881D01*
X246135826Y-79336606D01*
X246271833Y-79544782D01*
X246271836Y-79544785D01*
X246440256Y-79727738D01*
X246523008Y-79792147D01*
X246563821Y-79848857D01*
X246567496Y-79918630D01*
X246532864Y-79979313D01*
X246523014Y-79987848D01*
X246464400Y-80033469D01*
X246440257Y-80052261D01*
X246271833Y-80235217D01*
X246135826Y-80443393D01*
X246035936Y-80671118D01*
X245974892Y-80912175D01*
X245974890Y-80912187D01*
X245954357Y-81159994D01*
X245954357Y-81160005D01*
X245974890Y-81407812D01*
X245974892Y-81407824D01*
X246035936Y-81648881D01*
X246135826Y-81876606D01*
X246271833Y-82084782D01*
X246273678Y-82086786D01*
X246440256Y-82267738D01*
X246523008Y-82332147D01*
X246563821Y-82388857D01*
X246567496Y-82458630D01*
X246532864Y-82519313D01*
X246523014Y-82527848D01*
X246468303Y-82570432D01*
X246440257Y-82592261D01*
X246271833Y-82775217D01*
X246135826Y-82983393D01*
X246035936Y-83211118D01*
X245974892Y-83452175D01*
X245974890Y-83452187D01*
X245954357Y-83699994D01*
X245954357Y-83700005D01*
X245974890Y-83947812D01*
X245974892Y-83947824D01*
X246035936Y-84188881D01*
X246135826Y-84416606D01*
X246271833Y-84624782D01*
X246271836Y-84624785D01*
X246440256Y-84807738D01*
X246523008Y-84872147D01*
X246563821Y-84928857D01*
X246567496Y-84998630D01*
X246532864Y-85059313D01*
X246523014Y-85067848D01*
X246489857Y-85093656D01*
X246440257Y-85132261D01*
X246271833Y-85315217D01*
X246135826Y-85523393D01*
X246035936Y-85751118D01*
X245974892Y-85992175D01*
X245974890Y-85992187D01*
X245954357Y-86239994D01*
X245954357Y-86240005D01*
X245974890Y-86487812D01*
X245974892Y-86487824D01*
X246035936Y-86728881D01*
X246135826Y-86956606D01*
X246271833Y-87164782D01*
X246304245Y-87199991D01*
X246440256Y-87347738D01*
X246523008Y-87412147D01*
X246563821Y-87468857D01*
X246567496Y-87538630D01*
X246532864Y-87599313D01*
X246523014Y-87607848D01*
X246464400Y-87653469D01*
X246440257Y-87672261D01*
X246271833Y-87855217D01*
X246135826Y-88063393D01*
X246035936Y-88291118D01*
X245974892Y-88532175D01*
X245974890Y-88532187D01*
X245954357Y-88779994D01*
X245954357Y-88780005D01*
X245974890Y-89027812D01*
X245974892Y-89027824D01*
X246035936Y-89268881D01*
X246135826Y-89496606D01*
X246271833Y-89704782D01*
X246271836Y-89704785D01*
X246440256Y-89887738D01*
X246523008Y-89952147D01*
X246563821Y-90008857D01*
X246567496Y-90078630D01*
X246532864Y-90139313D01*
X246523014Y-90147848D01*
X246464400Y-90193469D01*
X246440257Y-90212261D01*
X246271833Y-90395217D01*
X246135826Y-90603393D01*
X246035936Y-90831118D01*
X245974892Y-91072175D01*
X245974890Y-91072187D01*
X245954357Y-91319994D01*
X245954357Y-91320005D01*
X245974890Y-91567812D01*
X245974892Y-91567824D01*
X246035936Y-91808881D01*
X246135826Y-92036606D01*
X246271833Y-92244782D01*
X246271836Y-92244785D01*
X246440256Y-92427738D01*
X246616494Y-92564910D01*
X246657306Y-92621619D01*
X246660981Y-92691392D01*
X246626350Y-92752075D01*
X246572426Y-92782536D01*
X246436472Y-92818965D01*
X246343002Y-92844010D01*
X246099765Y-92944761D01*
X246099749Y-92944769D01*
X245871743Y-93076409D01*
X245662863Y-93236687D01*
X245662856Y-93236693D01*
X245476693Y-93422856D01*
X245476687Y-93422863D01*
X245316409Y-93631743D01*
X245184769Y-93859749D01*
X245184761Y-93859765D01*
X245084009Y-94103004D01*
X245015865Y-94357321D01*
X244981501Y-94618346D01*
X244981500Y-94618362D01*
X244981500Y-94881637D01*
X244981501Y-94881653D01*
X245015865Y-95142678D01*
X245084009Y-95396995D01*
X245184761Y-95640234D01*
X245184769Y-95640250D01*
X245316409Y-95868256D01*
X245476687Y-96077136D01*
X245476693Y-96077143D01*
X245662856Y-96263306D01*
X245662863Y-96263312D01*
X245871743Y-96423590D01*
X246099749Y-96555230D01*
X246099765Y-96555238D01*
X246224424Y-96606873D01*
X246343003Y-96655990D01*
X246597320Y-96724134D01*
X246858356Y-96758500D01*
X246858363Y-96758500D01*
X247121637Y-96758500D01*
X247121644Y-96758500D01*
X247382680Y-96724134D01*
X247636997Y-96655990D01*
X247820099Y-96580146D01*
X247880234Y-96555238D01*
X247880237Y-96555236D01*
X247880243Y-96555234D01*
X248108257Y-96423590D01*
X248317138Y-96263311D01*
X248503311Y-96077138D01*
X248663590Y-95868257D01*
X248795234Y-95640243D01*
X248895990Y-95396997D01*
X248964134Y-95142680D01*
X248998500Y-94881644D01*
X248998500Y-94618356D01*
X248964134Y-94357320D01*
X248895990Y-94103003D01*
X248858068Y-94011451D01*
X248795238Y-93859765D01*
X248795230Y-93859749D01*
X248663590Y-93631743D01*
X248503312Y-93422863D01*
X248503306Y-93422856D01*
X248317143Y-93236693D01*
X248317136Y-93236687D01*
X248108256Y-93076409D01*
X247917858Y-92966482D01*
X247869642Y-92915915D01*
X247856420Y-92847308D01*
X247882388Y-92782443D01*
X247939302Y-92741915D01*
X247939299Y-92741915D01*
X248064810Y-92698828D01*
X248283509Y-92580474D01*
X248479744Y-92427738D01*
X248648164Y-92244785D01*
X248784173Y-92036607D01*
X248884063Y-91808881D01*
X248945108Y-91567821D01*
X248946255Y-91553976D01*
X248965643Y-91320005D01*
X248965643Y-91319994D01*
X248945109Y-91072187D01*
X248945107Y-91072175D01*
X248884063Y-90831118D01*
X248784173Y-90603393D01*
X248648166Y-90395217D01*
X248589002Y-90330948D01*
X248479744Y-90212262D01*
X248396991Y-90147852D01*
X248356179Y-90091143D01*
X248352504Y-90021370D01*
X248387136Y-89960687D01*
X248396985Y-89952151D01*
X248479744Y-89887738D01*
X248648164Y-89704785D01*
X248784173Y-89496607D01*
X248884063Y-89268881D01*
X248945108Y-89027821D01*
X248945109Y-89027812D01*
X248965643Y-88780005D01*
X248965643Y-88779994D01*
X248945109Y-88532187D01*
X248945107Y-88532175D01*
X248884063Y-88291118D01*
X248784173Y-88063393D01*
X248648166Y-87855217D01*
X248597017Y-87799655D01*
X248479744Y-87672262D01*
X248396991Y-87607852D01*
X248356179Y-87551143D01*
X248352504Y-87481370D01*
X248387136Y-87420687D01*
X248396985Y-87412151D01*
X248479744Y-87347738D01*
X248648164Y-87164785D01*
X248784173Y-86956607D01*
X248884063Y-86728881D01*
X248945108Y-86487821D01*
X248965643Y-86240000D01*
X248945108Y-85992179D01*
X248884063Y-85751119D01*
X248784173Y-85523393D01*
X248703634Y-85400118D01*
X248648166Y-85315217D01*
X248599091Y-85261908D01*
X248479744Y-85132262D01*
X248396991Y-85067852D01*
X248356179Y-85011143D01*
X248352504Y-84941370D01*
X248387136Y-84880687D01*
X248396985Y-84872151D01*
X248479744Y-84807738D01*
X248648164Y-84624785D01*
X248784173Y-84416607D01*
X248884063Y-84188881D01*
X248945108Y-83947821D01*
X248947643Y-83917227D01*
X248965643Y-83700005D01*
X248965643Y-83699994D01*
X248945109Y-83452187D01*
X248945107Y-83452175D01*
X248884063Y-83211118D01*
X248784173Y-82983393D01*
X248648166Y-82775217D01*
X248626557Y-82751744D01*
X248479744Y-82592262D01*
X248396991Y-82527852D01*
X248356179Y-82471143D01*
X248352504Y-82401370D01*
X248387136Y-82340687D01*
X248396985Y-82332151D01*
X248479744Y-82267738D01*
X248648164Y-82084785D01*
X248784173Y-81876607D01*
X248884063Y-81648881D01*
X248945108Y-81407821D01*
X248945128Y-81407577D01*
X248965643Y-81160005D01*
X248965643Y-81159994D01*
X248945109Y-80912187D01*
X248945107Y-80912175D01*
X248884063Y-80671118D01*
X248784173Y-80443393D01*
X248648166Y-80235217D01*
X248626557Y-80211744D01*
X248479744Y-80052262D01*
X248396991Y-79987852D01*
X248356179Y-79931143D01*
X248352504Y-79861370D01*
X248387136Y-79800687D01*
X248396985Y-79792151D01*
X248479744Y-79727738D01*
X248648164Y-79544785D01*
X248784173Y-79336607D01*
X248884063Y-79108881D01*
X248945108Y-78867821D01*
X248965643Y-78620000D01*
X248945108Y-78372179D01*
X248884063Y-78131119D01*
X248784173Y-77903393D01*
X248648166Y-77695217D01*
X248626557Y-77671744D01*
X248479744Y-77512262D01*
X248396991Y-77447852D01*
X248356179Y-77391143D01*
X248352504Y-77321370D01*
X248387136Y-77260687D01*
X248396985Y-77252151D01*
X248479744Y-77187738D01*
X248648164Y-77004785D01*
X248784173Y-76796607D01*
X248884063Y-76568881D01*
X248945108Y-76327821D01*
X248965643Y-76080000D01*
X248945108Y-75832179D01*
X248884063Y-75591119D01*
X248784173Y-75363393D01*
X248749169Y-75309815D01*
X248648166Y-75155217D01*
X248626557Y-75131744D01*
X248479744Y-74972262D01*
X248396991Y-74907852D01*
X248356179Y-74851143D01*
X248352504Y-74781370D01*
X248387136Y-74720687D01*
X248396985Y-74712151D01*
X248479744Y-74647738D01*
X248648164Y-74464785D01*
X248784173Y-74256607D01*
X248884063Y-74028881D01*
X248945108Y-73787821D01*
X248965643Y-73540000D01*
X248961955Y-73495495D01*
X248945109Y-73292187D01*
X248945107Y-73292175D01*
X248884063Y-73051118D01*
X248784173Y-72823393D01*
X248648166Y-72615217D01*
X248626557Y-72591744D01*
X248479744Y-72432262D01*
X248396991Y-72367852D01*
X248356179Y-72311143D01*
X248352504Y-72241370D01*
X248387136Y-72180687D01*
X248396985Y-72172151D01*
X248479744Y-72107738D01*
X248648164Y-71924785D01*
X248784173Y-71716607D01*
X248884063Y-71488881D01*
X248945108Y-71247821D01*
X248945109Y-71247812D01*
X248965643Y-71000005D01*
X248965643Y-70999994D01*
X248945109Y-70752187D01*
X248945107Y-70752175D01*
X248884063Y-70511118D01*
X248784173Y-70283393D01*
X248648166Y-70075217D01*
X248587619Y-70009446D01*
X248479744Y-69892262D01*
X248396991Y-69827852D01*
X248356179Y-69771143D01*
X248352504Y-69701370D01*
X248387136Y-69640687D01*
X248396985Y-69632151D01*
X248479744Y-69567738D01*
X248648164Y-69384785D01*
X248784173Y-69176607D01*
X248884063Y-68948881D01*
X248945108Y-68707821D01*
X248965139Y-68466082D01*
X248965643Y-68460005D01*
X248965643Y-68459990D01*
X248945109Y-68212187D01*
X248945107Y-68212175D01*
X248884063Y-67971118D01*
X248784173Y-67743393D01*
X248648166Y-67535217D01*
X248626557Y-67511744D01*
X248479744Y-67352262D01*
X248396991Y-67287852D01*
X248356179Y-67231143D01*
X248352504Y-67161370D01*
X248387136Y-67100687D01*
X248396985Y-67092151D01*
X248479744Y-67027738D01*
X248648164Y-66844785D01*
X248784173Y-66636607D01*
X248884063Y-66408881D01*
X248945108Y-66167821D01*
X248965643Y-65920000D01*
X248945108Y-65672179D01*
X248884063Y-65431119D01*
X248784173Y-65203393D01*
X248753896Y-65157050D01*
X248648166Y-64995217D01*
X248609469Y-64953181D01*
X248479744Y-64812262D01*
X248396991Y-64747852D01*
X248356179Y-64691143D01*
X248352504Y-64621370D01*
X248387136Y-64560687D01*
X248396985Y-64552151D01*
X248479744Y-64487738D01*
X248648164Y-64304785D01*
X248784173Y-64096607D01*
X248884063Y-63868881D01*
X248945108Y-63627821D01*
X248965643Y-63380000D01*
X248945108Y-63132179D01*
X248884063Y-62891119D01*
X248784173Y-62663393D01*
X248648166Y-62455217D01*
X248626557Y-62431744D01*
X248479744Y-62272262D01*
X248396991Y-62207852D01*
X248356179Y-62151143D01*
X248352504Y-62081370D01*
X248387136Y-62020687D01*
X248396985Y-62012151D01*
X248479744Y-61947738D01*
X248648164Y-61764785D01*
X248784173Y-61556607D01*
X248884063Y-61328881D01*
X248945108Y-61087821D01*
X248965643Y-60840000D01*
X248945108Y-60592179D01*
X248884063Y-60351119D01*
X248784173Y-60123393D01*
X248648166Y-59915217D01*
X248627860Y-59893159D01*
X248479744Y-59732262D01*
X248433255Y-59696078D01*
X248376254Y-59651712D01*
X248335441Y-59595002D01*
X248328655Y-59546176D01*
X248330055Y-59523608D01*
X247597574Y-58791128D01*
X247656853Y-58775245D01*
X247773147Y-58708102D01*
X247868102Y-58613147D01*
X247935245Y-58496853D01*
X247951128Y-58437575D01*
X248683435Y-59169882D01*
X248783733Y-59016364D01*
X248883587Y-58788717D01*
X248944612Y-58547738D01*
X248944614Y-58547729D01*
X248965141Y-58300000D01*
X248965141Y-58299994D01*
X248944614Y-58052270D01*
X248944612Y-58052261D01*
X248883587Y-57811282D01*
X248783732Y-57583632D01*
X248683435Y-57430116D01*
X247951128Y-58162424D01*
X247935245Y-58103147D01*
X247868102Y-57986853D01*
X247773147Y-57891898D01*
X247656853Y-57824755D01*
X247597574Y-57808871D01*
X248330055Y-57076389D01*
X248328654Y-57053825D01*
X248344146Y-56985694D01*
X248376249Y-56948290D01*
X248479744Y-56867738D01*
X248648164Y-56684785D01*
X248784173Y-56476607D01*
X248884063Y-56248881D01*
X248945108Y-56007821D01*
X248965643Y-55760000D01*
X248945108Y-55512179D01*
X248884063Y-55271119D01*
X248877892Y-55257051D01*
X248784173Y-55043393D01*
X248648166Y-54835217D01*
X248589886Y-54771908D01*
X248479744Y-54652262D01*
X248283509Y-54499526D01*
X248283507Y-54499525D01*
X248283506Y-54499524D01*
X248064811Y-54381172D01*
X248064802Y-54381169D01*
X247829616Y-54300429D01*
X247584335Y-54259500D01*
X247335665Y-54259500D01*
X247090383Y-54300429D01*
X246855197Y-54381169D01*
X246855188Y-54381172D01*
X246636493Y-54499524D01*
X246440257Y-54652261D01*
X246271833Y-54835217D01*
X246135826Y-55043393D01*
X246035936Y-55271118D01*
X245974892Y-55512175D01*
X245974890Y-55512187D01*
X245954357Y-55759994D01*
X245954357Y-55760005D01*
X245974890Y-56007812D01*
X245974892Y-56007824D01*
X246035936Y-56248881D01*
X246135826Y-56476606D01*
X246271833Y-56684782D01*
X246271836Y-56684785D01*
X246440256Y-56867738D01*
X246517502Y-56927861D01*
X246543745Y-56948287D01*
X246584558Y-57004997D01*
X246591344Y-57053823D01*
X246589943Y-57076389D01*
X247322425Y-57808871D01*
X247263147Y-57824755D01*
X247146853Y-57891898D01*
X247051898Y-57986853D01*
X246984755Y-58103147D01*
X246968871Y-58162425D01*
X246236563Y-57430117D01*
X246136267Y-57583633D01*
X246136265Y-57583637D01*
X246036412Y-57811282D01*
X245975387Y-58052261D01*
X245975385Y-58052270D01*
X245954859Y-58299994D01*
X245954859Y-58300000D01*
X245975385Y-58547729D01*
X245975387Y-58547738D01*
X246036412Y-58788717D01*
X246136267Y-59016367D01*
X246236562Y-59169881D01*
X246968871Y-58437573D01*
X246984755Y-58496853D01*
X247051898Y-58613147D01*
X247146853Y-58708102D01*
X247263147Y-58775245D01*
X247322425Y-58791128D01*
X246589943Y-59523609D01*
X246591344Y-59546176D01*
X246575851Y-59614306D01*
X246543745Y-59651712D01*
X246440258Y-59732260D01*
X246271833Y-59915217D01*
X246135826Y-60123393D01*
X246035936Y-60351118D01*
X245974892Y-60592175D01*
X245974890Y-60592187D01*
X245954357Y-60839994D01*
X245954357Y-60840005D01*
X245974890Y-61087812D01*
X245974892Y-61087824D01*
X246035936Y-61328881D01*
X246135826Y-61556606D01*
X246271833Y-61764782D01*
X246271836Y-61764785D01*
X246440256Y-61947738D01*
X246523008Y-62012147D01*
X246563821Y-62068857D01*
X246567496Y-62138630D01*
X246532864Y-62199313D01*
X246523014Y-62207848D01*
X246464400Y-62253469D01*
X246440257Y-62272261D01*
X246271833Y-62455217D01*
X246135826Y-62663393D01*
X246035936Y-62891118D01*
X245974892Y-63132175D01*
X245974890Y-63132187D01*
X245954357Y-63379994D01*
X245954357Y-63380005D01*
X245974890Y-63627812D01*
X245974892Y-63627824D01*
X246035936Y-63868881D01*
X246135826Y-64096606D01*
X246271833Y-64304782D01*
X246271836Y-64304785D01*
X246440256Y-64487738D01*
X246523008Y-64552147D01*
X246563821Y-64608857D01*
X246567496Y-64678630D01*
X246532864Y-64739313D01*
X246523014Y-64747848D01*
X246464400Y-64793469D01*
X246440257Y-64812261D01*
X246271833Y-64995217D01*
X246135826Y-65203393D01*
X246035936Y-65431118D01*
X245974892Y-65672175D01*
X245974890Y-65672187D01*
X245954357Y-65919994D01*
X245954357Y-65920005D01*
X245974890Y-66167812D01*
X245974892Y-66167824D01*
X246035936Y-66408881D01*
X246135826Y-66636606D01*
X246271833Y-66844782D01*
X246271836Y-66844785D01*
X246440256Y-67027738D01*
X246523008Y-67092147D01*
X246563821Y-67148857D01*
X246567496Y-67218630D01*
X246532864Y-67279313D01*
X246523014Y-67287848D01*
X246464400Y-67333469D01*
X246440257Y-67352261D01*
X246271833Y-67535217D01*
X246135826Y-67743393D01*
X246035936Y-67971118D01*
X245974892Y-68212175D01*
X245974890Y-68212187D01*
X245954357Y-68459990D01*
X245954357Y-68460005D01*
X245974890Y-68707812D01*
X245974892Y-68707824D01*
X246035936Y-68948881D01*
X246135826Y-69176606D01*
X246271833Y-69384782D01*
X246271835Y-69384784D01*
X246271836Y-69384785D01*
X246440256Y-69567738D01*
X246523008Y-69632147D01*
X246563821Y-69688857D01*
X246567496Y-69758630D01*
X246532864Y-69819313D01*
X246523014Y-69827848D01*
X246464400Y-69873469D01*
X246440257Y-69892261D01*
X246271833Y-70075217D01*
X246135826Y-70283393D01*
X246035936Y-70511118D01*
X245974892Y-70752175D01*
X245974890Y-70752187D01*
X245954357Y-70999994D01*
X245954357Y-71000005D01*
X245974890Y-71247812D01*
X245974892Y-71247824D01*
X246035936Y-71488881D01*
X246135826Y-71716606D01*
X246271833Y-71924782D01*
X246271836Y-71924785D01*
X246440256Y-72107738D01*
X246523008Y-72172147D01*
X246563821Y-72228857D01*
X246567496Y-72298630D01*
X246532864Y-72359313D01*
X246523014Y-72367848D01*
X246464400Y-72413469D01*
X246440257Y-72432261D01*
X246271833Y-72615217D01*
X246135826Y-72823393D01*
X246035936Y-73051118D01*
X245974892Y-73292175D01*
X245974890Y-73292187D01*
X245954357Y-73539994D01*
X245954357Y-73540000D01*
X245974890Y-73787812D01*
X245974892Y-73787824D01*
X246035936Y-74028881D01*
X246135826Y-74256606D01*
X246271833Y-74464782D01*
X246271836Y-74464785D01*
X246440256Y-74647738D01*
X246523008Y-74712147D01*
X246563821Y-74768857D01*
X246567496Y-74838630D01*
X246532864Y-74899313D01*
X246523014Y-74907848D01*
X246464400Y-74953469D01*
X246440257Y-74972261D01*
X246271836Y-75155215D01*
X246194673Y-75273322D01*
X246141526Y-75318678D01*
X246090864Y-75329500D01*
X244662230Y-75329500D01*
X244595191Y-75309815D01*
X244574549Y-75293181D01*
X242146819Y-72865451D01*
X242113334Y-72804128D01*
X242110500Y-72777770D01*
X242110500Y-47668362D01*
X244981500Y-47668362D01*
X244981500Y-47931637D01*
X244981501Y-47931653D01*
X245015865Y-48192678D01*
X245084009Y-48446995D01*
X245184761Y-48690234D01*
X245184769Y-48690250D01*
X245316409Y-48918256D01*
X245476687Y-49127136D01*
X245476693Y-49127143D01*
X245662856Y-49313306D01*
X245662863Y-49313312D01*
X245871743Y-49473590D01*
X246099749Y-49605230D01*
X246099765Y-49605238D01*
X246234262Y-49660948D01*
X246343003Y-49705990D01*
X246597320Y-49774134D01*
X246858356Y-49808500D01*
X246858363Y-49808500D01*
X247121637Y-49808500D01*
X247121644Y-49808500D01*
X247382680Y-49774134D01*
X247636997Y-49705990D01*
X247862127Y-49612738D01*
X247880234Y-49605238D01*
X247880237Y-49605236D01*
X247880243Y-49605234D01*
X248108257Y-49473590D01*
X248317138Y-49313311D01*
X248503311Y-49127138D01*
X248663590Y-48918257D01*
X248795234Y-48690243D01*
X248895990Y-48446997D01*
X248964134Y-48192680D01*
X248998500Y-47931644D01*
X248998500Y-47668356D01*
X248964134Y-47407320D01*
X248895990Y-47153003D01*
X248858068Y-47061451D01*
X248795238Y-46909765D01*
X248795230Y-46909749D01*
X248663590Y-46681743D01*
X248503312Y-46472863D01*
X248503306Y-46472856D01*
X248317143Y-46286693D01*
X248317136Y-46286687D01*
X248108256Y-46126409D01*
X247880250Y-45994769D01*
X247880234Y-45994761D01*
X247636995Y-45894009D01*
X247382678Y-45825865D01*
X247121653Y-45791501D01*
X247121650Y-45791500D01*
X247121644Y-45791500D01*
X246858356Y-45791500D01*
X246858350Y-45791500D01*
X246858346Y-45791501D01*
X246597321Y-45825865D01*
X246343004Y-45894009D01*
X246099765Y-45994761D01*
X246099749Y-45994769D01*
X245871743Y-46126409D01*
X245662863Y-46286687D01*
X245662856Y-46286693D01*
X245476693Y-46472856D01*
X245476687Y-46472863D01*
X245316409Y-46681743D01*
X245184769Y-46909749D01*
X245184761Y-46909765D01*
X245084009Y-47153004D01*
X245015865Y-47407321D01*
X244981501Y-47668346D01*
X244981500Y-47668362D01*
X242110500Y-47668362D01*
X242110500Y-45766079D01*
X242081659Y-45621092D01*
X242081658Y-45621091D01*
X242081658Y-45621087D01*
X242058218Y-45564498D01*
X242025087Y-45484511D01*
X242025080Y-45484498D01*
X241942952Y-45361585D01*
X241918416Y-45337049D01*
X241838416Y-45257049D01*
X239490593Y-42909225D01*
X239457108Y-42847902D01*
X239454871Y-42833697D01*
X239446024Y-42743871D01*
X239446024Y-42743870D01*
X239446024Y-42743868D01*
X239388814Y-42555273D01*
X239388811Y-42555269D01*
X239388811Y-42555266D01*
X239295913Y-42381467D01*
X239295909Y-42381460D01*
X239170883Y-42229116D01*
X239018539Y-42104090D01*
X239018532Y-42104086D01*
X238844733Y-42011188D01*
X238844727Y-42011186D01*
X238656132Y-41953976D01*
X238656129Y-41953975D01*
X238460000Y-41934659D01*
X238263870Y-41953975D01*
X238075266Y-42011188D01*
X237901467Y-42104086D01*
X237901460Y-42104090D01*
X237749116Y-42229116D01*
X237624090Y-42381460D01*
X237624086Y-42381467D01*
X237531188Y-42555266D01*
X237473975Y-42743870D01*
X237454659Y-42940000D01*
X224410500Y-42940000D01*
X224410500Y-36946976D01*
X224430185Y-36879937D01*
X224438632Y-36868329D01*
X224495910Y-36798538D01*
X224565138Y-36669022D01*
X224588811Y-36624733D01*
X224588811Y-36624732D01*
X224588814Y-36624727D01*
X224646024Y-36436132D01*
X224664356Y-36249998D01*
X225934838Y-36249998D01*
X225934838Y-36250001D01*
X225953450Y-36462741D01*
X225953452Y-36462752D01*
X226008721Y-36669022D01*
X226008723Y-36669026D01*
X226008724Y-36669030D01*
X226010556Y-36672958D01*
X226098977Y-36862578D01*
X226098978Y-36862580D01*
X226098979Y-36862581D01*
X226105230Y-36871509D01*
X226221472Y-37037521D01*
X226372478Y-37188527D01*
X226372481Y-37188529D01*
X226547419Y-37311021D01*
X226547421Y-37311022D01*
X226547420Y-37311022D01*
X226585539Y-37328797D01*
X226740970Y-37401276D01*
X226740983Y-37401279D01*
X226746064Y-37403130D01*
X226745292Y-37405250D01*
X226796710Y-37436594D01*
X226827237Y-37499442D01*
X226818939Y-37568817D01*
X226774452Y-37622693D01*
X226745685Y-37635830D01*
X226746064Y-37636870D01*
X226740972Y-37638723D01*
X226740970Y-37638724D01*
X226740968Y-37638725D01*
X226547421Y-37728977D01*
X226372478Y-37851472D01*
X226221472Y-38002478D01*
X226098977Y-38177421D01*
X226008725Y-38370968D01*
X226008721Y-38370977D01*
X225953452Y-38577247D01*
X225953450Y-38577258D01*
X225934838Y-38789998D01*
X225934838Y-38790001D01*
X225953450Y-39002741D01*
X225953452Y-39002752D01*
X226008721Y-39209022D01*
X226008723Y-39209026D01*
X226008724Y-39209030D01*
X226019985Y-39233179D01*
X226098977Y-39402578D01*
X226221472Y-39577521D01*
X226372478Y-39728527D01*
X226372481Y-39728529D01*
X226547419Y-39851021D01*
X226547421Y-39851022D01*
X226547420Y-39851022D01*
X226611936Y-39881106D01*
X226740970Y-39941276D01*
X226740983Y-39941279D01*
X226746064Y-39943130D01*
X226745292Y-39945250D01*
X226796710Y-39976594D01*
X226827237Y-40039442D01*
X226818939Y-40108817D01*
X226774452Y-40162693D01*
X226745685Y-40175830D01*
X226746064Y-40176870D01*
X226740972Y-40178723D01*
X226740970Y-40178724D01*
X226740968Y-40178725D01*
X226547421Y-40268977D01*
X226372478Y-40391472D01*
X226221472Y-40542478D01*
X226098977Y-40717421D01*
X226008725Y-40910968D01*
X226008721Y-40910977D01*
X225953452Y-41117247D01*
X225953450Y-41117258D01*
X225934838Y-41329998D01*
X225934838Y-41330001D01*
X225953450Y-41542741D01*
X225953452Y-41542752D01*
X226008721Y-41749022D01*
X226008723Y-41749026D01*
X226008724Y-41749030D01*
X226051171Y-41840058D01*
X226098977Y-41942578D01*
X226221472Y-42117521D01*
X226372478Y-42268527D01*
X226372481Y-42268529D01*
X226547419Y-42391021D01*
X226547421Y-42391022D01*
X226547420Y-42391022D01*
X226611936Y-42421106D01*
X226740970Y-42481276D01*
X226947253Y-42536549D01*
X227099215Y-42549844D01*
X227159998Y-42555162D01*
X227160000Y-42555162D01*
X227160002Y-42555162D01*
X227213186Y-42550508D01*
X227372747Y-42536549D01*
X227579030Y-42481276D01*
X227772581Y-42391021D01*
X227947519Y-42268529D01*
X228098529Y-42117519D01*
X228221021Y-41942581D01*
X228311276Y-41749030D01*
X228366549Y-41542747D01*
X228385162Y-41330000D01*
X228366549Y-41117253D01*
X228311276Y-40910970D01*
X228221021Y-40717419D01*
X228098529Y-40542481D01*
X228098527Y-40542478D01*
X227947521Y-40391472D01*
X227772578Y-40268977D01*
X227772579Y-40268977D01*
X227642865Y-40208491D01*
X227579030Y-40178724D01*
X227579023Y-40178722D01*
X227573936Y-40176870D01*
X227574709Y-40174746D01*
X227523305Y-40143424D01*
X227492766Y-40080581D01*
X227501050Y-40011204D01*
X227545528Y-39957320D01*
X227574315Y-39944172D01*
X227573936Y-39943130D01*
X227579013Y-39941280D01*
X227579030Y-39941276D01*
X227772581Y-39851021D01*
X227947519Y-39728529D01*
X228098529Y-39577519D01*
X228221021Y-39402581D01*
X228311276Y-39209030D01*
X228366549Y-39002747D01*
X228385162Y-38790000D01*
X228366549Y-38577253D01*
X228311276Y-38370970D01*
X228221021Y-38177419D01*
X228098529Y-38002481D01*
X228098527Y-38002478D01*
X227947521Y-37851472D01*
X227772578Y-37728977D01*
X227772579Y-37728977D01*
X227643547Y-37668809D01*
X227579030Y-37638724D01*
X227579023Y-37638722D01*
X227573936Y-37636870D01*
X227574709Y-37634746D01*
X227523305Y-37603424D01*
X227492766Y-37540581D01*
X227501050Y-37471204D01*
X227545528Y-37417320D01*
X227574315Y-37404172D01*
X227573936Y-37403130D01*
X227579013Y-37401280D01*
X227579030Y-37401276D01*
X227772581Y-37311021D01*
X227947519Y-37188529D01*
X228098529Y-37037519D01*
X228221021Y-36862581D01*
X228311276Y-36669030D01*
X228366549Y-36462747D01*
X228385162Y-36250000D01*
X228366549Y-36037253D01*
X228311276Y-35830970D01*
X228221021Y-35637419D01*
X228098529Y-35462481D01*
X228098527Y-35462478D01*
X227947521Y-35311472D01*
X227772578Y-35188977D01*
X227772579Y-35188977D01*
X227643547Y-35128809D01*
X227579030Y-35098724D01*
X227579026Y-35098723D01*
X227579022Y-35098721D01*
X227372752Y-35043452D01*
X227372748Y-35043451D01*
X227372747Y-35043451D01*
X227372746Y-35043450D01*
X227372741Y-35043450D01*
X227160002Y-35024838D01*
X227159998Y-35024838D01*
X226947258Y-35043450D01*
X226947247Y-35043452D01*
X226740977Y-35098721D01*
X226740968Y-35098725D01*
X226547421Y-35188977D01*
X226372478Y-35311472D01*
X226221472Y-35462478D01*
X226098977Y-35637421D01*
X226008725Y-35830968D01*
X226008721Y-35830977D01*
X225953452Y-36037247D01*
X225953450Y-36037258D01*
X225934838Y-36249998D01*
X224664356Y-36249998D01*
X224665341Y-36240000D01*
X224646024Y-36043868D01*
X224588814Y-35855273D01*
X224588811Y-35855269D01*
X224588811Y-35855266D01*
X224495913Y-35681467D01*
X224495909Y-35681460D01*
X224370883Y-35529116D01*
X224218539Y-35404090D01*
X224218532Y-35404086D01*
X224044733Y-35311188D01*
X224044727Y-35311186D01*
X223856132Y-35253976D01*
X223856129Y-35253975D01*
X223660000Y-35234659D01*
X223463870Y-35253975D01*
X223275266Y-35311188D01*
X223101467Y-35404086D01*
X223101460Y-35404090D01*
X222949116Y-35529116D01*
X222824090Y-35681460D01*
X222824086Y-35681467D01*
X222731188Y-35855266D01*
X222673975Y-36043870D01*
X222654659Y-36240000D01*
X222673975Y-36436129D01*
X222673976Y-36436132D01*
X222728545Y-36616022D01*
X222731188Y-36624733D01*
X222824084Y-36798529D01*
X222824087Y-36798533D01*
X222824090Y-36798538D01*
X222881354Y-36868314D01*
X222908666Y-36932620D01*
X222909500Y-36946976D01*
X222909500Y-43543918D01*
X222909500Y-43543920D01*
X222909499Y-43543920D01*
X222938340Y-43688907D01*
X222938343Y-43688917D01*
X222994912Y-43825488D01*
X222994920Y-43825503D01*
X223023860Y-43868813D01*
X223023862Y-43868816D01*
X223077043Y-43948410D01*
X223077047Y-43948415D01*
X225323181Y-46194548D01*
X225356666Y-46255871D01*
X225359500Y-46282229D01*
X225359500Y-54157770D01*
X225339815Y-54224809D01*
X225323181Y-54245451D01*
X224595451Y-54973181D01*
X224534128Y-55006666D01*
X224507770Y-55009500D01*
X223684499Y-55009500D01*
X223617460Y-54989815D01*
X223571705Y-54937011D01*
X223560499Y-54885500D01*
X223560499Y-54712129D01*
X223560498Y-54712123D01*
X223560497Y-54712116D01*
X223554091Y-54652517D01*
X223535867Y-54603657D01*
X223503797Y-54517671D01*
X223503793Y-54517664D01*
X223417547Y-54402455D01*
X223417544Y-54402452D01*
X223302335Y-54316206D01*
X223302328Y-54316202D01*
X223167482Y-54265908D01*
X223167483Y-54265908D01*
X223107883Y-54259501D01*
X223107881Y-54259500D01*
X223107873Y-54259500D01*
X223107864Y-54259500D01*
X221012129Y-54259500D01*
X221012123Y-54259501D01*
X220952516Y-54265908D01*
X220817671Y-54316202D01*
X220817664Y-54316206D01*
X220702455Y-54402452D01*
X220702452Y-54402455D01*
X220616206Y-54517664D01*
X220616202Y-54517671D01*
X220565908Y-54652517D01*
X220559501Y-54712116D01*
X220559501Y-54712123D01*
X220559500Y-54712135D01*
X220559500Y-54965500D01*
X220539815Y-55032539D01*
X220487011Y-55078294D01*
X220435500Y-55089500D01*
X219286080Y-55089500D01*
X219141092Y-55118340D01*
X219141082Y-55118343D01*
X219004511Y-55174912D01*
X219004498Y-55174919D01*
X218881584Y-55257048D01*
X218881580Y-55257051D01*
X209185451Y-64953181D01*
X209124128Y-64986666D01*
X209097770Y-64989500D01*
X196186080Y-64989500D01*
X196041092Y-65018340D01*
X196041086Y-65018342D01*
X195904508Y-65074914D01*
X195904496Y-65074921D01*
X195855269Y-65107813D01*
X195781588Y-65157044D01*
X195781580Y-65157050D01*
X192877050Y-68061580D01*
X192877044Y-68061588D01*
X192827812Y-68135268D01*
X192827813Y-68135269D01*
X192794921Y-68184496D01*
X192794914Y-68184508D01*
X192738342Y-68321086D01*
X192738340Y-68321092D01*
X192709500Y-68466079D01*
X192709500Y-86893215D01*
X192689815Y-86960254D01*
X192639303Y-87004935D01*
X192582278Y-87032397D01*
X192582268Y-87032402D01*
X192506012Y-87084392D01*
X192363015Y-87181886D01*
X192168494Y-87362375D01*
X192168492Y-87362377D01*
X192003042Y-87569845D01*
X191870361Y-87799654D01*
X191773416Y-88046667D01*
X191773410Y-88046686D01*
X191714364Y-88305385D01*
X191714363Y-88305390D01*
X191694535Y-88569995D01*
X177465465Y-88569995D01*
X177445636Y-88305390D01*
X177445635Y-88305385D01*
X177445635Y-88305381D01*
X177386586Y-88046673D01*
X177289639Y-87799655D01*
X177156958Y-87569845D01*
X176991508Y-87362377D01*
X176796984Y-87181886D01*
X176771897Y-87164782D01*
X176577736Y-87032404D01*
X176577725Y-87032397D01*
X176338655Y-86917268D01*
X176338636Y-86917261D01*
X176085083Y-86839051D01*
X176085073Y-86839048D01*
X175822688Y-86799500D01*
X175822681Y-86799500D01*
X175557319Y-86799500D01*
X175557311Y-86799500D01*
X175294926Y-86839048D01*
X175294916Y-86839051D01*
X175041363Y-86917261D01*
X175041344Y-86917268D01*
X174802276Y-87032397D01*
X174802274Y-87032398D01*
X174583015Y-87181886D01*
X174388494Y-87362375D01*
X174388492Y-87362377D01*
X174223042Y-87569845D01*
X174090361Y-87799654D01*
X173993416Y-88046667D01*
X173993410Y-88046686D01*
X173934364Y-88305385D01*
X173934363Y-88305390D01*
X173914535Y-88569995D01*
X173660500Y-88569995D01*
X173660500Y-83341808D01*
X174191500Y-83341808D01*
X174191500Y-83618191D01*
X174191501Y-83618208D01*
X174227576Y-83892227D01*
X174299116Y-84159216D01*
X174404881Y-84414557D01*
X174404886Y-84414567D01*
X174543085Y-84653933D01*
X174543087Y-84653936D01*
X174543091Y-84653942D01*
X174711342Y-84873212D01*
X174711348Y-84873219D01*
X174906780Y-85068651D01*
X174906787Y-85068657D01*
X175126057Y-85236908D01*
X175126061Y-85236910D01*
X175126067Y-85236915D01*
X175365433Y-85375114D01*
X175365438Y-85375116D01*
X175365442Y-85375118D01*
X175620783Y-85480883D01*
X175620785Y-85480883D01*
X175620791Y-85480886D01*
X175887769Y-85552423D01*
X176161802Y-85588500D01*
X176161809Y-85588500D01*
X176438191Y-85588500D01*
X176438198Y-85588500D01*
X176712231Y-85552423D01*
X176979209Y-85480886D01*
X177234567Y-85375114D01*
X177473933Y-85236915D01*
X177693214Y-85068656D01*
X177888656Y-84873214D01*
X178056915Y-84653933D01*
X178195114Y-84414567D01*
X178300886Y-84159209D01*
X178372423Y-83892231D01*
X178408500Y-83618198D01*
X178408500Y-83341802D01*
X178372423Y-83067769D01*
X178300886Y-82800791D01*
X178205469Y-82570433D01*
X178195118Y-82545442D01*
X178195113Y-82545432D01*
X178056915Y-82306067D01*
X178056910Y-82306061D01*
X178056908Y-82306057D01*
X177888657Y-82086787D01*
X177888651Y-82086780D01*
X177693219Y-81891348D01*
X177693212Y-81891342D01*
X177473942Y-81723091D01*
X177473936Y-81723087D01*
X177473933Y-81723085D01*
X177234567Y-81584886D01*
X177234557Y-81584881D01*
X176979216Y-81479116D01*
X176805531Y-81432577D01*
X176712231Y-81407577D01*
X176712230Y-81407576D01*
X176712227Y-81407576D01*
X176438208Y-81371501D01*
X176438203Y-81371500D01*
X176438198Y-81371500D01*
X176161802Y-81371500D01*
X176161796Y-81371500D01*
X176161791Y-81371501D01*
X175887772Y-81407576D01*
X175620783Y-81479116D01*
X175365442Y-81584881D01*
X175365432Y-81584886D01*
X175126067Y-81723085D01*
X175126057Y-81723091D01*
X174906787Y-81891342D01*
X174906780Y-81891348D01*
X174711348Y-82086780D01*
X174711342Y-82086787D01*
X174543091Y-82306057D01*
X174543085Y-82306067D01*
X174404886Y-82545432D01*
X174404881Y-82545442D01*
X174299116Y-82800783D01*
X174227576Y-83067772D01*
X174191501Y-83341791D01*
X174191500Y-83341808D01*
X173660500Y-83341808D01*
X173660500Y-52861808D01*
X190711500Y-52861808D01*
X190711500Y-53138191D01*
X190711501Y-53138208D01*
X190747576Y-53412227D01*
X190819116Y-53679216D01*
X190924881Y-53934557D01*
X190924886Y-53934567D01*
X191063085Y-54173933D01*
X191063087Y-54173936D01*
X191063091Y-54173942D01*
X191231342Y-54393212D01*
X191231348Y-54393219D01*
X191426780Y-54588651D01*
X191426787Y-54588657D01*
X191646057Y-54756908D01*
X191646061Y-54756910D01*
X191646067Y-54756915D01*
X191885433Y-54895114D01*
X191885438Y-54895116D01*
X191885442Y-54895118D01*
X192140783Y-55000883D01*
X192140785Y-55000883D01*
X192140791Y-55000886D01*
X192407769Y-55072423D01*
X192681802Y-55108500D01*
X192681809Y-55108500D01*
X192958191Y-55108500D01*
X192958198Y-55108500D01*
X193232231Y-55072423D01*
X193499209Y-55000886D01*
X193754567Y-54895114D01*
X193993933Y-54756915D01*
X194213214Y-54588656D01*
X194408656Y-54393214D01*
X194576915Y-54173933D01*
X194715114Y-53934567D01*
X194820886Y-53679209D01*
X194892423Y-53412231D01*
X194928500Y-53138198D01*
X194928500Y-52876808D01*
X213116500Y-52876808D01*
X213116500Y-53153191D01*
X213116501Y-53153208D01*
X213152576Y-53427227D01*
X213224116Y-53694216D01*
X213329881Y-53949557D01*
X213329886Y-53949567D01*
X213468085Y-54188933D01*
X213468087Y-54188936D01*
X213468091Y-54188942D01*
X213636342Y-54408212D01*
X213636348Y-54408219D01*
X213831780Y-54603651D01*
X213831787Y-54603657D01*
X214051057Y-54771908D01*
X214051061Y-54771910D01*
X214051067Y-54771915D01*
X214290433Y-54910114D01*
X214290438Y-54910116D01*
X214290442Y-54910118D01*
X214545783Y-55015883D01*
X214545785Y-55015883D01*
X214545791Y-55015886D01*
X214812769Y-55087423D01*
X215086802Y-55123500D01*
X215086809Y-55123500D01*
X215363191Y-55123500D01*
X215363198Y-55123500D01*
X215637231Y-55087423D01*
X215904209Y-55015886D01*
X216159567Y-54910114D01*
X216398933Y-54771915D01*
X216618214Y-54603656D01*
X216813656Y-54408214D01*
X216981915Y-54188933D01*
X217120114Y-53949567D01*
X217225886Y-53694209D01*
X217297423Y-53427231D01*
X217333500Y-53153198D01*
X217333500Y-52876802D01*
X217297423Y-52602769D01*
X217225886Y-52335791D01*
X217120114Y-52080433D01*
X216981915Y-51841067D01*
X216981910Y-51841061D01*
X216981908Y-51841057D01*
X216813657Y-51621787D01*
X216813651Y-51621780D01*
X216618219Y-51426348D01*
X216618212Y-51426342D01*
X216398942Y-51258091D01*
X216398936Y-51258087D01*
X216398933Y-51258085D01*
X216159567Y-51119886D01*
X216159557Y-51119881D01*
X215904216Y-51014116D01*
X215848228Y-50999114D01*
X215637231Y-50942577D01*
X215637230Y-50942576D01*
X215637227Y-50942576D01*
X215363208Y-50906501D01*
X215363203Y-50906500D01*
X215363198Y-50906500D01*
X215086802Y-50906500D01*
X215086796Y-50906500D01*
X215086791Y-50906501D01*
X214812772Y-50942576D01*
X214545783Y-51014116D01*
X214290442Y-51119881D01*
X214290432Y-51119886D01*
X214051067Y-51258085D01*
X214051057Y-51258091D01*
X213831787Y-51426342D01*
X213831780Y-51426348D01*
X213636348Y-51621780D01*
X213636342Y-51621787D01*
X213468091Y-51841057D01*
X213468085Y-51841067D01*
X213329886Y-52080432D01*
X213329881Y-52080442D01*
X213224116Y-52335783D01*
X213152576Y-52602772D01*
X213116501Y-52876791D01*
X213116500Y-52876808D01*
X194928500Y-52876808D01*
X194928500Y-52861802D01*
X194892423Y-52587769D01*
X194820886Y-52320791D01*
X194715114Y-52065433D01*
X194576915Y-51826067D01*
X194576910Y-51826061D01*
X194576908Y-51826057D01*
X194408657Y-51606787D01*
X194408651Y-51606780D01*
X194213219Y-51411348D01*
X194213212Y-51411342D01*
X193993942Y-51243091D01*
X193993936Y-51243087D01*
X193993933Y-51243085D01*
X193754567Y-51104886D01*
X193754557Y-51104881D01*
X193499216Y-50999116D01*
X193288207Y-50942576D01*
X193232231Y-50927577D01*
X193232230Y-50927576D01*
X193232227Y-50927576D01*
X192958208Y-50891501D01*
X192958203Y-50891500D01*
X192958198Y-50891500D01*
X192681802Y-50891500D01*
X192681796Y-50891500D01*
X192681791Y-50891501D01*
X192407772Y-50927576D01*
X192140783Y-50999116D01*
X191885442Y-51104881D01*
X191885432Y-51104886D01*
X191646067Y-51243085D01*
X191646057Y-51243091D01*
X191426787Y-51411342D01*
X191426780Y-51411348D01*
X191231348Y-51606780D01*
X191231342Y-51606787D01*
X191063091Y-51826057D01*
X191063085Y-51826067D01*
X190924886Y-52065432D01*
X190924881Y-52065442D01*
X190819116Y-52320783D01*
X190747576Y-52587772D01*
X190711501Y-52861791D01*
X190711500Y-52861808D01*
X173660500Y-52861808D01*
X173660500Y-47929995D01*
X173914535Y-47929995D01*
X173914535Y-47930004D01*
X173934363Y-48194609D01*
X173934364Y-48194614D01*
X173993410Y-48453313D01*
X173993412Y-48453322D01*
X173993414Y-48453327D01*
X174090361Y-48700345D01*
X174223042Y-48930155D01*
X174388492Y-49137623D01*
X174583016Y-49318114D01*
X174802268Y-49467598D01*
X174802273Y-49467600D01*
X174802274Y-49467601D01*
X174802276Y-49467602D01*
X174864570Y-49497601D01*
X175041350Y-49582734D01*
X175294922Y-49660950D01*
X175294923Y-49660950D01*
X175294926Y-49660951D01*
X175557311Y-49700499D01*
X175557316Y-49700499D01*
X175557319Y-49700500D01*
X175557320Y-49700500D01*
X175822680Y-49700500D01*
X175822681Y-49700500D01*
X175822688Y-49700499D01*
X176085073Y-49660951D01*
X176085074Y-49660950D01*
X176085078Y-49660950D01*
X176338650Y-49582734D01*
X176530071Y-49490550D01*
X176577725Y-49467602D01*
X176577725Y-49467601D01*
X176577733Y-49467598D01*
X176796984Y-49318114D01*
X176991508Y-49137623D01*
X177156958Y-48930155D01*
X177289639Y-48700345D01*
X177386586Y-48453327D01*
X177445635Y-48194619D01*
X177445636Y-48194609D01*
X177465465Y-47930004D01*
X177465465Y-47929995D01*
X177445636Y-47665390D01*
X177445635Y-47665385D01*
X177445635Y-47665381D01*
X177386586Y-47406673D01*
X177289639Y-47159655D01*
X177156958Y-46929845D01*
X176991508Y-46722377D01*
X176872695Y-46612135D01*
X191699500Y-46612135D01*
X191699500Y-49247870D01*
X191699501Y-49247876D01*
X191705908Y-49307483D01*
X191756202Y-49442328D01*
X191756206Y-49442335D01*
X191842452Y-49557544D01*
X191842455Y-49557547D01*
X191957664Y-49643793D01*
X191957671Y-49643797D01*
X192092517Y-49694091D01*
X192092516Y-49694091D01*
X192099444Y-49694835D01*
X192152127Y-49700500D01*
X194787872Y-49700499D01*
X194847483Y-49694091D01*
X194982331Y-49643796D01*
X195097546Y-49557546D01*
X195183796Y-49442331D01*
X195234091Y-49307483D01*
X195240500Y-49247873D01*
X195240500Y-47959995D01*
X196324535Y-47959995D01*
X196324535Y-47960004D01*
X196344363Y-48224609D01*
X196344364Y-48224614D01*
X196403410Y-48483313D01*
X196403412Y-48483322D01*
X196403414Y-48483327D01*
X196500361Y-48730345D01*
X196633042Y-48960155D01*
X196798492Y-49167623D01*
X196993016Y-49348114D01*
X197212268Y-49497598D01*
X197451350Y-49612734D01*
X197704922Y-49690950D01*
X197704923Y-49690950D01*
X197704926Y-49690951D01*
X197967311Y-49730499D01*
X197967316Y-49730499D01*
X197967319Y-49730500D01*
X197967320Y-49730500D01*
X198232680Y-49730500D01*
X198232681Y-49730500D01*
X198232688Y-49730499D01*
X198495073Y-49690951D01*
X198495074Y-49690950D01*
X198495078Y-49690950D01*
X198748650Y-49612734D01*
X198987733Y-49497598D01*
X199206984Y-49348114D01*
X199401508Y-49167623D01*
X199566958Y-48960155D01*
X199699639Y-48730345D01*
X199796586Y-48483327D01*
X199855635Y-48224619D01*
X199857884Y-48194609D01*
X199875465Y-47960004D01*
X199875465Y-47959995D01*
X199855636Y-47695390D01*
X199855635Y-47695385D01*
X199855635Y-47695381D01*
X199796586Y-47436673D01*
X199699639Y-47189655D01*
X199566958Y-46959845D01*
X199401508Y-46752377D01*
X199282695Y-46642135D01*
X214109500Y-46642135D01*
X214109500Y-49277870D01*
X214109501Y-49277876D01*
X214115908Y-49337483D01*
X214166202Y-49472328D01*
X214166206Y-49472335D01*
X214252452Y-49587544D01*
X214252455Y-49587547D01*
X214367664Y-49673793D01*
X214367671Y-49673797D01*
X214502517Y-49724091D01*
X214502516Y-49724091D01*
X214509444Y-49724835D01*
X214562127Y-49730500D01*
X217197872Y-49730499D01*
X217257483Y-49724091D01*
X217392331Y-49673796D01*
X217507546Y-49587546D01*
X217593796Y-49472331D01*
X217644091Y-49337483D01*
X217650500Y-49277873D01*
X217650499Y-47668362D01*
X220471500Y-47668362D01*
X220471500Y-47931637D01*
X220471501Y-47931653D01*
X220505865Y-48192678D01*
X220574009Y-48446995D01*
X220674761Y-48690234D01*
X220674769Y-48690250D01*
X220806409Y-48918256D01*
X220966687Y-49127136D01*
X220966693Y-49127143D01*
X221152856Y-49313306D01*
X221152863Y-49313312D01*
X221361743Y-49473590D01*
X221589749Y-49605230D01*
X221589765Y-49605238D01*
X221724262Y-49660948D01*
X221833003Y-49705990D01*
X222087320Y-49774134D01*
X222348356Y-49808500D01*
X222348363Y-49808500D01*
X222611637Y-49808500D01*
X222611644Y-49808500D01*
X222872680Y-49774134D01*
X223126997Y-49705990D01*
X223352127Y-49612738D01*
X223370234Y-49605238D01*
X223370237Y-49605236D01*
X223370243Y-49605234D01*
X223598257Y-49473590D01*
X223807138Y-49313311D01*
X223993311Y-49127138D01*
X224153590Y-48918257D01*
X224285234Y-48690243D01*
X224385990Y-48446997D01*
X224454134Y-48192680D01*
X224488500Y-47931644D01*
X224488500Y-47668356D01*
X224454134Y-47407320D01*
X224385990Y-47153003D01*
X224348068Y-47061451D01*
X224285238Y-46909765D01*
X224285230Y-46909749D01*
X224153590Y-46681743D01*
X223993312Y-46472863D01*
X223993306Y-46472856D01*
X223807143Y-46286693D01*
X223807136Y-46286687D01*
X223598256Y-46126409D01*
X223370250Y-45994769D01*
X223370234Y-45994761D01*
X223126995Y-45894009D01*
X222872678Y-45825865D01*
X222611653Y-45791501D01*
X222611650Y-45791500D01*
X222611644Y-45791500D01*
X222348356Y-45791500D01*
X222348350Y-45791500D01*
X222348346Y-45791501D01*
X222087321Y-45825865D01*
X221833004Y-45894009D01*
X221589765Y-45994761D01*
X221589749Y-45994769D01*
X221361743Y-46126409D01*
X221152863Y-46286687D01*
X221152856Y-46286693D01*
X220966693Y-46472856D01*
X220966687Y-46472863D01*
X220806409Y-46681743D01*
X220674769Y-46909749D01*
X220674761Y-46909765D01*
X220574009Y-47153004D01*
X220505865Y-47407321D01*
X220471501Y-47668346D01*
X220471500Y-47668362D01*
X217650499Y-47668362D01*
X217650499Y-46642128D01*
X217644091Y-46582517D01*
X217632901Y-46552516D01*
X217593797Y-46447671D01*
X217593793Y-46447664D01*
X217507547Y-46332455D01*
X217507544Y-46332452D01*
X217392335Y-46246206D01*
X217392328Y-46246202D01*
X217257482Y-46195908D01*
X217257483Y-46195908D01*
X217197883Y-46189501D01*
X217197881Y-46189500D01*
X217197873Y-46189500D01*
X217197864Y-46189500D01*
X214562129Y-46189500D01*
X214562123Y-46189501D01*
X214502516Y-46195908D01*
X214367671Y-46246202D01*
X214367664Y-46246206D01*
X214252455Y-46332452D01*
X214252452Y-46332455D01*
X214166206Y-46447664D01*
X214166202Y-46447671D01*
X214115908Y-46582517D01*
X214109501Y-46642116D01*
X214109501Y-46642123D01*
X214109500Y-46642135D01*
X199282695Y-46642135D01*
X199206984Y-46571886D01*
X199162982Y-46541886D01*
X198987736Y-46422404D01*
X198987725Y-46422397D01*
X198748655Y-46307268D01*
X198748636Y-46307261D01*
X198495083Y-46229051D01*
X198495073Y-46229048D01*
X198232688Y-46189500D01*
X198232681Y-46189500D01*
X197967319Y-46189500D01*
X197967311Y-46189500D01*
X197704926Y-46229048D01*
X197704916Y-46229051D01*
X197451363Y-46307261D01*
X197451344Y-46307268D01*
X197212276Y-46422397D01*
X197212274Y-46422398D01*
X196993015Y-46571886D01*
X196798494Y-46752375D01*
X196798492Y-46752377D01*
X196633042Y-46959845D01*
X196500361Y-47189654D01*
X196403416Y-47436667D01*
X196403410Y-47436686D01*
X196344364Y-47695385D01*
X196344363Y-47695390D01*
X196324535Y-47959995D01*
X195240500Y-47959995D01*
X195240499Y-46612128D01*
X195234091Y-46552517D01*
X195204379Y-46472856D01*
X195183797Y-46417671D01*
X195183793Y-46417664D01*
X195097547Y-46302455D01*
X195097544Y-46302452D01*
X194982335Y-46216206D01*
X194982328Y-46216202D01*
X194847482Y-46165908D01*
X194847483Y-46165908D01*
X194787883Y-46159501D01*
X194787881Y-46159500D01*
X194787873Y-46159500D01*
X194787864Y-46159500D01*
X192152129Y-46159500D01*
X192152123Y-46159501D01*
X192092516Y-46165908D01*
X191957671Y-46216202D01*
X191957664Y-46216206D01*
X191842455Y-46302452D01*
X191842452Y-46302455D01*
X191756206Y-46417664D01*
X191756202Y-46417671D01*
X191705908Y-46552517D01*
X191699501Y-46612116D01*
X191699501Y-46612123D01*
X191699500Y-46612135D01*
X176872695Y-46612135D01*
X176796984Y-46541886D01*
X176695736Y-46472856D01*
X176577736Y-46392404D01*
X176577725Y-46392397D01*
X176338655Y-46277268D01*
X176338636Y-46277261D01*
X176085083Y-46199051D01*
X176085073Y-46199048D01*
X175822688Y-46159500D01*
X175822681Y-46159500D01*
X175557319Y-46159500D01*
X175557311Y-46159500D01*
X175294926Y-46199048D01*
X175294916Y-46199051D01*
X175041363Y-46277261D01*
X175041344Y-46277268D01*
X174802276Y-46392397D01*
X174802274Y-46392398D01*
X174583015Y-46541886D01*
X174388494Y-46722375D01*
X174388492Y-46722377D01*
X174223042Y-46929845D01*
X174090361Y-47159654D01*
X173993416Y-47406667D01*
X173993410Y-47406686D01*
X173934364Y-47665385D01*
X173934363Y-47665390D01*
X173914535Y-47929995D01*
X173660500Y-47929995D01*
X173660500Y-42615581D01*
X173680185Y-42548542D01*
X173732989Y-42502787D01*
X173802147Y-42492843D01*
X173865703Y-42521868D01*
X173870301Y-42526059D01*
X174023014Y-42672423D01*
X174386573Y-42965975D01*
X174773698Y-43227626D01*
X174773717Y-43227638D01*
X175181636Y-43455516D01*
X175181658Y-43455527D01*
X175607434Y-43647990D01*
X175607440Y-43647992D01*
X176048026Y-43803661D01*
X176500220Y-43921402D01*
X176960768Y-44000371D01*
X176960776Y-44000372D01*
X177426344Y-44039999D01*
X177426364Y-44040000D01*
X177893636Y-44040000D01*
X177893655Y-44039999D01*
X178359223Y-44000372D01*
X178359231Y-44000371D01*
X178819779Y-43921402D01*
X179271973Y-43803661D01*
X179712559Y-43647992D01*
X179712565Y-43647990D01*
X180138341Y-43455527D01*
X180138363Y-43455516D01*
X180546282Y-43227638D01*
X180546301Y-43227626D01*
X180933433Y-42965971D01*
X180933434Y-42965970D01*
X181296976Y-42672430D01*
X181296992Y-42672416D01*
X181369432Y-42602986D01*
X179242257Y-40475811D01*
X179328491Y-40407042D01*
X179527042Y-40208491D01*
X179595811Y-40122257D01*
X181722490Y-42248936D01*
X181943047Y-41998335D01*
X181943061Y-41998318D01*
X182220908Y-41622643D01*
X182465906Y-41224743D01*
X182465916Y-41224723D01*
X182676276Y-40807500D01*
X182676280Y-40807489D01*
X182850497Y-40373936D01*
X182850502Y-40373923D01*
X182987328Y-39927137D01*
X182987330Y-39927129D01*
X183085775Y-39470344D01*
X183145129Y-39006840D01*
X183164960Y-38540006D01*
X183164960Y-38539993D01*
X183145129Y-38073159D01*
X183085775Y-37609655D01*
X182987330Y-37152870D01*
X182987328Y-37152862D01*
X182850502Y-36706076D01*
X182850497Y-36706063D01*
X182676280Y-36272510D01*
X182676276Y-36272499D01*
X182465916Y-35855276D01*
X182465906Y-35855256D01*
X182220908Y-35457356D01*
X181943052Y-35081669D01*
X181943046Y-35081661D01*
X181647998Y-34746424D01*
X181618483Y-34683094D01*
X181627892Y-34613861D01*
X181673238Y-34560705D01*
X181740123Y-34540504D01*
X181741081Y-34540500D01*
X192962692Y-34540500D01*
X193029731Y-34560185D01*
G37*
%TD.AperFunction*%
%TD*%
M02*
